<?xml version="1.0" encoding="utf-8"?>
<!-- Generator: Adobe Adobe Illustrator 24.2.0, SVG Export Plug-In . SVG Version: 6.00 Build 0)  -->
<svg version="1.1" id="Layer_2" xmlns="http://www.w3.org/2000/svg" xmlns:xlink="http://www.w3.org/1999/xlink" x="0px" y="0px"
	 width="1270px" height="1296px" viewBox="0 0 1270 1296" style="enable-background:new 0 0 1270 1296;" xml:space="preserve">
<style type="text/css">
	.st0{fill:#352570;}
	.st1{fill:#3F2C6F;}
	.st2{fill:#312267;}
	.st3{fill:#582890;}
	.st4{fill:#E791B1;}
	.st5{fill:#7236A1;}
	.st6{fill:#57278F;}
	.st7{fill:#7134A0;}
	.st8{fill:#9762BE;}
	.st9{fill:#E18EAD;}
	.st10{fill:#9E5ECC;}
	.st11{fill:#CC799B;}
	.st12{fill:#DE82A2;}
	.st13{fill:#512B99;}
	.st14{fill:#7438A3;}
	.st15{fill:#F4E0E4;}
	.st16{fill-opacity:0;}
</style>
<g id="Layer_4">
</g>
<g>
	<path class="st0" d="M1142.89,726.2c20.81,11.2,38.02,25.23,53,43c1.68,2.77,3.31,4.38,5.38,6.74c4.01,1.99,4.49,5.51,6.86,8.78
		c1.93,1.93,1.84,3.81,3.46,5.7c1.69,1.6,2.65,2.71,3.64,4.57c4.1,8.56,1.13,13.46-8.47,16.27c-8.47-0.18-11.73-5.35-15.33-10.01
		c-8.44-10.95-16.82-21.93-28.72-31.58c-42.3-36.05-89.25-58.64-148.18-56.5c-17.1-0.4-32.86,0.76-49.74,3.09
		c-2.73,0.3-4.26,0.5-6.87,1.03c-5.29,1.55-9.45,2.95-14.76,4.36c-2.41,0.83-3.75,1.38-6.04,2.56
		c-45.79,17.56-81.22,45.51-105.36,84.41c-32.64,52.6-44.44,108.35-20.9,168.61c27.08,76.87,85.89,118.38,166.57,134.3
		c63.33,12.49,120.07-4.25,171.78-41.25c11.39-2.62,22.88-3.21,25.72-17.01c1.85-9.15,6.26-15.37,15.7-19.24
		c6.97-0.85,12.05,0.31,16.69,5.52c-4.32,11.84-13.23,19.72-21.21,28.25c-2.9,3.1-7.46,5.41-5.82,11.76
		c2.85,3.92,6.26,6.8,4.33,10.97c-2.42,5.22-7.56,3.37-13.03,3.1c-4.53-0.04-7.94,0.19-12.12,1.69c-2.09,0.93-3.23,1.57-5.12,2.89
		c-7.08,5.77-15.24,10.04-10.92,21.06c7.09,12.81,7.36,26.21,10.36,38.85c2.54,10.69-1.75,21.05-11.11,30.02
		c-9.37,5.58-15.18-0.69-22.72-4.28c-2.19-1.22-3.44-1.92-5.64-3.05c-1.58-0.75-2.2-1.05-3.76-1.8c-6.17-1.88-10.22-9.26-17.65-2.55
		c-1.22,1.13-1.74,1.57-3.08,2.58c-1.41,0.93-1.99,1.29-3.45,2.16c-1.46,0.87-2.04,1.22-3.49,2.11c-3.9,2.45-6.6,4.4-4.95,8.54
		c4.89,12.31-2.46,15.17-14.53,15.06c-2.42-0.17-3.78-0.42-6.05-1.08c-3.2-1.39-5.3-2.82-8.96-2.73c-2.96,0.27-4.95,0.23-7.97-0.04
		c-12.56-1.88-17.57,5.14-20.99,13.48c-1.96,4.79-1.79,10.44-8.18,14.06c-2.27,0.99-3.66,1.31-6.15,1.4
		c-3.83-0.45-6.43-1.43-10.05-2.58c-1.59-0.63-2.22-0.92-3.72-1.74c-8.06-4.97-14.18-2.65-20.82,2.69
		c-1.55,0.92-2.21,1.25-3.93,1.91c-6.27,1.39-11.5,1.26-17.83,0.34c-5.2-1.42-8.89-3.55-13.76-5.54c-3.37-1.41-5.84-2.3-9.51-2.65
		c-2.3-0.24-3.6-0.45-5.85-0.94c-2.21-0.58-3.46-0.93-5.66-1.47c-2.87-0.55-4.78-0.96-7.68-1.57c-3.56-0.86-6.14-1.57-9.6-0.15
		c-2.01,2.02-2.72,3.66-2.56,6.42c0.61,2.05,1.17,3.15,2.45,4.98c1.41,1.91,2.11,3.09,3.17,5.31c1.11,3.85,2.72,6.39,3.56,9.17
		c0.86,2.84,1.27,5.86-2.08,7.66c-3.1,1.67-6.02,0.56-8.51-1.34c-5.25-4.01-9.48-8.72-12.17-14.71c-3.6-8-10.13-11.26-19.61-10.98
		c-13.38,0.4-26.8,0.45-41.4-0.33c-5.39-1.53-9.32-1.09-13.16,0.97c-22.76,12.2-47.53,19.73-72.68,25.77
		c-31.69,7.61-63.96,12.3-96.53,15.93c-36.79,4.1-73.56,3.76-110.4,4.25c-25.49,0.34-51.07,0.4-76.32-2.12
		c-22.62-2.26-45.45-3.34-67.9-7.77c-13.14-2.59-26.78-3.1-39.84-6.56c-4.24-1.12-8.11-0.43-11.85,1.91
		c-19.39,12.13-40.92,18.44-63.88,21.77c-21.62,3.14-43.09,4.13-64.97,3.19c-17.23-0.74-34.09-3.01-50.92-5.84
		c-34.29-5.78-65.84-17.67-93.17-38.34c-22.32-16.88-36.02-38.72-41.44-65.03c-5.27-25.58-4.36-51.27-0.78-76.96
		c1.34-9.64,1.96-19.32,3.39-28.98c3.42-23.13,8.21-45.96,14.12-68.6c8.51-32.59,18.57-64.74,32.72-95.66
		c18.35-40.09,41.06-77.66,72.37-110.28c22.76-23.72,49.09-43.41,77.99-60.13c9.27-5.36,18.75-10.42,29.22-15.82
		c11.37,1.09,11.53,8.96,10.54,15.26c-3.6,22.82-1.46,45.71-2.07,68.55c-0.21,7.95-1.06,15.5-6.69,21.99
		c-2.68,3.09-4.53,7.22-3.76,10.89c3.89,18.38-6.79,36.18-2.05,55.67c-2.3,33.83,7.4,64.65,17.21,95.31
		c8.48,26.5,15.99,53.23,24.22,79.78c1.07,3.45-0.82,9.67,7.75,8.58c12.7-7.01,19.74-16.68,21.98-29.21
		c1.48-8.27,4.35-15.91,9.2-22.93c5.62-8.13,7.99-16.74,4.11-27.25c-0.41-1.73-0.53-2.44-0.65-4.24c0.12-1.81,0.25-2.53,0.75-4.3
		c2.02-4.64,5.42-7.34,6.76-10.97c6.84-18.54,13.96-36.23,34.46-46.58c9.03-4.56,10.74-16.08,14.75-24.99
		c2.18-4.83,1.78-13.5,10.9-10.82c8.08,2.37,4.99,9.37,3.75,14.98c-0.21,0.95-0.4,1.9-0.78,3.95c-15.57,20.5-10.45,41.03-4.9,62.05
		c10.99,41.63,17.23,83.89,15.97,126.92c-0.75,25.82-5.99,51.04-12.39,78c10.48-2.15,17.14-8.1,25.51-13.16
		c74.14-54.99,137.07-118.45,192.24-190.18c6.18-8.73,0.84-13.81-4.93-18.22c-37.56-28.76-69.67-62.46-100.94-96.95
		c-9.6-10.59-24.71-14.15-35.24-23.77c-3.46-3.16-6.77,0.01-8.33,3.47c-4.68,10.33-10.28,20.11-17.12,29.39
		c-4.56,6.19,1.21,10.88,4.9,15.44c20.1,24.83,42.14,48.09,65.58,71.63c4.16,4.44,8.35,7.34,11.99,10.74
		c4.18,3.91,11.11,8.33,5.01,14.32c-4.87,4.78-10.71,0.71-14.94-2.97c-12.84-11.18-27.53-20.49-38.61-33.45
		c-2.26-2.65-4.96-4.92-8.62-7.74c-12.76-10.84-22.18-23.02-32.06-34.81c-5.13-6.13-9.81-7.79-16.37-1.44
		c-5.32,5.14-11.1,10.58-20.94,6.93c-5.96-11.42-0.57-18.61,8.53-24.05c5.75-3.44,9.4-7.19,8.33-14.11
		c-0.7-4.56,0.69-9.08,5.54-11.17c14.19-6.11,19.05-18.64,24.69-30.66c8.35-17.77,13-19.86,30.45-10.78c13.43,7,26.97,9.26,42,6.6
		c12.1-2.13,23.99-2.2,31.94,9.26c3.12,4.5,5.75,1.84,8.59-0.81c8.85-8.27,11.9-17.92,8.5-29.23c-6.59-21.92,7.79-37.89,18.21-54.75
		c2.89-4.68,8.44-10.33,15.3-7.65c7.69,3,3.76,10.06,3.18,15.55c-0.46,4.35-1.78,8.6-2.41,12.95c-0.57,3.93-0.44,7.81,1.32,11.47
		c5.06,10.5,35.23,23.52,47.56,20.88c20.86-4.47,40.1-13.23,59.9-20.32c10.01-3.58,18.59-4.38,28.46-1.62
		c35.13,9.84,59.07-6.79,59.67-41.72c0.14-8.33,5.03-17.55-3.49-24.97c-1.6-1.39-3.37-2.2-6.59-2.76
		c-15.24-5.8-27.73-14.36-42.86-20.35c-17.43-12.74-32.85-1.78-49.51,1.97c-2.14,1.24-3.46,1.8-5.88,2.53
		c-1.76,0.46-2.47,0.63-4.26,1.06c-1.8,0.46-2.53,0.66-4.36,1.15c-1.88,0.46-2.64,0.62-4.59,0.91c-4.86,0.27-8.44-0.3-11.91-1.31
		c-4.93-1.43-10.51-2.42-11.16-8.53c-0.61-5.69,3.64-8.69,8.09-11.43c1.74-1.07,0.31,0.76,1.26-0.77
		c15.72-25.39,49.4-17.59,70.38-33.56c11.9-9.06,26.27-10.86,42.34-6.44c1.87,0.56,2.59,0.83,4.28,1.67
		c7.66,10.17,14.52,19.56,29.66,20.11c1.62,0.74,2.21,1.12,3.41,2.36c2.19,11.79,10.17,19.23,17.88,27.95
		c1.15,1.29,1.52,1.87,2.3,3.4c5.3,17.14,4.58,33.65,4.36,50.24c2.28-0.7,3.41-1.88,5.23-3.65c1.14-1.02,1.61-1.42,3.45-3.11
		c2.21-2.25,3.01-3.24,4.37-5.07c1.03-1.36,1.46-1.9,2.62-3.23c3.81-4.67,4.85-9.77,8.45-13.23c6.06-5.8,12.61-10.78,19.82-0.32
		c-0.24,1.08-0.02,1.89-0.36,2.15c-1.38,1.04-2.02,2.04-2.39,4.16c-1.33,6.54,1.98,6.9,6.86,5.01c1.2-1.53,2.04-2.21,3.71-3.05
		c2.11-1.35,3.91-1.31,5.95-2.49c0.5-0.63,1.15-1.43,1.68-1.49c1.78,0.44,2.94,0.34,4.53-1.23c0.51-0.76,1.23-1.58,1.79-1.65
		c1.78,0.4,2.9,0.24,4.43-1.25c2.86-1.8,5.2-2.88,8.53-4.12c2.82-0.56,4.7-0.79,6.92-2.14c2.88-1.71,5.33-2.63,8.78-3.67
		c2.76-0.61,4.6-0.84,6.86-2.04c0.48-0.73,0.69-0.9,0.83-0.88c3.51-1.09,7.1-1.43,11.55-2.64c2.49-0.73,3.93-1.28,6.53-1.98
		c1.72,0.02,2.28,0.18,3.2-0.39c5.84-3.28,11.89-1.43,18.77-2.61c2.21-0.14,3.19-0.31,4.92-0.5c0.74-0.08,2.21-0.26,3.62-0.68
		c2.83-0.67,4.24-0.92,6.69-0.8c15.71,6.42,31.51,2.12,46.74,4.79c20.25,3.56,40.18,7.31,58.86,15.77
		c5.58,2.53,11.75,3.48,19.11,4.47c2.96,0.65,4.7,1.15,6.96,2.36c2.9,2.61,5.65,3.92,9.22,5.62c0.71,0.56,0.8,0.51,0.8,0.56
		C1140.57,724.6,1141.36,725.26,1142.89,726.2z"/>
	<path class="st0" d="M767.3,74.37c2.6,0.61,4.29,1.15,6.56,2.35c1.36,1.42,2.19,2.12,3.89,2.98c2.33,0.71,3.85,1.19,5.79,2.33
		c1.43,2.26,3.15,2.66,5.54,3.6c5.31,1.89,8.96,4.71,13,8.46c2.27,2.55,4.15,4.19,7.15,5.92c9.51,4.6,14.51,12.38,21.41,19.51
		c0.63,1.93,1.23,2.82,2.72,4.07c1.77,0.74,2.55,1.34,3.24,2.99c1.59,2.1,2.56,3.8,4.8,5.74c0.72,0.67,1.81,1.51,1.9,2.16
		c0.48,1.61,1.03,2.48,2.32,3.79c0.59,0.52,1.3,0.89,1.28,1.26c0.35,2.95,2.29,4.67,4.42,7.34c0.61,0.71,1.56,1.45,1.57,2.02
		c6.14,13.76,7.22,28.71,16.85,41.77c1.32,2.53,1.88,4.24,2.26,6.84c4.51,10.16,0.82,20.28,3.72,30.9c0.53,1.12,1.7,2.06,1.82,2.77
		c0.51,1.29,0.89,1.86,1.89,3.27c2,2.6,3.38,4.37,4.86,6.96c4.08,11.93,12.03,21.41,15.33,33.91c1,2.24,1.8,3.47,2.61,5.79
		c1.43,6.39-2.53,12.2,2.45,17.9c2.61,9.51,1.4,18.43,1.24,28.62c-0.02,7.95-0.69,14.52-2.71,22.19c-0.22,3.07-0.16,4.93-0.6,7.6
		c-2.83,4.46-3.89,8.59-5.63,13.49c0.6,1.98,0.56,2.9-0.56,4.32c-2.87,3.68-3.56,7.49-5.69,11.75c-0.42,0.86-0.55,0.63-0.42,0.63
		c-1.82,1.01-1.92,2.9-2.81,5.45c-0.42,0.82-0.45,2.21-0.94,2.72c-0.84,1.09-1.2,1.66-2.09,3.07c-1.19,2.26-1.84,3.67-3.13,5.59
		c-1.63,1.27-2.47,2.15-3.28,4.05c-0.49,1.98-0.86,3.07-1.98,4.68c-4.66,10.3-9.46,10.08-15.29,1.79
		c-4.85-6.88-7.63-14.62-11.66-22.85c-1.57-1.65-2.41-2.62-3.64-4.41c-0.65-1.31-0.82-1.85-1.03-3.21c0.18-1.82,0.42-2.81,0.52-4.46
		c-0.2-0.68-0.9-1.93-1.31-2.53c-1.06-1.36-1.75-2.09-3.08-3.32c-1.76-1.73-2.53-3.14-3.28-5.45c-0.5-1.83-0.83-2.86-1.63-4.58
		c-0.8-1.13-1.17-1.56-2.18-2.57c-1.11-0.97-1.57-1.36-2.7-2.38c-1.46-1.59-2.11-2.62-2.97-4.59c-1.07-4.79-3.04-7.52-8.77-7.67
		c-5.1-0.65-8.87-2-13.06-4.77c-1.73-1.33-2.69-2.1-4.43-3.3c-2.82-1.55-4.95-2.53-7.69-4.15c-1.65-1.08-2.6-1.69-4.31-2.66
		c-1.27-0.63-1.78-0.87-3.07-1.49c-1.81-0.89-2.83-1.41-4.63-2.33c-1.28-0.69-1.78-0.98-3.02-1.72c-2.22-1.37-3.79-1.97-6.53-1.58
		c-2.15,0.26-3.4,0.3-5.61,0.09c-2.19-0.49-3.4-0.91-5.5-1.71c-1.52-0.55-2.14-0.77-3.69-1.28c-3.57-1.02-6.26-1.33-10.11-1.2
		c-9.5,0.29-17.83-1.19-25.81-2.85c-46.09-9.59-85.74,9.41-125.84,24.91c-47.56,18.37-94.2,38.74-138.87,62.86
		c-17.64,9.53-33.6,21.2-49.9,32.48c-8.11,5.61-10.04,13.17-9.34,23.05c-0.11,14.86,1.84,28.79-6.1,42.55
		c-4.77,3.93-9.49,4.33-13.97,2.8c-12.07-4.13-17.1,3.19-21.28,11.33c-1.74,3.4-2.07,7.4-4.35,10.77
		c-7.61,11.23-13.46,12.46-25.14,4.78c-3.39-2.23-6.6-4.65-11.72-6.16c-4.83-2.08-8.53-4.02-11.49-6.71
		c-20.77-18.92-58.53-9.99-68.35,22.46c-8.34,27.54-2.01,53.85,11.41,80.14c0.76,1.75,1.05,2.46,1.79,4.25
		c0.73,1.81,1.01,2.55,1.67,4.41c2.25,8.13,5.28,15.1-0.13,22.99c-14.36-7.92-21.95-20.74-28.57-33.97
		c-6.18-12.33-10.01-25.42-11.53-39.09c-1.14-10.23-4.18-19.62-12.18-27.57c-13.45-13.38-21.45-29.87-26.66-47.35
		c-3.51-11.77-2.79-24.11-2.45-36.28c0.04-1.45,0.43-2.89,0.63-4.34c1.74-12.25,0.48-23.58-6.17-34.99
		c-9.75-16.74-14.5-35.34-17.62-54.2c-0.24-1.44-0.66-2.89-0.65-4.33c0.21-21.4-1.99-42.85,2.07-64.15
		c7.32-38.33,22.34-73.81,44.91-106.43c30.65-44.3,70.01-80.59,115.94-111.03c35.42-23.47,73.08-42.89,113.39-57.78
		c27.56-10.17,56.12-17.01,85.1-22.88c29.83-6.04,59.81-6.01,89.82-4.86c16.99,0.65,33.94,4.15,50.31,8.69
		c27.54,7.63,53.81,18.06,76.62,34.96c6.11,4.52,12.27,8.99,19.27,14.11c3.77,2.17,6.87,3.29,10.92,4.62
		c3.2,0.85,5.41,1.57,8.19,2.93C763.2,72.77,764.57,73.85,767.3,74.37z"/>
	<path class="st1" d="M1167.08,1091.02c2.54-1.08,5.09-1.31,7.54-0.94c8.5,1.29,8.48,1.37,5.92-8.43
		c17.25,9.92,26.55,25.94,31.03,44.33c4.92,20.2,4.33,40.49-2.76,60.37c-2.13,5.98-3.55,12.27-6.49,17.88
		c-10.95,20.91-27.94,35.97-51.57,43.81c-6.63,2.2-11.82,5.72-16.49,10.44c-10.53,10.65-23.68,17.12-38.57,20.76
		c-8.69,2.12-17.56,1.93-26.3,1.21c-6.97-0.57-13.2,0.2-19.6,2.87c-6.11,2.54-12.66,4.28-19.16,5.84
		c-17.97,4.32-35.13,0.55-51.18-6.69c-7.87-3.55-15.4-4.97-23.82-4.75c-25.8,0.68-47.28-8.8-65.88-24.94
		c-6.2-5.38-10.59-11.95-14.38-18.9c-2.4-4.4-6.04-6.1-11.31-6.07c-14.53,0.09-29.06-0.16-44.65-0.91c1.38-2.93,4.51-2.86,7.63-2.86
		c11.9,0,23.82,0.4,35.69-0.12c10.3-0.46,17.1,3.83,20.46,12.27c1.93,4.85,5.18,8.25,8.82,11.65c4.38,4.09,7.92,5.4,8.81,3.41
		c1.56-3.49-2.06-5.03-3.12-7.53c-0.75-1.76-1.02-3.7-1.53-6.59c5.46-3.59,8.45,0.71,11.99,3.03c4.63,3.03,9,6.42,14,8.93
		c5.44,2.73,11.44,6.52,17.34,4.79c8.85-2.59,1.88-9.91,3.14-14.97c0.69-2.79,0.65-5.73,3.53-8.64c7.18-0.38,13.39-0.3,20.93-0.08
		c2.43,8.17,1.57,16.77,9.49,23.77c15.42,12.89,32.36,15.78,52.57,11.65c-4.84-6.78-10.59-11.67-15.05-18.63
		c-3.03-5.06-5.61-9.23-5.94-15.14c3.48-5.08,6.86-8.58,7.1-14.58c0.4-9.69,9.99-17.59,20.86-18.98c0.82-0.1,1.78,0.74,3.29,2
		c0.64,1.33,0.88,1.96,0.64,2.26c-15.47,19.36-14.95,23.14,6.7,42.65c14.39,12.9,30.2,16.35,48.07,10.92
		c4.74-1.44,11.18-2.29,11.54-8.15c0.32-5.27-6.09-5.79-10.74-8.65c-14.75-9.06-25.72-20.21-35.14-33.94
		c3.89-1.39,7.92-1.63,11.91-2.14c3.42-0.44,5.19-3.24,4.15-6.15c-0.16-0.45-0.3-0.91-0.52-1.33c-1.47-2.8-5.42-4.93-3.33-8.72
		c1.89-3.45,4.74-6.09,10.34-6.42c-0.45,21.37,15.71,30.99,32.59,41.26c19.74,10.94,34.84,9.25,49.36-5.56
		c8.41-8.58,15.65-18.03,19.21-30.64c11.83-32.03,12.64-61.52-13.49-87.25C1168.9,1096.68,1167.71,1094.52,1167.08,1091.02z"/>
	<path class="st2" d="M314.65,525.86c5.26-1.27,9.51-0.22,13.07,3.29c2.48,2.44,5.32,4.64,8.31,6.5c1.71,1.07,4.19,0.96,5.73-0.64
		c3.12-3.24,6.03-6.66,8.94-10.07c1.74-2.03,2.38-4.56,1.26-6.85c-2.29-4.68-1.13-7.21,4.35-8.41c3.9-0.85,5-4.64,7.23-7.26
		c3.42-4.02,6.17-4.77,10.42-1.35c3.6,2.89,7.26,3.33,12.67,3.47c5.35,12.45-1.4,22.2-8.59,32.75c-6.89,2.7-13.69,3.1-13.56,12.02
		c0.12,7.94-7.63,5.01-12.47,5.3c-0.57,6.41,4.18,8.8,9.05,12.39c1.2,1.38,1.55,2.04,1.65,3.8
		c-43.12,53.51-78.26,109.86-98.39,173.55c-6.21,19.65-5.53,40.36-7.32,60.65c-2.56,29-5.02,58-14.09,87.15
		c-1.5,1.35-2.21,1.78-4.17,2.1c-1.36-3.5-1.59-6.89-1.52-10.28c0.09-4.93-0.22-9.58-3.96-13.64c-1.92-2.08-1.5-4.76,1.62-5.81
		c4.09-1.37,5.55-3.97,5.4-7.76c-0.21-5.29,0.95-10.72-1.51-15.79c-3.24-6.69-1.09-13.01,3.66-17.47
		c6.62-6.22,7.54-13.17,7.35-21.19c-0.35-15.01-0.14-30.04-0.07-45.06c0.04-7.22-0.44-14.4,2.35-21.51
		c2.27-5.79,0.22-11.45-4.55-17.09c0.56-3.29,2.05-5.92,4.3-9.06c1.22-0.88,1.68-1.24,1.91-2.4c0.26-2.41,0.74-4,1.86-6.21
		c1.5-1.5,2.26-2.46,2.91-4.38c0.54-8.25,6.19-13.56,8.83-20.09c1.82-4.52,0.09-7.2-4.76-9.89c-1.15-1.87-1.92-2.74-3.81-3.62
		c-4.86-0.55-6.59-3.69-9.41-6.66c1.78-8.67-1.16-16.15-2.67-25.01c10.26-1.8,13.78,7.07,20.33,11.64c5.87,4.1,11.11,7.69,15.54-2.6
		c6.22-8.44,5.03-15.67,1.28-23.88c-7.71-16.89-4.96-30.62,7.75-40.69c2.82-0.49,4.41-0.27,6.94,0.97c3.33,2.89,4.4,5.62,4.49,9.76
		c-0.54,5.52-2.4,9.76-2.55,15.1c0.15,1.78,0.43,2.71,1.74,3.69c6.23-3.05,7.81-7.89,7.05-14.53c-0.77-5.53-4.37-8.27-8.23-11.95
		c-1.19-1.12-1.66-1.57-2.72-2.82c-0.94-2.05-1.04-3.32-0.58-5.51c0.93-1.98,2.74-2.05,3.02-2.73c0.73-1.78,0.66,0.27-2.32-0.41
		c-8.15-2.58-12.01-9.11-19.25-13.01c-1.97-1.01-3.13-1.52-5.25-2.15c-2.21-0.39-3.49-0.54-5.79-0.69
		c-3.09-0.17-5.12-0.53-8.01-1.73c-1.34-1.09-1.75-1.65-2.26-3.25c0.19-2.4,0.65-3.72,1.85-5.9c3.37-4.56,6.97-6.73,13.01-5.97
		c4.85,1.96,7.48,7.26,14.01,3.45c11.87-0.61,16.25,7.77,22.93,14.57c1.4,2.37,1.98,4.06,3.09,6.43c0.72,1.16,1.04,1.61,1.94,2.64
		c1.01,0.95,1.43,1.31,2.52,2.21c1.49,1.3,2.25,2.13,3.38,3.69c1.12,1.51,1.91,2.21,3.71,2.72c7.26-4.38,2.85-9.45,1.79-14.25
		C323.82,545.8,315.85,537.44,314.65,525.86z"/>
	<path class="st1" d="M848.57,388.46c4.94,0.67,6.82,3.7,7.1,7.86c0.58,8.45,8.17,13.84,10.92,21.4c0.45,1.24,2.65,0.61,3.84-0.46
		c1.09-0.97,2.15-1.96,4.07-3.26c0.88,19.13,1.49,38.59,0.78,58c-0.58,15.78,2.03,30.78,7.64,45.57
		c7.45,19.65,13.13,39.92,16.23,60.44c3.98,26.34,6.24,52.8,2.17,79.71c-2.86,18.92-7.56,36.94-15.97,55.22
		c-7.02-4.27-10.6-4.71-15.2-1.05c-2.84,2.26-4.43,5.11-5.49,8.48c-1.14,3.61-2.26,7.55-7.96,9.1c-5.38-6.57-0.93-12.16,2.01-17.57
		c12.76-23.49,17.23-48.18,17.83-74.58c1.03-45.3-4.84-89.21-20.48-132.04c-3.55-9.72-5.5-19.82-4.91-30.14
		C852.76,446.49,848.97,418.04,848.57,388.46z"/>
	<path class="st1" d="M1201.51,809.66c11.45-2.03,11.45-2.03,13.61-12.73c4.63,1.73,6.44,6.43,8.8,10.66
		c16.26,29.22,24.84,60.11,26.56,93.25c2.64,50.77-10.92,96.76-41.81,139.29c-5.8-1.46-10.74-3.91-17.89-3.41
		c-5.12-9.73,4.95-14.42,8.08-22.82c16.82-32.41,25.2-65.67,27.3-101.56c-2.38-33.7-8.95-65.27-25.05-95.86
		C1200.29,813.79,1200.32,812.21,1201.51,809.66z"/>
	<path class="st1" d="M1123.46,714.64c-6.85,5.5-14.5,4.05-21.27,0.08c-8.1-4.74-17.01-6.43-25.8-9.17
		c-9.44-2.94-18.76-4.1-28.28-5.83c-11.44-2.07-22.68-1.93-34.05-2.26c-3.63-0.1-7.27-0.13-10.87-0.48
		c-2.44-0.24-3.09-2.3-3.87-5.27c12.58-3.01,25.35-2.17,39.4-0.79c2.57,0.71,3.85,0.82,6.05,1.19c10.08,0.18,19.21,0.23,28.75,4.02
		c2.11,0.88,3.36,1.25,5.53,1.93c4.92,0.19,8.77,0.67,13.14,3.45c3.1,1.51,5.13,2.6,8.08,3.55
		C1108.82,707,1115.86,710.33,1123.46,714.64z"/>
	<path class="st1" d="M870.58,190.32c-10.65-0.85-10.89-0.98-11.75-9.05c-0.36-3.35,0.62-7.18-1.88-9.84
		c-5.45-5.81-4.43-12.61-4.17-20.66C862.78,161.14,866.84,175.11,870.58,190.32z"/>
	<path class="st1" d="M899.97,275.29c-6.85-8.89-13.94-18.64-15.75-31.85C892.67,251.59,897.12,262.62,899.97,275.29z"/>
	<path class="st1" d="M876.08,228.21c-3.43,0.48-4.82-1.84-4.79-5.11c0.06-7.28,0.13-14.57,0.37-23.29
		c3.36,0.81,3.59,4.08,3.68,7.42C875.51,213.79,875.72,220.36,876.08,228.21z"/>
	<path class="st1" d="M905.56,298.53c-1.19,1.1-2.19,1.11-3.19,1.03c-3.36-0.3-5.84-1.29-4.71-5.21c1.04-3.58,1.98-7.19,3.78-11.47
		C904.48,287.04,905.31,292.18,905.56,298.53z"/>
	<path class="st1" d="M903.72,350.2c-1.05-6.01-2.43-12.87,0.95-20.45C907.84,335.86,905.99,342.61,903.72,350.2z"/>
	<path class="st3" d="M888.08,723.22c0.64,2.5-1.56,3.62-3.85,4.62c-1.8,0.78-3.86,1.81-5.34-0.16c-0.75-1-0.97-2.62-0.79-3.89
		c0.18-1.33,1.12-2.57,2.18-4.75c0.87-1.27,1.28-1.64,2.29-1.42C883.32,720.63,881.03,724.64,888.08,723.22z"/>
	<path class="st1" d="M897.87,371.19c-1.87-3.88-2.26-8.37,3.21-12.41C900.96,362.28,899.83,366.36,897.87,371.19z"/>
	<path class="st1" d="M891.17,387.27c-1.52-3.7-1.25-7.69,3.81-11.03C894.62,379.4,893.32,383.06,891.17,387.27z"/>
	<path class="st3" d="M954.56,696.85c-1.4,4.63-5.71,3.42-10.56,3.28C946.04,697.37,950.14,697.84,954.56,696.85z"/>
	<path class="st1" d="M753.52,67.34c-3.01,0.92-6.95,2.29-10.04-2.38C746.38,64.84,749.63,65.71,753.52,67.34z"/>
	<path class="st1" d="M1139.27,723.07c-3,0.66-6.81,1.33-8.72-3.72C1133.16,719.69,1135.98,720.99,1139.27,723.07z"/>
	<path class="st3" d="M990.4,693.85c-2.31,0.27-3.83-0.02-5.8-0.91c1.87-1.34,4.19-2.09,7.39-2.56c0.88,0.28,0.91,0.97,0.74,1.28
		C992.11,692.42,991.65,692.86,990.4,693.85z"/>
	<path class="st3" d="M1079.41,697.86c-1.47,2.94-3.18,2.24-4.88-0.58C1075.88,696.88,1077.36,697.1,1079.41,697.86z"/>
	<path class="st1" d="M809.64,99.51c-2.63,1.05-5.53,0.88-6.94-3.54C804.73,96.2,806.93,97.45,809.64,99.51z"/>
	<path class="st3" d="M1100.5,704.46c-2,1.49-4.56,1.82-7.01-1.39C1095.36,702.78,1097.6,703.33,1100.5,704.46z"/>
	<path class="st1" d="M851.86,146.65c-3.3,0.43-5.36-1.18-5.09-5.68C848.52,141.84,850.15,143.78,851.86,146.65z"/>
	<path class="st1" d="M1201.6,775.76c-2.73,0.47-4.96-0.64-5.31-4.7C1199.04,770.71,1199.98,773.03,1201.6,775.76z"/>
	<path class="st3" d="M1045.11,691.89c-0.94,2.77-2.69,2.69-4.84,0.26C1041.51,691.55,1043.01,691.5,1045.11,691.89z"/>
	<path class="st1" d="M767.66,73.73c-2.29,3.89-4.24,3.15-5.64-1.33C763.66,72.04,765.39,72.53,767.66,73.73z"/>
	<path class="st1" d="M841.98,132.19c-2.48,0.48-4.4-0.61-5.07-4.07C838.49,128.64,840.17,130.02,841.98,132.19z"/>
	<path class="st1" d="M1212.18,790.05c-1.81,0.33-3.04-0.84-3.64-3.56C1209.63,786.81,1210.83,788.01,1212.18,790.05z"/>
	<path class="st1" d="M887.9,393.32c-0.94-1.42-0.78-3.3,1.65-5.29C889.88,389.32,889.3,391.05,887.9,393.32z"/>
	<path class="st3" d="M925.88,705.66c0.23,2.02-1.27,3.01-4.44,2.99C921.95,707.53,923.45,706.57,925.88,705.66z"/>
	<path class="st3" d="M898.14,717.73c0.21,1.69-1.09,2.68-3.85,3C894.68,719.71,895.97,718.72,898.14,717.73z"/>
	<path class="st3" d="M941.59,699.97c0.17,1.99-1.35,2.92-4.45,2.88C937.67,701.76,939.16,700.82,941.59,699.97z"/>
	<path class="st1" d="M789.34,85.42c-1.31,0.16-2.98-0.48-5.01-1.93C785.64,83.33,787.31,83.97,789.34,85.42z"/>
	<path class="st0" d="M258.3,663.59c0.68-0.31,1.79,0.15,3.3,1.41C260.91,665.31,259.82,664.84,258.3,663.59z"/>
	<path class="st1" d="M778.14,79.16c-0.65,0.37-1.71-0.02-3.24-1.1C775.54,77.72,776.64,78.06,778.14,79.16z"/>
	<path class="st1" d="M880.06,234.51c-0.99,0.36-1.68-0.31-2.24-1.93C878.47,232.5,879.27,233.12,880.06,234.51z"/>
	<path class="st1" d="M833.9,123.22c-0.75,0.16-1.65-0.52-2.75-2C831.87,121.06,832.81,121.72,833.9,123.22z"/>
	<path class="st1" d="M846.13,137.97c-0.74,0.12-1.56-0.58-2.56-2.06C844.29,135.8,845.17,136.47,846.13,137.97z"/>
	<path class="st1" d="M1143.27,725.78c-0.65,0.32-1.63-0.11-3.02-1.21C1140.87,724.27,1141.91,724.65,1143.27,725.78z"/>
	<path class="st3" d="M904.35,714.88c-0.01,0.73-0.9,1.46-2.71,2.06C901.64,716.17,902.55,715.52,904.35,714.88z"/>
	<path class="st1" d="M883.63,717.47c-0.48,0.74-1.69,0.63-2.3,0.65c0-0.81,0.6-1.65,1.95-2.8
		C884.06,715.58,884.08,716.15,883.63,717.47z"/>
	<path class="st3" d="M910.59,712.01c0,0.74-0.86,1.46-2.62,2.05C907.96,713.28,908.84,712.63,910.59,712.01z"/>
	<path class="st0" d="M253.06,706.99c0.79-0.03,1.18,0.53,1.41,1.14c0.05,0.13-0.5,0.45-1.32,0.82
		C252.59,708.58,252.59,708.09,253.06,706.99z"/>
	<path class="st1" d="M884.64,399.34c-0.73-0.64-0.41-1.49,0.85-2.65C885.83,397.19,885.59,398.1,884.64,399.34z"/>
	<path class="st1" d="M878.81,408.88c-0.46-0.64-0.07-1.77,1.11-3.42C880.36,406.09,880.01,407.25,878.81,408.88z"/>
	<path class="st3" d="M963.78,694.09c0.78,1.19,0.56,2.11-1.35,1.45C962.11,695.13,963.04,694.04,963.78,694.09z"/>
	<path class="st0" d="M257.73,696.29c0.5,0.59,0.23,1.75-0.76,3.51C256.49,699.21,256.72,698.03,257.73,696.29z"/>
	<path class="st4" d="M848.77,387.04c1.87,6.56,3,12.76,4.39,18.91c4.89,21.63,3.06,43.55,2.94,65.36
		c-0.08,13.3,1.98,26.05,6.51,38.58c8.49,23.48,13.98,47.63,17.61,72.15c0.71,4.8,0.96,9.68,1,14.53c0.13,17.5-0.3,35.01,0.19,52.49
		c0.56,19.94-5.16,38.4-13.7,56.29c-3.6,7.53-7.8,14.8-11.93,23.22c-0.19,1.03-0.18,1.09-0.21,1.09c-1.44,1.25-1.53,3.04-2.89,5.11
		c-0.73,0.51-0.46,0.57-0.47,0.44c-0.34,0.81-0.93,1.57-2.3,2.68c-2.25,2.3-3.98,4.07-6.23,6.62c-9.34-1.24-5.38-7.83-4.93-12.14
		c1.39-13.42-0.11-26.45-4.14-40.51c-0.48-1.12-0.38-2.21-0.68-2.67c-7.49-8.98-12.3-18.79-18.06-29.24
		c-0.46-0.92-0.49-0.53-0.4-0.71c-10.34-5.92-20.36-12.26-30.87-19.66c-0.73-0.73-0.81-0.6-0.74-0.64
		c-12.9-3.66-7.06-11.09-3.63-18.86c1.3-2.74,2.17-4.55,2.85-7.46c0.48-2.26,0.79-3.55,1.42-5.81c5.92-11.72,3.71-21.91-2.85-32.66
		c-8.43-10.13-18.12-17.08-29.4-22.43c-8.76-4.16-16.92-9.35-23.75-17.61c-11.83-18.76-6.76-38.68-8.41-58.19
		c-12.53,27.61-9.02,53.09,10.19,70.32c5.06,3.03,9.69,4.68,14.87,7.44c4.07,2.8,6.55,5.86,10.8,8.43c1.44,0.83,2.01,1.17,3.44,2.05
		c1.97,1.35,3.06,2.19,4.93,3.76c4.06,3.72,7.37,6.72,9.73,11.79c1.62,7.43,1.9,13.73-1.11,21c-24.41,14.96-50.51,14.87-76.75,11.23
		c-11.08-1.54-22.07-4.78-33.5-9.63c-4.22-1.44-5.7-7.18-11.23-2.81c-5.64,4.98-7.71,10.51-8.7,17.56
		c-0.92,3.43-1.81,5.86-1.35,9.42c13.05,21.05,12.33,20.07-9.64,34.15c-27.65,17.73-52.49,38.44-63.78,70.82
		c-0.92,2.28-1.48,3.57-2.43,5.85c-4.68,14.63-7.09,28.51-6.52,43.85c0.48,4.01,0.51,6.94,0.03,10.97
		c-0.46,1.78-0.72,2.48-1.62,4.08c-8.09,4.98-13.5,0.12-19-3.09c-21.55-12.58-42.15-26.19-59.57-43.88
		c-9.75-9.9-19.12-20.43-32.57-28.24c-8.6-6.43-15.01-13.36-21.2-21.86c-10.7-21.14-26.98-38.1-36.16-60.05
		c-1.8-6.7,1.6-11.29,3.64-16.19c3.8-9.11,5.67-18.49,6.22-28.32c1.04-18.54-8.44-30.27-26.67-38.23c-1.96-1.88-2.73-3.18-3.47-5.73
		c-0.38-2.6-0.31-4.1,0.28-6.65c1.23-3.18,2.86-4.74,5.8-6.52c7.17-9.73,10.2-20.13,13.09-31.72c4.18-9.59,5.58-18.61,6.11-27.77
		c0.28-4.84,0.26-9.69,0.67-15.82c11.41-16.42,29.13-23.4,45.3-31.61c68.76-34.92,140.54-63.95,216.15-82.36
		c48.05-11.7,97.78-12.25,144.14,10.59c15.1,7.44,31.64,12.64,45.09,24.97C846.83,385.28,847.47,385.98,848.77,387.04z"/>
	<path class="st4" d="M240.51,894.47c1.37-15.03,5.28-28.65,7.56-42.56c1.97-12.01,2.55-24.1,4.23-36.09
		c2.48-17.75,2.51-35.8,4.41-53.64c2.01-18.93,6.8-37.44,15.39-54.67c11.18-22.42,23.39-44.4,35.59-66.36
		c4.53-8.15,10.25-15.73,15.48-23.54c7.44-11.1,15.09-22.08,22.32-33.3c3.9-6.04,8.83-10.72,16.43-14.28
		c13.82-3.58,24.41,4.54,25.68,18.6c0.81,8.94-1.66,17.52-4.8,25.76c-9.27,24.32-19.36,48.34-30.93,71.8
		c-3.27,6.63-8.66,10.7-15.68,13.42c-7.49,2.9-15.14,5.63-23.83,11.52c17.41-2.7,31.42-8.13,46.28-10.22
		c16.69-2.35,32.94-1.91,49.22,3.39c21.65,7.04,31.11,23.24,37.98,41.64c1.73,4.62,1.76,9.96-3.04,13.43
		c-4.33,3.13-8.82,0.97-13.23-0.7c-31.45-11.91-50.03-13.58-80.65-6.84c19.7-0.74,39.04,1.26,57.94,6.32
		c31.98,8.57,51.37,51.03,35.98,78.71c-1.68,3.02-3.23,6.86-7.34,6.82c-5.55-0.04-7.95-4.53-9.19-8.71
		c-6.31-21.14-23.03-28.7-44.79-30.15c19.92,6.64,34.97,17.8,39,38.12c3.43,17.28-0.59,32.91-15.2,44.9
		c-8.6,7.05-13.54,5.1-15.62-5.54c-0.93-4.73,0.39-9.79-3.26-15.78c-6.36,32.25-12.07,63.71-46.57,81.47
		c-1.85,1.74-2.69,2.88-3.69,5.17c-0.53,12.05-3.23,22.56-8.36,33.56c-0.94,0.79-1.59,1.3-1.57,1.7c0.27,1.78,0.32,3.16,0.43,5.59
		c0.13,5.68-1.87,9.32-7.35,11.92c-8.91-0.91-11.75-7.1-15.13-12.34C283.08,960.88,261.2,928.6,240.51,894.47z"/>
	<path class="st3" d="M83.69,1018.63c0.4,3.25-0.11,5.81-2.25,7.34c-7.46,5.32-9.96,13.35-13.46,20.85
		c-0.99,2.12-2.98,4.74,0.23,6.17c2.7,1.2,4.89-1.26,6.38-3.13c3.4-4.27,6.3-8.88,9.68-13.16c2.45-3.1,5.26-5.96,8.09-8.77
		c1.47-1.46,3.62-2.38,5.54-1.1c1.77,1.18,2.09,3.4,1.58,5.3c-1.14,4.22-2.39,8.44-3.94,12.54c-5.11,13.5-6.02,27.38-4.59,41.5
		c0.04,0.35,0.74,0.64,2.03,0.65c9.41,1.82,7.42,8.64,7.59,13.94c0.34,10.73,0.85,21.35,2.76,31.99
		c8.91,49.69,48.88,73.04,100.47,58.08c18.63-5.4,34.73-15.23,49.6-26.87c4.71-3.69,8.5-8.81,16.7-7.99
		c1.19,14.7,2.14,28.88,1.31,42.96c-1.3,21.88-7.89,41.97-26.22,57.32c-4.53,3.79-8.96,6.07-15.21,5.97
		c-17.69-0.28-35.39-0.05-53.08-0.19c-3.59-0.03-7.26-0.46-10.76-1.23c-16.06-3.57-32.63-5.92-47.97-11.32
		c-28.59-10.07-54.38-24.53-70.56-50.26c-6.71-10.66-10.28-22.25-10.3-34.68c-0.03-22.91-0.82-45.86,0.32-68.72
		c0.79-15.89,3.41-31.83,6.74-47.46c4.25-19.94,8.53-39.9,14.41-59.54c4.48-14.96,9.35-29.74,15.24-44.28
		c7.9-19.47,16.68-38.58,25.61-57.64c9.59-20.45,21.66-39.53,35.71-57.62c7.09-9.14,15.48-16.99,23.75-25.04
		c4.67-4.54,9.29-9.07,13.48-14.1c4.36-5.25,10.56-9.18,16.12-13.51c13.5-10.53,26.75-21.43,43.27-27.85
		c2.43-0.95,4.56,0.23,4.7,2.21c0.34,4.82,1.03,9.98-0.39,14.47c-1.98,6.27-2,12.47-2.07,18.77c-0.06,5.36-0.45,10.76,0.04,16.08
		c1.26,13.75-2.93,27.01-4.07,40.54c-0.44,5.18-2.7,10.38-2.21,15.77c0.58,6.34-1.5,11.44-6.78,15.49
		c-2.41,1.85-4.56,3.98-7.79,6.47c-7.49-11.49-12.69-24.21-25.25-32.41c-12.63-8.25-17.36-8.02-27.58,2.63
		c-32.19,33.53-46.26,75.28-60.19,117.01c-5.4,16.18-9.14,32.83-15.38,49.85c-0.71,0.85-0.8,0.72-0.72,0.73
		C83.92,1016.88,83.51,1017.37,83.69,1018.63z"/>
	<path class="st5" d="M271.22,1155.3c-5.88,1.66-8.9,5.94-12.59,9.24c-6.3,5.65-11.74,12.17-20.92,14.41
		c-3.31,0.81-6.14,3.49-9.1,5.43c-13.04,8.58-27.51,13.06-43.45,13.37c-2.07,0.04-4.45-0.41-6.15,0.38
		c-9.39,4.37-18.61,0.5-27.09-1.64c-9.74-2.47-19.41-6.81-26.61-14.32c-2.07-2.16-4.51-4.03-6.55-6.21
		c-7.86-8.43-14.61-17.17-16.8-28.82c-2.51-13.31-5.78-26.42-5.43-40.07c0.16-6.24,1.09-12.6-1.83-19.67
		c0.51-4.56,2.04-8.18,3.21-11.89c10.33-32.91,26.84-62.86,48.76-90.29c6.21-7.76,12.58-15.48,17.92-23.75
		c6.25-9.69,13.82-18.22,22.66-25.75c5.46-4.65,9.01-10.64,13.88-15.66c2.44-2.51,5.17-4.79,7.93-6.99c2.33-1.86,5.32-1,6.04,1.71
		c1.24,4.7,2.5,9.41,3.34,14.18c3.36,19.1,7.39,38.07,12.48,56.82c3.18,11.73,6.7,23.41,10.58,34.95
		c8.09,24.06,14.47,48.54,19.6,73.25C265.25,1113.88,270.54,1133.66,271.22,1155.3z"/>
	<path class="st2" d="M327.86,986.96c-0.36-3.6-0.25-7.91,1.04-11.88c2.53-7.76,3.08-15.64,3.21-24.94c0.19-1.31,0.45-2.59,1-2.99
		c1.83-1.24,2.99-2.31,4.4-2.88c21.64-8.71,31.13-26.33,37.56-45.79c3.98-12.03,7.23-24.35,6.84-37.18
		c-0.06-2.08,1.02-4.22,3.08-4.58c2.09-0.36,3.47,1.61,4.46,3.35c3,5.23,4.86,10.68,4.67,16.74c-0.12,3.87,0.13,7.78,0.66,11.61
		c0.18,1.3,2.01,2.47,3.6,1.62c2.2-1.17,4.31-2.62,6.14-4.27c24.96-22.47,14.92-64.76-15.67-73.42c-3.47-0.98-6.92-2.17-10.15-3.69
		c-2.86-1.34-8.6-0.93-7.13-5.61c1.23-3.92,6.29-2.35,9.73-2.39c8.42-0.11,16.54,1.77,24.14,4.96
		c10.79,4.53,19.24,11.34,22.74,22.57c1.55,4.97,3.85,9.73,6.07,15.23c8.34-11.75,11.67-25.58,9.27-37.97
		c-0.92-4.77-2.19-9.54-3.96-14.08c-5.87-15.1-16.24-25.57-33.75-29.27c-13.68-2.89-27.2-6.08-41.41-5.52
		c-7.78,0.31-15.59,0.03-23.38-0.24c-1.71-0.06-4.69,0.57-4.6-2.41c0.06-2.2,2.36-3.05,4.23-3.63c5.41-1.68,10.82-4.15,16.37-4.53
		c27.03-1.86,54.17-3.48,78.11,12.29c1.25,0.82,2.77,1.39,4.25,1.78c2.3,0.61,4.14-0.2,4.48-2.49c0.57-3.89,0.44-7.82-1.36-11.47
		c-2.84-5.73-5.57-11.52-8.78-17.06c-9.65-16.64-25.97-23.1-44.95-24.69c-18.84-1.58-37.28,0.97-55.28,6.31
		c-8.91,2.64-17.82,5.3-27.28,5.55c-0.75,0.02-1.95-0.76-2.18-1.4c-0.27-0.74,0-2.03,0.58-2.6c1.78-1.75,3.6-3.61,5.79-4.81
		c4.91-2.7,10.19-4.81,15.07-7.56c6.26-3.53,15.05-3.08,19.47-8.59c4.24-5.28,6.29-12.16,9.02-18.44
		c7.84-18.01,15.73-36.01,23.23-54.15c3.75-9.07,6.59-18.44,6.91-28.31c0.16-5.09-1.04-9.68-4.77-13.48
		c-3.91-3.99-7.93-7.87-15.61-7.33c-1.13-0.06-1.41-0.39-1.55-0.55c-1.28-6.44,2.15-10.82,7.87-14.58
		c24.07,6.15,33.89,18.13,33.46,39.64c-0.21,10.74-3.15,20.95-7.13,30.93c-1.62,4.05-3.52,8.01-5.39,13.06
		c1.93,8.94-4.16,14.72-6.27,21.53c-5.06,16.29-0.81,23.25,16.44,26.74c9.02,1.82,18.49,2.95,25.59,11.21
		c6.55,7.09,12.48,13.28,19.26,19.99c15.62,13.32,18.81,30,16.63,47.37c-1.87,14.96,4.39,23.54,18.03,30.1
		c10.2,4.91,20.54,9.26,32.26,13.47c2.5,0.78,3.93,1.19,6.46,1.78c8.37,1.18,15.68,2.07,23.67,4.64c2.63,0.27,2.49,4.14,5.92,1.51
		c3.7-1.83,6.82-2.96,6.47-7.66c-0.52-2.11-0.86-3.31-1.41-5.45c-0.3-2.24-0.07-3.49,1.17-5.38c0.85-1.2,0.96-1.72,1.23-3.03
		c1.5-3.98,0.93-7.29,0.21-11.41c-1.08-2.19-2.15-3.6-2-4.88c1.63-13.7,0.64-27.76,6.98-41.89c1.53-1.82,2.29-2.74,2.91-4.62
		c3.69-15.86,11.92-28.71,22.65-39.97c9.65-10.13,20.59-19.12,31.9-27.69c9.76-7.39,21.02-12.32,31.52-17.57
		c0.87-3.82-1.97-4.69-3.9-6.08c-4.2-3.03-7.61-6.57-8.95-12.56c1.33-3.43,0.62-6.13,0.78-9.62c-1.07-8.57,2.87-14.43,8.68-20.53
		c2.53-1.27,4.07-1.1,6.3,0.79c1.86,2.97,2.19,5.19,2,8.54c-0.88,4.96-2.73,8.86,0.46,13.58c6.77,7.91,15.43,8.31,24.15,8.6
		c9.09,0.3,18.31-0.78,28.13,2.58c3.4,1.27,5.77,2.37,9.44,2.06c2.8-0.39,4.68-0.46,7.47-0.24c3.28,0.59,5.63,0.89,8.81-0.51
		c8.41-2.85,17.08-2.59,23.94-9.11c1.58-1.62,2.37-2.62,3.55-4.53c1.39-2.58,2.52-4.2,4.47-6.48c9.33-10.87,10.39-22.14,5.61-34.73
		c-3.46-3.11-6.06-5.66-9.13-8.98c-1.29-1.45-2.14-2.11-3.82-2.92c-0.8-0.19-1.98-0.36-2.41-0.75c-2.77-3.41-4.79-6.76-10.1-7.91
		c-5.21-2.17-9.44-4.15-14.48-6.72c-10.15-13.45-10.15-13.45-1.58-18.14c8.65,7.84,17.57,13.29,27.29,17.57
		c10.36,4.56,19.01,10.95,26.03,20.63c5.51,11.68,7.35,22.81,4.5,35.74c-0.34,2.33-0.32,3.37-0.68,5.12
		c-1.86,2.07-1.8,3.96-2.63,6.51c-0.74,5.26-3.87,8.48-5.97,12.15c-2.04,3.55-1.99,3.67,4.63,7.54c-1.83,0.69-4.91,1.5-6.93,0.48
		c-9.31-4.7-18.19,0.1-27.23,0.53c-1.46,0.07-3.32,0.54-4.26,1.48c-7.72,7.7-19.23,9.43-27.8,15.68c-3.54,2.58-7.39,3.19-11.64,3.14
		c-5.18-0.06-10.37-0.07-15.55,0.14c-4.65,0.19-8.3,2.4-8.6,6.87c-0.48,7.14-4.68,10.12-11.54,11.63c-2.87,0.63-5.47,2.64-8,4.28
		c-1.81,1.17-2.45,3.22-2.14,5.18c0.32,2.02,1.75,3.35,4.08,3.77c6.07,1.12,12.11,2.34,19.45,3.74
		c-4.21,10.75-16.32,12.97-25.65,18.45c-11.64,6.84-21.62,14.75-29.4,25.41c-15.33,20.97-12.11,33.49,13.14,45.59
		c3.41,1.36,5.94,1.91,9.6,1.11c5.66-1.03,10.36-1.06,16.04-0.51c3.32,0.53,5.61,1.4,8.91,1.14c1.37-0.38,1.9-0.6,3.15-1.28
		c1.65-1.22,2.51-2.04,3.96-3.63c11.76-9.3,22.73-18.1,38.77-20.48c2.49-0.52,3.91-0.82,6.4-1.36c8.46-1.6,15.11,0.92,21.81,3.18
		c20.35,6.84,23.68,5.99,38.72-10.39c1.4-1.97,2.07-3.17,2.87-5.43c2.79-13.63-1.61-25.6-3.36-38.85
		c8.86-3.29,14.15,1.24,18.61,6.99c1.12,1.44,2.15,3.93,1.58,5.36c-4.16,10.43-2.05,21.21-2.42,31.83
		c-0.16,4.66-0.93,8.47-5.7,11.08c-3.63,1.99-6.32,5.19-7.65,8.99c-2.6,7.44-8.85,10.28-16.2,11.98c-4.52,1.04-8.99,2.28-13.52,3.25
		c-4.65,1-9.23,0.94-13.69-1.08c-4.19-1.89-8.49-3.34-13.1-4.42c-7.32-1.72-13.99-3.76-19.59,3.24c-1.94,2.43-5.31,3.11-8.52,2.83
		c-6.74-0.6-12.16,1.52-16.69,6.15c-1,1.02-2.54,1.78-3.99,2.17c-14.4,3.94-28.82,7.8-43.25,11.63c-4.97,1.32-9.26,0.08-12.72-3.49
		c-5.64-5.84-12.12-10.09-20.26-12.88c-9.37-3.21-13.09-12.3-10.9-23.25c1.42-7.12,3.57-14.1,5.15-21.19
		c0.28-1.24-0.16-3.21-1.09-3.96c-1.75-1.42-3.87-0.69-5.49,0.75c-7.09,6.3-14.79,11.9-15.94,22.35
		c-0.54,4.95-2.43,10.44-8.11,13.52c-3.76,2.04-3.94,6.23-2.69,9.18c3.92,9.23,1.35,19.37,5.24,28.58c1.39,3.28,0.73,6.98-3.75,8.33
		c-3.34,1-4.89,3.38-6.47,5.92c-1.56,2.51-3.03,5.12-4.95,7.38c-1.95,2.28-4.44,4.38-7.91,3.9c-4.03-0.55-4.4-3.7-4.37-6.66
		c0.04-4.68-2.58-6.61-7.12-8.14c-6.63-2.23-13.07-2.84-19.81-1.15c-15.82,3.98-30.71,2.68-44.39-6.51
		c-2.92-1.96-6.4-3.24-9.74-4.58c-6.27-2.52-9.87-1.29-12.27,4.6c-3.87,9.51-8.26,18.73-13.52,27.69
		c-3.49,5.94-7.82,9.91-14.38,12.47c-7.32,2.85-7.42,3.5-5.75,10.91c0.21,0.94,0.9,1.79,1.09,2.73c1.03,4.97,0.08,7.88-4.73,9.36
		c-4.66,1.43-8.03,4.08-11.79,6.7c-6.12,4.27-5.98,9.54-4.44,16.45c0.23,6.16-3.46,5.78-8.23,4.76c-3.18-4.06-2.45-6.93,0.12-9.93
		c1.86-2.18,1.09-4.53-1.35-6.29c-1.85-1.34-5.29-0.93-5.13,0.73c0.81,8.31-5.73,14.24-7.62,21.74
		c-2.2,8.73-10.56,14.08-16.45,20.63c-2.6,2.89-8.46,3.23-12.86,4.65c-2.74,0.88-4.33,2.61-4.49,5.29
		c-0.51,8.43-4.45,15.83-7.56,23.55C336.87,977.87,333.24,982.27,327.86,986.96z"/>
	<path class="st6" d="M527.09,1185.43c-2.44,8.49-9.95,12.39-16.28,16.92c-12.69,9.09-24.77,18.82-36.85,28.57
		c-0.61,0.49-0.97,1.89-0.66,2.54c0.28,0.6,1.78,1.25,2.47,1.05c3.9-1.14,8.39-1.72,11.46-3.96c14.65-10.69,31.4-18.4,45.97-29.28
		c7.32-5.46,13.18-12.27,21.67-17.77c18.61,3.92,36.1,0.12,53.61-1.4c72.96-6.32,136.88-30.88,187.66-81.88
		c3.77-3.79,6.69-8.97,14.43-8.55c1.29,4.47,1.29,8.28,0.04,12.13c-1.04,3.2-1.93,6.7-1.65,9.98c0.92,10.87-2.59,21.21-4.2,31.71
		c-3.01,19.59-7.86,38.93-11.59,58.43c-1.64,8.56-6.42,13.97-15.18,16.74c-19.66,6.2-39.85,10.57-59.98,15.09
		c-13.56,3.05-27.25,5.61-40.89,8.31c-2.01,0.4-4.13,0.44-6.21,0.44c-14.56,0.04-28.73,2.83-42.96,5.23
		c-3.55,0.6-7.24,0.54-10.87,0.64c-9.31,0.25-18.65-0.6-27.79,2.35c-3.29,1.06-7.21,0.53-10.84,0.53
		c-31.72,0.03-63.46,0.61-95.16-0.24c-17.02-0.45-34.1-1.94-51.07-3.38c-14.83-1.26-29.68-3.42-44.52-5.25
		c-6.65-0.82-13.26-2.07-19.79-3.5c-2.91-0.64-6.51-1.49-7.35-4.65c-1.08-4.07,2.89-5.78,5.5-8c0.38-0.32,0.86-0.54,1.31-0.79
		c11.12-6.22,22.6-11.97,33.28-18.8c11.09-7.1,21.6-15.04,31.98-23.04c4.48-3.45,8.91-6.63,15.57-8.35
		c12.02-3.32,22.77-0.68,33.44,1.1C496.42,1180.83,511.67,1180.2,527.09,1185.43z"/>
	<path class="st7" d="M811.71,1090.94c-1.89,2.15-4.25,2.56-5.41,3.89c-9.54,10.9-19.81,20.94-32.24,29.12
		c-6.71,4.41-12.34,10.16-18.92,14.92c-11.97,8.65-25.25,14.86-38.73,20.71c-13.53,5.87-27.47,10.98-41.5,15.69
		c-7.19,2.42-14.94,4.23-22.53,4.56c-10.95,0.48-21.25,4.02-31.96,4.86c-17.94,1.41-35.68,5.23-53.84,4.28
		c-3.8-0.2-7.16-0.86-10.17-4.86c15.16-13.62,31.49-25.63,45.54-40.03c5.6-5.74,12.16-10.68,15.8-17.95
		c0.65-1.29,1.55-2.68,2.75-3.49c14.6-9.79,24.61-23.63,36.2-36.04c9.2-9.85,17.95-20.15,26.07-30.8
		c21.69-28.48,43.1-57.18,62.07-87.35c7.11-11.31,12.73-23.44,19.2-35.11c1.85-3.34,3.16-9.41,6.98-8.72
		c5.94,1.07,3.23,7.33,3.28,11.26c0.14,11.8,3.32,23,6.14,34.34c3.9,15.72,10.53,30.48,17.3,45.2c2.25,4.89,4.5,10.22,8.31,13.94
		c9.85,9.6,10.69,21.17,8.23,32.73C812.3,1071.32,812.35,1080.44,811.71,1090.94z"/>
	<path class="st7" d="M470.1,933.8c5.53,2.58,9.1,5.02,12.17,8.59c12.09,14.1,28.5,23.92,42.11,36.55c1.02,0.95,2.71,1.67,4.13,1.74
		c1.32,0.07,2.88-0.68,3.98-1.48c0.43-0.32,0.25-1.97-0.23-2.68c-2.79-4.17-6.51-7.52-11.06-10.01c-2.77-1.52-4.95-3.5-6.17-7.43
		c0.78-8.69,7.22-7.28,11.48-5.8c28.2,9.81,58.15,12.85,87.86,21.24c0.89,6.8-3.56,10.96-7.09,14.7
		c-16.14,17.12-29.82,36.05-45.88,53.26c-11.98,12.84-24.77,24.87-37.03,37.41c-7.35,7.51-13.71,15.83-21.73,22.83
		c-16.32,14.23-32.67,28.4-50,41.56c-4.43,3.36-8.46,7.22-12.42,11.09c-4.01,3.92-8.52,7.11-14.61,10.01
		c-6.73-5.17-6.03-12.18-4.87-18.8c2.46-13.99,2.49-28.04,2.11-42.09c-1.18-43.66,5.11-87.14,3.4-130.82
		c-0.29-7.31,1.32-14.5,3.83-21.44C436.31,935.02,449.45,928.56,470.1,933.8z"/>
	<path class="st7" d="M529.07,1186.19c-4.66,0.09-8.31-0.4-11.88-0.08c-13.57,1.2-26.46-3.74-39.89-3.59
		c-7.99-4.26-17.59-0.34-26.81-4.89c1.71-6.34,5.85-10.99,12.07-14.27c8.2-4.32,14.75-10.65,21.32-16.9
		c9.12-8.67,18.29-17.3,27.62-25.77c24.6-22.34,47.85-45.8,69.69-70.57c9.55-10.83,19.84-21.1,28.61-32.55
		c12.06-15.75,24.04-31.55,36.09-47.31c1.5-1.96,3.21-3.77,5.75-6.12c33.07-8.15,61.31-25.2,93.98-33.42
		c-0.55,7.31-3.38,13.37-7.29,19.23c-7.95,11.91-15.13,24.28-22.89,36.31c-2.93,4.54-6.72,8.58-9.84,13.02
		c-7.67,10.93-15.6,21.68-22.74,32.97c-5.76,9.11-13.09,17.42-20.32,25.62c-12.84,14.55-26.56,28.44-39.14,43.17
		c-21.79,25.51-48.27,46.72-72.29,70.18C545.03,1177.16,537.68,1181.76,529.07,1186.19z"/>
	<path class="st6" d="M293.44,1159.36c-0.19-8.62-0.13-15.78-2.28-23.02c-2.08-7.03-1.21-14.33,2.46-21.3
		c6.84-12.99,12.93-26.33,19.72-39.34c7.08-13.57,13.06-27.51,18.03-41.86c4.61-13.33,9.89-26.47,14.12-39.9
		c3.06-9.73,4.86-19.81,7.26-29.73c0.34-1.39,0.73-2.81,1.38-4.09c0.77-1.5,2.46-1.73,3.98-1.5c0.91,0.13,2.06,0.72,2.49,1.42
		c0.74,1.21,1.12,2.65,1.43,4.04c2.95,13.26,5.78,26.55,8.81,39.79c1.52,6.65,1.11,13.42,2.56,20.19
		c2.64,12.27,3.65,24.95,4.21,37.5c0.68,15.08,0.21,30.2,0.16,45.3c-0.03,9.7,0.03,19.29-2.73,28.92
		c-3.07,10.71-3.75,22.01-6.79,32.73c-4.26,14.98-10.03,29.53-18.24,43.15c-3.94,6.54-10.41,10.81-15.42,16.35
		c-12.61,13.93-29.68,20.85-47.41,26.76c-1.45,0.48-2.98,0.82-4.5,1.03c-2.34,0.32-5.13-2.69-4.27-4.86
		c1.43-3.63,3.2-7.14,4.86-10.69c5.45-11.63,9.45-23.6,10.19-36.39c0.14-2.42,0.12-4.95,0.9-7.21c3.12-9.12,3.02-18.11,0.01-27.25
		C293.47,1166.66,293.72,1163.61,293.44,1159.36z"/>
	<path class="st6" d="M1133.19,1137.14c6.81,5.4,7.45,11.58,6.38,18.08c-1.12,6.84-7.55,10.86-14.61,9.14
		c-7.51-1.83-15.03-3.7-22.34-6.11c-5.34-1.76-9.95-1.09-14.98,0.96c-9.36,3.81-17.06,9.46-22.31,17.52
		c-3.15,4.84-7.12,6.66-12.81,6.42c-3.63-0.15-7.27-0.09-10.91-0.02c-15.28,0.27-27.17,5.75-33.09,19.65
		c-2.06,4.84-5.56,6.64-10.74,6.66c-16.06,0.06-32.02,0.42-47.8-3.96c-12.34-3.42-25.17-5.25-37.8-7.76
		c-14.97-2.97-28.33-9.16-40.6-17.6c-2.92-2.01-3.91-4.74-3.04-7.64c1.53-5.12,3.01-10.42,5.71-15.03
		c5.22-8.92,10.9-17.66,17.08-26.02c7.69-10.41,12.11-11.36,25.22-7.73c16.38,4.53,32.71,9.26,49.26,13.16
		c19.66,4.63,39.76,5.95,60.03,5.22c6.28-0.23,12.08-2.38,18.29-3.11c21.04-2.48,41.7-6.89,61.45-14.44
		c11.09-4.24,13.87-3.76,21.61,4.55C1129.21,1131.25,1130.68,1133.87,1133.19,1137.14z"/>
	<path class="st8" d="M1200.73,1015.39c-3.16,7.04-7.01,13.19-11.09,20.31c-5.97,4.88-8.93,10.87-13.51,16.87
		c-4.29,10.33-13.52,13.83-22.82,18.76c-13.87,9.33-26.48,18.64-40.95,25.45c-28.14,13.26-57.43,21.91-89.27,22.13
		c-27.7,0.19-54.89-2.28-80.99-11.62c-18.95-6.78-37.27-14.88-53.89-25.81c-27.06-17.81-50-39.58-65.84-66.92
		c-6.09-10.51-11.94-21.58-14.36-34.85c7.3-6.14,12.42-0.89,17.66,2.59c5.41,3.59,9.56,8.84,17.24,11.38
		c16.34,13.77,24.57,32.33,40.58,45.26c31.47,25.4,66.75,42.64,108.35,46.85c70.58,7.14,126.46-17.47,169.17-69.84
		c3.76-4.61,7.01-9.71,13.88-12.93C1186.96,1001.33,1192.21,1010.21,1200.73,1015.39z"/>
	<path class="st9" d="M723.58,764.13c-9.13,0.19-15.59,4.48-22.15,8.28c-5.72,3.31-11.04,7.22-17.14,11.66
		c-1.31,1.86-2.22,2.75-4.35,3.47c-1,0.05-1.66-0.33-1.98-0.13c-1.24,1.48-2.52,2.11-5.3,1.83c-7.69-0.16-14.24-0.05-22.2,0.12
		c-2.65,0.16-3.91,0.17-6.02-0.24c-6.05-2.52-11.51-4.26-16.38-6.94c-12.48-6.89-16.55-17.15-11.51-29.82
		c6.52-16.4,17.87-29.52,33.69-38.77c10.51-6.15,21.73-11.23,33.35-17.53c0.71-0.74,0.67-0.9,0.58-0.93
		c0.29-0.49,0.66-0.95,1.91-1.67c1.49-0.34,2.09-0.41,3.62-0.37c2.21-0.31,3.51-0.73,5.73-1.6c17.44-6.62,34.32-10.23,52.99-5.69
		c2.56,1.99,4.22,3.3,6.11,3.76c12.2,2.96,22.64,8.83,32.89,16.97c8.54,12.61,11.46,25.54,8.16,40.72c0.15,2.48-0.23,3.58-1.82,5.15
		c-2.92,3.3-5.06,6.04-7.34,8.67c-9.55,11.03-17.49,13.03-31.45,7.87c-4.35-1.61-8.63-3.36-12.9-5.15
		c-3.86-1.63-7.83-2.57-13.32-1.94C726.57,762.9,725.56,763.56,723.58,764.13z"/>
	<path class="st10" d="M843.45,994.81c-6.19,1.71-10.38-0.7-14.11-4.48c-5.3-5.37-10.8-10.55-20.24-11.76
		C800.58,967,798.95,953.9,796.86,941c-1.08-6.7-0.57-13.58-2.57-20.25c-0.82-2.74-0.89-5.84-0.53-8.7
		c3.28-26.1,8.21-51.66,18.6-76.46c10.5-25.07,26.67-46.16,45.72-65.54c19.55-19.9,42.73-35.37,69.91-45.16
		c2.41-0.87,4.68-2.09,7.97-3.71c1.75-1.2,2.58-1.81,4.19-2.63c5.36,0.31,9.19-2.11,14.43-3.44c1.89-1,2.79-1.65,4.59-2.4
		c12.26,0.72,23.03-3.91,34.43-3.52c6.15,0.21,12.32-0.36,19.92-0.39c6.82,7.23,8.16,15.15,6.78,24.69
		c-8.88,8.47-20.05,7.26-29.88,7.98c-83.38,6.13-136,65.27-155.45,128.23c-5.52,17.86-7.21,36.22-7.34,55.85
		C828.2,950.08,838.98,971.3,843.45,994.81z"/>
	<path class="st3" d="M616.25,974.93c-12.43,1.16-23.37-2.25-34.54-3.76c-19.46-2.63-38.1-8.46-56.58-14.6
		c-3.01-1-5.83-2.05-9.56,0.7c-1.75,0.54-3.16,0.55-3.67-0.07c-8.1-10.05-19.82-17.12-26.54-28.3c-0.25-0.42-0.61-0.8-1-1.12
		c-14.13-11.62-23.94-26.66-36.06-39.88c-1.01-1.11-2.32-2.04-3.07-3.28c-8.05-13.24-11.36-9.73,0.57-21.61
		c6.06-6.04,8.88-14.18,12.57-21.67c1.29-2.63,1.94-5.54,3.28-8.14c2.2-4.29,6.44-5.35,10.08-1.83
		c8.44,8.16,18.27,14.14,29.11,19.09c3.56,1.62,6.54,4.81,9.11,7.79c13.31,15.47,26.98,30.62,41.92,44.75
		c5.09,4.81,10.82,9.12,14.28,15.31c2.05,3.67,6.63,4.54,9.62,7.21c11.62,10.36,22.38,21.59,35.6,30.34
		c2.91,1.93,5.3,4.67,7.59,7.29C622.67,967.4,621.5,971.21,616.25,974.93z"/>
	<path class="st3" d="M470.98,933.61c-6.81,0.99-13.85,0.88-21.05,3.02c-7.87,2.35-12.61,6.96-14.68,13.7
		c-2.41,7.84-4.71,15.72-4.51,24.18c0.43,18.44,0.13,36.9,0.07,55.35c-0.02,5.8,0.07,11.52-1.86,17.27
		c-1.35,4.04-1.13,8.61-1.15,12.95c-0.11,19.91,0,39.81-0.1,59.72c-0.05,8.68,0.31,17.3-2.35,25.95
		c-1.66,5.41-0.58,11.56-0.72,18.73c-0.25,2.28-0.18,3.67-0.83,4.07c-6.33,3.95-12.75,7.78-19.22,11.53
		c-1.29,0.75-2.89,1.03-4.32,1.58c-3.92,1.51-6.33,8.7-11.02,4.95c-3.21-2.56,0.62-8.21,1.72-12.18c4.29-15.49,6.14-31.33,9.2-46.99
		c4.16-21.35,1.9-42.63,2.24-63.92c0.15-9.57-1.85-19.36-3.76-28.71c-1.94-9.5-2.23-19.17-4.49-28.68
		c-2.23-9.39-4.21-18.88-6.46-28.32c-1.57-6.57-4.45-12.96-3.91-19.96c0.32-4.04-2.32-7.4-4.04-10.91
		c-2.33-4.75-2.42-9.04,0.75-13.74c4.39-6.51,8.03-13.47,12.44-21.15c3.2-1.11,6.06-0.8,9.14-3.22c10.08-1.77,16.13-7.44,21.76-13.9
		c4.64-5.31,7.43-5.59,12.33-0.67c5.91,5.93,11.97,11.93,16.58,18.72C457.8,920.42,464.91,925.93,470.98,933.61z"/>
	<path class="st7" d="M85.31,1016.35c-2.4-7.81,0.55-15.26,2.46-22.74c3-11.76,6.1-23.56,10.3-34.97
		c9.96-27.04,19.07-54.46,34.41-79.45c6.7-10.91,13.51-21.82,23.18-30.83c2.55-2.38,4.6-5.22,6.84-7.88
		c4.61-5.51,8.07-6.62,14.65-4.25c12.54,4.52,21.78,12.65,29.43,22.88c4.08,5.46,6.43,10.95,5.78,18.74
		c-4.85,6.17-9.57,11.32-14.7,16.09c-11.38,10.59-22.49,21.42-32.17,33.42c-13.69,16.96-27.16,34.09-40.73,51.14
		c-1.54,1.94-2.93,4.03-4.72,5.74C108.86,994.95,97.59,1005.56,85.31,1016.35z"/>
	<path class="st11" d="M239.57,893.55c6.33,2.24,8.8,7.06,11.79,11.69c20.12,31.18,40.41,62.26,60.73,93.33
		c1.32,2.02,3.29,3.68,5.97,5.92c5.16,6.12,1.98,11.58,0.12,16.9c-6.21,17.74-11.69,35.78-23.41,52.59
		c-4.77,3.53-3.9,11.93-10.43,10.32c-4.77-1.17-2.69-7.74-3.92-11.83c-7.43-24.83-14.38-49.79-22.13-74.53
		c-6.73-21.48-13.15-43-18.08-64.92c-2.72-12.09-2.6-24.16-2.59-37.6C237.5,894.14,238.86,893.67,239.57,893.55z"/>
	<path class="st6" d="M747.27,930.55c-5.47,1.05-9.54,3.28-13.52,5.44c-16.05,8.69-33.04,15.49-50.2,21.94
		c-9.07,3.41-18.41,6-29.68,5.75c0.85-8.18,6.08-15,11.16-21.47c13.31-16.95,22.75-35.7,30.82-55.09c2.13-5.11,5.29-8.09,10.33-9.88
		c2.9-1.03,5.82-2.29,8.84-2.67c21.99-2.75,40.69-12.81,59.36-23.04c1.15-0.63,3.27-0.93,4.26-0.36c1.93,1.12,2.08,3.42,1.23,5.22
		c-9,19.02-13.94,39.54-24.37,58.03c-1.72,3.04-2.91,6.19-3.16,9.65C752.14,926.8,749.82,928.15,747.27,930.55z"/>
	<path class="st6" d="M877.45,1118.8c-9.28,12.31-18.48,23.44-24.23,36.59c-1.57,3.58-2.94,7.23-4.49,10.82
		c-5.09,11.81-1.25,21.66,7.41,30.56c2.36,2.43,5.91,4.07,6.52,8.47c-12.4,6.16-25.76,4.59-38.87,3.31c-6.2-0.61-8.6-4.2-8.74-10.17
		c-0.07-2.9-0.02-5.85,0.43-8.71c2.93-18.59,5.3-37.3,9.26-55.71c2.59-12.06,2.24-24.05,2.97-36.11c0.52-8.62,2.38-17.18,3.75-25.76
		c0.28-1.76,3.41-2.51,5.11-1.25c2.02,1.51,4.07,3.03,5.81,4.81c8.79,9,19.21,16.12,29.8,23.09c2.53,1.66,4.88,3.6,7.08,5.64
		c4.68,4.33,4.63,4.75,0.43,11.08C879.14,1116.29,878.53,1117.07,877.45,1118.8z"/>
	<path class="st11" d="M553.33,875.45c-1.35-2.38-3.35-5.2-0.1-4.95c7.69,0.58,15.37,2,22.91,3.66c28.96,6.35,58.27,8.73,87.96,7.45
		c3.58-0.15,7.24-0.89,10.67,0.61c1.52,2.55,0.15,4.74-0.97,6.84c-10.21,19.14-21.3,37.8-34.49,55.31
		c-0.89,1.18-1.79,2.41-2.92,3.39c-1.66,1.44-3.73,1.65-5.72,0.67c-1.36-0.67-2.63-1.57-3.75-2.56
		c-23.02-20.34-45.97-40.74-67.42-62.56C557.41,881.19,555.81,878.64,553.33,875.45z"/>
	<path class="st8" d="M1018.72,736.48c-0.79-4.78-0.27-8.68-2.1-12.29c-2.06-4.08-1.63-8.42-1.68-13.97
		c30.55-2.31,59.35,3.8,87.03,15.92c23.14,10.14,44,23.14,63.09,40.38c-8.92,7.62-20.6,6.38-32.62,8.63
		c-5.57,0.05-9.38-1.59-12.64-3.94c-25.86-18.61-56.18-25.42-87.64-29.23C1027.48,741.43,1023,740.57,1018.72,736.48z"/>
	<path class="st12" d="M1166.21,1090c4.55,3.31,8.45,6.52,11.81,10.17c8.54,9.26,14.84,19.23,16.74,31.98
		c2.7,18.18,1.77,35.6-6.48,53.42c-9.97,6.31-18.31,13.91-31.84,10.88c-7.82-8.04-8.1-17.22-5.14-25.35
		c6.95-19.07,0.15-35.04-10.69-51.72c-1.41-2.18-2.18-3.4-3.01-4.57c-1.92-2.7-2.11-5.48,0.59-7.63c4.22-3.35,8.75-6.37,13.77-10.3
		c1.11-1.91,1.88-2.85,3.83-3.85C1159.59,1091.88,1162.45,1090.98,1166.21,1090z"/>
	<path class="st12" d="M1059.53,1204.32c7.51,5.19,13.91,10.65,19.15,17.14c4.36,5.4,10.05,9.38,16.5,14.07
		c4.3,8.59-3.02,10.16-7.77,11.05c-13.02,2.43-26.22,5.18-41.02,1.76c-10.11-4.45-15.16-11.83-19.62-19.33
		c-5.94-10.01-3.07-18.16,7.61-24.54c1.29-0.77,2.78-1.27,4.91-2.61c3-0.71,5.27-0.71,8.68-0.78c2.98-0.23,4.69,0.11,6.89,1.71
		C1056.59,1203.67,1057.64,1203.98,1059.53,1204.32z"/>
	<path class="st12" d="M1115.64,1224.66c-12.47-4.5-21.31-12.34-29.55-20.79c-6.16-6.32-7.07-13.49-2.29-22.14
		c0.33-1.03,0.25-1.23,0.14-1.2c0.55-1.05,1.44-1.91,3.51-2.73c0.97-0.13,1.7,0.29,2.07,0.08c6.31-6.28,13.16-3.13,21.06-1.12
		c1.23,0.77,1.98,1.2,2.38,1.05c1.6-0.05,2.67,0.33,4.29,1.56c7.25,3.41,13.82,6.3,21.48,9.25c8.83-2.16,11.92,3.52,16.67,8.48
		C1147.65,1212.72,1130.12,1215.84,1115.64,1224.66z"/>
	<path class="st10" d="M1130.15,774.74c7.72-5.77,16.64-5.32,24.96-6.96c2.47-0.49,5.13-0.15,9.11-0.29
		c16.26,10.82,26.12,25.56,37.2,40.6c1.02,1.85,1.22,3.1,1.59,5.28c-6.3,8.52-7.57,20.15-20.8,23.24
		c-13.58-11.13-18.89-26.83-30.7-38.56C1144.23,790.82,1134.88,785.03,1130.15,774.74z"/>
	<path class="st12" d="M946.26,1229.22c0.49,7.87,0.47,15.01,2.87,22.17c2.05,6.12-1.32,9.08-8.42,7.82
		c-8.16-1.44-15.92-4.03-23.16-8.03c-7.21-3.98-13.39-9.1-20.47-14.7c-1.47-1.21-1.97-2.06-3.14-3.32
		c-1.66-1.16-2.51-2.03-3.36-3.92c0.44-3.88-0.6-7.12,1.99-10.63c3.83-2.45,7.33-1.71,11.87-1.11c3.03,0.86,4.93,1.14,7.79,1.3
		c2.29-0.12,3.47,0.28,5.19,1.7c1.71,0.89,2.75,1.12,4.57,1.22c3.73,0.56,6.71,1.03,10.71,1.63
		C937.59,1225.49,941.49,1227.05,946.26,1229.22z"/>
	<path class="st12" d="M1007.34,1230.69c3.16,3.9,5.31,7.65,7.69,12.31c3.42,7.8-1.7,9.91-7.04,10.68
		c-10.19,1.47-20.25,4.92-32.17,2.38c-9.2-6.68-13-14.12-7.82-24.75c0.4-0.98,0.35-1.11,0.3-1.07c6.7-4.76,13.75-8.23,23.44-3.67
		c0.97,0.89,1.23,0.79,1.09,0.75c2.27,1.52,5.1,1,8.63,1.82C1003.68,1229.93,1005,1230.24,1007.34,1230.69z"/>
	<path class="st2" d="M295.08,1074.83c1.79-14.73,10.69-27.45,15.05-41.73c2.66-8.73,5.98-17.28,8.97-27.05
		c1.58-4.64,3.2-8.13,5.23-12.52c0.41-0.89,1.71-1.64,2.36-1.27c6.1,8,8.43,15.77,2.63,24.3c-2.22,3.25-3.68,6.95-5.74,10.31
		c-5.86,9.58-6.9,13.69-6.48,25.7c0.04,1.27-0.67,3.58-1.35,3.7c-7.86,1.32-6.67,9.27-11.13,13.13
		C302,1071.64,300.55,1075.04,295.08,1074.83z"/>
	<path class="st1" d="M1155.44,1194.09c-5.88,1.48-9.56-2.15-14.82-4.82c-0.7-3.61,0.6-6.19,3-8.18c4.13-3.42,5.29-7.72,5.86-12.76
		c0.64-5.64,3-10.9-2.04-16.13c-1.67-1.74-1.33-5.5-1.27-8.33c0.15-6.36-0.1-12.42-4.94-17.62c-1.16-1.24-0.91-3.63-1.28-6.68
		c8.99,4.56,12.62,13.66,16.71,22.39c2.33,4.98,3.02,10.73,0.68,15.47C1151.61,1169.06,1152.4,1180.55,1155.44,1194.09z"/>
	<path class="st2" d="M783.95,639.92c12.31,2.06,22.36,8.66,31.35,18.21c-4.79,1.28-9.87,1.95-14.82,0.24
		C791.67,655.33,786.27,649.46,783.95,639.92z"/>
	<path class="st1" d="M834.01,692.08c7.93,9.85,6.6,22.54,7.08,34.95c0.22,5.69-2.28,11.33,0.9,17.65
		c-1.77,4.58-4.68,5.27-6.19,2.26c-0.83-1.66-2-3.93-1.4-5.32c3.98-9.3,1.8-18.97,2.55-28.45
		C837.49,706.3,832.78,700.27,834.01,692.08z"/>
	<path class="st2" d="M748.77,685.91c-12.5-1.23-25.23-0.57-37.85,2.97c-3.93,1.1-8.06,1.59-13.35,2.27c-0.7-1.96-0.32-4.33,2-4.63
		c6.63-0.86,12.68-4.31,19.63-3.69c1.52,0.13,3.65,0.4,4.55-0.37C733.05,674.61,740.53,681.04,748.77,685.91z"/>
	<path class="st2" d="M815.27,660.16c9.68,6.06,13.71,16.44,18.34,27.52c-4.21,0.94-8.68,1.07-9.12-4.43
		c-0.39-4.96-2.91-8.08-8.13-9.35c-3.1-0.75-3.79-2.76-2.89-5.56C814.21,666.04,814.59,663.64,815.27,660.16z"/>
	<path class="st1" d="M1153.79,1071.97c3.87-8.02,13.1-11.76,21-18.17c6.5,5.38,6.53,5.62,1.28,9.19c-1.22,0.83-3.23,1.12-3.84,2.18
		C1168.38,1071.83,1161.95,1072.32,1153.79,1071.97z"/>
	<path class="st1" d="M992.63,1226.34c-7.36,1.14-14.75,1.58-23.15,3.82c2.96-9.52,11.19-10.2,20.4-8.17
		C990.98,1222.22,991.66,1224.1,992.63,1226.34z"/>
	<path class="st1" d="M1111.22,1176.68c-5.8,0.94-12.2,1.02-19.97,1.05c-1.21-2.45-0.88-4.79,1.05-6.61
		c2.38-2.25,5.29-3.16,8.25-1.63C1104.09,1171.3,1107.29,1173.68,1111.22,1176.68z"/>
	<path class="st1" d="M1055.41,1202.49c-1.61,0.49-3.34,0.13-5.69-0.86C1052.62,1197.98,1052.62,1197.98,1055.41,1202.49z"/>
	<path class="st1" d="M904.92,1217.35c-2.65,0.72-5.96,0.69-10.5,0.61C896.47,1214.4,900.27,1214.73,904.92,1217.35z"/>
	<path class="st1" d="M932.89,1223.12c-2.24,0.5-5.27,0.2-9.2-0.81C925.94,1221.32,929.12,1220.67,932.89,1223.12z"/>
	<path class="st1" d="M1001.66,1228.88c-2.05,0.44-4.8,0.15-8.25-0.87C995.53,1227.01,998.36,1226.62,1001.66,1228.88z"/>
	<path class="st1" d="M852.84,734.94c-0.21-1.21,0.47-2.78,1.93-4.81C854.94,731.31,854.33,732.94,852.84,734.94z"/>
	<path class="st3" d="M327.2,991.65c0.14,0.98-1.15,1.07-1.8,1.03c-0.86-1.01-0.69-1.93,0.36-3.32
		C326.52,989.45,326.79,990.06,327.2,991.65z"/>
	<path class="st1" d="M890.55,1229.27c0.72-0.03,1.54,0.85,2.55,2.61C892.41,1231.9,891.53,1231.05,890.55,1229.27z"/>
	<path class="st7" d="M84.32,1018.64c-1.08,0.16-2.38-0.33-0.55-2.01C84.34,1016.88,84.35,1017.38,84.32,1018.64z"/>
	<path class="st1" d="M1155.75,1092.96c0.16,0.68-0.64,1.56-2.3,2.78C1153.32,1095.11,1154.05,1094.13,1155.75,1092.96z"/>
	<path class="st1" d="M917.52,1220.43c-0.65,0.42-1.9,0.1-3.73-0.97C914.44,1219.03,915.68,1219.36,917.52,1220.43z"/>
	<path class="st1" d="M1117.38,1179.23c-0.58,0.37-1.72,0.07-3.43-0.9C1114.52,1177.96,1115.67,1178.26,1117.38,1179.23z"/>
	<path class="st1" d="M1087.43,1177.79c0.08,0.7-0.83,1.52-2.67,2.56C1084.7,1179.67,1085.57,1178.79,1087.43,1177.79z"/>
	<path class="st1" d="M850.1,738.08c-0.28-0.57,0.15-1.48,1.33-2.69C851.73,735.97,851.27,736.85,850.1,738.08z"/>
	<path class="st1" d="M940.06,718.41c0.03,0.57-0.77,1.24-2.36,2.06C937.68,719.91,938.46,719.22,940.06,718.41z"/>
	<path class="st1" d="M959.11,712.63c0.01,0.62-0.87,1.32-2.62,2.11C956.49,714.13,957.36,713.41,959.11,712.63z"/>
	<path class="st2" d="M687.79,693.96c-0.71,0.79-1.29,0.98-2.79,1.16c-0.24-0.88,0.43-1.75,1.98-2.81
		C687.84,692.13,687.92,693.35,687.79,693.96z"/>
	<path class="st7" d="M688.24,694.55c-0.58,0.02-0.72-1.22-0.56-1.82c0.16-0.6,1.64-0.29,2.28,0.1
		C690.2,693.88,689.61,694.32,688.24,694.55z"/>
	<path class="st1" d="M990.3,694.22c-0.33-0.63,0.24-1.29,1.64-2.01C992.41,692.92,991.88,693.6,990.3,694.22z"/>
	<path class="st7" d="M744.4,279.79c-0.88-2.75-1.09-4.7-0.97-6.64c0.9-13.8-0.97-27.17-6.77-39.98c-1.21-2.67-2.24-5.5-2.72-8.35
		c-0.87-5.1,0.03-9.78,5.45-12.58c8.61-4.45,12.38-12.93,18.37-19.55c3.38-3.74,4.4-8.67,4.17-13.76
		c-0.47-10.55-6.24-17.56-17.4-19.36c-10.69-1.72-21.35-3.55-32.4-3.16c-15.22,0.54-16.02,0.51-23.31-12.25
		c-6.06-10.6-14.68-18.76-23.43-27.07c-2.99-2.84-6.48-4.91-10.4-6.29c-8.09-2.85-17.44,0.62-20.71,8.28
		c-5.19,12.14-11.35,24.05-12.87,37.31c-0.69,6.03-4.26,9.75-10.22,11.6c-9.85,3.07-19.71,6.13-29.59,9.09
		c-8.25,2.47-14.8,6.91-19.27,13.95c-2.62,4.12-3.14,8.24-0.01,12.26c1.82,2.34,3.64,4.84,6.03,6.58c9,6.54,18.23,12.81,27.39,19.17
		c2.08,1.44,4.32,2.7,6.25,4.29c2.97,2.44,4.44,5.71,2.86,9.2c-3.74,8.27-0.92,17.44-4.57,25.79c-2.07,4.74,1.62,9.45,2.59,14.17
		c1.07,5.18,3.56,10.09,5.95,16.11c-1.6,6.78-7.31,8.7-12.44,10.71c-57.54,22.61-112.94,49.46-169.1,74.8
		c-13.52,6.1-27.91,10.4-42.64,13.82c-14.99,3.48-24.04-3.42-31.46-13.52c-7.25-9.87-4.26-19.72,3-28.36
		c14.19-16.86,30.1-32.26,48.04-45.64c17.06-12.73,31.08-28.27,46.68-42.36c-36.1,21.42-69.13,46.6-103.57,71.75
		c-8.56,6.26-16.18,11.95-24.74,18.07c-16.86,6.37-30.75,0.44-35.39-15.07c-3.51-11.74-4.26-23.73,2.12-36.41
		c2.1-4.23,3.21-7.49,4.83-10.52c1.38-2.57,2.81-5.53,5.14-7.16c11.69-8.17,20.2-19.56,32.51-27.21
		c6.81-4.24,12.35-10.45,17.93-16.22c14.05-14.53,30.4-26.6,47.39-37.72c29.76-19.48,58.06-40.93,89.21-58.53
		c16-9.04,32.11-17.91,48.27-26.69c9.43-5.13,18.83-10.37,28.64-14.8c25.72-11.62,51.87-22.23,80.14-27.44
		c15.77-2.91,31.43-6.5,47.66-5.61c29.45,1.61,57.33,8.03,82.33,23.55c10.86,6.74,21.55,13.53,30.4,22.63
		c5.53,5.69,12.09,10.31,17.67,16.14c12.17,12.72,18.02,28.36,26.12,42.97c2.74,4.94,2.05,10.46,1.64,15.8
		c-0.24,3.17-3.48,5.07-6.81,3.94c-9.28-3.13-18.48-6.44-27.74-9.62c-1.44-0.49-3-0.7-4.52-0.91c-0.43-0.06-1.24,0.22-1.34,0.51
		c-0.27,0.77-0.65,2.08-0.28,2.37c5.98,4.62,11.92,9.31,18.17,13.61c10.14,6.97,18.07,15.87,26.52,24.46
		c9.34,9.49,12.94,22.09,21.89,31.6c1.28,1.36,1.83,3.47,2.29,5.33c3.08,12.28,7.33,24.46,8.71,36.91
		c1.5,13.49,0.34,27.25,0.2,40.89c-0.03,2.63-2.32,4.23-4.84,6.88c-6.41,4.63-10.28,2.25-13.47-2.47
		c-25.5-37.85-64.56-55.73-109.36-65.19C754.12,282.94,749.32,283.03,744.4,279.79z"/>
	<path class="st7" d="M252.04,165.81c6.9-9.74,14.42-17.22,23.29-24.19c13.09-10.29,25.96-20.83,39.64-30.43
		c14.54-10.19,29.44-19.92,45.79-27.52c14.85-6.91,29.74-13.75,44.48-20.87c35.84-17.32,74.19-27.71,113.55-34.44
		c22.37-3.82,45.35-5.44,68.2-3.56c25.86,2.13,51.26,6.73,75.34,16.26c4.63,1.83,9.74,3.25,13.02,7.22
		c-0.88,3.79-4.12,2.4-6.24,3.11c-1.95,0.65-3.91,1.43-5.94,1.73c-28.44,4.09-54.86,14.19-81.43,23.88
		c-35.03,12.77-67.06,30.71-98.6,49.55c-11.8,7.05-24.13,13.35-35.68,20.71c-25.26,16.1-49.19,33.89-73.36,51.4
		c-20.14,14.6-38.14,31.35-57.67,46.52c-12.76,9.91-23.76,21.79-35.58,32.76c-3.66,3.4-6.95,7.41-13.95,7.62
		c-9.65-0.29-10.24-6.72-11.07-12.21c-1.79-11.85,0.59-22.98,6.86-33.66c17.72-30.16,41.47-55.56,69.57-78.68
		c-23.7,13.21-43.26,30.15-63.86,45.83c-13.11,9.98-20.91,7.38-24.43-8.33C241.38,186.92,245.12,176.48,252.04,165.81z"/>
	<path class="st6" d="M347.16,340.94c-0.47-3.07,0.21-5.41,2.38-7.05c23.34-17.67,47.1-34.83,71.24-51.53
		c11.27-7.8,22.97-14.92,34.93-21.71c1.39-0.79,2.96-1.33,4.22-0.3c2.11,1.72,0.84,3.55-0.55,5c-2.43,2.54-5,4.95-7.57,7.36
		c-9.18,8.62-18.17,17.44-27.64,25.78c-10.94,9.64-21.62,19.76-33.73,27.95c-7.48,5.06-11.38,12.46-18.02,17.84
		c-6.27,5.08-11.87,10.81-16.08,17.7c-5.51,9.01-5.05,16.25,2.39,23.67c2.49,2.48,5.18,4.8,7.77,7.19
		c3.26,3.01,7.12,3.65,11.51,2.83c16.82-3.16,32.74-8.83,48.52-14.96c16.27-6.32,31.45-14.65,47.12-22.08
		c20.3-9.62,40.78-18.93,61.18-28.38c0.47-0.22,0.9-0.54,1.4-0.64c14.85-3.15,27.13-11.95,41.28-16.53
		c10.38-3.36,19.98-8.14,30.78-13.12c8.69,2.99,15.61,1.91,23.09-1.81c12.98-6.45,24.34-14.66,34.72-24.26
		c7.68-7.11,9.79-7.14,18.42-1.13c0.83,0.58,1.75,1.17,2.3,1.96c2.21,3.2,8.52,3.56,8.02,8.08c-0.56,5.13-6.29,6.35-10.51,7.39
		c-17.08,4.21-33.43,10.4-49.55,16.82c-13.4,5.34-26.9,10.23-40.75,14.26c-18.35,5.34-35.72,12.81-52.98,20.52
		c-18.23,8.14-36.36,16.52-54.21,25.36c-21.07,10.44-42.41,20.58-62.5,32.53c-19.16,11.4-37.25,24.4-55.15,37.63
		c-13.06,9.66-23.37,22.11-37.49,30.5c-3.1,1.84-5.14,4.68-7.2,7.55c-2.3,3.19-5.38,5.88-7.94,8.93c-5.67,6.75-11.86,9.91-21.5,6.1
		c-4.96-1.96-11.24-0.68-16.7-2.72c-3.1-1.16-6.01,0.67-8.98,1.51c-4.44,1.26-8.94,2.46-13.49,3.27c-3.7,0.66-5.99-2.22-4.42-5.47
		c6.41-13.27,12.18-26.89,19.65-39.62c8.96-15.28,19.21-29.92,29.29-44.6c6.44-9.37,13.83-18.08,21.77-26.47
		c9.24-9.77,17.48-20.37,25.98-30.74C348.79,344.74,348.03,342.9,347.16,340.94z"/>
	<path class="st3" d="M251.68,165.13c1.82,5.99-1.37,11.27-3.3,16.73c-1.87,5.29-2.89,10.73-0.95,15.71
		c1.81,4.66,0.82,11.8,7.9,13.1c5.16,0.95,7.49-4.43,11.05-7.03c17.93-13.09,34.16-28.18,53.63-39.47
		c6.14-3.56,11.69-8.01,17.56-11.98c1.33-0.9,3-1.12,4.1,0.28c1,1.26,0.67,2.82-0.38,3.94c-2.41,2.55-4.93,5.01-7.49,7.42
		c-8.43,7.94-16.73,16.01-25.39,23.73c-18.65,16.62-32.34,36.75-44.48,57.57c-7.02,12.05-8.58,25.96,0.88,39.74
		c0.92,6.39-1.26,11.45-5.19,15.39c-15.63,15.64-27.65,33.8-41.14,50.92c-4.59,5.83-9.02,11.98-12.15,18.55
		c-6.13,12.88-16.75,23.34-21.78,36.78c-1.5,4.02-5.99,4.16-8.33,0.63c-2.2-3.3-4.49-6.71-4.45-10.73
		c0.04-4.51-1.72-8.55-2.96-12.74c-2.77-9.41-4.05-18.98-3.47-28.76c0.17-2.91,0.09-5.83,0.02-8.75
		c-0.72-28.52,5.92-55.54,17.02-82.06c8.19-19.56,19.27-37.37,30.74-55.24c8.86-13.8,20.93-25.2,30.01-38.74
		C244.76,167.69,247.33,165.84,251.68,165.13z"/>
	<path class="st11" d="M846.43,383.79c-3.13-0.17-6.39-0.6-8.91-2.11c-22.86-13.69-47.78-23.27-72.87-32.56
		c-4.44-1.64-8.77-2.69-13.55-2.67c-23.9,0.09-47.81-0.01-71.71,0.11c-3.58,0.02-7.29,0.39-10.71,1.33
		c-30.82,8.46-61.36,17.59-91.17,28.97c-19.17,7.32-38.78,13.66-57.75,21.48c-42.72,17.6-84.71,36.5-123.86,62.25
		c-1.29-1.65-1.63-3.56-1.95-5.48c-1.55-9.27,2.98-15.03,10.78-20.74c39.65-29.03,84.23-49.89,129.28-70.05
		c28.6-12.8,57.53-24.93,87.19-35.41c15.05-5.32,30.41-9.86,45.71-14.52c11.61-3.54,23.69-3.16,35.56-2.11
		c14.42,1.28,28.74,3.61,44.37,5.44c4.22,0.93,7.32,0.99,11.22,2.05c0.84,0.75,1.6,1.11,1.99,0.96c1.6-0.06,2.67,0.35,4.29,1.61
		c2.01,0.76,3.36,0.97,5.73,1.14c3.88-0.28,6.71-0.43,9.87,2.08c0.68,0.76,1.52,1.13,1.96,0.99c1.65-0.03,2.72,0.4,4.32,1.66
		c0.66,0.56,1.69,1.02,2.26,1.02c1.6,0.29,2.54,0.74,3.99,1.85c2.81,1.57,4.99,2.67,8.11,3.88c2.02,0.4,2.99,0.91,4.43,2.2
		c3.83,2.49,7.05,4.43,11.22,6.56c6.5,1.85,11.06,4.57,13.71,10.81c0.86,1.71,1.37,2.48,2.83,3.41c1.49,0.92,2.28,1.55,3.45,2.85
		c0.42,0.62,0.48,0.37,0.35,0.42c1.62,1.09,1.74,2.89,2.78,5.21c1.12,2.25,1.71,3.79,2.97,5.87c1.59,1.29,2.4,2.13,3.28,3.9
		c0.18,0.83-0.06,1.66,0.16,2.04c0.65,0.78,1.09,1.18,1.31,2.41C846.82,382,846.73,382.52,846.43,383.79z"/>
	<path class="st6" d="M289.03,305.45c1.16,5.67,0.79,11.42,0.25,17.24c-0.66,7.04-0.6,14.93,2.22,21.25
		c3.29,7.39,9.28,14.25,19.75,14.21c2.6-0.01,5.2,0.01,9.1,0.07c1.21,3.75-0.86,6.54-3.7,8.78c-13.31,10.48-21.51,24.81-32.21,37.25
		c-13.05,15.17-23.15,32.15-33.59,48.89c-2.58,4.14-3.91,8.96-5.97,13.41c-5.56,12.03-11.06,24.09-14.93,36.72
		c-3.22,10.52-10.61,18.77-16.92,27.58c-2.22,3.1-7.35,2.46-8.75-1.34c-1.89-5.15-5.42-9.34-7.92-14.09
		c-3.93-7.48-6.7-15.28-6.08-23.83c0.18-2.42,0.17-4.88-0.01-7.3c-1.77-24.47,6.57-46.75,16.19-68.94
		c8.41-19.4,20.7-36.79,31.46-54.94c5.97-10.07,14.13-19.15,22.28-27.88c6.82-7.3,11.96-15.93,20.13-22.14
		C282.74,308.57,284.72,306.22,289.03,305.45z"/>
	<path class="st7" d="M709.48,264.31c-10.64-4.26-19.8-8.74-28.55-14.07c-7.41-4.51-10.15-4.14-16.38,1.76
		c-10.71,10.14-24.45,16.24-36.37,24.74c-3.29,2.35-6.4,0.99-6.46-2.58c-0.14-8.24-1.43-16.57,1.35-24.65
		c1.63-4.75,1.11-9.64,1.6-14.46c0.77-7.52-1.93-13.02-8.95-17.17c-7.87-4.66-15.3-10-22.79-15.22c-3.56-2.48-3.33-6.61,0.61-8.15
		c7.16-2.81,14.36-5.96,21.89-7.45c15.51-3.07,24.46-10.49,25.87-26.06c0.69-7.57,4.1-15,6.84-22.31c2.18-5.83,5.23-6.22,10.25-1.63
		c3.33,3.05,6.68,6.21,9.31,9.77c5.3,7.19,10.64,14.43,14.97,22.14c3.43,6.1,8.05,8.2,15.04,7.96c9.35-0.33,18.71-0.14,28.07-0.03
		c3.09,0.04,6.24,0.25,9.24,0.9c3.92,0.84,5.39,5.2,2.75,8.09c-3.03,3.32-6.36,6.42-9.64,9.53c-5.11,4.85-10.3,9.63-15.45,14.44
		c-3.28,3.07-3.8,6.42-2.33,10.65c4.49,12.92,8.57,25.96,12.83,38.95c0.78,2.38,1.55,4.84-0.84,6.7c-2.32,1.81-4.86,0.77-7.3-0.11
		C713.58,265.53,712.1,265.08,709.48,264.31z"/>
	<path class="st9" d="M285.14,641.21c0.31,1.87,0,2.79-0.32,3.72c-3.59,10.22-8.32,9.88-15.92,4.08
		c-7.22-5.51-13.61-11.97-21.28-18.47c-0.92-0.45-0.99-0.35-0.93-0.36c-0.81-0.72-1.61-1.49-2.65-3.08
		c-6.83-13.42-12.84-26.3-14.54-40.42c-1.73-14.45-2.73-29,1.33-43.26c3.75-13.16,11.81-23.32,24.46-30.55
		c8.87-5.07,18.17-6.58,28.21-5.95c5.28,0.33,10.11,1.49,14.26,4.9c5.04,4.16,10.35,8.03,16.4,12.56
		c8.53,13.03,15.3,25.89,18.77,40.05c1.43,5.83-0.39,9.09-6.92,12.36c-0.52,0.26-1.74-0.7-3.5-1.65c-2.21-1.73-2.43-3.35-3.55-5.34
		c-1.21-1.35-1.7-2.25-2.86-3.59c-1.44-1.07-2.18-1.73-3.2-3.08c-0.29-0.67-0.43-0.29-0.28-0.43c-1.73-0.92-1.88-2.63-3.01-4.71
		c-5.79-7.84-11.56-14.52-21.3-18.53c-4.84,0.36-8.61,0.82-12.77-2.26c-5.13-0.72-9.11,0.24-13.07,3.72
		c-1.06,1.89-1.73,2.86-3.39,4.11c-0.83,0.39-2.11,1.21-2.34,1.9c-0.55,7.59-4.21,14.08-3.01,22.23
		C253.54,597.61,260.11,622.37,285.14,641.21z"/>
	<path class="st6" d="M743.03,279.88c7.21-0.36,13.79-0.49,20.52,1.13c22.18,5.33,43.6,11.96,62.88,23.97
		c14.77,9.21,27.89,20.09,39.42,32.6c2.92,3.17,4.1,7.75,6.06,11.7c1.31,2.65,3.91,2.84,7.69,3.12c1.91,8-0.12,15.43-3.65,22.53
		c-1.46,2.94-5.4,3.33-7.5,0.77c-2.2-2.68-4.43-5.39-6.23-8.3c-11.96-19.39-29.03-33.71-49.93-44.13
		c-22.48-11.21-46.85-17.54-71.36-23.35c-3.54-0.84-7.06-1.46-10.09-3.38c-2-1.27-2.56-3.42-0.65-4.79
		C734.72,288.48,739,285.04,743.03,279.88z"/>
	<path class="st1" d="M830.61,354.12c-4.1-2.07-8.18-5.33-12.83-9.39c0.41-0.88,1.39-1.04,2.36-1.02
		C829.26,343.93,829.26,343.94,830.61,354.12z"/>
	<path class="st1" d="M780.52,325.33c-2.56,0.49-5.23-0.02-8.66-1.21C775.84,319.37,777.1,319.49,780.52,325.33z"/>
	<path class="st1" d="M758.2,319.63c-2.41,1.13-5.46,0.92-9.19-1.22C751.33,317.38,754.57,316.77,758.2,319.63z"/>
	<path class="st1" d="M839.89,366.21c-1.05-0.45-2.13-1.82-3.31-4.07C838.44,361.99,839.56,363.34,839.89,366.21z"/>
	<path class="st1" d="M764.48,322.21c-0.58,0.36-1.71,0.03-3.43-0.97C761.62,320.9,762.78,321.21,764.48,322.21z"/>
	<path class="st2" d="M243.92,627.17c0.64-0.07,1.49,0.67,2.58,2.21C245.87,629.44,245,628.71,243.92,627.17z"/>
	<path class="st1" d="M786.36,328.09c-0.59,0.35-1.71,0-3.42-1.01C783.51,326.75,784.67,327.07,786.36,328.09z"/>
	<path class="st1" d="M792.64,330.92c-0.55,0.3-1.56-0.05-3.07-1.04C790.1,329.59,791.13,329.93,792.64,330.92z"/>
	<path class="st1" d="M805.18,337.02c-0.58,0.27-1.61-0.17-3.15-1.27C802.59,335.49,803.66,335.9,805.18,337.02z"/>
	<path class="st1" d="M836.4,360.69c-0.61,0.16-1.5-0.4-2.67-1.7C834.34,358.83,835.23,359.39,836.4,360.69z"/>
	<path class="st1" d="M845.71,376.15c-0.69,0.04-1.49-0.81-2.48-2.48C843.89,373.65,844.74,374.46,845.71,376.15z"/>
	<path class="st1" d="M847.32,381.12c-0.68-0.09-0.93-0.54-1.25-1.75C847.1,378.97,848.28,379.26,847.32,381.12z"/>
	<path class="st11" d="M1154.75,1196.93c0.2-1.08,0.39-1.82,0.75-2c7.12,0.51,13.28-1.08,18.66-4.88c3.28-2.31,6.51-4.33,12.08-3.79
		c-2.96,16.18-13.04,28.55-26.39,38.97c-12.55,9.78-25.91,10.68-40.15,3.75c-1.36-0.66-2.58-1.57-4.51-3.2
		c0.7-4.82,4.21-6.55,7.8-8.5c9.16-4.98,18.15-10.26,27.13-15.53C1151.77,1200.77,1153.08,1199.27,1154.75,1196.93z"/>
	<path class="st11" d="M1045.69,1248.79c11.16-1.92,22.69-4.95,34.8-4.62c5.27,0.14,11.28-1.25,15.3-6.99
		c4.43,0.72,8.77,2.27,12.82,4.32c7.62,3.86,7.82,8.27,0.14,12.58C1091.81,1263.6,1068.84,1269.4,1045.69,1248.79z"/>
	<path class="st11" d="M974.89,1256.74c1.07-2.39,2.81-3.42,5-3.34c10.36,0.38,20.07-4.17,30.51-3.5c2.2,0.14,3.45-1.78,4.55-4.83
		c7.03,6,13.75,13.18,20.49,20.38c-1.37,4.26-5.57,4.78-8.58,5.1c-13.3,1.38-26.69,2.46-38.84-4.97
		C983.76,1262.98,978.47,1261.85,974.89,1256.74z"/>
	<path class="st11" d="M286.55,641.54c-5.15,0.67-8.49-1.15-11.71-3.82c-11.54-9.6-17.79-22.17-21.54-35.63
		c-2.68-9.59-4.67-19.58-3.77-30.97c3.59-9.74,3.93-20.73,18.68-22.02c2.11-0.15,3.14-0.09,4.95-0.35c1.73,0.13,2.58,0.58,3.94,1.58
		c9.26,2.67,14.8,8.81,21.5,15.11c1.23,0.9,1.6,1.27,2.1,2.38c-0.2,1.94-0.53,3.13-1.13,5.22c-0.86,3.21-3.12,2.86-5.65,3.87
		c-9.11,4.78-11.43,11.78-10.86,20.06c0.5,7.29,1.31,14.82,6.25,20.56c6.44,7.48,5.07,14.04-0.31,20.95
		C288.39,639.26,287.89,640.11,286.55,641.54z"/>
	<path class="st0" d="M370.89,553.27c-3.3,4.77-3.38,10.47-8.37,14.51c-4.75,1.1-8.9,0.94-11.52-2.86c-3.45-5-5.78-10.3-3.67-16.4
		c0.58-1.67,2.2-1.93,3.74-1.63c0.94,0.18,1.79,0.89,2.62,1.43c2.2,1.44,3.01,6.03,6.96,3.42c2.26-1.49,1.4-4.45,0.91-6.82
		c-0.29-1.42-1.1-2.77-1.21-4.18c-0.17-2.22,1.28-3.63,3.58-3.79c3.08-0.21,6.18-0.11,10.61-0.01c0.74,1.64,0.15,3.16-1.08,5.23
		c-2.45,1.15-3.57,2.23-3.35,4.96C370.36,549.38,370.5,550.8,370.89,553.27z"/>
	<path class="st11" d="M310.98,589.58c1.81,3.35,3.15,5.43,1.98,7.96c-2.25,4.85-5.13,9.33-8.96,13.22
		c-0.44,0.45-1.89,0.02-3.54-0.52c-1.63-1.25-2.43-2.1-3.21-3.93c0.53-5.4-0.96-10.24,2.38-15.4
		C302.97,586.63,306.5,586.47,310.98,589.58z"/>
	<path class="st1" d="M267.71,548.55c-7.36,4.39-12.93,11.35-17.38,20.61c-1.76-6.93,0.03-13.98,5.36-20.98
		C259.7,547.88,262.91,548.14,267.71,548.55z"/>
	<path class="st0" d="M311.71,589.65c-3.23,0.81-6.3,0.43-10.53,0.2c-1.27-3.18-1.39-6.49-1.5-11.05
		C310.37,580.13,310.79,580.51,311.71,589.65z"/>
	<path class="st1" d="M274.81,537.45c3.78-1.93,7.35-0.96,11.65,1.16C280.91,546.76,279.78,546.67,274.81,537.45z"/>
	<path class="st1" d="M318.35,570.16c1.77-0.25,2.64,1.13,3.24,3.59C320.58,573.38,319.52,572.18,318.35,570.16z"/>
	<path class="st1" d="M294.18,577.45c-0.26-1.86,1.35-2.69,4.17-3.36c1.03,0.44,1.12,1.04,1.26,2.56c0.06,0.91,0.06,0.91,0.06,0.91
		C298.21,577.55,296.75,577.54,294.18,577.45z"/>
	<path class="st1" d="M309.03,558.33c1.09,0.29,2.28,1.44,3.61,3.41C310.79,562.17,309.61,561.01,309.03,558.33z"/>
	<path class="st1" d="M297.19,606.35c0.75-0.04,1.55,0.81,2.48,2.51C298.95,608.89,298.1,608.07,297.19,606.35z"/>
	<path class="st1" d="M259.13,545.08c-0.27-0.66,0.36-1.66,1.86-3.01C261.26,542.73,260.64,543.74,259.13,545.08z"/>
	<path class="st1" d="M277.27,550.11c-0.51,0.3-1.48,0-2.9-0.89C274.89,548.92,275.85,549.22,277.27,550.11z"/>
	<path class="st1" d="M301.14,568.17c-0.65,0.02-0.99-0.36-1.51-1.47C300.55,566.16,301.6,566.38,301.14,568.17z"/>
	<path class="st1" d="M312.77,563.2c0.68-0.15,1.53,0.44,2.52,1.8C314.59,565.16,313.76,564.55,312.77,563.2z"/>
	<path class="st8" d="M1179.89,835.75c4.72-0.92,7.58-2.5,9.36-5.66c2.08-3.71,4.13-7.43,6.16-11.16c1.18-2.17,2.82-3.79,6.63-4.46
		c2.73,1.72,4.79,3.4,5.8,5.52c8.46,17.8,14.8,36.31,18.71,55.4c2.23,10.89,2.59,22.11,3.61,34.42
		c-7.14,10.29-11.49,20.8-18.42,29.84c-3.19,4.16-5.67,9.87-13.93,5.9c-3.34-17.91,3.04-35.08-2.43-52.09
		c-2.03-6.33-2.69-13.12-4.79-20.74C1187.94,859.5,1173.86,850.7,1179.89,835.75z"/>
	<path class="st10" d="M1198.61,946.52c3.92-0.71,5.86-1.95,7.25-4.3c4.77-8.06,9.79-15.99,14.51-24.07
		c1.79-3.07,3.46-6.01,8.53-6.96c1.5,21.88-2.52,43.29-9.34,64.23c-4.38,13.46-9.53,26.7-17.46,39.99
		c-5.49,1.35-9.23-0.39-12.54-3.61c-3.04-2.96-5.82-6.42-11.79-7.19c-2.85-2.16-3.81-4.79-2.73-6.95
		C1183.31,981.03,1187.41,962.79,1198.61,946.52z"/>
	<path class="st2" d="M531.81,466.82c-16.62,4.86-31.39,10.6-43.98,20.46c-3.02,2.36-6.11,1.06-6.71-2.44
		c-2.35-13.89,2.32-26.03,11.42-36.63c10.28-11.97,23.42-20.46,39.01-25.5c11.35-3.67,22.87-5.82,35.02-5.41
		c13.47,0.46,26.98,0.03,40.47,0.13c6.8,0.05,13.34-0.87,19.92-2.59c8.78-2.29,16.32-6.04,22.01-12.82
		c1.57-1.87,2.89-4.09,5.83-4.41c12.59,17.31,9.75,36.6-7.18,48.89c-9.3,6.74-20.01,10.46-31.47,11.56
		c-15.44,1.47-30.97,2.56-46.48,2.82C557.06,461.09,545,463.25,531.81,466.82z"/>
	<path class="st0" d="M833.11,409.65c5.35,12.82,5.68,17.94,2.54,31.78c-3.67,0.22-5.29-2.63-7.28-4.6
		c-8.63-8.61-19.31-11.1-31.29-9.19c-9.71,1.55-19.3,3.81-28.99,5.5c-6.11,1.07-12.3,2.18-18.48,2.39
		c-15.22,0.53-25.64-6.31-30.84-19.85c-2.65-6.91-4.83-13.93-1.55-21.29c1.16-2.59,3.99-4.04,5.97-2.23
		c7.01,6.41,15.23,5.23,23.45,3.71c9.66-1.78,19.37-3.55,28.82-6.1c8.25-2.23,16.57-2.07,24.75-1.41
		C814.69,389.52,825.29,396.92,833.11,409.65z"/>
	<path class="st11" d="M554.79,796.9c1.46,1.47,1.79,2.86,2.45,5.26c0.34,1.55,0.35,2.07,0.93,3.17c1.33,2.86,2.07,5.15,2.87,7.41
		c0.99,2.81,0.19,4.65-3.13,5.02c-2.03,0.23-4.09,0.23-7.36,0.37c-1.23,0.03-2.67,0.36-3.28-0.03c-9.13-1.51-17.65-2.62-27.44-3.92
		c-1.75-0.45-2.22-0.72-3.51-1.1c-20.73-5.71-39.21-13.89-55.38-26.34c-2.51-1.93-4.31-3.81-3.37-7.3
		c5.75-21.26,1.5-41.02-10.66-60.58c5.21-0.97,8.08,2.71,11.32,5.74c12.78,11.94,25.55,23.89,38.23,35.92
		c5.09,4.82,10.47,9.18,16.66,12.79c9.59,5.61,18.93,11.61,28.25,17.62C545.23,793.42,549.09,795.74,554.79,796.9z"/>
	<path class="st2" d="M573.12,551.18c-2.17-8.1,0.77-15.6-2.72-22.89c-11.69,1.7-22.42,5.23-33.16,8.79
		c-4.37,1.45-8.87,2.73-13.42,3.49c-3.71,0.61-6.6-3.34-5.71-6.84c0.9-3.56,3.08-6.24,6.33-7.97c4.51-2.4,9.04-4.96,13.9-6.55
		c23.2-7.58,47.16-11.15,71.73-11.23c5.36-0.02,10.29,0.93,14.27,4.65c4.13,3.86,3.55,9.21-1.93,10.12
		c-7.41,1.23-9.37,4.81-8.86,11.07c0.69,8.55-1.23,16.46-7.43,23.11c-9.16,9.82-19.79,9.95-29.23,0.25
		C575.5,555.79,574.67,553.92,573.12,551.18z"/>
	<path class="st11" d="M651.7,610.97c0.91-3.04,1.33-4.97,1.76-7.9c-0.16-2.47,0.36-3.69,2.63-4.97
		c11.99,2.57,23.09,4.97,33.78,8.46c15.22,4.97,30.83,4.01,46.11,2.46c11.08-1.13,22.38-3.52,34.07-7.95
		c4.53,4.59,0.56,8.44-1.34,13.53c-1.66,2.27-2.58,3.63-3.66,5.81c-0.6,1.33-1.05,1.85-2.17,3.13c-7.41,9.08-17.69,9.9-28.28,12.33
		c-2.02,1.23-3.33,1.58-5.8,1.35c-3.49-0.23-5.95-0.27-9.64-0.2c-2.58,0.34-3.95,0.4-6.23-0.16c-11.28-4.08-22.09-4.06-32.91-3.75
		c-6.75,0.19-13.31-0.29-19.71-2.61c-3.74-1.35-5.72-3.88-7.53-8.13C650.4,618.43,651.27,615.21,651.7,610.97z"/>
	<path class="st1" d="M816.39,522.4c-5.12,13.21-11.12,16.93-23.34,15.55c-4.53-0.51-7.54-3.09-9.94-6.34
		c-4.32-5.83-5.16-12.48-5.14-19.42c0.01-4.68-1.92-6.04-6.59-6.09c-5.29-0.06-10.2,1.3-15.03,3.18c-2.36,0.92-4.84,1.78-7.34,2.04
		c-1.22,0.12-3.08-0.91-3.8-1.94c-0.7-1-0.88-2.95-0.3-3.99c2.76-4.9,7.22-7.95,12.71-10.11c10.12-3.98,20.96-5.15,31.48-7.51
		c6.5-1.46,13.26-1.89,19.91-2.78c6.46-0.87,12.32,0.92,17.78,3.87c4.23,2.29,4.36,7.7-0.26,9.06c-7.7,2.26-9.01,6.74-8.37,13.31
		C818.48,514.49,817.25,517.9,816.39,522.4z"/>
	<path class="st11" d="M427.42,697.1c-12.38-4.05-24.98-8.09-38.75-7.92c-4.1,0.05-5.95-2.18-7.37-5.99
		c-5.88-15.79-0.17-29.41,8.81-43.53c2.84-0.43,5.13,0.09,5.72,2.14c4.55,15.75,15.43,28.16,24.74,41.38
		C423.44,687.25,426.56,691.08,427.42,697.1z"/>
	<path class="st1" d="M730.89,532.37c-6.14,3.45-6.63,3.91-4.36,7.25c1.89,2.8,4.22,5.29,4.2,9.85
		c-8.67-2.46-13.65-9.19-16.65-17.05c-8.46-22.18-6.22-43.74,5.43-64.5c0.37-0.65,1.6-1.06,2.5-1.22c1.3-0.24,1.68,0.51,1.64,1.82
		c-0.3,8.71-0.28,17.43-0.81,26.12C722.05,507.52,724.65,519.68,730.89,532.37z"/>
	<path class="st1" d="M769.02,615.03c0.06-3.68,1.17-7.82,2.25-13.04c0.87-7.95,1.14-14.81-0.44-22.93
		c4.14,0.54,5.79,4.35,6.24,8.12C778.26,596.99,776.3,606.31,769.02,615.03z"/>
	<path class="st1" d="M788.24,607.29c-0.93-10.47-1.71-21.73-4.52-34.02c7.23,6.19,7.74,15.33,7.25,24.61
		C790.82,600.76,789.69,603.59,788.24,607.29z"/>
	<path class="st1" d="M657.45,596.88c-1.15,2.03-2.02,3.15-3.44,4.73c-1.61-0.76-2.66-1.99-4.82-3.82c0.52-2.36,1.98-4.31,3.84-5.82
		c1.01-0.82,3.3-1.62,3.99-1.14C658.75,592.03,658.39,594.12,657.45,596.88z"/>
	<path class="st1" d="M745.64,558.36c7.66-1.06,7.66-1.06,10.04,5.85C752.55,563.25,749.38,561.19,745.64,558.36z"/>
	<path class="st1" d="M555.84,783.54c3.95,1.72,3.44,5.27,1.39,9.63C556.26,790.8,555.94,787.74,555.84,783.54z"/>
	<path class="st3" d="M637.68,618.25c1.96,1.7,2.42,4.35,0.67,7.91C636.31,624.41,636.52,621.78,637.68,618.25z"/>
	<path class="st1" d="M784.91,618.7c-0.38-1.17-0.05-3,1.07-5.41C786.39,614.48,786,616.26,784.91,618.7z"/>
	<path class="st2" d="M370.84,547.17c-2.23-1.18-2.25-2.89,1.14-4.31C372.36,543.94,371.91,545.16,370.84,547.17z"/>
	<path class="st1" d="M563.79,731.54c0.45,0.56,0.18,1.69-0.81,3.38C562.52,734.35,562.8,733.23,563.79,731.54z"/>
	<path class="st1" d="M758.28,566.89c0.56-0.3,1.62,0.03,3.16,1.04C760.87,568.25,759.83,567.89,758.28,566.89z"/>
	<path class="st7" d="M333.1,946.85c0.62,0.52,0.43,1.07-0.4,1.76C331.66,948.12,331.74,947.5,333.1,946.85z"/>
	<path class="st1" d="M651.44,610.5c0.86,2.43,0.97,5.5,1,9.71C648.6,618.41,649,614.86,651.44,610.5z"/>
	<path class="st3" d="M643.94,789.31c0.89-0.56,2.14-0.59,4.26-0.24C647.6,790.94,646.01,791.06,643.94,789.31z"/>
	<path class="st1" d="M672.11,789.53c0.75-0.97,2.08-1.4,4.47-1.87C676.74,789.77,675.37,791.09,672.11,789.53z"/>
	<path class="st1" d="M712.44,636.98c0.95-0.6,2.3-0.63,4.58-0.25C716.38,638.73,714.71,639.11,712.44,636.98z"/>
	<path class="st1" d="M728.32,637.53c0.77-0.81,2.08-1.12,4.41-1.33C732.66,638.23,731.16,639.13,728.32,637.53z"/>
	<path class="st1" d="M762.86,623.97c-0.65-0.69-0.22-1.52,1.35-2.44C764.78,622.2,764.31,623,762.86,623.97z"/>
	<path class="st1" d="M723.6,764.14c0.05-0.68,1.04-1.34,2.97-2C726.52,762.82,725.53,763.49,723.6,764.14z"/>
	<path class="st4" d="M445.27,762.44c-1.04,1.84,1.56,1.46-0.51,1.32c-0.32-0.02-0.85-0.6-0.84-0.9
		C443.93,762.55,444.49,762.26,445.27,762.44z"/>
	<path class="st1" d="M793.82,752.49c-0.45-0.61-0.08-1.74,1.03-3.44C795.28,749.65,794.96,750.81,793.82,752.49z"/>
	<path class="st6" d="M546.85,818.13c-0.18-0.42,1.22-0.54,1.85-0.25c0.63,0.29-0.43,1.08-0.43,1.08S547.03,818.54,546.85,818.13z"
		/>
	<path class="st6" d="M515.92,813.35c0.39-0.9,1.15-0.86,2.26,0.2c0.38,0.46-0.77,0.54-0.77,0.54S516.33,813.72,515.92,813.35z"/>
	<path class="st1" d="M558.7,805.41c-0.8,0.21-1.34-0.34-1.35-1.69C558.12,803.66,558.48,804.23,558.7,805.41z"/>
	<path class="st1" d="M679.95,787.52c-0.05-0.7,0.91-1.47,2.8-2.45C682.77,785.72,681.86,786.59,679.95,787.52z"/>
	<path class="st13" d="M1199.65,944.95c-3.14,4.75-2.64,9.36-4.05,13.39c-3.5,10-6.73,20.11-11.99,29.51
		c-2.6,4.64-5.85,9.07-6.79,15.55c-7.51,5.43-11.02,12.86-15.82,19.02c-15.26,19.6-34.09,34.83-56.92,46.22
		c-17.49,8.72-35.5,15.91-54.97,19.31c-11.65,2.03-23.64,4.64-35.27,3.96c-31.06-1.81-61.76-6.1-88.84-22.33
		c-1.3-0.78-2.78-1.3-4.2-1.91c-28.25-12.1-49.4-31.6-66.18-55.67c-3.4-4.88-6.97-9.65-11.06-15.3
		c-10.99-22.43-18.7-44.69-19.75-69.9c8.93-1.3,10.08,6.35,12.74,11.4c22.4,42.62,60.44,67.62,107.09,81.38
		c44.51,13.13,88.48,7.62,130.34-10.88c57.48-25.4,91.76-68.43,106.82-125.72c1.47-5.61,0.91-13.4,11.44-13.71
		c4.13,3.04,3.68,6.69,4.47,9.92c4.64,18.91,8.45,37.84,2.94,57.24C1199,938.7,1199.52,941.26,1199.65,944.95z"/>
	<path class="st1" d="M746.8,734.95c-11.54-3.39-21.81-3.12-32-0.19c-7.94,2.28-15.8,4.8-23.66,7.3c-4.91,1.56-9.73,3.35-14.66,4.86
		c-0.8,0.25-2.22-0.14-2.8-0.72c-0.45-0.45-0.37-1.89,0.08-2.5c3.9-5.26,8.91-9.62,14.45-13.18c16.3-10.46,34.41-15.69,54.28-15.4
		c6.48,0.1,12.3,1.73,17.35,5.54c2.5,1.89,4.47,4.16,3.97,7.44c-0.57,3.74-4,7.41-8.04,7.91
		C753.29,736.33,750.66,735.57,746.8,734.95z"/>
	<path class="st14" d="M1193.21,868.74c-2.5,1.6-5.13,2.18-5.96,4.92c-1.27,4.19-2.59,8.38-3.46,12.65
		c-5.52,27.31-19.76,50.57-37.07,72.69c-11.17,14.27-24.52,26.15-39.52,36.62c-1.25,0.87-2.38,1.97-3.76,2.56
		c-15.98,6.86-30.15,17.26-47.16,21.95c-11.83,3.27-23.98,5.74-36.15,7.68c-6.06,0.97-12.37,0.5-18.31,2.65
		c-1.39,0.5-3.1,0.52-4.62,0.39c-14.37-1.21-29.15-0.9-43.01-4.09c-29.98-6.89-56.57-20.47-80.95-38.57
		c-10.38-7.71-16.97-18.15-26.8-25.95c-1.15-0.91-2.04-2.22-2.76-3.5c-6.04-10.68-12.01-21.4-18.96-32.68
		c-1.29-0.94-1.94-1.33-1.91-1.69c1.65-24.06,3.89-47.97,13.11-70.89c4.05-10.07,8.68-19.86,14.6-28.92
		c11.37-17.38,24.03-33.87,40.27-47.85c9.66-8.31,20.09-15.58,31.58-20.91c13.39-6.21,27.47-11.52,42.24-14.39
		c16.68-3.24,33.51-5.81,52.02-5.9c8.39,1.68,15.33,3.68,22.75,2.98c4.78-0.46,9.15,1.33,13.63,2.51
		c12.44,3.26,25.07,5.97,37.31,9.79c14.44,4.5,26.32,13.32,39.11,22.44c2.67,2.18,4.26,4.06,6.16,5.6c1.92,1.56,4.53,2.47,6.19,4.2
		c14.7,15.31,30.14,30.15,38.48,50.97c-1.15,9.63,3.49,16.61,7.88,23.53C1190.22,860.8,1193.25,863.52,1193.21,868.74z"/>
	<path class="st15" d="M929.07,934c-2.54-6.82-4.28-12.92-6.4-18.9c-3.1-8.74-9.11-15.11-18.25-18.8
		c-4.76-1.92-9.45-4.01-14.08-6.18c-0.66-0.31-1.28-1.56-1.16-2.25c0.14-0.78,0.99-1.73,1.79-2.08c2.34-1.03,4.78-1.88,7.23-2.67
		c16.17-5.18,25.59-15.88,29.29-31.28c0.57-2.37,0.87-4.8,1.56-7.13c0.23-0.76,1.21-1.44,2.02-1.89c0.93-0.52,1.76,0.03,2.1,1.26
		c1.27,4.7,2.27,9.47,3.8,14.09c3.57,10.77,10.71,18.7,21.9,23.24c4.62,1.88,9.2,3.86,14.88,6.25c-4.4,4.06-9.05,4.72-13.11,6.16
		c-12.78,4.51-19.92,13.47-23.55,25.31c-1.43,4.66-2.41,9.45-3.81,14.12C932.85,934.72,931.45,935.39,929.07,934z"/>
	<path class="st15" d="M1088.7,811.18c1.47,11.52,7.4,18.88,17.4,23.75c5.48,2.67,10.66,5.91,15.88,8.84
		c0.01,3.81-3.44,3.26-5.27,4.39c-1.71,1.06-3.72,1.73-5.63,2.49c-10.24,4.04-17.22,10.56-19.16,21.25
		c-0.69,3.82-2.02,7.55-3.36,11.23c-0.45,1.23-1.64,2.75-2.82,3.07c-1.56,0.43-2.51-1.22-2.88-2.56c-0.77-2.82-1.32-5.69-1.97-8.54
		c-2.65-11.65-8.61-20.7-21.32-24.91c-3.26-1.08-6.97-1.99-9-5.32c2.18-4.5,7.2-5.38,11.2-7.26c10.38-4.86,17.4-12.04,20.38-22.66
		c0.65-2.3,1.63-4.76,3.25-6.49C1086.5,807.28,1087.83,808.94,1088.7,811.18z"/>
	<path class="st15" d="M1039.89,978.36c-4.39-5.5-9.62-9.48-15.01-14.11c3.86-6.61,12.7-8.53,14.58-19.62
		c4.79,9.84,11.44,13.03,16.23,18.83C1050.47,968.65,1044.36,972.5,1039.89,978.36z"/>
	<path class="st10" d="M953.49,786.72c-0.58-1.88-0.97-2.94-0.65-3.76c1.8-4.6,4.41-6.52,7.28-5.6c3.99,1.28,5.83,5.76,3.86,9.44
		C962.16,790.18,959.69,790.4,953.49,786.72z"/>
</g>
<path class="st14" d="M1176.82,827.57c8.32,13.18,14.24,27.86,17.38,43.13c-4.36-2.06-8.87-4.23-11.96-7.93
	C1175.64,854.86,1177.47,842.63,1176.82,827.57z"/>
<path class="st14" d="M941.12,792.47c6.09,1.95,12.18,3.9,18.27,5.85c1.47,0.47,3,0.95,4.54,0.74c0.97-0.13,1.87-0.53,2.76-0.92
	c2.83-1.25,5.66-2.5,8.49-3.75c0.95-0.42,1.91-0.85,2.74-1.48c1.43-1.11,2.33-2.75,3.18-4.35c2.72-5.08,5.51-10.86,3.79-16.36
	c-1.08-3.44-3.78-6.12-6.53-8.45c-2.28-1.93-4.69-3.74-7.34-5.13c-12.03-6.28-28.57-1.65-35.59,9.96c-5.27,8.7-5.07,20.3,0.12,29.04
	C939,803.46,944.53,808.03,941.12,792.47z"/>
<path class="st16" d="M1008.63,738.77c17.63-4.37,36.89-1.73,52.69,7.21L1270,696.52"/>
</svg>
