<?xml version="1.0" encoding="utf-8"?>
<!-- Generator: Adobe Adobe Illustrator 24.2.0, SVG Export Plug-In . SVG Version: 6.00 Build 0)  -->
<svg version="1.1" xmlns="http://www.w3.org/2000/svg" xmlns:xlink="http://www.w3.org/1999/xlink" x="0px" y="0px" width="1728px"
	 height="1296px" viewBox="0 0 1728 1296" style="enable-background:new 0 0 1728 1296;" xml:space="preserve">
<style type="text/css">
	.st0{fill:#352570;}
	.st1{fill:#3F2C6F;}
	.st2{fill:#312267;}
	.st3{fill:#582890;}
	.st4{fill:#E791B1;}
	.st5{fill:#7236A1;}
	.st6{fill:#57278F;}
	.st7{fill:#7134A0;}
	.st8{fill:#9762BE;}
	.st9{fill:#E18EAD;}
	.st10{fill:#9E5ECC;}
	.st11{fill:#CC799B;}
	.st12{fill:#DE82A2;}
	.st13{fill:#512B99;}
	.st14{fill:#7438A3;}
	.st15{fill:#F4E0E4;}
</style>
<g id="Layer_2">
	<g id="Layer_4">
	</g>
	<g>
		<path class="st0" d="M1065,678.14c8.43,4.84,15.4,10.92,21.47,18.6c0.68,1.2,1.34,1.9,2.18,2.92c1.62,0.86,1.82,2.39,2.78,3.8
			c0.78,0.84,0.75,1.65,1.4,2.47c0.69,0.69,1.08,1.17,1.47,1.98c1.66,3.7,0.46,5.82-3.43,7.04c-3.43-0.08-4.75-2.31-6.21-4.33
			c-3.42-4.74-6.82-9.49-11.64-13.66c-17.14-15.6-36.16-25.37-60.03-24.44c-6.93-0.17-13.31,0.33-20.15,1.34
			c-1.11,0.13-1.73,0.22-2.79,0.45c-2.14,0.67-3.83,1.28-5.98,1.89c-0.98,0.36-1.52,0.6-2.45,1.11
			c-18.55,7.6-32.9,19.69-42.69,36.52c-13.22,22.76-18,46.88-8.47,72.95c10.97,33.26,34.8,51.22,67.48,58.1
			c25.66,5.41,48.64-1.84,69.59-17.85c4.62-1.13,9.27-1.39,10.42-7.36c0.75-3.96,2.54-6.65,6.36-8.32c2.82-0.37,4.88,0.14,6.76,2.39
			c-1.75,5.12-5.36,8.53-8.59,12.22c-1.17,1.34-3.02,2.34-2.36,5.09c1.16,1.7,2.54,2.94,1.75,4.75c-0.98,2.26-3.06,1.46-5.28,1.34
			c-1.84-0.02-3.22,0.08-4.91,0.73c-0.85,0.4-1.31,0.68-2.07,1.25c-2.87,2.5-6.17,4.34-4.42,9.11c2.87,5.54,2.98,11.34,4.2,16.81
			c1.03,4.62-0.71,9.11-4.5,12.99c-3.8,2.42-6.15-0.3-9.21-1.85c-0.89-0.53-1.39-0.83-2.29-1.32c-0.64-0.32-0.89-0.45-1.52-0.78
			c-2.5-0.81-4.14-4.01-7.15-1.1c-0.5,0.49-0.7,0.68-1.25,1.12c-0.57,0.4-0.81,0.56-1.4,0.93c-0.59,0.38-0.83,0.53-1.41,0.91
			c-1.58,1.06-2.67,1.9-2.01,3.7c1.98,5.33-1,6.56-5.89,6.52c-0.98-0.08-1.53-0.18-2.45-0.47c-1.3-0.6-2.15-1.22-3.63-1.18
			c-1.2,0.12-2.01,0.1-3.23-0.02c-5.09-0.81-7.12,2.22-8.5,5.83c-0.8,2.07-0.73,4.52-3.32,6.08c-0.92,0.43-1.48,0.57-2.49,0.61
			c-1.55-0.19-2.6-0.62-4.07-1.12c-0.65-0.27-0.9-0.4-1.51-0.75c-3.27-2.15-5.75-1.15-8.43,1.17c-0.63,0.4-0.9,0.54-1.59,0.83
			c-2.54,0.6-4.66,0.54-7.22,0.15c-2.11-0.62-3.6-1.54-5.57-2.4c-1.37-0.61-2.37-1-3.85-1.15c-0.93-0.1-1.46-0.2-2.37-0.4
			c-0.89-0.25-1.4-0.4-2.29-0.64c-1.16-0.24-1.94-0.42-3.11-0.68c-1.44-0.37-2.49-0.68-3.89-0.06c-0.82,0.87-1.1,1.58-1.04,2.78
			c0.25,0.89,0.48,1.36,0.99,2.16c0.57,0.83,0.86,1.34,1.29,2.3c0.45,1.67,1.1,2.77,1.44,3.97c0.35,1.23,0.51,2.54-0.84,3.32
			c-1.25,0.72-2.44,0.24-3.45-0.58c-2.13-1.74-3.84-3.77-4.93-6.36c-1.46-3.46-4.1-4.87-7.94-4.75c-5.42,0.17-10.86,0.19-16.77-0.14
			c-2.18-0.66-3.78-0.47-5.33,0.42c-9.22,5.28-19.25,8.54-29.44,11.15c-12.84,3.29-25.91,5.32-39.11,6.89
			c-14.9,1.77-29.8,1.63-44.73,1.84c-10.33,0.15-20.69,0.17-30.92-0.92c-9.16-0.98-18.41-1.44-27.51-3.36
			c-5.32-1.12-10.85-1.34-16.14-2.84c-1.72-0.49-3.28-0.18-4.8,0.83c-7.85,5.25-16.58,7.98-25.88,9.42
			c-8.76,1.36-17.46,1.79-26.32,1.38c-6.98-0.32-13.81-1.3-20.63-2.53c-13.89-2.5-26.67-7.64-37.75-16.59
			c-9.04-7.3-14.59-16.75-16.79-28.13c-2.14-11.07-1.76-22.18-0.32-33.3c0.54-4.17,0.79-8.36,1.37-12.54
			c1.39-10.01,3.33-19.89,5.72-29.68c3.45-14.1,7.52-28.01,13.26-41.39c7.43-17.35,16.64-33.6,29.32-47.71
			c9.22-10.26,19.89-18.78,31.6-26.02c3.76-2.32,7.6-4.51,11.84-6.85c4.61,0.47,4.67,3.88,4.27,6.6
			c-1.46,9.87-0.59,19.78-0.84,29.66c-0.09,3.44-0.43,6.7-2.71,9.51c-1.09,1.34-1.84,3.12-1.52,4.71
			c1.57,7.95-2.75,15.65-0.83,24.08c-0.93,14.64,3,27.97,6.97,41.24c3.43,11.46,6.48,23.03,9.81,34.52
			c0.43,1.49-0.33,4.19,3.14,3.71c5.15-3.03,8-7.22,8.9-12.64c0.6-3.58,1.76-6.88,3.73-9.92c2.28-3.52,3.24-7.24,1.66-11.79
			c-0.17-0.75-0.21-1.06-0.26-1.83c0.05-0.78,0.1-1.1,0.3-1.86c0.82-2.01,2.2-3.18,2.74-4.75c2.77-8.02,5.66-15.67,13.96-20.15
			c3.66-1.97,4.35-6.96,5.98-10.81c0.88-2.09,0.72-5.84,4.41-4.68c3.27,1.03,2.02,4.06,1.52,6.48c-0.09,0.41-0.16,0.82-0.31,1.71
			c-6.31,8.87-4.24,17.75-1.99,26.84c4.45,18.01,6.98,36.29,6.47,54.91c-0.31,11.17-2.43,22.08-5.02,33.75
			c4.24-0.93,6.94-3.51,10.33-5.69c30.04-23.79,55.53-51.25,77.88-82.28c2.5-3.78,0.34-5.97-2-7.88
			c-15.22-12.44-28.23-27.02-40.89-41.95c-3.89-4.58-10.01-6.12-14.28-10.29c-1.4-1.37-2.74,0.01-3.38,1.5
			c-1.9,4.47-4.16,8.7-6.94,12.72c-1.85,2.68,0.49,4.71,1.99,6.68c8.14,10.74,17.07,20.81,26.57,30.99
			c1.68,1.92,3.38,3.18,4.86,4.65c1.69,1.69,4.5,3.6,2.03,6.19c-1.97,2.07-4.34,0.31-6.05-1.28c-5.2-4.84-11.15-8.87-15.64-14.47
			c-0.92-1.15-2.01-2.13-3.49-3.35c-5.17-4.69-8.99-9.96-12.99-15.06c-2.08-2.65-3.97-3.37-6.63-0.62c-2.15,2.23-4.5,4.58-8.49,3
			c-2.42-4.94-0.23-8.05,3.45-10.4c2.33-1.49,3.81-3.11,3.37-6.11c-0.29-1.97,0.28-3.93,2.25-4.83c5.75-2.64,7.72-8.07,10-13.26
			c3.38-7.69,5.27-8.59,12.34-4.66c5.44,3.03,10.93,4,17.02,2.86c4.9-0.92,9.72-0.95,12.94,4.01c1.26,1.95,2.33,0.8,3.48-0.35
			c3.58-3.58,4.82-7.75,3.44-12.65c-2.67-9.48,3.16-16.39,7.38-23.69c1.17-2.02,3.42-4.47,6.2-3.31c3.12,1.3,1.52,4.35,1.29,6.73
			c-0.19,1.88-0.72,3.72-0.98,5.6c-0.23,1.7-0.18,3.38,0.54,4.96c2.05,4.54,14.27,10.18,19.27,9.04c8.45-1.93,16.25-5.72,24.27-8.79
			c4.06-1.55,7.53-1.9,11.53-0.7c14.23,4.26,23.93-2.94,24.17-18.05c0.06-3.6,2.04-7.59-1.41-10.8c-0.65-0.6-1.37-0.95-2.67-1.19
			c-6.18-2.51-11.23-6.21-17.36-8.8c-7.06-5.51-13.31-0.77-20.06,0.85c-0.87,0.54-1.4,0.78-2.38,1.09c-0.71,0.2-1,0.27-1.73,0.46
			c-0.73,0.2-1.02,0.28-1.77,0.5c-0.76,0.2-1.07,0.27-1.86,0.39c-1.97,0.12-3.42-0.13-4.83-0.57c-2-0.62-4.26-1.05-4.52-3.69
			c-0.25-2.46,1.47-3.76,3.28-4.95c0.7-0.46,0.13,0.33,0.51-0.33c6.37-10.98,20.01-7.61,28.51-14.52c4.82-3.92,10.64-4.7,17.15-2.79
			c0.76,0.24,1.05,0.36,1.74,0.72c3.1,4.4,5.88,8.46,12.02,8.7c0.65,0.32,0.9,0.49,1.38,1.02c0.89,5.1,4.12,8.32,7.25,12.09
			c0.46,0.56,0.62,0.81,0.93,1.47c2.15,7.42,1.85,14.56,1.77,21.74c0.92-0.3,1.38-0.81,2.12-1.58c0.46-0.44,0.65-0.62,1.4-1.34
			c0.89-0.97,1.22-1.4,1.77-2.19c0.42-0.59,0.59-0.82,1.06-1.4c1.54-2.02,1.96-4.23,3.42-5.72c2.45-2.51,5.11-4.66,8.03-0.14
			c-0.1,0.47-0.01,0.82-0.15,0.93c-0.56,0.45-0.82,0.88-0.97,1.8c-0.54,2.83,0.8,2.98,2.78,2.17c0.49-0.66,0.83-0.96,1.5-1.32
			c0.85-0.58,1.58-0.57,2.41-1.08c0.2-0.27,0.47-0.62,0.68-0.64c0.72,0.19,1.19,0.15,1.83-0.53c0.21-0.33,0.5-0.68,0.73-0.71
			c0.72,0.17,1.17,0.11,1.8-0.54c1.16-0.78,2.11-1.25,3.46-1.78c1.14-0.24,1.9-0.34,2.8-0.93c1.17-0.74,2.16-1.14,3.56-1.59
			c1.12-0.27,1.86-0.36,2.78-0.88c0.19-0.32,0.28-0.39,0.34-0.38c1.42-0.47,2.88-0.62,4.68-1.14c1.01-0.32,1.59-0.55,2.65-0.86
			c0.7,0.01,0.92,0.08,1.3-0.17c2.37-1.42,4.82-0.62,7.6-1.13c0.9-0.06,1.29-0.13,1.99-0.22c0.3-0.03,0.9-0.11,1.47-0.3
			c1.15-0.29,1.72-0.4,2.71-0.35c6.36,2.78,12.77,0.92,18.94,2.07c8.21,1.54,16.28,3.16,23.85,6.82c2.26,1.09,4.76,1.5,7.74,1.93
			c1.2,0.28,1.9,0.5,2.82,1.02c1.18,1.13,2.29,1.7,3.73,2.43c0.29,0.24,0.32,0.22,0.32,0.24
			C1064.06,677.45,1064.38,677.73,1065,678.14z"/>
		<path class="st0" d="M912.84,396.12c1.05,0.26,1.74,0.5,2.66,1.02c0.55,0.61,0.89,0.92,1.57,1.29c0.94,0.31,1.56,0.52,2.35,1.01
			c0.58,0.98,1.28,1.15,2.24,1.56c2.15,0.82,3.63,2.04,5.27,3.66c0.92,1.1,1.68,1.81,2.9,2.56c3.85,1.99,5.88,5.36,8.67,8.44
			c0.26,0.84,0.5,1.22,1.1,1.76c0.72,0.32,1.03,0.58,1.31,1.3c0.64,0.91,1.04,1.64,1.95,2.48c0.29,0.29,0.73,0.65,0.77,0.94
			c0.2,0.7,0.42,1.07,0.94,1.64c0.24,0.23,0.53,0.38,0.52,0.55c0.14,1.28,0.93,2.02,1.79,3.18c0.25,0.31,0.63,0.63,0.63,0.87
			c2.49,5.95,2.93,12.42,6.83,18.07c0.54,1.09,0.76,1.83,0.92,2.96c1.83,4.39,0.33,8.77,1.51,13.37c0.21,0.48,0.69,0.89,0.74,1.2
			c0.21,0.56,0.36,0.8,0.77,1.41c0.81,1.13,1.37,1.89,1.97,3.01c1.65,5.16,4.88,9.26,6.21,14.67c0.41,0.97,0.73,1.5,1.06,2.51
			c0.58,2.77-1.02,5.28,0.99,7.75c1.06,4.11,0.57,7.97,0.5,12.38c-0.01,3.44-0.28,6.28-1.1,9.6c-0.09,1.33-0.06,2.13-0.24,3.29
			c-1.15,1.93-1.58,3.72-2.28,5.84c0.24,0.86,0.23,1.25-0.23,1.87c-1.16,1.59-1.44,3.24-2.3,5.08c-0.17,0.37-0.22,0.27-0.17,0.27
			c-0.74,0.44-0.78,1.26-1.14,2.36c-0.17,0.36-0.18,0.95-0.38,1.18c-0.34,0.47-0.49,0.72-0.85,1.33c-0.48,0.98-0.75,1.59-1.27,2.42
			c-0.66,0.55-1,0.93-1.33,1.75c-0.2,0.86-0.35,1.33-0.8,2.03c-1.89,4.46-3.83,4.36-6.2,0.78c-1.96-2.98-3.09-6.32-4.72-9.89
			c-0.64-0.71-0.97-1.13-1.48-1.91c-0.26-0.57-0.33-0.8-0.42-1.39c0.07-0.79,0.17-1.21,0.21-1.93c-0.08-0.29-0.36-0.84-0.53-1.09
			c-0.43-0.59-0.71-0.91-1.25-1.44c-0.71-0.75-1.02-1.36-1.33-2.36c-0.2-0.79-0.33-1.24-0.66-1.98c-0.32-0.49-0.47-0.67-0.89-1.11
			c-0.45-0.42-0.64-0.59-1.09-1.03c-0.59-0.69-0.86-1.14-1.2-1.99c-0.43-2.07-1.23-3.25-3.55-3.32c-2.07-0.28-3.6-0.86-5.29-2.07
			c-0.7-0.58-1.09-0.91-1.79-1.43c-1.14-0.67-2.01-1.09-3.11-1.8c-0.67-0.47-1.05-0.73-1.75-1.15c-0.51-0.27-0.72-0.38-1.24-0.64
			c-0.73-0.38-1.15-0.61-1.88-1.01c-0.52-0.3-0.72-0.42-1.22-0.75c-0.9-0.59-1.54-0.85-2.65-0.68c-0.87,0.11-1.38,0.13-2.27,0.04
			c-0.89-0.21-1.38-0.39-2.23-0.74c-0.62-0.24-0.87-0.33-1.5-0.55c-1.45-0.44-2.53-0.57-4.1-0.52c-3.85,0.13-7.22-0.52-10.46-1.23
			c-18.67-4.15-34.74,4.07-50.98,10.78c-19.27,7.95-38.16,16.76-56.26,27.2c-7.15,4.12-13.61,9.17-20.21,14.05
			c-3.29,2.43-4.07,5.7-3.79,9.97c-0.05,6.43,0.74,12.46-2.47,18.41c-1.93,1.7-3.84,1.87-5.66,1.21c-4.89-1.78-6.93,1.38-8.62,4.9
			c-0.71,1.47-0.84,3.2-1.76,4.66c-3.08,4.86-5.46,5.39-10.18,2.07c-1.37-0.97-2.67-2.01-4.75-2.67c-1.96-0.9-3.46-1.74-4.65-2.9
			c-8.41-8.18-23.71-4.32-27.69,9.72c-3.38,11.92-0.81,23.3,4.62,34.67c0.31,0.76,0.43,1.07,0.72,1.84c0.29,0.79,0.41,1.1,0.68,1.91
			c0.91,3.52,2.14,6.53-0.05,9.95c-5.82-3.43-8.89-8.97-11.58-14.7c-2.5-5.33-4.06-11-4.67-16.91c-0.46-4.43-1.69-8.49-4.93-11.93
			c-5.45-5.79-8.69-12.93-10.8-20.48c-1.42-5.09-1.13-10.43-0.99-15.7c0.02-0.63,0.17-1.25,0.26-1.88c0.71-5.3,0.19-10.2-2.5-15.14
			c-3.95-7.24-5.87-15.29-7.14-23.45c-0.1-0.62-0.27-1.25-0.26-1.87c0.08-9.26-0.81-18.54,0.84-27.76
			c2.96-16.58,9.05-31.94,18.2-46.05c12.42-19.16,28.36-34.87,46.97-48.04c14.35-10.15,29.61-18.56,45.94-25
			c11.16-4.4,22.73-7.36,34.47-9.9c12.08-2.61,24.23-2.6,36.39-2.1c6.88,0.28,13.75,1.8,20.38,3.76c11.16,3.3,21.8,7.82,31.04,15.13
			c2.47,1.96,4.97,3.89,7.81,6.1c1.53,0.94,2.78,1.43,4.42,2c1.29,0.37,2.19,0.68,3.32,1.27
			C911.18,395.43,911.73,395.9,912.84,396.12z"/>
		<path class="st1" d="M1074.8,835.98c1.03-0.47,2.06-0.57,3.06-0.41c3.44,0.56,3.44,0.59,2.4-3.65
			c6.99,4.29,10.75,11.22,12.57,19.18c1.99,8.74,1.75,17.52-1.12,26.12c-0.86,2.59-1.44,5.31-2.63,7.73
			c-4.44,9.05-11.32,15.56-20.89,18.95c-2.69,0.95-4.79,2.48-6.68,4.52c-4.26,4.61-9.59,7.41-15.62,8.98
			c-3.52,0.92-7.12,0.83-10.65,0.53c-2.83-0.25-5.35,0.09-7.94,1.24c-2.48,1.1-5.13,1.85-7.76,2.53
			c-7.28,1.87-14.23,0.24-20.73-2.89c-3.19-1.54-6.24-2.15-9.65-2.05c-10.45,0.3-19.16-3.81-26.69-10.79
			c-2.51-2.33-4.29-5.17-5.83-8.18c-0.97-1.9-2.45-2.64-4.58-2.63c-5.89,0.04-11.77-0.07-18.09-0.39c0.56-1.27,1.83-1.24,3.09-1.24
			c4.82,0,9.65,0.18,14.46-0.05c4.17-0.2,6.93,1.66,8.29,5.31c0.78,2.1,2.1,3.57,3.57,5.04c1.78,1.77,3.21,2.34,3.57,1.47
			c0.63-1.51-0.83-2.17-1.27-3.26c-0.3-0.76-0.41-1.6-0.62-2.85c2.21-1.55,3.43,0.31,4.86,1.31c1.87,1.31,3.65,2.78,5.67,3.86
			c2.21,1.18,4.63,2.82,7.02,2.07c3.58-1.12,0.76-4.29,1.27-6.47c0.28-1.21,0.26-2.48,1.43-3.74c2.91-0.17,5.42-0.13,8.48-0.04
			c0.98,3.53,0.63,7.25,3.85,10.28c6.25,5.58,13.11,6.83,21.3,5.04c-1.96-2.93-4.29-5.05-6.1-8.06c-1.23-2.19-2.27-3.99-2.41-6.55
			c1.41-2.2,2.78-3.71,2.88-6.31c0.16-4.19,4.05-7.61,8.45-8.21c0.33-0.05,0.72,0.32,1.33,0.87c0.26,0.58,0.35,0.85,0.26,0.98
			c-6.27,8.37-6.06,10.01,2.71,18.45c5.83,5.58,12.23,7.08,19.48,4.72c1.92-0.62,4.53-0.99,4.67-3.53c0.13-2.28-2.47-2.51-4.35-3.74
			c-5.98-3.92-10.42-8.74-14.24-14.69c1.58-0.6,3.21-0.7,4.82-0.92c1.38-0.19,2.1-1.4,1.68-2.66c-0.07-0.19-0.12-0.39-0.21-0.58
			c-0.59-1.21-2.19-2.13-1.35-3.77c0.77-1.49,1.92-2.63,4.19-2.78c-0.18,9.25,6.36,13.41,13.2,17.85c8,4.73,14.11,4,20-2.41
			c3.41-3.71,6.34-7.8,7.78-13.26c4.79-13.86,5.12-26.62-5.47-37.75C1075.53,838.43,1075.06,837.49,1074.8,835.98z"/>
		<path class="st2" d="M729.46,591.46c2.13-0.55,3.85-0.09,5.3,1.42c1,1.06,2.15,2.01,3.37,2.81c0.69,0.46,1.7,0.42,2.32-0.28
			c1.26-1.4,2.44-2.88,3.62-4.36c0.71-0.88,0.96-1.97,0.51-2.97c-0.93-2.02-0.46-3.12,1.76-3.64c1.58-0.37,2.03-2.01,2.93-3.14
			c1.39-1.74,2.5-2.06,4.22-0.58c1.46,1.25,2.94,1.44,5.13,1.5c2.17,5.39-0.57,9.61-3.48,14.17c-2.79,1.17-5.55,1.34-5.49,5.2
			c0.05,3.44-3.09,2.17-5.05,2.29c-0.23,2.77,1.69,3.81,3.67,5.36c0.49,0.6,0.63,0.88,0.67,1.64
			c-17.47,23.15-31.7,47.53-39.86,75.09c-2.52,8.5-2.24,17.46-2.97,26.24c-1.04,12.55-2.04,25.09-5.71,37.7
			c-0.61,0.58-0.89,0.77-1.69,0.91c-0.55-1.51-0.64-2.98-0.62-4.45c0.04-2.13-0.09-4.14-1.6-5.9c-0.78-0.9-0.61-2.06,0.66-2.51
			c1.66-0.59,2.25-1.72,2.19-3.36c-0.09-2.29,0.38-4.64-0.61-6.83c-1.31-2.89-0.44-5.63,1.48-7.56c2.68-2.69,3.05-5.7,2.98-9.17
			c-0.14-6.5-0.06-13-0.03-19.5c0.01-3.13-0.18-6.23,0.95-9.31c0.92-2.51,0.09-4.95-1.84-7.39c0.23-1.42,0.83-2.56,1.74-3.92
			c0.5-0.38,0.68-0.54,0.77-1.04c0.1-1.04,0.3-1.73,0.75-2.69c0.61-0.65,0.91-1.06,1.18-1.89c0.22-3.57,2.51-5.87,3.58-8.69
			c0.74-1.95,0.03-3.11-1.93-4.28c-0.47-0.81-0.78-1.19-1.54-1.57c-1.97-0.24-2.67-1.6-3.81-2.88c0.72-3.75-0.47-6.99-1.08-10.82
			c4.16-0.78,5.58,3.06,8.24,5.04c2.38,1.77,4.5,3.33,6.29-1.13c2.52-3.65,2.04-6.78,0.52-10.33c-3.12-7.31-2.01-13.25,3.14-17.6
			c1.14-0.21,1.79-0.12,2.81,0.42c1.35,1.25,1.78,2.43,1.82,4.22c-0.22,2.39-0.97,4.22-1.03,6.53c0.06,0.77,0.17,1.17,0.7,1.6
			c2.53-1.32,3.16-3.41,2.86-6.29c-0.31-2.39-1.77-3.58-3.34-5.17c-0.48-0.49-0.67-0.68-1.1-1.22c-0.38-0.89-0.42-1.43-0.23-2.39
			c0.38-0.85,1.11-0.89,1.23-1.18c0.3-0.77,0.27,0.12-0.94-0.18c-3.3-1.12-4.87-3.94-7.8-5.63c-0.8-0.44-1.27-0.66-2.13-0.93
			c-0.89-0.17-1.42-0.23-2.35-0.3c-1.25-0.08-2.07-0.23-3.24-0.75c-0.54-0.47-0.71-0.72-0.92-1.41c0.08-1.04,0.27-1.61,0.75-2.55
			c1.37-1.97,2.82-2.91,5.27-2.58c1.97,0.85,3.03,3.14,5.68,1.49c4.81-0.26,6.58,3.36,9.29,6.3c0.57,1.03,0.8,1.76,1.25,2.78
			c0.29,0.5,0.42,0.7,0.79,1.14c0.41,0.41,0.58,0.57,1.02,0.96c0.6,0.56,0.91,0.92,1.37,1.6c0.45,0.65,0.77,0.96,1.5,1.18
			c2.94-1.9,1.15-4.09,0.72-6.16C733.17,600.09,729.94,596.47,729.46,591.46z"/>
		<path class="st1" d="M945.76,532.01c2,0.29,2.76,1.6,2.88,3.4c0.23,3.66,3.31,5.99,4.43,9.26c0.18,0.54,1.07,0.26,1.56-0.2
			c0.44-0.42,0.87-0.85,1.65-1.41c0.36,8.28,0.6,16.69,0.31,25.09c-0.24,6.83,0.82,13.32,3.09,19.72c3.02,8.5,5.32,17.27,6.57,26.15
			c1.61,11.4,2.53,22.84,0.88,34.49c-1.16,8.19-3.06,15.98-6.47,23.89c-2.85-1.85-4.29-2.04-6.16-0.45
			c-1.15,0.98-1.79,2.21-2.22,3.67c-0.46,1.56-0.92,3.27-3.23,3.94c-2.18-2.84-0.38-5.26,0.81-7.6c5.17-10.16,6.98-20.84,7.22-32.27
			c0.42-19.6-1.96-38.6-8.3-57.13c-1.44-4.2-2.23-8.58-1.99-13.04C947.46,557.12,945.92,544.81,945.76,532.01z"/>
		<path class="st1" d="M1088.75,714.25c4.64-0.88,4.64-0.88,5.51-5.51c1.88,0.75,2.61,2.78,3.56,4.61
			c6.59,12.64,10.06,26.01,10.76,40.35c1.07,21.97-4.42,41.86-16.94,60.27c-2.35-0.63-4.35-1.69-7.25-1.48
			c-2.07-4.21,2-6.24,3.28-9.87c6.81-14.02,10.21-28.41,11.06-43.94c-0.96-14.58-3.63-28.24-10.15-41.47
			C1088.25,716.03,1088.27,715.35,1088.75,714.25z"/>
		<path class="st1" d="M1057.13,673.14c-2.77,2.38-5.87,1.75-8.62,0.04c-3.28-2.05-6.89-2.78-10.45-3.97
			c-3.82-1.27-7.6-1.77-11.46-2.52c-4.63-0.9-9.19-0.84-13.79-0.98c-1.47-0.05-2.94-0.06-4.4-0.21c-0.99-0.1-1.25-1-1.57-2.28
			c5.1-1.3,10.27-0.94,15.96-0.34c1.04,0.31,1.56,0.36,2.45,0.52c4.08,0.08,7.78,0.1,11.65,1.74c0.86,0.38,1.36,0.54,2.24,0.84
			c1.99,0.08,3.55,0.29,5.32,1.49c1.25,0.65,2.08,1.12,3.28,1.53C1051.2,669.83,1054.05,671.27,1057.13,673.14z"/>
		<path class="st1" d="M954.68,446.29c-4.32-0.37-4.41-0.42-4.76-3.92c-0.15-1.45,0.25-3.11-0.76-4.26
			c-2.21-2.51-1.8-5.45-1.69-8.94C951.52,433.66,953.16,439.7,954.68,446.29z"/>
		<path class="st1" d="M966.59,483.05c-2.78-3.85-5.65-8.07-6.38-13.78C963.63,472.8,965.43,477.57,966.59,483.05z"/>
		<path class="st1" d="M956.91,462.68c-1.39,0.21-1.95-0.8-1.94-2.21c0.03-3.15,0.05-6.3,0.15-10.07c1.36,0.35,1.46,1.76,1.49,3.21
			C956.67,456.44,956.76,459.28,956.91,462.68z"/>
		<path class="st1" d="M968.85,493.11c-0.48,0.48-0.89,0.48-1.29,0.44c-1.36-0.13-2.37-0.56-1.91-2.26c0.42-1.55,0.8-3.11,1.53-4.96
			C968.41,488.13,968.75,490.36,968.85,493.11z"/>
		<path class="st1" d="M968.1,515.46c-0.42-2.6-0.98-5.57,0.39-8.85C969.77,509.25,969.03,512.18,968.1,515.46z"/>
		<path class="st3" d="M961.77,676.85c0.26,1.08-0.63,1.57-1.56,2c-0.73,0.34-1.56,0.78-2.16-0.07c-0.3-0.43-0.39-1.13-0.32-1.68
			c0.07-0.58,0.45-1.11,0.88-2.06c0.35-0.55,0.52-0.71,0.93-0.62C959.84,675.73,958.91,677.46,961.77,676.85z"/>
		<path class="st1" d="M965.74,524.54c-0.76-1.68-0.92-3.62,1.3-5.37C966.99,520.69,966.53,522.45,965.74,524.54z"/>
		<path class="st1" d="M963.02,531.5c-0.62-1.6-0.51-3.33,1.54-4.77C964.42,528.09,963.89,529.68,963.02,531.5z"/>
		<path class="st3" d="M988.7,665.44c-0.57,2-2.31,1.48-4.28,1.42C985.25,665.66,986.91,665.87,988.7,665.44z"/>
		<path class="st1" d="M907.25,393.08c-1.22,0.4-2.82,0.99-4.07-1.03C904.36,392,905.68,392.37,907.25,393.08z"/>
		<path class="st1" d="M1063.53,676.78c-1.21,0.29-2.76,0.57-3.53-1.61C1061.06,675.32,1062.2,675.88,1063.53,676.78z"/>
		<path class="st3" d="M1003.22,664.14c-0.94,0.12-1.55-0.01-2.35-0.39c0.76-0.58,1.7-0.9,2.99-1.11c0.36,0.12,0.37,0.42,0.3,0.55
			C1003.91,663.52,1003.73,663.71,1003.22,664.14z"/>
		<path class="st3" d="M1039.28,665.88c-0.6,1.27-1.29,0.97-1.98-0.25C1037.85,665.45,1038.45,665.55,1039.28,665.88z"/>
		<path class="st1" d="M929.99,407c-1.07,0.46-2.24,0.38-2.81-1.53C928,405.56,928.89,406.11,929.99,407z"/>
		<path class="st3" d="M1047.82,668.73c-0.81,0.64-1.85,0.79-2.84-0.6C1045.74,668,1046.65,668.24,1047.82,668.73z"/>
		<path class="st1" d="M947.09,427.39c-1.34,0.18-2.17-0.51-2.06-2.46C945.74,425.31,946.4,426.15,947.09,427.39z"/>
		<path class="st1" d="M1088.78,699.58c-1.11,0.2-2.01-0.28-2.15-2.03C1087.74,697.4,1088.13,698.4,1088.78,699.58z"/>
		<path class="st3" d="M1025.38,663.29c-0.38,1.2-1.09,1.16-1.96,0.11C1023.93,663.15,1024.53,663.13,1025.38,663.29z"/>
		<path class="st1" d="M912.98,395.84c-0.93,1.68-1.72,1.36-2.29-0.58C911.36,395.11,912.06,395.32,912.98,395.84z"/>
		<path class="st1" d="M943.09,421.13c-1.01,0.21-1.78-0.27-2.05-1.76C941.68,419.6,942.36,420.2,943.09,421.13z"/>
		<path class="st1" d="M1093.07,705.76c-0.73,0.14-1.23-0.36-1.47-1.54C1092.04,704.36,1092.52,704.88,1093.07,705.76z"/>
		<path class="st1" d="M961.7,534.12c-0.38-0.62-0.31-1.43,0.67-2.29C962.5,532.38,962.26,533.13,961.7,534.12z"/>
		<path class="st3" d="M977.08,669.25c0.09,0.88-0.51,1.3-1.8,1.29C975.49,670.06,976.1,669.64,977.08,669.25z"/>
		<path class="st3" d="M965.84,674.47c0.08,0.73-0.44,1.16-1.56,1.3C964.44,675.33,964.97,674.9,965.84,674.47z"/>
		<path class="st3" d="M983.45,666.79c0.07,0.86-0.55,1.26-1.8,1.25C981.86,667.56,982.46,667.16,983.45,666.79z"/>
		<path class="st1" d="M921.77,400.9c-0.53,0.07-1.21-0.21-2.03-0.84C920.27,399.99,920.94,400.27,921.77,400.9z"/>
		<path class="st0" d="M706.63,651.05c0.28-0.13,0.73,0.07,1.34,0.61C707.68,651.79,707.24,651.59,706.63,651.05z"/>
		<path class="st1" d="M917.23,398.19c-0.26,0.16-0.69-0.01-1.31-0.47C916.17,397.57,916.62,397.72,917.23,398.19z"/>
		<path class="st1" d="M958.52,465.4c-0.4,0.15-0.68-0.13-0.91-0.83C957.87,464.54,958.2,464.8,958.52,465.4z"/>
		<path class="st1" d="M939.82,417.25c-0.3,0.07-0.67-0.22-1.12-0.87C939,416.32,939.38,416.61,939.82,417.25z"/>
		<path class="st1" d="M944.77,423.63c-0.3,0.05-0.63-0.25-1.04-0.89C944.03,422.7,944.39,422.99,944.77,423.63z"/>
		<path class="st1" d="M1065.15,677.96c-0.26,0.14-0.66-0.05-1.22-0.52C1064.18,677.3,1064.6,677.47,1065.15,677.96z"/>
		<path class="st3" d="M968.36,673.24c0,0.32-0.37,0.63-1.1,0.89C967.26,673.8,967.63,673.52,968.36,673.24z"/>
		<path class="st1" d="M959.96,674.36c-0.19,0.32-0.69,0.27-0.93,0.28c0-0.35,0.24-0.71,0.79-1.21
			C960.14,673.54,960.15,673.79,959.96,674.36z"/>
		<path class="st3" d="M970.89,672c0,0.32-0.35,0.63-1.06,0.89C969.82,672.55,970.18,672.27,970.89,672z"/>
		<path class="st0" d="M704.5,669.83c0.32-0.01,0.48,0.23,0.57,0.49c0.02,0.06-0.2,0.2-0.54,0.35
			C704.32,670.51,704.32,670.3,704.5,669.83z"/>
		<path class="st1" d="M960.37,536.72c-0.3-0.27-0.17-0.65,0.35-1.15C960.86,535.79,960.76,536.18,960.37,536.72z"/>
		<path class="st1" d="M958.01,540.85c-0.19-0.28-0.03-0.77,0.45-1.48C958.64,539.64,958.5,540.14,958.01,540.85z"/>
		<path class="st3" d="M992.43,664.25c0.31,0.52,0.23,0.91-0.55,0.63C991.76,664.69,992.13,664.22,992.43,664.25z"/>
		<path class="st0" d="M706.4,665.19c0.2,0.26,0.09,0.76-0.31,1.52C705.89,666.46,705.99,665.95,706.4,665.19z"/>
		<path class="st4" d="M945.84,531.4c0.76,2.84,1.22,5.52,1.78,8.18c1.98,9.36,1.24,18.84,1.19,28.28
			c-0.03,5.75,0.8,11.27,2.64,16.69c3.44,10.16,5.66,20.61,7.14,31.22c0.29,2.08,0.39,4.19,0.4,6.29
			c0.05,7.57-0.12,15.15,0.08,22.71c0.23,8.63-2.09,16.62-5.55,24.35c-1.46,3.26-3.16,6.4-4.83,10.05
			c-0.08,0.45-0.07,0.47-0.08,0.47c-0.58,0.54-0.62,1.31-1.17,2.21c-0.29,0.22-0.18,0.25-0.19,0.19c-0.14,0.35-0.38,0.68-0.93,1.16
			c-0.91,1-1.61,1.76-2.53,2.87c-3.78-0.54-2.18-3.39-2-5.25c0.56-5.81-0.04-11.44-1.68-17.53c-0.2-0.49-0.15-0.95-0.27-1.16
			c-3.03-3.89-4.98-8.13-7.32-12.65c-0.19-0.4-0.2-0.23-0.16-0.31c-4.19-2.56-8.25-5.31-12.51-8.51c-0.3-0.32-0.33-0.26-0.3-0.28
			c-5.23-1.58-2.86-4.8-1.47-8.16c0.52-1.19,0.88-1.97,1.16-3.23c0.19-0.98,0.32-1.54,0.58-2.51c2.4-5.07,1.5-9.48-1.15-14.13
			c-3.42-4.38-7.34-7.39-11.91-9.7c-3.55-1.8-6.86-4.05-9.62-7.62c-4.79-8.12-2.74-16.74-3.41-25.17
			c-5.07,11.95-3.66,22.97,4.13,30.43c2.05,1.31,3.93,2.02,6.03,3.22c1.65,1.21,2.65,2.54,4.38,3.65c0.58,0.36,0.82,0.51,1.39,0.89
			c0.8,0.58,1.24,0.95,2,1.63c1.65,1.61,2.99,2.91,3.94,5.1c0.66,3.21,0.77,5.94-0.45,9.09c-9.89,6.47-20.46,6.44-31.09,4.86
			c-4.49-0.67-8.94-2.07-13.57-4.17c-1.71-0.62-2.31-3.11-4.55-1.22c-2.29,2.15-3.13,4.55-3.52,7.6c-0.37,1.48-0.73,2.54-0.55,4.08
			c5.29,9.11,5,8.68-3.9,14.78c-11.2,7.67-21.26,16.63-25.84,30.64c-0.37,0.99-0.6,1.54-0.98,2.53c-1.9,6.33-2.87,12.33-2.64,18.97
			c0.19,1.73,0.21,3,0.01,4.75c-0.19,0.77-0.29,1.07-0.66,1.76c-3.28,2.16-5.47,0.05-7.7-1.34c-8.73-5.44-17.08-11.33-24.13-18.99
			c-3.95-4.28-7.75-8.84-13.2-12.22c-3.48-2.78-6.08-5.78-8.59-9.46c-4.33-9.15-10.93-16.48-14.65-25.98
			c-0.73-2.9,0.65-4.88,1.48-7.01c1.54-3.94,2.3-8,2.52-12.25c0.42-8.02-3.42-13.1-10.81-16.54c-0.8-0.81-1.11-1.37-1.41-2.48
			c-0.15-1.13-0.12-1.77,0.11-2.88c0.5-1.37,1.16-2.05,2.35-2.82c2.91-4.21,4.13-8.71,5.3-13.72c1.69-4.15,2.26-8.05,2.48-12.02
			c0.11-2.09,0.1-4.19,0.27-6.84c4.62-7.1,11.8-10.12,18.35-13.68c27.86-15.11,56.94-27.67,87.57-35.63
			c19.47-5.06,39.61-5.3,58.39,4.58c6.12,3.22,12.82,5.47,18.27,10.8C945.06,530.64,945.32,530.94,945.84,531.4z"/>
		<path class="st4" d="M699.42,750.94c0.56-6.5,2.14-12.4,3.06-18.41c0.8-5.2,1.03-10.43,1.71-15.62
			c1.01-7.68,1.02-15.49,1.78-23.21c0.81-8.19,2.76-16.2,6.24-23.65c4.53-9.7,9.48-19.21,14.42-28.71
			c1.84-3.53,4.15-6.81,6.27-10.19c3.01-4.8,6.11-9.55,9.04-14.41c1.58-2.61,3.58-4.64,6.66-6.18c5.6-1.55,9.89,1.96,10.4,8.05
			c0.33,3.87-0.67,7.58-1.95,11.14c-3.76,10.52-7.84,20.91-12.53,31.07c-1.32,2.87-3.51,4.63-6.35,5.81
			c-3.04,1.26-6.13,2.44-9.65,4.98c7.05-1.17,12.73-3.52,18.75-4.42c6.76-1.02,13.34-0.82,19.94,1.47
			c8.77,3.05,12.6,10.06,15.39,18.01c0.7,2,0.71,4.31-1.23,5.81c-1.75,1.36-3.57,0.42-5.36-0.3c-12.74-5.15-20.27-5.88-32.67-2.96
			c7.98-0.32,15.82,0.54,23.47,2.74c12.95,3.71,20.81,22.08,14.58,34.05c-0.68,1.31-1.31,2.97-2.97,2.95
			c-2.25-0.02-3.22-1.96-3.72-3.77c-2.56-9.15-9.33-12.42-18.15-13.04c8.07,2.87,14.17,7.7,15.8,16.49
			c1.39,7.48-0.24,14.24-6.16,19.42c-3.49,3.05-5.48,2.2-6.33-2.4c-0.38-2.04,0.16-4.23-1.32-6.83
			c-2.58,13.95-4.89,27.56-18.87,35.25c-0.75,0.75-1.09,1.25-1.5,2.24c-0.21,5.21-1.31,9.76-3.39,14.52
			c-0.38,0.34-0.65,0.56-0.63,0.74c0.11,0.77,0.13,1.37,0.17,2.42c0.05,2.46-0.76,4.03-2.98,5.16c-3.61-0.39-4.76-3.07-6.13-5.34
			C716.67,779.67,707.8,765.71,699.42,750.94z"/>
		<path class="st3" d="M635.89,804.66c0.16,1.4-0.04,2.52-0.91,3.18c-3.02,2.3-4.04,5.78-5.45,9.02c-0.4,0.92-1.21,2.05,0.09,2.67
			c1.09,0.52,1.98-0.55,2.59-1.35c1.38-1.85,2.55-3.84,3.92-5.7c0.99-1.34,2.13-2.58,3.28-3.8c0.59-0.63,1.47-1.03,2.25-0.48
			c0.72,0.51,0.85,1.47,0.64,2.29c-0.46,1.83-0.97,3.65-1.6,5.43c-2.07,5.84-2.44,11.85-1.86,17.95c0.01,0.15,0.3,0.28,0.82,0.28
			c3.81,0.79,3.01,3.74,3.07,6.03c0.14,4.64,0.35,9.24,1.12,13.84c3.61,21.5,19.8,31.6,40.7,25.13c7.55-2.34,14.07-6.59,20.1-11.63
			c1.91-1.6,3.44-3.81,6.77-3.46c0.48,6.36,0.87,12.49,0.53,18.58c-0.53,9.47-3.2,18.16-10.62,24.8c-1.83,1.64-3.63,2.63-6.16,2.58
			c-7.17-0.12-14.34-0.02-21.51-0.08c-1.46-0.01-2.94-0.2-4.36-0.53c-6.51-1.54-13.22-2.56-19.44-4.9
			c-11.58-4.36-22.03-10.61-28.59-21.75c-2.72-4.61-4.17-9.63-4.17-15.01c-0.01-9.91-0.33-19.84,0.13-29.73
			c0.32-6.88,1.38-13.77,2.73-20.53c1.72-8.63,3.46-17.26,5.84-25.76c1.81-6.47,3.79-12.87,6.18-19.16
			c3.2-8.42,6.76-16.69,10.38-24.94c3.89-8.85,8.78-17.1,14.47-24.93c2.87-3.95,6.27-7.35,9.62-10.84c1.89-1.97,3.76-3.92,5.46-6.1
			c1.77-2.27,4.28-3.97,6.53-5.85c5.47-4.56,10.84-9.27,17.53-12.05c0.99-0.41,1.85,0.1,1.9,0.96c0.14,2.09,0.42,4.32-0.16,6.26
			c-0.8,2.71-0.81,5.39-0.84,8.12c-0.02,2.32-0.18,4.65,0.02,6.96c0.51,5.95-1.19,11.68-1.65,17.54c-0.18,2.24-1.1,4.49-0.9,6.82
			c0.23,2.74-0.61,4.95-2.75,6.7c-0.98,0.8-1.85,1.72-3.16,2.8c-3.03-4.97-5.14-10.47-10.23-14.02c-5.12-3.57-7.03-3.47-11.17,1.14
			c-13.04,14.5-18.74,32.57-24.38,50.62c-2.19,7-3.7,14.2-6.23,21.57c-0.29,0.37-0.33,0.31-0.29,0.32
			C635.98,803.9,635.82,804.11,635.89,804.66z"/>
		<path class="st5" d="M711.86,863.79c-2.38,0.72-3.61,2.57-5.1,4c-2.55,2.44-4.76,5.27-8.47,6.24c-1.34,0.35-2.49,1.51-3.69,2.35
			c-5.28,3.71-11.14,5.65-17.6,5.79c-0.84,0.02-1.8-0.18-2.49,0.17c-3.81,1.89-7.54,0.22-10.97-0.71c-3.95-1.07-7.86-2.94-10.78-6.2
			c-0.84-0.94-1.83-1.74-2.65-2.69c-3.18-3.65-5.92-7.43-6.81-12.47c-1.02-5.76-2.34-11.43-2.2-17.34c0.06-2.7,0.44-5.45-0.74-8.51
			c0.21-1.97,0.83-3.54,1.3-5.15c4.18-14.24,10.87-27.2,19.76-39.06c2.51-3.36,5.1-6.7,7.26-10.28c2.53-4.19,5.6-7.88,9.18-11.14
			c2.21-2.01,3.65-4.6,5.62-6.77c0.99-1.09,2.09-2.07,3.21-3.02c0.94-0.8,2.16-0.43,2.45,0.74c0.5,2.03,1.01,4.07,1.35,6.14
			c1.36,8.26,2.99,16.47,5.05,24.59c1.29,5.08,2.71,10.13,4.29,15.12c3.28,10.41,5.86,21,7.94,31.69
			C709.44,845.87,711.59,854.43,711.86,863.79z"/>
		<path class="st2" d="M734.81,790.95c-0.14-1.56-0.1-3.42,0.42-5.14c1.03-3.36,1.25-6.77,1.3-10.79c0.08-0.56,0.18-1.12,0.41-1.29
			c0.74-0.54,1.21-1,1.78-1.24c8.77-3.77,12.61-11.39,15.22-19.81c1.61-5.21,2.93-10.54,2.77-16.09c-0.03-0.9,0.42-1.83,1.25-1.98
			c0.85-0.16,1.4,0.7,1.81,1.45c1.21,2.26,1.97,4.62,1.89,7.24c-0.05,1.67,0.05,3.36,0.27,5.02c0.07,0.56,0.81,1.07,1.46,0.7
			c0.89-0.51,1.75-1.13,2.49-1.85c10.11-9.72,6.04-28.02-6.35-31.77c-1.41-0.42-2.8-0.94-4.11-1.6c-1.16-0.58-3.49-0.4-2.89-2.43
			c0.5-1.7,2.55-1.02,3.94-1.03c3.41-0.05,6.7,0.77,9.78,2.15c4.37,1.96,7.79,4.91,9.21,9.77c0.63,2.15,1.56,4.21,2.46,6.59
			c3.38-5.08,4.73-11.07,3.75-16.43c-0.37-2.06-0.89-4.13-1.6-6.09c-2.38-6.54-6.58-11.06-13.67-12.67
			c-5.54-1.25-11.02-2.63-16.78-2.39c-3.15,0.13-6.32,0.01-9.47-0.1c-0.69-0.02-1.9,0.25-1.86-1.04c0.03-0.95,0.95-1.32,1.71-1.57
			c2.19-0.73,4.38-1.8,6.63-1.96c10.95-0.81,21.95-1.5,31.65,5.32c0.51,0.36,1.12,0.6,1.72,0.77c0.93,0.26,1.68-0.08,1.82-1.08
			c0.23-1.68,0.18-3.38-0.55-4.96c-1.15-2.48-2.26-4.98-3.56-7.38c-3.91-7.2-10.52-9.99-18.21-10.68c-7.63-0.68-15.1,0.42-22.4,2.73
			c-3.61,1.14-7.22,2.29-11.05,2.4c-0.3,0.01-0.79-0.33-0.88-0.61c-0.11-0.32,0-0.88,0.23-1.12c0.72-0.76,1.46-1.56,2.34-2.08
			c1.99-1.17,4.13-2.08,6.1-3.27c2.54-1.53,6.1-1.33,7.89-3.72c1.72-2.29,2.55-5.26,3.66-7.98c3.18-7.79,6.37-15.58,9.41-23.43
			c1.52-3.92,2.67-7.98,2.8-12.25c0.07-2.2-0.42-4.19-1.93-5.83c-1.58-1.73-3.21-3.4-6.32-3.17c-0.46-0.03-0.57-0.17-0.63-0.24
			c-0.52-2.79,0.87-4.68,3.19-6.31c9.75,2.66,13.73,7.84,13.56,17.15c-0.09,4.65-1.27,9.06-2.89,13.38
			c-0.66,1.75-1.43,3.46-2.18,5.65c0.78,3.87-1.68,6.37-2.54,9.32c-2.05,7.05-0.33,10.06,6.66,11.57c3.65,0.79,7.49,1.28,10.37,4.85
			c2.66,3.07,5.05,5.74,7.8,8.65c6.33,5.76,7.62,12.98,6.74,20.5c-0.76,6.47,1.78,10.18,7.3,13.02c4.13,2.12,8.32,4.01,13.07,5.83
			c1.01,0.34,1.59,0.52,2.62,0.77c3.39,0.51,6.35,0.9,9.59,2.01c1.06,0.12,1.01,1.79,2.4,0.65c1.5-0.79,2.76-1.28,2.62-3.31
			c-0.21-0.91-0.35-1.43-0.57-2.36c-0.12-0.97-0.03-1.51,0.47-2.33c0.34-0.52,0.39-0.75,0.5-1.31c0.61-1.72,0.37-3.16,0.09-4.94
			c-0.44-0.95-0.87-1.56-0.81-2.11c0.66-5.93,0.26-12.01,2.83-18.12c0.62-0.79,0.93-1.18,1.18-2c1.5-6.86,4.83-12.42,9.18-17.29
			c3.91-4.38,8.34-8.27,12.93-11.98c3.95-3.2,8.51-5.33,12.77-7.6c0.35-1.65-0.8-2.03-1.58-2.63c-1.7-1.31-3.08-2.84-3.63-5.43
			c0.54-1.48,0.25-2.65,0.32-4.16c-0.43-3.71,1.16-6.24,3.52-8.88c1.02-0.55,1.65-0.48,2.55,0.34c0.75,1.29,0.89,2.25,0.81,3.7
			c-0.36,2.15-1.11,3.83,0.19,5.88c2.74,3.42,6.25,3.59,9.78,3.72c3.68,0.13,7.42-0.34,11.4,1.12c1.38,0.55,2.34,1.02,3.82,0.89
			c1.13-0.17,1.89-0.2,3.03-0.1c1.33,0.26,2.28,0.38,3.57-0.22c3.41-1.23,6.92-1.12,9.7-3.94c0.64-0.7,0.96-1.13,1.44-1.96
			c0.57-1.12,1.02-1.82,1.81-2.8c3.78-4.7,4.21-9.58,2.27-15.03c-1.4-1.35-2.46-2.45-3.7-3.88c-0.52-0.63-0.87-0.91-1.55-1.26
			c-0.32-0.08-0.8-0.16-0.98-0.32c-1.12-1.48-1.94-2.93-4.09-3.42c-2.11-0.94-3.82-1.8-5.87-2.91c-4.11-5.82-4.11-5.82-0.64-7.85
			c3.5,3.39,7.12,5.75,11.05,7.6c4.2,1.97,7.7,4.74,10.55,8.93c2.23,5.05,2.98,9.87,1.82,15.46c-0.14,1.01-0.13,1.46-0.27,2.22
			c-0.76,0.89-0.73,1.71-1.06,2.81c-0.3,2.28-1.57,3.67-2.42,5.26c-0.83,1.54-0.81,1.59,1.88,3.26c-0.74,0.3-1.99,0.65-2.81,0.21
			c-3.77-2.03-7.37,0.04-11.03,0.23c-0.59,0.03-1.34,0.24-1.72,0.64c-3.13,3.33-7.79,4.08-11.26,6.78
			c-1.43,1.12-2.99,1.38-4.71,1.36c-2.1-0.03-4.2-0.03-6.3,0.06c-1.88,0.08-3.36,1.04-3.48,2.97c-0.19,3.09-1.9,4.38-4.67,5.03
			c-1.16,0.27-2.22,1.14-3.24,1.85c-0.73,0.51-0.99,1.39-0.87,2.24c0.13,0.88,0.71,1.45,1.65,1.63c2.46,0.48,4.91,1.01,7.88,1.62
			c-1.7,4.65-6.61,5.61-10.39,7.98c-4.72,2.96-8.76,6.38-11.91,10.99c-6.21,9.07-4.9,14.49,5.32,19.72c1.38,0.59,2.4,0.82,3.89,0.48
			c2.29-0.44,4.2-0.46,6.5-0.22c1.35,0.23,2.27,0.6,3.61,0.49c0.55-0.17,0.77-0.26,1.28-0.55c0.67-0.53,1.02-0.88,1.6-1.57
			c4.76-4.02,9.21-7.83,15.71-8.86c1.01-0.22,1.58-0.35,2.59-0.59c3.43-0.69,6.12,0.4,8.84,1.38c8.24,2.96,9.59,2.59,15.69-4.49
			c0.57-0.85,0.84-1.37,1.16-2.35c1.13-5.9-0.65-11.07-1.36-16.81c3.59-1.42,5.73,0.54,7.54,3.03c0.45,0.62,0.87,1.7,0.64,2.32
			c-1.69,4.51-0.83,9.18-0.98,13.77c-0.07,2.01-0.38,3.66-2.31,4.79c-1.47,0.86-2.56,2.25-3.1,3.89c-1.05,3.22-3.58,4.45-6.56,5.18
			c-1.83,0.45-3.64,0.99-5.48,1.41c-1.88,0.43-3.74,0.4-5.55-0.47c-1.7-0.82-3.44-1.44-5.31-1.91c-2.97-0.75-5.67-1.63-7.94,1.4
			c-0.79,1.05-2.15,1.35-3.45,1.22c-2.73-0.26-4.93,0.66-6.76,2.66c-0.4,0.44-1.03,0.77-1.62,0.94c-5.83,1.7-11.68,3.38-17.52,5.03
			c-2.01,0.57-3.75,0.04-5.15-1.51c-2.29-2.53-4.91-4.36-8.21-5.57c-3.79-1.39-5.3-5.32-4.42-10.06c0.57-3.08,1.45-6.1,2.09-9.17
			c0.11-0.54-0.07-1.39-0.44-1.71c-0.71-0.61-1.57-0.3-2.22,0.33c-2.87,2.73-5.99,5.15-6.46,9.67c-0.22,2.14-0.99,4.52-3.29,5.85
			c-1.52,0.88-1.6,2.7-1.09,3.97c1.59,3.99,0.55,8.38,2.12,12.36c0.56,1.42,0.3,3.02-1.52,3.6c-1.35,0.43-1.98,1.46-2.62,2.56
			c-0.63,1.09-1.23,2.22-2.01,3.19c-0.79,0.99-1.8,1.89-3.2,1.69c-1.63-0.24-1.78-1.6-1.77-2.88c0.02-2.03-1.05-2.86-2.88-3.52
			c-2.69-0.97-5.3-1.23-8.03-0.5c-6.41,1.72-12.44,1.16-17.98-2.82c-1.18-0.85-2.59-1.4-3.95-1.98c-2.54-1.09-4-0.56-4.97,1.99
			c-1.57,4.12-3.35,8.1-5.48,11.98c-1.41,2.57-3.17,4.29-5.82,5.4c-2.96,1.23-3.01,1.52-2.33,4.72c0.09,0.41,0.36,0.77,0.44,1.18
			c0.42,2.15,0.03,3.41-1.92,4.05c-1.89,0.62-3.25,1.76-4.78,2.9c-2.48,1.85-2.42,4.13-1.8,7.12c0.09,2.67-1.4,2.5-3.33,2.06
			c-1.29-1.76-0.99-3,0.05-4.3c0.76-0.94,0.44-1.96-0.55-2.72c-0.75-0.58-2.14-0.4-2.08,0.32c0.33,3.59-2.32,6.16-3.09,9.41
			c-0.89,3.78-4.28,6.09-6.66,8.92c-1.05,1.25-3.43,1.4-5.21,2.01c-1.11,0.38-1.75,1.13-1.82,2.29c-0.21,3.65-1.8,6.85-3.06,10.19
			C738.46,787.02,736.99,788.93,734.81,790.95z"/>
		<path class="st6" d="M815.52,876.83c-0.99,3.67-4.03,5.36-6.59,7.32c-5.14,3.93-10.03,8.14-14.93,12.36
			c-0.25,0.21-0.39,0.82-0.27,1.1c0.11,0.26,0.72,0.54,1,0.46c1.58-0.49,3.4-0.75,4.64-1.71c5.93-4.62,12.72-7.96,18.62-12.67
			c2.96-2.36,5.34-5.31,8.78-7.69c7.54,1.7,14.63,0.05,21.72-0.6c29.56-2.73,55.45-13.36,76.03-35.43c1.53-1.64,2.71-3.88,5.85-3.7
			c0.52,1.93,0.52,3.58,0.02,5.25c-0.42,1.39-0.78,2.9-0.67,4.32c0.37,4.7-1.05,9.18-1.7,13.72c-1.22,8.48-3.18,16.84-4.69,25.28
			c-0.66,3.7-2.6,6.05-6.15,7.24c-7.97,2.68-16.14,4.57-24.3,6.53c-5.49,1.32-11.04,2.43-16.57,3.6c-0.82,0.17-1.68,0.19-2.51,0.19
			c-5.9,0.02-11.64,1.22-17.4,2.26c-1.44,0.26-2.93,0.23-4.4,0.28c-3.77,0.11-7.55-0.26-11.26,1.02c-1.33,0.46-2.92,0.23-4.39,0.23
			c-12.85,0.01-25.71,0.26-38.55-0.1c-6.9-0.2-13.82-0.84-20.69-1.46c-6.01-0.54-12.03-1.48-18.04-2.27
			c-2.69-0.36-5.37-0.9-8.02-1.51c-1.18-0.28-2.64-0.65-2.98-2.01c-0.44-1.76,1.17-2.5,2.23-3.46c0.15-0.14,0.35-0.23,0.53-0.34
			c4.51-2.69,9.16-5.18,13.48-8.13c4.49-3.07,8.75-6.51,12.96-9.97c1.82-1.49,3.61-2.87,6.31-3.61c4.87-1.44,9.23-0.3,13.55,0.47
			C803.1,874.84,809.27,874.56,815.52,876.83z"/>
		<path class="st7" d="M930.83,835.95c-0.77,0.93-1.72,1.11-2.19,1.68c-3.86,4.72-8.03,9.06-13.06,12.6c-2.72,1.91-5,4.4-7.66,6.45
			c-4.85,3.74-10.23,6.43-15.69,8.96c-5.48,2.54-11.13,4.75-16.81,6.79c-2.91,1.05-6.05,1.83-9.13,1.97
			c-4.44,0.21-8.61,1.74-12.95,2.1c-7.27,0.61-14.45,2.26-21.81,1.85c-1.54-0.09-2.9-0.37-4.12-2.1
			c6.14-5.89,12.76-11.09,18.45-17.32c2.27-2.48,4.93-4.62,6.4-7.76c0.26-0.56,0.63-1.16,1.11-1.51
			c5.91-4.23,9.97-10.23,14.67-15.59c3.73-4.26,7.27-8.72,10.56-13.33c8.79-12.32,17.46-24.74,25.14-37.79
			c2.88-4.89,5.16-10.14,7.78-15.19c0.75-1.45,1.28-4.07,2.83-3.77c2.41,0.46,1.31,3.17,1.33,4.87c0.06,5.1,1.35,9.95,2.49,14.86
			c1.58,6.8,4.27,13.19,7.01,19.56c0.91,2.11,1.82,4.42,3.37,6.03c3.99,4.15,4.33,9.16,3.33,14.16
			C931.07,827.46,931.09,831.4,930.83,835.95z"/>
		<path class="st7" d="M792.44,767.96c2.24,1.12,3.69,2.17,4.93,3.72c4.9,6.1,11.55,10.35,17.06,15.82c0.42,0.41,1.1,0.72,1.67,0.75
			c0.54,0.03,1.17-0.29,1.61-0.64c0.18-0.14,0.1-0.85-0.09-1.16c-1.13-1.81-2.64-3.25-4.48-4.33c-1.12-0.66-2-1.51-2.5-3.22
			c0.31-3.76,2.93-3.15,4.65-2.51c11.42,4.24,23.56,5.56,35.59,9.19c0.36,2.94-1.44,4.74-2.87,6.36
			c-6.54,7.41-12.08,15.6-18.59,23.04c-4.85,5.55-10.03,10.76-15,16.18c-2.98,3.25-5.55,6.85-8.8,9.88
			c-6.61,6.16-13.24,12.29-20.26,17.98c-1.79,1.46-3.43,3.12-5.03,4.8c-1.63,1.7-3.45,3.08-5.92,4.33
			c-2.73-2.24-2.44-5.27-1.97-8.14c1-6.05,1.01-12.13,0.85-18.21c-0.48-18.89,2.07-37.7,1.38-56.6c-0.12-3.16,0.53-6.27,1.55-9.28
			C778.75,768.48,784.07,765.69,792.44,767.96z"/>
		<path class="st7" d="M816.33,877.15c-1.89,0.04-3.37-0.17-4.81-0.03c-5.5,0.52-10.72-1.62-16.16-1.56
			c-3.24-1.84-7.13-0.15-10.86-2.11c0.69-2.74,2.37-4.76,4.89-6.17c3.32-1.87,5.98-4.61,8.64-7.31c3.69-3.75,7.41-7.49,11.19-11.15
			c9.97-9.67,19.38-19.82,28.23-30.53c3.87-4.69,8.04-9.13,11.59-14.08c4.89-6.81,9.74-13.65,14.62-20.47
			c0.61-0.85,1.3-1.63,2.33-2.65c13.4-3.53,24.84-10.9,38.07-14.46c-0.22,3.16-1.37,5.79-2.95,8.32c-3.22,5.16-6.13,10.5-9.27,15.71
			c-1.19,1.96-2.72,3.71-3.99,5.63c-3.11,4.73-6.32,9.38-9.21,14.26c-2.33,3.94-5.3,7.54-8.23,11.09
			c-5.2,6.3-10.76,12.3-15.86,18.68c-8.83,11.04-19.56,20.21-29.29,30.37C822.79,873.25,819.81,875.24,816.33,877.15z"/>
		<path class="st6" d="M720.86,865.55c-0.08-3.73-0.05-6.83-0.92-9.96c-0.84-3.04-0.49-6.2,0.99-9.21
			c2.77-5.62,5.24-11.39,7.99-17.02c2.87-5.87,5.29-11.9,7.3-18.11c1.87-5.77,4.01-11.45,5.72-17.26c1.24-4.21,1.97-8.57,2.94-12.86
			c0.14-0.6,0.29-1.22,0.56-1.77c0.31-0.65,0.99-0.75,1.61-0.65c0.37,0.06,0.84,0.31,1.01,0.62c0.3,0.52,0.45,1.15,0.58,1.75
			c1.2,5.74,2.34,11.48,3.57,17.22c0.62,2.88,0.45,5.81,1.04,8.73c1.07,5.31,1.48,10.79,1.71,16.22c0.27,6.52,0.09,13.07,0.07,19.6
			c-0.01,4.2,0.01,8.35-1.11,12.51c-1.24,4.63-1.52,9.52-2.75,14.16c-1.73,6.48-4.07,12.78-7.39,18.67
			c-1.6,2.83-4.22,4.68-6.25,7.07c-5.11,6.03-12.02,9.02-19.21,11.58c-0.59,0.21-1.21,0.35-1.82,0.45c-0.95,0.14-2.08-1.16-1.73-2.1
			c0.58-1.57,1.3-3.09,1.97-4.63c2.21-5.03,3.83-10.21,4.13-15.74c0.06-1.05,0.05-2.14,0.36-3.12c1.26-3.95,1.22-7.84,0-11.79
			C720.88,868.71,720.98,867.38,720.86,865.55z"/>
		<path class="st6" d="M1061.07,855.93c2.76,2.34,3.02,5.01,2.59,7.82c-0.45,2.96-3.06,4.7-5.92,3.95c-3.04-0.79-6.09-1.6-9.05-2.64
			c-2.16-0.76-4.03-0.47-6.07,0.41c-3.79,1.65-6.91,4.09-9.04,7.58c-1.28,2.09-2.89,2.88-5.19,2.78c-1.47-0.07-2.95-0.04-4.42-0.01
			c-6.19,0.12-11.01,2.49-13.41,8.5c-0.84,2.1-2.25,2.87-4.35,2.88c-6.51,0.02-12.97,0.18-19.36-1.71c-5-1.48-10.2-2.27-15.31-3.36
			c-6.07-1.29-11.48-3.96-16.45-7.61c-1.18-0.87-1.58-2.05-1.23-3.31c0.62-2.22,1.22-4.51,2.31-6.5c2.12-3.86,4.42-7.64,6.92-11.26
			c3.12-4.5,4.91-4.91,10.22-3.34c6.63,1.96,13.25,4.01,19.96,5.69c7.96,2,16.11,2.58,24.32,2.26c2.54-0.1,4.9-1.03,7.41-1.35
			c8.53-1.07,16.89-2.98,24.89-6.25c4.49-1.84,5.62-1.63,8.75,1.97C1059.46,853.38,1060.05,854.52,1061.07,855.93z"/>
		<path class="st8" d="M1088.43,803.25c-1.28,3.05-2.84,5.71-4.49,8.79c-2.42,2.11-3.62,4.7-5.47,7.3
			c-1.74,4.47-5.48,5.98-9.25,8.11c-5.62,4.04-10.73,8.06-16.59,11.01c-11.4,5.74-23.27,9.48-36.17,9.57
			c-11.22,0.08-22.24-0.99-32.81-5.03c-7.68-2.93-15.1-6.44-21.83-11.17c-10.96-7.71-20.26-17.12-26.67-28.95
			c-2.47-4.55-4.84-9.34-5.82-15.08c2.96-2.66,5.03-0.38,7.15,1.12c2.19,1.55,3.87,3.82,6.98,4.92c6.62,5.96,9.95,13.99,16.44,19.58
			c12.75,10.99,27.04,18.45,43.9,20.27c28.59,3.09,51.23-7.56,68.54-30.22c1.52-1.99,2.84-4.2,5.62-5.6
			C1082.85,797.17,1084.98,801.02,1088.43,803.25z"/>
		<path class="st9" d="M895.12,694.55c-3.7,0.08-6.32,1.94-8.97,3.58c-2.32,1.43-4.47,3.12-6.94,5.04c-0.53,0.81-0.9,1.19-1.76,1.5
			c-0.4,0.02-0.67-0.14-0.8-0.05c-0.5,0.64-1.02,0.91-2.15,0.79c-3.11-0.07-5.77-0.02-8.99,0.05c-1.08,0.07-1.58,0.07-2.44-0.1
			c-2.45-1.09-4.66-1.84-6.63-3c-5.05-2.98-6.7-7.42-4.66-12.9c2.64-7.1,7.24-12.77,13.65-16.77c4.26-2.66,8.81-4.86,13.51-7.59
			c0.29-0.32,0.27-0.39,0.24-0.4c0.12-0.21,0.27-0.41,0.77-0.72c0.6-0.15,0.85-0.18,1.47-0.16c0.9-0.13,1.42-0.32,2.32-0.69
			c7.06-2.86,13.9-4.42,21.47-2.46c1.04,0.86,1.71,1.43,2.47,1.63c4.94,1.28,9.17,3.82,13.32,7.34c3.46,5.45,4.64,11.05,3.3,17.62
			c0.06,1.07-0.09,1.55-0.74,2.23c-1.18,1.43-2.05,2.61-2.97,3.75c-3.87,4.77-7.09,5.64-12.74,3.4c-1.76-0.7-3.5-1.45-5.22-2.23
			c-1.56-0.7-3.17-1.11-5.4-0.84C896.33,694.01,895.93,694.3,895.12,694.55z"/>
		<path class="st10" d="M943.69,794.35c-2.51,0.74-4.21-0.3-5.72-1.94c-2.15-2.32-4.38-4.57-8.2-5.09
			c-3.45-5.01-4.11-10.68-4.96-16.26c-0.44-2.9-0.23-5.87-1.04-8.76c-0.33-1.18-0.36-2.53-0.22-3.76
			c1.33-11.29,3.33-22.35,7.53-33.08c4.25-10.85,10.81-19.97,18.52-28.36c7.92-8.61,17.31-15.3,28.32-19.54
			c0.98-0.38,1.9-0.9,3.23-1.61c0.71-0.52,1.05-0.78,1.7-1.14c2.17,0.13,3.72-0.91,5.85-1.49c0.77-0.43,1.13-0.71,1.86-1.04
			c4.96,0.31,9.33-1.69,13.95-1.52c2.49,0.09,4.99-0.15,8.07-0.17c2.76,3.13,3.31,6.56,2.75,10.68c-3.6,3.66-8.12,3.14-12.11,3.45
			c-33.78,2.65-55.1,28.24-62.98,55.48c-2.24,7.73-2.92,15.67-2.97,24.17C937.51,775,941.88,784.18,943.69,794.35z"/>
		<path class="st3" d="M851.64,785.75c-5.04,0.5-9.47-0.97-13.99-1.63c-7.88-1.14-15.43-3.66-22.92-6.32
			c-1.22-0.43-2.36-0.89-3.87,0.3c-0.71,0.23-1.28,0.24-1.49-0.03c-3.28-4.35-8.03-7.41-10.75-12.24c-0.1-0.18-0.25-0.35-0.4-0.48
			c-5.72-5.03-9.7-11.54-14.61-17.25c-0.41-0.48-0.94-0.88-1.24-1.42c-3.26-5.73-4.6-4.21,0.23-9.35c2.45-2.61,3.6-6.14,5.09-9.37
			c0.52-1.14,0.79-2.39,1.33-3.52c0.89-1.85,2.61-2.31,4.08-0.79c3.42,3.53,7.4,6.12,11.79,8.26c1.44,0.7,2.65,2.08,3.69,3.37
			c5.39,6.69,10.93,13.25,16.98,19.36c2.06,2.08,4.38,3.95,5.78,6.62c0.83,1.59,2.68,1.97,3.9,3.12c4.71,4.48,9.07,9.34,14.42,13.13
			c1.18,0.83,2.15,2.02,3.08,3.15C854.24,782.49,853.77,784.14,851.64,785.75z"/>
		<path class="st3" d="M792.79,767.87c-2.76,0.43-5.61,0.38-8.53,1.31c-3.19,1.01-5.11,3.01-5.95,5.93
			c-0.97,3.39-1.91,6.8-1.83,10.46c0.17,7.98,0.05,15.96,0.03,23.95c-0.01,2.51,0.03,4.98-0.75,7.47c-0.55,1.75-0.46,3.73-0.47,5.6
			c-0.05,8.61,0,17.22-0.04,25.84c-0.02,3.76,0.12,7.48-0.95,11.23c-0.67,2.34-0.24,5-0.29,8.1c-0.1,0.99-0.07,1.59-0.33,1.76
			c-2.56,1.71-5.17,3.36-7.78,4.99c-0.52,0.32-1.17,0.44-1.75,0.68c-1.59,0.65-2.57,3.76-4.47,2.14c-1.3-1.11,0.25-3.55,0.7-5.27
			c1.74-6.7,2.49-13.56,3.73-20.33c1.69-9.24,0.77-18.44,0.91-27.65c0.06-4.14-0.75-8.38-1.52-12.42c-0.78-4.11-0.9-8.3-1.82-12.41
			c-0.9-4.06-1.71-8.17-2.62-12.25c-0.63-2.84-1.8-5.61-1.58-8.64c0.13-1.75-0.94-3.2-1.64-4.72c-0.95-2.06-0.98-3.91,0.3-5.95
			c1.78-2.82,3.25-5.83,5.04-9.15c1.3-0.48,2.46-0.34,3.7-1.39c4.08-0.77,6.53-3.22,8.82-6.01c1.88-2.3,3.01-2.42,5-0.29
			c2.39,2.57,4.85,5.16,6.72,8.1C787.45,762.17,790.33,764.55,792.79,767.87z"/>
		<path class="st7" d="M636.54,803.67c-0.97-3.38,0.22-6.6,1-9.84c1.22-5.09,2.47-10.19,4.17-15.13
			c4.03-11.7,7.73-23.56,13.94-34.37c2.71-4.72,5.47-9.44,9.39-13.34c1.03-1.03,1.87-2.26,2.77-3.41c1.87-2.38,3.27-2.86,5.94-1.84
			c5.08,1.95,8.82,5.47,11.92,9.9c1.65,2.36,2.61,4.74,2.34,8.11c-1.97,2.67-3.88,4.9-5.95,6.96c-4.61,4.58-9.11,9.27-13.03,14.46
			c-5.55,7.34-11,14.75-16.5,22.13c-0.62,0.84-1.19,1.74-1.91,2.48C646.09,794.41,641.52,799.01,636.54,803.67z"/>
		<path class="st11" d="M699.04,750.54c2.56,0.97,3.57,3.05,4.78,5.06c8.15,13.49,16.37,26.94,24.6,40.38
			c0.54,0.88,1.33,1.59,2.42,2.56c2.09,2.65,0.8,5.01,0.05,7.31c-2.51,7.68-4.74,15.48-9.48,22.75c-1.93,1.53-1.58,5.16-4.23,4.47
			c-1.93-0.51-1.09-3.35-1.59-5.12c-3.01-10.74-5.83-21.54-8.97-32.24c-2.73-9.29-5.33-18.6-7.32-28.09
			c-1.1-5.23-1.05-10.45-1.05-16.27C698.2,750.8,698.75,750.59,699.04,750.54z"/>
		<path class="st6" d="M904.72,766.55c-2.21,0.45-3.87,1.42-5.48,2.35c-6.5,3.76-13.39,6.7-20.34,9.49
			c-3.67,1.47-7.46,2.6-12.03,2.49c0.34-3.54,2.46-6.49,4.52-9.29c5.39-7.34,9.22-15.44,12.49-23.83c0.86-2.21,2.14-3.5,4.19-4.27
			c1.17-0.44,2.36-0.99,3.58-1.15c8.91-1.19,16.49-5.54,24.05-9.97c0.47-0.27,1.32-0.4,1.72-0.16c0.78,0.48,0.84,1.48,0.5,2.26
			c-3.65,8.23-5.65,17.11-9.87,25.11c-0.69,1.31-1.18,2.68-1.28,4.17C906.7,764.93,905.75,765.51,904.72,766.55z"/>
		<path class="st6" d="M957.46,848c-3.76,5.32-7.49,10.14-9.82,15.83c-0.63,1.55-1.19,3.13-1.82,4.68c-2.06,5.11-0.51,9.37,3,13.22
			c0.96,1.05,2.39,1.76,2.64,3.67c-5.02,2.67-10.43,1.99-15.75,1.43c-2.51-0.26-3.48-1.82-3.54-4.4c-0.03-1.26-0.01-2.53,0.17-3.77
			c1.19-8.04,2.15-16.14,3.75-24.1c1.05-5.22,0.91-10.41,1.2-15.62c0.21-3.73,0.97-7.43,1.52-11.14c0.11-0.76,1.38-1.09,2.07-0.54
			c0.82,0.65,1.65,1.31,2.35,2.08c3.56,3.89,7.78,6.97,12.07,9.99c1.02,0.72,1.98,1.56,2.87,2.44c1.9,1.88,1.88,2.05,0.17,4.79
			C958.15,846.91,957.9,847.25,957.46,848z"/>
		<path class="st11" d="M826.15,742.71c-0.55-1.03-1.36-2.25-0.04-2.14c3.12,0.25,6.23,0.87,9.28,1.58
			c11.73,2.75,23.61,3.78,35.63,3.22c1.45-0.07,2.93-0.38,4.32,0.27c0.62,1.1,0.06,2.05-0.39,2.96
			c-4.13,8.28-8.63,16.36-13.97,23.93c-0.36,0.51-0.73,1.04-1.18,1.46c-0.67,0.62-1.51,0.72-2.32,0.29
			c-0.55-0.29-1.07-0.68-1.52-1.11c-9.32-8.8-18.62-17.63-27.31-27.07C827.81,745.19,827.16,744.09,826.15,742.71z"/>
		<path class="st8" d="M1014.69,682.59c-0.32-2.07-0.11-3.76-0.85-5.32c-0.83-1.77-0.66-3.64-0.68-6.04
			c12.38-1,24.04,1.64,35.26,6.89c9.38,4.39,17.82,10.01,25.56,17.47c-3.61,3.3-8.34,2.76-13.22,3.73c-2.26,0.02-3.8-0.69-5.12-1.7
			c-10.48-8.05-22.76-11-35.51-12.65C1018.24,684.73,1016.43,684.35,1014.69,682.59z"/>
		<path class="st12" d="M1074.45,835.54c1.84,1.43,3.42,2.82,4.78,4.4c3.46,4.01,6.01,8.32,6.78,13.84
			c1.09,7.86,0.72,15.4-2.63,23.11c-4.04,2.73-7.42,6.02-12.9,4.71c-3.17-3.48-3.28-7.45-2.08-10.97
			c2.82-8.25,0.06-15.16-4.33-22.38c-0.57-0.94-0.88-1.47-1.22-1.98c-0.78-1.17-0.86-2.37,0.24-3.3c1.71-1.45,3.54-2.76,5.58-4.46
			c0.45-0.83,0.76-1.23,1.55-1.67C1071.76,836.35,1072.92,835.96,1074.45,835.54z"/>
		<path class="st12" d="M1031.23,885c3.04,2.25,5.63,4.61,7.76,7.42c1.77,2.34,4.07,4.06,6.68,6.09c1.74,3.72-1.22,4.4-3.15,4.78
			c-5.28,1.05-10.62,2.24-16.62,0.76c-4.09-1.92-6.14-5.12-7.95-8.36c-2.41-4.33-1.24-7.86,3.08-10.62
			c0.52-0.33,1.13-0.55,1.99-1.13c1.22-0.31,2.14-0.31,3.51-0.34c1.21-0.1,1.9,0.05,2.79,0.74
			C1030.04,884.72,1030.46,884.85,1031.23,885z"/>
		<path class="st12" d="M1053.96,893.8c-5.05-1.95-8.63-5.34-11.97-9c-2.5-2.73-2.86-5.84-0.93-9.58c0.13-0.44,0.1-0.53,0.06-0.52
			c0.22-0.45,0.59-0.83,1.42-1.18c0.39-0.06,0.69,0.13,0.84,0.04c2.56-2.72,5.33-1.35,8.53-0.49c0.5,0.33,0.8,0.52,0.97,0.45
			c0.65-0.02,1.08,0.14,1.74,0.68c2.94,1.48,5.6,2.72,8.7,4c3.58-0.93,4.83,1.52,6.75,3.67
			C1066.93,888.63,1059.82,889.98,1053.96,893.8z"/>
		<path class="st10" d="M1059.84,699.14c3.13-2.49,6.74-2.3,10.11-3.01c1-0.21,2.08-0.06,3.69-0.13
			c6.59,4.68,10.58,11.06,15.07,17.56c0.41,0.8,0.49,1.34,0.65,2.29c-2.55,3.69-3.07,8.72-8.43,10.05
			c-5.5-4.82-7.65-11.61-12.44-16.68C1065.54,706.1,1061.75,703.59,1059.84,699.14z"/>
		<path class="st12" d="M985.34,895.77c0.2,3.41,0.19,6.49,1.16,9.59c0.83,2.65-0.54,3.93-3.41,3.38c-3.3-0.62-6.45-1.75-9.38-3.47
			c-2.92-1.72-5.43-3.94-8.29-6.36c-0.59-0.53-0.8-0.89-1.27-1.43c-0.67-0.5-1.02-0.88-1.36-1.69c0.18-1.68-0.24-3.08,0.81-4.6
			c1.55-1.06,2.97-0.74,4.81-0.48c1.23,0.37,2,0.49,3.16,0.56c0.93-0.05,1.41,0.12,2.1,0.74c0.69,0.38,1.11,0.48,1.85,0.53
			c1.51,0.24,2.72,0.45,4.34,0.71C981.82,894.16,983.41,894.83,985.34,895.77z"/>
		<path class="st12" d="M1010.08,896.41c1.28,1.69,2.15,3.31,3.12,5.32c1.39,3.38-0.69,4.29-2.85,4.62
			c-4.13,0.63-8.21,2.13-13.03,1.03c-3.73-2.89-5.27-6.11-3.17-10.71c0.16-0.42,0.14-0.48,0.12-0.46c2.71-2.06,5.57-3.56,9.49-1.59
			c0.39,0.39,0.5,0.34,0.44,0.32c0.92,0.66,2.07,0.43,3.5,0.79C1008.6,896.08,1009.14,896.21,1010.08,896.41z"/>
		<path class="st2" d="M721.53,828.97c0.72-6.37,4.33-11.87,6.1-18.05c1.08-3.78,2.42-7.48,3.63-11.7c0.64-2.01,1.29-3.52,2.12-5.42
			c0.17-0.38,0.69-0.71,0.95-0.55c2.47,3.46,3.42,6.82,1.06,10.51c-0.9,1.41-1.49,3.01-2.32,4.46c-2.37,4.14-2.8,5.93-2.62,11.12
			c0.02,0.55-0.27,1.55-0.55,1.6c-3.18,0.57-2.7,4.01-4.51,5.68C724.33,827.59,723.75,829.06,721.53,828.97z"/>
		<path class="st1" d="M1070.08,880.57c-2.38,0.64-3.88-0.93-6.01-2.08c-0.28-1.56,0.24-2.68,1.21-3.54
			c1.67-1.48,2.14-3.34,2.37-5.52c0.26-2.44,1.21-4.71-0.83-6.98c-0.68-0.75-0.54-2.38-0.51-3.6c0.06-2.75-0.04-5.37-2-7.62
			c-0.47-0.54-0.37-1.57-0.52-2.89c3.64,1.97,5.11,5.91,6.77,9.69c0.95,2.15,1.22,4.64,0.28,6.69
			C1068.53,869.74,1068.85,874.71,1070.08,880.57z"/>
		<path class="st2" d="M919.58,640.81c4.99,0.89,9.06,3.75,12.7,7.88c-1.94,0.55-4,0.84-6.01,0.1
			C922.71,647.47,920.52,644.94,919.58,640.81z"/>
		<path class="st1" d="M939.86,663.37c3.21,4.26,2.67,9.75,2.87,15.12c0.09,2.46-0.92,4.9,0.37,7.64c-0.72,1.98-1.89,2.28-2.51,0.98
			c-0.34-0.72-0.81-1.7-0.57-2.3c1.61-4.02,0.73-8.21,1.03-12.31C941.27,669.53,939.36,666.92,939.86,663.37z"/>
		<path class="st2" d="M905.33,660.71c-5.07-0.53-10.22-0.25-15.33,1.29c-1.59,0.48-3.27,0.69-5.41,0.98
			c-0.28-0.85-0.13-1.87,0.81-2.01c2.69-0.37,5.14-1.86,7.95-1.6c0.62,0.06,1.48,0.17,1.84-0.16
			C898.96,655.81,901.99,658.6,905.33,660.71z"/>
		<path class="st2" d="M932.27,649.57c3.92,2.62,5.55,7.11,7.43,11.91c-1.71,0.41-3.52,0.46-3.69-1.92
			c-0.16-2.15-1.18-3.49-3.3-4.04c-1.26-0.33-1.53-1.19-1.17-2.41C931.84,652.11,932,651.07,932.27,649.57z"/>
		<path class="st1" d="M1069.42,827.74c1.57-3.47,5.31-5.09,8.51-7.86c2.63,2.33,2.65,2.43,0.52,3.98
			c-0.49,0.36-1.31,0.48-1.56,0.94C1075.33,827.67,1072.72,827.89,1069.42,827.74z"/>
		<path class="st1" d="M1004.12,894.53c-2.98,0.49-5.98,0.68-9.38,1.65c1.2-4.12,4.53-4.41,8.26-3.54
			C1003.45,892.74,1003.73,893.56,1004.12,894.53z"/>
		<path class="st1" d="M1052.17,873.04c-2.35,0.41-4.94,0.44-8.09,0.45c-0.49-1.06-0.35-2.07,0.43-2.86
			c0.96-0.97,2.14-1.37,3.34-0.71C1049.28,870.71,1050.57,871.74,1052.17,873.04z"/>
		<path class="st1" d="M1029.56,884.21c-0.65,0.21-1.35,0.05-2.31-0.37C1028.43,882.25,1028.43,882.25,1029.56,884.21z"/>
		<path class="st1" d="M968.59,890.63c-1.07,0.31-2.41,0.3-4.25,0.26C965.17,889.36,966.71,889.5,968.59,890.63z"/>
		<path class="st1" d="M979.92,893.13c-0.91,0.22-2.14,0.09-3.73-0.35C977.11,892.35,978.39,892.07,979.92,893.13z"/>
		<path class="st1" d="M1007.78,895.63c-0.83,0.19-1.94,0.06-3.34-0.38C1005.3,894.81,1006.44,894.65,1007.78,895.63z"/>
		<path class="st1" d="M947.49,681.92c-0.08-0.53,0.19-1.2,0.78-2.08C948.34,680.35,948.1,681.05,947.49,681.92z"/>
		<path class="st3" d="M734.54,792.98c0.06,0.42-0.47,0.46-0.73,0.45c-0.35-0.44-0.28-0.84,0.14-1.43
			C734.27,792.03,734.37,792.3,734.54,792.98z"/>
		<path class="st1" d="M962.77,895.79c0.29-0.01,0.62,0.37,1.03,1.13C963.52,896.93,963.17,896.56,962.77,895.79z"/>
		<path class="st7" d="M636.14,804.66c-0.44,0.07-0.96-0.14-0.22-0.87C636.15,803.9,636.16,804.12,636.14,804.66z"/>
		<path class="st1" d="M1070.21,836.82c0.07,0.3-0.26,0.67-0.93,1.2C1069.22,837.75,1069.52,837.32,1070.21,836.82z"/>
		<path class="st1" d="M973.69,891.97c-0.26,0.18-0.77,0.05-1.51-0.42C972.45,891.36,972.95,891.5,973.69,891.97z"/>
		<path class="st1" d="M1054.66,874.14c-0.24,0.16-0.7,0.03-1.39-0.39C1053.51,873.59,1053.97,873.72,1054.66,874.14z"/>
		<path class="st1" d="M1042.53,873.52c0.03,0.3-0.33,0.66-1.08,1.11C1041.42,874.34,1041.77,873.95,1042.53,873.52z"/>
		<path class="st1" d="M946.38,683.28c-0.11-0.24,0.06-0.64,0.54-1.16C947.04,682.37,946.86,682.75,946.38,683.28z"/>
		<path class="st1" d="M982.83,674.77c0.01,0.25-0.31,0.54-0.96,0.89C981.86,675.42,982.18,675.12,982.83,674.77z"/>
		<path class="st1" d="M990.55,672.27c0,0.27-0.35,0.57-1.06,0.91C989.48,672.91,989.83,672.61,990.55,672.27z"/>
		<path class="st2" d="M880.63,664.19c-0.29,0.34-0.52,0.43-1.13,0.5c-0.1-0.38,0.18-0.76,0.8-1.21
			C880.65,663.4,880.68,663.93,880.63,664.19z"/>
		<path class="st7" d="M880.81,664.44c-0.24,0.01-0.29-0.53-0.23-0.79c0.06-0.26,0.66-0.12,0.92,0.04
			C881.6,664.15,881.36,664.34,880.81,664.44z"/>
		<path class="st1" d="M1003.18,664.3c-0.13-0.27,0.1-0.56,0.67-0.87C1004.04,663.74,1003.82,664.03,1003.18,664.3z"/>
		<path class="st7" d="M903.56,485c-0.36-1.19-0.44-2.04-0.39-2.87c0.37-5.97-0.39-11.75-2.74-17.3c-0.49-1.15-0.91-2.38-1.1-3.61
			c-0.35-2.21,0.01-4.23,2.21-5.44c3.49-1.93,5.02-5.6,7.44-8.46c1.37-1.62,1.78-3.75,1.69-5.95c-0.19-4.57-2.53-7.6-7.05-8.38
			c-4.33-0.75-8.65-1.53-13.13-1.37c-6.17,0.23-6.49,0.22-9.44-5.3c-2.46-4.59-5.95-8.12-9.49-11.71c-1.21-1.23-2.63-2.13-4.21-2.72
			c-3.28-1.23-7.07,0.27-8.39,3.58c-2.1,5.25-4.6,10.4-5.21,16.14c-0.28,2.61-1.73,4.22-4.14,5.02c-3.99,1.33-7.98,2.65-11.99,3.93
			c-3.34,1.07-5.99,2.99-7.81,6.03c-1.06,1.78-1.27,3.56,0,5.3c0.74,1.01,1.47,2.1,2.44,2.85c3.65,2.83,7.39,5.54,11.1,8.29
			c0.84,0.62,1.75,1.17,2.53,1.85c1.2,1.06,1.8,2.47,1.16,3.98c-1.51,3.58-0.37,7.54-1.85,11.16c-0.84,2.05,0.65,4.09,1.05,6.13
			c0.43,2.24,1.44,4.37,2.41,6.97c-0.65,2.93-2.96,3.76-5.04,4.63c-23.31,9.78-45.75,21.4-68.51,32.36
			c-5.48,2.64-11.31,4.5-17.28,5.98c-6.07,1.51-9.74-1.48-12.75-5.85c-2.94-4.27-1.73-8.53,1.22-12.27
			c5.75-7.3,12.2-13.96,19.46-19.75c6.91-5.51,12.59-12.23,18.91-18.33c-14.63,9.27-28.01,20.16-41.96,31.04
			c-3.47,2.71-6.56,5.17-10.02,7.82c-6.83,2.76-12.46,0.19-14.34-6.52c-1.42-5.08-1.73-10.27,0.86-15.75
			c0.85-1.83,1.3-3.24,1.96-4.55c0.56-1.11,1.14-2.39,2.08-3.1c4.74-3.54,8.18-8.46,13.17-11.77c2.76-1.83,5-4.52,7.26-7.02
			c5.69-6.29,12.32-11.51,19.2-16.32c12.06-8.43,23.52-17.71,36.14-25.32c6.48-3.91,13.01-7.75,19.55-11.55
			c3.82-2.22,7.63-4.49,11.6-6.4c10.42-5.03,21.01-9.62,32.47-11.87c6.39-1.26,12.73-2.81,19.31-2.43
			c11.93,0.7,23.23,3.48,33.35,10.19c4.4,2.92,8.73,5.85,12.31,9.79c2.24,2.46,4.9,4.46,7.16,6.98c4.93,5.5,7.3,12.27,10.58,18.59
			c1.11,2.14,0.83,4.53,0.66,6.84c-0.1,1.37-1.41,2.19-2.76,1.71c-3.76-1.36-7.49-2.79-11.24-4.16c-0.58-0.21-1.22-0.3-1.83-0.39
			c-0.17-0.03-0.5,0.1-0.54,0.22c-0.11,0.33-0.27,0.9-0.11,1.03c2.42,2,4.83,4.03,7.36,5.89c4.11,3.01,7.32,6.87,10.74,10.58
			c3.78,4.11,5.24,9.56,8.87,13.67c0.52,0.59,0.74,1.5,0.93,2.3c1.25,5.31,2.97,10.58,3.53,15.97c0.61,5.84,0.14,11.79,0.08,17.69
			c-0.01,1.14-0.94,1.83-1.96,2.97c-2.6,2-4.17,0.98-5.46-1.07c-10.33-16.38-26.15-24.11-44.3-28.2
			C907.5,486.36,905.55,486.4,903.56,485z"/>
		<path class="st7" d="M704.09,435.68c2.79-4.21,5.84-7.45,9.43-10.47c5.3-4.45,10.52-9.01,16.06-13.16
			c5.89-4.41,11.93-8.62,18.55-11.91c6.02-2.99,12.05-5.95,18.02-9.03c14.52-7.49,30.06-11.99,46-14.9
			c9.06-1.65,18.37-2.35,27.63-1.54c10.48,0.92,20.77,2.91,30.52,7.03c1.88,0.79,3.95,1.41,5.27,3.12
			c-0.36,1.64-1.67,1.04-2.53,1.35c-0.79,0.28-1.58,0.62-2.41,0.75c-11.52,1.77-22.22,6.14-32.99,10.33
			c-14.19,5.52-27.17,13.29-39.95,21.44c-4.78,3.05-9.77,5.77-14.46,8.96c-10.23,6.97-19.93,14.66-29.72,22.24
			c-8.16,6.32-15.45,13.56-23.36,20.13c-5.17,4.29-9.62,9.43-14.41,14.17c-1.48,1.47-2.82,3.21-5.65,3.3
			c-3.91-0.13-4.15-2.91-4.48-5.28c-0.73-5.13,0.24-9.94,2.78-14.56c7.18-13.05,16.8-24.04,28.18-34.04
			c-9.6,5.72-17.53,13.04-25.87,19.83c-5.31,4.32-8.47,3.19-9.9-3.6C699.77,444.82,701.29,440.3,704.09,435.68z"/>
		<path class="st6" d="M742.63,511.45c-0.19-1.33,0.08-2.34,0.96-3.05c9.46-7.65,19.08-15.07,28.86-22.3
			c4.57-3.37,9.3-6.45,14.15-9.39c0.56-0.34,1.2-0.58,1.71-0.13c0.85,0.74,0.34,1.53-0.22,2.16c-0.98,1.1-2.03,2.14-3.07,3.19
			c-3.72,3.73-7.36,7.55-11.2,11.16c-4.43,4.17-8.76,8.55-13.67,12.09c-3.03,2.19-4.61,5.39-7.3,7.72c-2.54,2.2-4.81,4.68-6.51,7.66
			c-2.23,3.9-2.05,7.03,0.97,10.24c1.01,1.07,2.1,2.08,3.15,3.11c1.32,1.3,2.88,1.58,4.66,1.22c6.81-1.37,13.27-3.82,19.66-6.47
			c6.59-2.73,12.74-6.34,19.09-9.55c8.23-4.16,16.52-8.19,24.78-12.28c0.19-0.09,0.37-0.23,0.57-0.28
			c6.02-1.36,10.99-5.17,16.72-7.15c4.21-1.45,8.09-3.52,12.47-5.68c3.52,1.29,6.32,0.82,9.35-0.78c5.26-2.79,9.86-6.34,14.07-10.5
			c3.11-3.08,3.97-3.09,7.46-0.49c0.34,0.25,0.71,0.51,0.93,0.85c0.9,1.38,3.45,1.54,3.25,3.5c-0.23,2.22-2.55,2.75-4.26,3.2
			c-6.92,1.82-13.54,4.5-20.07,7.28c-5.43,2.31-10.9,4.42-16.51,6.17c-7.43,2.31-14.47,5.54-21.46,8.88
			c-7.39,3.52-14.73,7.15-21.96,10.97c-8.54,4.52-17.18,8.9-25.32,14.07c-7.76,4.93-15.09,10.56-22.34,16.28
			c-5.29,4.18-9.47,9.57-15.19,13.2c-1.25,0.8-2.08,2.02-2.92,3.26c-0.93,1.38-2.18,2.55-3.22,3.86c-2.3,2.92-4.8,4.29-8.71,2.64
			c-2.01-0.85-4.55-0.29-6.76-1.18c-1.26-0.5-2.44,0.29-3.64,0.65c-1.8,0.55-3.62,1.07-5.47,1.42c-1.5,0.28-2.42-0.96-1.79-2.36
			c2.6-5.74,4.93-11.63,7.96-17.14c3.63-6.61,7.78-12.94,11.87-19.3c2.61-4.05,5.6-7.82,8.82-11.45c3.75-4.23,7.08-8.81,10.52-13.3
			C743.29,513.1,742.98,512.3,742.63,511.45z"/>
		<path class="st3" d="M703.94,435.39c0.74,2.59-0.56,4.88-1.34,7.24c-0.76,2.29-1.17,4.64-0.39,6.8c0.73,2.02,0.33,5.1,3.2,5.67
			c2.09,0.41,3.03-1.91,4.48-3.04c7.26-5.66,13.84-12.19,21.73-17.08c2.49-1.54,4.74-3.47,7.12-5.18c0.54-0.39,1.22-0.48,1.66,0.12
			c0.4,0.55,0.27,1.22-0.16,1.7c-0.98,1.1-2,2.17-3.04,3.21c-3.42,3.44-6.78,6.93-10.28,10.27c-7.55,7.19-13.1,15.9-18.02,24.91
			c-2.85,5.21-3.48,11.23,0.35,17.2c0.37,2.77-0.51,4.96-2.1,6.66c-6.33,6.77-11.2,14.62-16.67,22.03
			c-1.86,2.52-3.66,5.18-4.92,8.03c-2.48,5.57-6.79,10.1-8.82,15.91c-0.61,1.74-2.43,1.8-3.38,0.27c-0.89-1.43-1.82-2.9-1.8-4.64
			c0.02-1.95-0.7-3.7-1.2-5.51c-1.12-4.07-1.64-8.21-1.41-12.44c0.07-1.26,0.04-2.52,0.01-3.79c-0.29-12.34,2.4-24.03,6.9-35.5
			c3.32-8.46,7.81-16.17,12.45-23.9c3.59-5.97,8.48-10.9,12.16-16.76C701.14,436.5,702.18,435.7,703.94,435.39z"/>
		<path class="st11" d="M944.89,529.99c-1.27-0.07-2.59-0.26-3.61-0.91c-9.26-5.92-19.36-10.07-29.52-14.09
			c-1.8-0.71-3.55-1.16-5.49-1.15c-9.68,0.04-19.37,0-29.05,0.05c-1.45,0.01-2.95,0.17-4.34,0.58
			c-12.49,3.66-24.86,7.61-36.93,12.53c-7.76,3.17-15.71,5.91-23.4,9.29c-17.31,7.62-34.32,15.79-50.18,26.93
			c-0.52-0.71-0.66-1.54-0.79-2.37c-0.63-4.01,1.21-6.5,4.37-8.97c16.06-12.56,34.12-21.58,52.37-30.31
			c11.59-5.54,23.31-10.79,35.32-15.32c6.1-2.3,12.32-4.27,18.52-6.28c4.7-1.53,9.6-1.37,14.41-0.91
			c5.84,0.55,11.64,1.56,17.98,2.36c1.71,0.4,2.97,0.43,4.55,0.89c0.34,0.32,0.65,0.48,0.81,0.42c0.65-0.03,1.08,0.15,1.74,0.7
			c0.81,0.33,1.36,0.42,2.32,0.49c1.57-0.12,2.72-0.19,4,0.9c0.28,0.33,0.62,0.49,0.79,0.43c0.67-0.01,1.1,0.17,1.75,0.72
			c0.27,0.24,0.68,0.44,0.92,0.44c0.65,0.12,1.03,0.32,1.62,0.8c1.14,0.68,2.02,1.16,3.28,1.68c0.82,0.17,1.21,0.4,1.8,0.95
			c1.55,1.08,2.85,1.92,4.55,2.84c2.63,0.8,4.48,1.98,5.55,4.68c0.35,0.74,0.56,1.08,1.15,1.47c0.6,0.4,0.92,0.67,1.4,1.23
			c0.17,0.27,0.19,0.16,0.14,0.18c0.66,0.47,0.7,1.25,1.13,2.25c0.45,0.97,0.69,1.64,1.2,2.54c0.64,0.56,0.97,0.92,1.33,1.69
			c0.07,0.36-0.02,0.72,0.07,0.88c0.26,0.34,0.44,0.51,0.53,1.04C945.05,529.22,945.02,529.44,944.89,529.99z"/>
		<path class="st6" d="M719.08,496.1c0.47,2.45,0.32,4.94,0.1,7.46c-0.27,3.04-0.24,6.46,0.9,9.2c1.33,3.2,3.76,6.17,8,6.15
			c1.05,0,2.11,0.01,3.69,0.03c0.49,1.62-0.35,2.83-1.5,3.8c-5.39,4.53-8.71,10.74-13.05,16.12c-5.29,6.56-9.38,13.91-13.61,21.15
			c-1.05,1.79-1.58,3.88-2.42,5.8c-2.25,5.21-4.48,10.42-6.05,15.89c-1.31,4.55-4.3,8.12-6.86,11.93c-0.9,1.34-2.98,1.06-3.55-0.58
			c-0.77-2.23-2.2-4.04-3.21-6.1c-1.59-3.23-2.72-6.61-2.46-10.31c0.07-1.05,0.07-2.11,0-3.16c-0.72-10.59,2.66-20.23,6.56-29.83
			c3.41-8.39,8.39-15.92,12.75-23.77c2.42-4.36,5.72-8.29,9.03-12.06c2.76-3.16,4.85-6.89,8.16-9.58
			C716.53,497.45,717.33,496.43,719.08,496.1z"/>
		<path class="st7" d="M889.41,478.3c-4.31-1.84-8.02-3.78-11.57-6.09c-3-1.95-4.11-1.79-6.64,0.76
			c-4.34,4.39-9.91,7.03-14.73,10.71c-1.33,1.02-2.59,0.43-2.62-1.12c-0.06-3.56-0.58-7.17,0.55-10.66
			c0.66-2.05,0.45-4.17,0.65-6.26c0.31-3.25-0.78-5.63-3.63-7.43c-3.19-2.02-6.2-4.33-9.23-6.58c-1.44-1.07-1.35-2.86,0.25-3.53
			c2.9-1.21,5.82-2.58,8.87-3.22c6.28-1.33,9.91-4.54,10.48-11.27c0.28-3.28,1.66-6.49,2.77-9.65c0.88-2.52,2.12-2.69,4.15-0.71
			c1.35,1.32,2.7,2.68,3.77,4.23c2.15,3.11,4.31,6.24,6.06,9.58c1.39,2.64,3.26,3.55,6.09,3.44c3.79-0.14,7.58-0.06,11.37-0.01
			c1.25,0.02,2.53,0.11,3.74,0.39c1.59,0.36,2.18,2.25,1.12,3.5c-1.23,1.44-2.58,2.78-3.91,4.13c-2.07,2.1-4.17,4.17-6.26,6.25
			c-1.33,1.33-1.54,2.78-0.94,4.61c1.82,5.59,3.47,11.23,5.2,16.85c0.32,1.03,0.63,2.09-0.34,2.9c-0.94,0.78-1.97,0.34-2.96-0.05
			C891.08,478.82,890.47,478.63,889.41,478.3z"/>
		<path class="st9" d="M717.5,641.37c0.12,0.81,0,1.21-0.13,1.61c-1.46,4.42-3.37,4.28-6.45,1.76c-2.92-2.38-5.51-5.18-8.62-7.99
			c-0.37-0.2-0.4-0.15-0.38-0.16c-0.33-0.31-0.65-0.64-1.07-1.33c-2.77-5.8-5.2-11.38-5.89-17.49c-0.7-6.25-1.1-12.55,0.54-18.72
			c1.52-5.69,4.78-10.09,9.91-13.22c3.6-2.19,7.36-2.85,11.43-2.58c2.14,0.14,4.1,0.64,5.78,2.12c2.04,1.8,4.19,3.47,6.64,5.43
			c3.46,5.64,6.2,11.2,7.61,17.33c0.58,2.52-0.16,3.93-2.8,5.35c-0.21,0.11-0.7-0.3-1.42-0.71c-0.89-0.75-0.98-1.45-1.44-2.31
			c-0.49-0.58-0.69-0.97-1.16-1.55c-0.58-0.46-0.89-0.75-1.29-1.33c-0.12-0.29-0.17-0.13-0.11-0.19c-0.7-0.4-0.76-1.14-1.22-2.04
			c-2.34-3.39-4.68-6.28-8.63-8.02c-1.96,0.16-3.49,0.35-5.17-0.98c-2.08-0.31-3.69,0.1-5.3,1.61c-0.43,0.82-0.7,1.24-1.37,1.78
			c-0.34,0.17-0.85,0.52-0.95,0.82c-0.22,3.28-1.71,6.09-1.22,9.62C704.7,622.5,707.36,633.22,717.5,641.37z"/>
		<path class="st6" d="M903,485.03c2.92-0.16,5.59-0.21,8.31,0.49c8.99,2.3,17.66,5.17,25.48,10.37c5.99,3.98,11.3,8.69,15.97,14.1
			c1.18,1.37,1.66,3.35,2.45,5.06c0.53,1.15,1.59,1.23,3.12,1.35c0.77,3.46-0.05,6.67-1.48,9.75c-0.59,1.27-2.19,1.44-3.04,0.33
			c-0.89-1.16-1.79-2.33-2.52-3.59c-4.84-8.39-11.76-14.58-20.23-19.09c-9.11-4.85-18.98-7.59-28.91-10.1
			c-1.43-0.36-2.86-0.63-4.09-1.46c-0.81-0.55-1.04-1.48-0.26-2.07C899.64,488.76,901.37,487.27,903,485.03z"/>
		<path class="st1" d="M938.49,517.15c-1.66-0.9-3.31-2.31-5.2-4.06c0.17-0.38,0.56-0.45,0.96-0.44
			C937.94,512.75,937.94,512.75,938.49,517.15z"/>
		<path class="st1" d="M918.19,504.7c-1.04,0.21-2.12-0.01-3.51-0.52C916.3,502.12,916.81,502.17,918.19,504.7z"/>
		<path class="st1" d="M909.15,502.23c-0.98,0.49-2.21,0.4-3.72-0.53C906.37,501.26,907.68,501,909.15,502.23z"/>
		<path class="st1" d="M942.25,522.39c-0.43-0.2-0.86-0.79-1.34-1.76C941.66,520.56,942.11,521.14,942.25,522.39z"/>
		<path class="st1" d="M911.69,503.35c-0.24,0.15-0.69,0.01-1.39-0.42C910.54,502.78,911,502.92,911.69,503.35z"/>
		<path class="st2" d="M700.8,635.29c0.26-0.03,0.6,0.29,1.04,0.96C701.59,636.27,701.24,635.96,700.8,635.29z"/>
		<path class="st1" d="M920.56,505.89c-0.24,0.15-0.69,0-1.38-0.44C919.4,505.31,919.87,505.45,920.56,505.89z"/>
		<path class="st1" d="M923.1,507.12c-0.22,0.13-0.63-0.02-1.25-0.45C922.07,506.54,922.49,506.69,923.1,507.12z"/>
		<path class="st1" d="M928.18,509.76c-0.24,0.12-0.65-0.07-1.28-0.55C927.14,509.1,927.57,509.27,928.18,509.76z"/>
		<path class="st1" d="M940.83,520c-0.25,0.07-0.61-0.17-1.08-0.73C940,519.19,940.36,519.44,940.83,520z"/>
		<path class="st1" d="M944.6,526.69c-0.28,0.02-0.6-0.35-1-1.08C943.87,525.6,944.21,525.95,944.6,526.69z"/>
		<path class="st1" d="M945.26,528.84c-0.27-0.04-0.38-0.23-0.51-0.76C945.17,527.91,945.64,528.03,945.26,528.84z"/>
		<path class="st11" d="M1069.8,881.8c0.08-0.47,0.16-0.79,0.3-0.87c2.88,0.22,5.38-0.47,7.56-2.11c1.33-1,2.64-1.87,4.89-1.64
			c-1.2,7-5.28,12.35-10.69,16.86c-5.08,4.23-10.5,4.62-16.27,1.62c-0.55-0.29-1.05-0.68-1.83-1.39c0.28-2.08,1.7-2.83,3.16-3.68
			c3.71-2.16,7.35-4.44,10.99-6.72C1068.6,883.46,1069.13,882.81,1069.8,881.8z"/>
		<path class="st11" d="M1025.62,904.24c4.52-0.83,9.19-2.14,14.1-2c2.13,0.06,4.57-0.54,6.2-3.02c1.8,0.31,3.55,0.98,5.19,1.87
			c3.09,1.67,3.17,3.58,0.06,5.44C1044.31,910.65,1035,913.16,1025.62,904.24z"/>
		<path class="st11" d="M996.94,907.68c0.43-1.03,1.14-1.48,2.02-1.45c4.2,0.17,8.13-1.81,12.36-1.51c0.89,0.06,1.4-0.77,1.85-2.09
			c2.85,2.6,5.57,5.7,8.3,8.82c-0.55,1.84-2.26,2.07-3.48,2.21c-5.39,0.6-10.81,1.06-15.73-2.15
			C1000.53,910.38,998.39,909.89,996.94,907.68z"/>
		<path class="st11" d="M718.07,641.51c-2.08,0.29-3.44-0.5-4.74-1.65c-4.68-4.15-7.21-9.59-8.73-15.41
			c-1.08-4.15-1.89-8.47-1.53-13.4c1.46-4.21,1.59-8.97,7.57-9.53c0.85-0.06,1.27-0.04,2-0.15c0.7,0.06,1.05,0.25,1.6,0.68
			c3.75,1.16,6,3.81,8.71,6.54c0.5,0.39,0.65,0.55,0.85,1.03c-0.08,0.84-0.21,1.36-0.46,2.26c-0.35,1.39-1.26,1.24-2.29,1.68
			c-3.69,2.07-4.63,5.1-4.4,8.68c0.2,3.15,0.53,6.41,2.53,8.9c2.61,3.24,2.05,6.07-0.12,9.06
			C718.82,640.52,718.62,640.89,718.07,641.51z"/>
		<path class="st0" d="M752.24,603.32c-1.34,2.07-1.37,4.53-3.39,6.28c-1.92,0.48-3.6,0.41-4.67-1.24c-1.4-2.16-2.34-4.46-1.49-7.09
			c0.23-0.72,0.89-0.83,1.52-0.71c0.38,0.08,0.72,0.38,1.06,0.62c0.89,0.62,1.22,2.61,2.82,1.48c0.92-0.65,0.57-1.92,0.37-2.95
			c-0.12-0.61-0.45-1.2-0.49-1.81c-0.07-0.96,0.52-1.57,1.45-1.64c1.25-0.09,2.5-0.05,4.3,0c0.3,0.71,0.06,1.37-0.44,2.26
			c-0.99,0.5-1.45,0.97-1.36,2.15C752.03,601.63,752.08,602.25,752.24,603.32z"/>
		<path class="st11" d="M727.97,619.03c0.73,1.45,1.28,2.35,0.8,3.44c-0.91,2.1-2.08,4.04-3.63,5.72c-0.18,0.19-0.76,0.01-1.43-0.23
			c-0.66-0.54-0.98-0.91-1.3-1.7c0.21-2.34-0.39-4.43,0.96-6.66C724.72,617.75,726.16,617.68,727.97,619.03z"/>
		<path class="st1" d="M710.44,601.28c-2.98,1.9-5.24,4.91-7.04,8.92c-0.71-3,0.01-6.05,2.17-9.08
			C707.2,600.98,708.49,601.1,710.44,601.28z"/>
		<path class="st0" d="M728.27,619.06c-1.31,0.35-2.55,0.19-4.27,0.09c-0.52-1.37-0.56-2.81-0.61-4.78
			C727.72,614.94,727.89,615.1,728.27,619.06z"/>
		<path class="st1" d="M713.31,596.47c1.53-0.84,2.98-0.42,4.72,0.5C715.79,600.5,715.33,600.46,713.31,596.47z"/>
		<path class="st1" d="M730.96,610.63c0.72-0.11,1.07,0.49,1.31,1.55C731.86,612.02,731.43,611.5,730.96,610.63z"/>
		<path class="st1" d="M721.16,613.78c-0.11-0.8,0.55-1.16,1.69-1.45c0.42,0.19,0.45,0.45,0.51,1.11c0.02,0.39,0.02,0.39,0.02,0.39
			C722.8,613.82,722.2,613.82,721.16,613.78z"/>
		<path class="st1" d="M727.18,605.51c0.44,0.13,0.92,0.62,1.46,1.48C727.89,607.17,727.41,606.67,727.18,605.51z"/>
		<path class="st1" d="M722.38,626.28c0.3-0.02,0.63,0.35,1,1.09C723.1,627.38,722.75,627.03,722.38,626.28z"/>
		<path class="st1" d="M706.97,599.78c-0.11-0.29,0.15-0.72,0.75-1.3C707.83,598.76,707.58,599.19,706.97,599.78z"/>
		<path class="st1" d="M714.31,601.95c-0.21,0.13-0.6,0-1.17-0.39C713.35,601.44,713.74,601.57,714.31,601.95z"/>
		<path class="st1" d="M723.98,609.77c-0.26,0.01-0.4-0.16-0.61-0.64C723.74,608.89,724.17,608.99,723.98,609.77z"/>
		<path class="st1" d="M728.69,607.62c0.28-0.07,0.62,0.19,1.02,0.78C729.43,608.46,729.1,608.2,728.69,607.62z"/>
		<path class="st8" d="M1079.99,725.53c1.91-0.4,3.07-1.08,3.79-2.45c0.84-1.6,1.67-3.21,2.49-4.83c0.48-0.94,1.14-1.64,2.68-1.93
			c1.11,0.75,1.94,1.47,2.35,2.39c3.43,7.7,6,15.71,7.58,23.97c0.9,4.71,1.05,9.56,1.46,14.89c-2.89,4.45-4.65,9-7.46,12.91
			c-1.29,1.8-2.3,4.27-5.64,2.55c-1.35-7.75,1.23-15.18-0.98-22.54c-0.82-2.74-1.09-5.68-1.94-8.97
			C1083.25,735.81,1077.55,732,1079.99,725.53z"/>
		<path class="st10" d="M1087.57,773.46c1.59-0.31,2.38-0.84,2.94-1.86c1.93-3.49,3.97-6.92,5.88-10.41c0.73-1.33,1.4-2.6,3.46-3.01
			c0.61,9.47-1.02,18.73-3.78,27.79c-1.78,5.82-3.86,11.55-7.07,17.3c-2.23,0.58-3.74-0.17-5.08-1.56
			c-1.23-1.28-2.36-2.78-4.78-3.11c-1.16-0.94-1.54-2.07-1.11-3.01C1081.37,788.39,1083.03,780.5,1087.57,773.46z"/>
		<path class="st2" d="M817.44,565.92c-6.73,2.1-12.72,4.58-17.82,8.85c-1.22,1.02-2.48,0.46-2.72-1.05
			c-0.95-6.01,0.94-11.26,4.63-15.85c4.17-5.18,9.49-8.85,15.8-11.03c4.6-1.59,9.26-2.52,14.19-2.34c5.46,0.2,10.93,0.01,16.4,0.05
			c2.76,0.02,5.41-0.38,8.07-1.12c3.56-0.99,6.61-2.62,8.92-5.55c0.64-0.81,1.17-1.77,2.36-1.91c5.1,7.49,3.95,15.84-2.91,21.15
			c-3.77,2.92-8.11,4.53-12.75,5c-6.26,0.64-12.55,1.11-18.83,1.22C827.66,563.44,822.78,564.37,817.44,565.92z"/>
		<path class="st0" d="M939.5,541.18c2.17,5.55,2.3,7.76,1.03,13.75c-1.49,0.09-2.14-1.14-2.95-1.99c-3.5-3.72-7.82-4.8-12.68-3.97
			c-3.94,0.67-7.82,1.65-11.75,2.38c-2.48,0.46-4.98,0.94-7.49,1.04c-6.17,0.23-10.39-2.73-12.49-8.59
			c-1.07-2.99-1.96-6.03-0.63-9.21c0.47-1.12,1.62-1.75,2.42-0.97c2.84,2.77,6.17,2.26,9.5,1.61c3.92-0.77,7.85-1.54,11.68-2.64
			c3.34-0.96,6.71-0.89,10.03-0.61C932.03,532.47,936.33,535.67,939.5,541.18z"/>
		<path class="st11" d="M826.75,708.73c0.59,0.64,0.72,1.24,0.99,2.28c0.14,0.67,0.14,0.9,0.38,1.37c0.54,1.24,0.84,2.23,1.16,3.21
			c0.4,1.21,0.08,2.01-1.27,2.17c-0.82,0.1-1.66,0.1-2.98,0.16c-0.5,0.01-1.08,0.16-1.33-0.01c-3.7-0.65-7.15-1.14-11.12-1.7
			c-0.71-0.19-0.9-0.31-1.42-0.48c-8.4-2.47-15.89-6.01-22.43-11.4c-1.02-0.83-1.75-1.65-1.36-3.16c2.33-9.2,0.61-17.75-4.32-26.21
			c2.11-0.42,3.27,1.17,4.59,2.48c5.18,5.17,10.35,10.34,15.49,15.54c2.06,2.09,4.24,3.97,6.75,5.53c3.89,2.43,7.67,5.02,11.44,7.62
			C822.87,707.22,824.44,708.22,826.75,708.73z"/>
		<path class="st2" d="M834.17,602.41c-0.88-3.51,0.31-6.75-1.1-9.9c-4.74,0.74-9.08,2.26-13.44,3.8c-1.77,0.63-3.59,1.18-5.44,1.51
			c-1.5,0.27-2.68-1.44-2.31-2.96c0.37-1.54,1.25-2.7,2.56-3.45c1.83-1.04,3.66-2.15,5.63-2.83c9.4-3.28,19.11-4.83,29.06-4.86
			c2.17-0.01,4.17,0.4,5.78,2.01c1.67,1.67,1.44,3.99-0.78,4.38c-3,0.53-3.8,2.08-3.59,4.79c0.28,3.7-0.5,7.12-3.01,10
			c-3.71,4.25-8.02,4.3-11.84,0.11C835.13,604.41,834.8,603.6,834.17,602.41z"/>
		<path class="st11" d="M866.01,628.28c0.37-1.31,0.54-2.15,0.71-3.42c-0.07-1.07,0.14-1.6,1.07-2.15
			c4.86,1.11,9.35,2.15,13.68,3.66c6.17,2.15,12.49,1.74,18.68,1.06c4.49-0.49,9.07-1.52,13.8-3.44c1.84,1.99,0.23,3.65-0.54,5.85
			c-0.67,0.98-1.05,1.57-1.48,2.52c-0.24,0.58-0.43,0.8-0.88,1.35c-3,3.93-7.17,4.28-11.46,5.33c-0.82,0.53-1.35,0.68-2.35,0.59
			c-1.41-0.1-2.41-0.12-3.9-0.09c-1.05,0.15-1.6,0.17-2.53-0.07c-4.57-1.77-8.95-1.76-13.33-1.62c-2.74,0.08-5.39-0.13-7.99-1.13
			c-1.52-0.59-2.32-1.68-3.05-3.52C865.48,631.51,865.83,630.11,866.01,628.28z"/>
		<path class="st1" d="M932.73,589.96c-2.07,5.72-4.51,7.33-9.45,6.73c-1.84-0.22-3.05-1.34-4.03-2.74c-1.75-2.52-2.09-5.4-2.08-8.4
			c0.01-2.02-0.78-2.61-2.67-2.64c-2.14-0.02-4.13,0.56-6.09,1.37c-0.95,0.4-1.96,0.77-2.97,0.88c-0.5,0.05-1.25-0.39-1.54-0.84
			c-0.28-0.43-0.36-1.28-0.12-1.73c1.12-2.12,2.93-3.44,5.15-4.37c4.1-1.72,8.49-2.23,12.75-3.25c2.63-0.63,5.37-0.82,8.07-1.2
			c2.62-0.38,4.99,0.4,7.2,1.67c1.71,0.99,1.77,3.33-0.11,3.92c-3.12,0.98-3.65,2.92-3.39,5.76
			C933.57,586.54,933.07,588.01,932.73,589.96z"/>
		<path class="st11" d="M775.14,665.55c-5.01-1.75-10.12-3.5-15.7-3.42c-1.66,0.02-2.41-0.94-2.99-2.59
			c-2.38-6.83-0.07-12.72,3.57-18.83c1.15-0.19,2.08,0.04,2.32,0.93c1.84,6.81,6.25,12.18,10.02,17.9
			C773.53,661.29,774.79,662.94,775.14,665.55z"/>
		<path class="st1" d="M898.09,594.28c-2.49,1.49-2.69,1.69-1.77,3.14c0.77,1.21,1.71,2.29,1.7,4.26c-3.51-1.06-5.53-3.98-6.75-7.38
			c-3.43-9.6-2.52-18.93,2.2-27.91c0.15-0.28,0.65-0.46,1.01-0.53c0.53-0.1,0.68,0.22,0.66,0.79c-0.12,3.77-0.11,7.54-0.33,11.3
			C894.5,583.52,895.56,588.79,898.09,594.28z"/>
		<path class="st1" d="M913.53,630.04c0.02-1.59,0.47-3.38,0.91-5.64c0.35-3.44,0.46-6.41-0.18-9.92c1.68,0.23,2.34,1.88,2.53,3.51
			C917.28,622.23,916.48,626.27,913.53,630.04z"/>
		<path class="st1" d="M921.32,626.69c-0.38-4.53-0.69-9.4-1.83-14.72c2.93,2.68,3.13,6.63,2.94,10.65
			C922.37,623.86,921.91,625.09,921.32,626.69z"/>
		<path class="st1" d="M868.33,622.19c-0.47,0.88-0.82,1.36-1.39,2.05c-0.65-0.33-1.08-0.86-1.95-1.65c0.21-1.02,0.8-1.87,1.55-2.52
			c0.41-0.35,1.34-0.7,1.62-0.49C868.86,620.09,868.71,620.99,868.33,622.19z"/>
		<path class="st1" d="M904.06,605.52c3.1-0.46,3.1-0.46,4.07,2.53C906.86,607.64,905.58,606.74,904.06,605.52z"/>
		<path class="st1" d="M827.17,702.95c1.6,0.74,1.39,2.28,0.56,4.17C827.34,706.09,827.21,704.76,827.17,702.95z"/>
		<path class="st3" d="M860.33,631.43c0.79,0.74,0.98,1.88,0.27,3.42C859.77,634.1,859.86,632.96,860.33,631.43z"/>
		<path class="st1" d="M919.97,631.62c-0.15-0.51-0.02-1.3,0.43-2.34C920.57,629.8,920.41,630.57,919.97,631.62z"/>
		<path class="st2" d="M752.22,600.68c-0.9-0.51-0.91-1.25,0.46-1.86C752.84,599.28,752.65,599.81,752.22,600.68z"/>
		<path class="st1" d="M830.39,680.45c0.18,0.24,0.07,0.73-0.33,1.46C829.88,681.66,829.99,681.18,830.39,680.45z"/>
		<path class="st1" d="M909.18,609.21c0.23-0.13,0.66,0.01,1.28,0.45C910.23,609.8,909.81,609.64,909.18,609.21z"/>
		<path class="st7" d="M736.93,773.6c0.25,0.23,0.17,0.46-0.16,0.76C736.35,774.15,736.38,773.88,736.93,773.6z"/>
		<path class="st1" d="M865.9,628.08c0.35,1.05,0.39,2.38,0.41,4.2C864.75,631.5,864.91,629.97,865.9,628.08z"/>
		<path class="st3" d="M862.86,705.44c0.36-0.24,0.87-0.25,1.72-0.1C864.34,706.15,863.7,706.2,862.86,705.44z"/>
		<path class="st1" d="M874.27,705.54c0.3-0.42,0.84-0.61,1.81-0.81C876.15,705.64,875.6,706.21,874.27,705.54z"/>
		<path class="st1" d="M890.61,639.54c0.38-0.26,0.93-0.27,1.86-0.11C892.21,640.29,891.53,640.46,890.61,639.54z"/>
		<path class="st1" d="M897.05,639.77c0.31-0.35,0.84-0.49,1.79-0.58C898.8,640.08,898.19,640.46,897.05,639.77z"/>
		<path class="st1" d="M911.04,633.91c-0.27-0.3-0.09-0.66,0.55-1.06C911.81,633.14,911.63,633.49,911.04,633.91z"/>
		<path class="st1" d="M895.13,694.55c0.02-0.29,0.42-0.58,1.2-0.86C896.32,693.98,895.92,694.27,895.13,694.55z"/>
		<path class="st4" d="M782.37,693.81c-0.42,0.79,0.63,0.63-0.21,0.57c-0.13-0.01-0.34-0.26-0.34-0.39
			C781.83,693.86,782.06,693.74,782.37,693.81z"/>
		<path class="st1" d="M923.58,689.51c-0.18-0.26-0.03-0.75,0.42-1.49C924.17,688.28,924.04,688.78,923.58,689.51z"/>
		<path class="st6" d="M823.53,717.91c-0.07-0.18,0.49-0.23,0.75-0.11c0.25,0.13-0.18,0.47-0.18,0.47S823.6,718.09,823.53,717.91z"
			/>
		<path class="st6" d="M810.99,715.84c0.16-0.39,0.47-0.37,0.92,0.09c0.15,0.2-0.31,0.23-0.31,0.23S811.16,716,810.99,715.84z"/>
		<path class="st1" d="M828.33,712.41c-0.32,0.09-0.54-0.15-0.55-0.73C828.09,711.65,828.24,711.9,828.33,712.41z"/>
		<path class="st1" d="M877.45,704.67c-0.02-0.3,0.37-0.64,1.14-1.06C878.59,703.89,878.22,704.26,877.45,704.67z"/>
		<path class="st13" d="M1087.99,772.78c-1.27,2.05-1.07,4.05-1.64,5.79c-1.42,4.33-2.73,8.7-4.86,12.77
			c-1.05,2.01-2.37,3.92-2.75,6.73c-3.04,2.35-4.46,5.56-6.41,8.23c-6.18,8.48-13.81,15.07-23.06,20
			c-7.08,3.77-14.38,6.88-22.27,8.35c-4.72,0.88-9.58,2.01-14.29,1.71c-12.58-0.78-25.02-2.64-35.99-9.66
			c-0.53-0.34-1.13-0.56-1.7-0.83c-11.45-5.24-20.01-13.67-26.81-24.09c-1.38-2.11-2.83-4.17-4.48-6.62
			c-4.45-9.7-7.58-19.34-8-30.24c3.62-0.56,4.09,2.75,5.16,4.93c9.07,18.44,24.49,29.26,43.38,35.21c18.03,5.68,35.84,3.3,52.8-4.71
			c23.29-10.99,37.17-29.6,43.28-54.39c0.6-2.43,0.37-5.8,4.64-5.93c1.67,1.32,1.49,2.89,1.81,4.29c1.88,8.18,3.42,16.37,1.19,24.77
			C1087.73,770.08,1087.94,771.18,1087.99,772.78z"/>
		<path class="st1" d="M904.53,681.92c-4.68-1.46-8.84-1.35-12.96-0.08c-3.22,0.99-6.4,2.08-9.59,3.16
			c-1.99,0.68-3.94,1.45-5.94,2.1c-0.33,0.11-0.9-0.06-1.13-0.31c-0.18-0.2-0.15-0.82,0.03-1.08c1.58-2.27,3.61-4.16,5.85-5.7
			c6.6-4.53,13.94-6.79,21.99-6.66c2.62,0.04,4.98,0.75,7.03,2.4c1.01,0.82,1.81,1.8,1.61,3.22c-0.23,1.62-1.62,3.21-3.26,3.42
			C907.16,682.52,906.09,682.19,904.53,681.92z"/>
		<path class="st14" d="M1085.38,739.81c-1.01,0.69-2.08,0.94-2.42,2.13c-0.52,1.81-1.05,3.63-1.4,5.47
			c-2.24,11.81-8.01,21.88-15.02,31.45c-4.52,6.17-9.93,11.31-16.01,15.84c-0.5,0.38-0.96,0.85-1.52,1.11
			c-6.47,2.97-12.21,7.47-19.11,9.5c-4.79,1.41-9.71,2.48-14.64,3.32c-2.45,0.42-5.01,0.22-7.42,1.15
			c-0.56,0.22-1.25,0.23-1.87,0.17c-5.82-0.52-11.81-0.39-17.43-1.77c-12.14-2.98-22.92-8.86-32.79-16.69
			c-4.21-3.33-6.87-7.85-10.86-11.23c-0.47-0.4-0.83-0.96-1.12-1.51c-2.45-4.62-4.87-9.26-7.68-14.14
			c-0.52-0.41-0.78-0.58-0.77-0.73c0.67-10.41,1.58-20.75,5.31-30.67c1.64-4.36,3.52-8.59,5.92-12.51
			c4.61-7.52,9.74-14.66,16.32-20.7c3.91-3.6,8.14-6.74,12.8-9.05c5.42-2.69,11.13-4.99,17.11-6.23c6.76-1.4,13.57-2.51,21.07-2.55
			c3.4,0.73,6.21,1.59,9.22,1.29c1.94-0.2,3.71,0.58,5.52,1.09c5.04,1.41,10.16,2.58,15.11,4.24c5.85,1.95,10.66,5.76,15.85,9.71
			c1.08,0.94,1.73,1.75,2.5,2.42c0.78,0.67,1.83,1.07,2.51,1.82c5.95,6.62,12.21,13.04,15.59,22.05c-0.47,4.17,1.42,7.18,3.19,10.18
			C1084.17,736.37,1085.4,737.55,1085.38,739.81z"/>
		<path class="st15" d="M978.37,768.04c-1.03-2.95-1.73-5.59-2.59-8.18c-1.25-3.78-3.69-6.54-7.39-8.14
			c-1.93-0.83-3.83-1.74-5.71-2.67c-0.27-0.13-0.52-0.67-0.47-0.97c0.06-0.34,0.4-0.75,0.73-0.9c0.95-0.45,1.94-0.81,2.93-1.15
			c6.55-2.24,10.37-6.87,11.86-13.53c0.23-1.02,0.35-2.08,0.63-3.08c0.09-0.33,0.49-0.62,0.82-0.82c0.38-0.22,0.71,0.01,0.85,0.55
			c0.51,2.03,0.92,4.1,1.54,6.1c1.45,4.66,4.34,8.09,8.87,10.05c1.87,0.81,3.73,1.67,6.03,2.71c-1.78,1.75-3.67,2.04-5.31,2.66
			c-5.18,1.95-8.07,5.83-9.54,10.95c-0.58,2.02-0.98,4.09-1.54,6.11C979.91,768.35,979.34,768.65,978.37,768.04z"/>
		<path class="st15" d="M1043.05,714.9c0.6,4.98,3,8.17,7.05,10.28c2.22,1.16,4.32,2.55,6.43,3.82c0,1.65-1.39,1.41-2.13,1.9
			c-0.69,0.46-1.51,0.75-2.28,1.08c-4.15,1.75-6.98,4.57-7.76,9.2c-0.28,1.65-0.82,3.27-1.36,4.86c-0.18,0.53-0.66,1.19-1.14,1.33
			c-0.63,0.19-1.02-0.53-1.17-1.11c-0.31-1.22-0.54-2.46-0.8-3.7c-1.07-5.04-3.49-8.96-8.64-10.78c-1.32-0.47-2.83-0.86-3.65-2.3
			c0.89-1.94,2.92-2.33,4.54-3.14c4.2-2.1,7.05-5.21,8.26-9.81c0.26-1,0.66-2.06,1.32-2.81
			C1042.16,713.22,1042.69,713.94,1043.05,714.9z"/>
		<path class="st15" d="M1023.27,787.24c-1.78-2.38-3.9-4.1-6.08-6.1c1.56-2.86,5.14-3.69,5.91-8.49c1.94,4.26,4.64,5.64,6.58,8.15
			C1027.55,783.04,1025.08,784.7,1023.27,787.24z"/>
		<path class="st10" d="M988.27,704.32c-0.24-0.82-0.39-1.27-0.26-1.63c0.73-1.99,1.79-2.82,2.95-2.42
			c1.62,0.55,2.36,2.49,1.56,4.08C991.78,705.82,990.78,705.91,988.27,704.32z"/>
	</g>
</g>
<g id="Layer_3">
	<path class="st14" d="M1008.01,691.11c-8-0.62-17.07,0.06-22.4,6.06c-4.43,4.99-4.81,13.17-0.75,18.46
		c4.06,5.3,12.17,7.03,17.98,3.74c4.86-2.75,7.65-8.37,7.99-13.95C1011.17,699.85,1009.34,694.33,1008.01,691.11z"/>
	<path class="st14" d="M1047.9,694.05c12.25,7.68,15.24,20.39,26.81,24.72c3,1.12,7.84,12.58,8.03,15.78
		c0.22,3.61-2.78,5.81-5.51,8.18c-2.72,2.37-5.88,4.4-7.78,7.47"/>
</g>
</svg>
