<?xml version="1.0" encoding="utf-8"?>
<!-- Generator: Adobe Adobe Illustrator 24.2.0, SVG Export Plug-In . SVG Version: 6.00 Build 0)  -->
<svg version="1.1" xmlns="http://www.w3.org/2000/svg" xmlns:xlink="http://www.w3.org/1999/xlink" x="0px" y="0px" width="1728px"
	 height="1296px" viewBox="0 0 1728 1296" style="enable-background:new 0 0 1728 1296;" xml:space="preserve">
<style type="text/css">
	.st0{fill:#422480;}
	.st1{fill:#7E4AB0;}
	.st2{fill:#794EA2;}
	.st3{fill:#EA94B7;}
	.st4{fill:#8240C5;}
	.st5{fill:#763CB1;}
	.st6{fill:#763CB2;}
	.st7{fill:#B173D2;}
	.st8{fill:#E893B6;}
	.st9{fill:#E993B6;}
	.st10{fill:#823FC5;}
	.st11{fill:#743CB0;}
	.st12{fill:#602DA0;}
	.st13{fill:#743BB1;}
	.st14{fill:#7F3FC2;}
	.st15{fill:#803FC4;}
	.st16{fill:#E692B5;}
	.st17{fill:#6535A5;}
	.st18{fill:#7D3CBD;}
	.st19{fill:#41246D;}
	.st20{fill:#45257D;}
	.st21{fill:#7B3EB5;}
	.st22{fill:#582599;}
	.st23{fill:#F0EBF4;}
	.st24{fill:#EFE6F2;}
</style>
<g id="Layer_1">
	<g>
		<g>
			<path class="st0" d="M642.32,571.62c-13.03-11.61-21-25.86-26.23-41.82c-4.28-13.08-6.71-26.51-7.51-40.21
				c-0.62-10.58,1.12-20.73,6.45-30.13c2.25-3.96,5.42-6.69,9.4-8.7c1.71-0.87,3.73-1.23,5.28-3.16c-0.81-1.8-1.6-3.77-2.56-5.66
				c-5.07-9.95-8.02-20.56-9.98-31.49c-1.51-8.42-1.45-16.75-0.3-25.27c0.9-6.67,1.89-13.25,3.75-19.71
				c0.92-3.19,0.93-6.29-0.23-9.51c-3.27-9.08-4.2-18.6-4.52-28.15c-0.46-14.09,2.89-27.45,8.06-40.46
				c6.3-15.87,16.41-29.01,28.6-40.73c12.99-12.48,27.84-22.18,44.2-29.56c2.96-1.34,4.21-3.66,5.4-6.17
				c4.01-8.45,9.95-15.27,17.48-20.68c4.94-3.54,10.08-6.8,15.14-10.17c7.28-4.85,15.27-8.33,23.24-11.77
				c5.55-2.4,11.46-3.9,17.47-5c9.18-1.68,18.23-4.01,27.14-6.8c1.89-0.59,3.76-1.02,5.74-1.07c4.78-0.12,9.56-0.35,14.35-0.37
				c14.34-0.05,28.68,0.01,43.02-0.02c6.95-0.02,13.89-0.18,20.84-0.21c1.28,0,2.61,0.17,3.82,0.56c10.75,3.45,21.55,6.75,32.2,10.5
				c17.76,6.26,33.96,15.5,48.9,26.88c5.92,4.51,10.83,10.09,13.55,17.24c1.22,3.21,3.23,5.35,6.55,6.67
				c13.64,5.45,25.73,13.41,37.05,22.74c8.12,6.69,15.33,14.11,21.49,22.61c5.8,7.99,10,16.83,13.4,26.01
				c2.7,7.31,5.07,14.73,6.18,22.56c1.14,8.03,1.1,16.01,0.49,24.03c-0.64,8.25-2.56,16.27-4.97,24.16
				c-0.54,1.76-0.37,3.25,0.12,5.02c3.15,11.32,5.63,22.83,5.23,34.64c-0.23,6.89-1.16,13.79-2.84,20.55
				c-2.05,8.25-5.04,16.14-8.7,23.79c-0.28,0.58-0.41,1.24-0.67,1.83c-0.67,1.54,0.04,2.45,1.37,3.1c0.98,0.48,1.96,0.93,2.93,1.43
				c5.01,2.62,8.71,6.63,11.09,11.61c2.72,5.7,4.37,11.75,4.67,18.19c0.38,8.05,0.42,16.06-0.96,24.01
				c-3.44,19.81-8.74,38.92-20.78,55.54c-5.02,6.92-10.74,13.08-17.77,17.94c-2.01,1.39-2.79,2.92-2.78,5.35
				c0.04,7.38-0.16,14.77-0.25,22.15c-0.11,8.75-2.21,17.16-4.3,25.57c-3.15,12.67-8.23,24.66-13.12,36.71
				c-1.66,4.1-1.41,5.3,2.55,7.2c9.03,4.33,17.62,9.41,26.07,14.76c7.53,4.77,14.52,10.24,21.39,15.9
				c18.52,15.27,32.69,34.15,45.33,54.31c6.82,10.88,12.62,22.31,18.54,33.69c7.54,14.47,14.12,29.38,20.74,44.26
				c5.91,13.29,11.16,26.88,16.47,40.43c6.25,15.95,11.86,32.14,17,48.47c3.77,11.98,7.32,24.03,10.33,36.25
				c2.85,11.59,5.6,23.2,7.76,34.93c2.16,11.73,4.37,23.45,5.88,35.31c0.57,4.48,1.37,8.98,1.82,13.49c0.81,7.98,1.51,15.99,1.81,24
				c0.24,6.37-2.84,9.56-9.19,10.49c-1.28,0.19-2.6,0.18-3.91,0.19c-12.17,0.12-24.35,0.32-36.52,0.33
				c-23.7,0.01-47.39-0.13-71.09-0.13c-11.31,0-22.62,0.19-33.93,0.3c-0.22,0-0.44,0.08-0.65,0.04c-7.92-1.44-14.96,1.31-21.93,4.53
				c-10.39,4.8-21.41,7-32.78,7.48c-4.98,0.21-9.94,0.36-14.97-0.2c-8.59-0.96-16.58-3.37-23.73-8.18
				c-2.04-1.37-3.89-1.49-6.11-0.92c-7.56,1.95-15.16,3.79-22.73,5.7c-10.54,2.67-21.26,4.22-31.99,5.85
				c-8.61,1.3-17.19,2.52-25.91,2.55c-4.99,0.02-9.99,0.02-14.98-0.09c-14.57-0.35-29.13,0.12-43.68,0.86
				c-2.38,0.12-4.79,0.19-7.16-0.01c-7.57-0.64-15.18-1.07-22.68-2.25c-9.85-1.55-19.76-2.67-29.54-4.72
				c-8.72-1.82-17.5-3.37-26.06-5.88c-2.08-0.61-4.16-1.23-6.21-1.95c-2.43-0.84-4.54-0.66-6.73,0.93
				c-8.58,6.23-18.49,8.41-28.85,8.97c-5.21,0.28-10.42,0.13-15.64-0.33c-11.42-1.01-22.23-4.03-32.19-9.7
				c-2.6-1.48-5.2-1.95-8.06-1.99c-14.54-0.23-29.07-0.64-43.62-0.07c-7.37,0.29-14.77,0.05-22.15,0.06
				c-11.52,0.01-23.04,0.02-34.56,0.04c-9.57,0.02-19.13,0.06-28.7,0.1c-7.4,0.03-14.79,0.14-22.19,0.09
				c-4.09-0.03-7.73-1.14-9.82-5.13c-0.61-1.16-1.18-2.3-1.11-3.68c0.28-5.85-0.46-11.69,0.65-17.56c1.04-5.51,1.17-11.19,1.8-16.79
				c0.44-3.87,1.01-7.72,1.61-11.56c1.16-7.46,2.27-14.93,3.61-22.36c1.27-7.04,2.67-14.06,4.24-21.04
				c2.06-9.09,4.21-18.16,6.57-27.18c2.26-8.59,4.61-17.17,7.34-25.62c4.54-14.02,9.25-27.98,14.21-41.86
				c3.73-10.42,7.95-20.67,11.95-31c7.47-19.23,15.85-38.06,24.79-56.65c5.75-11.95,11.82-23.71,18.21-35.33
				c3.36-6.11,7.17-11.91,11.07-17.66c9.05-13.36,19.19-25.81,31.15-36.72c12.26-11.17,25.52-20.95,40.04-28.97
				c5.13-2.83,10.06-6.03,15.46-8.4c3.68-1.62,3.83-2.35,2.4-6.04c-2.75-7.08-5.7-14.1-8.34-21.22
				c-4.16-11.22-7.34-22.69-8.58-34.65c-0.42-4.1-1.43-8.14-1.36-12.3c0.09-5.19-0.15-10.42,0.42-15.56
				c0.35-3.11-0.59-4.88-2.9-6.59C646.84,575.76,644.81,573.77,642.32,571.62z"/>
			<path class="st1" d="M566.37,596.87c-0.15,0.36-0.26,0.94-0.49,1.14c-2.65,1.86-2.31,4.82-3.47,7.08
				c-0.69,1.36-0.17,3.96-2.78,3.57c-1.82-0.27-1.86-2.06-2.02-3.62c-0.35-3.3-1.52-6.28-4.17-9.08c-4.2-4.28-8.78-6.95-14.12-8.36
				c-1.65-0.43-3.22-1.18-4.79-1.87c-0.32-0.14-0.63-0.67-0.64-1.04c-0.01-0.31,0.33-0.76,0.64-0.94c1.31-0.76,2.75-1.13,4.25-1.47
				c10.05-2.28,16.26-8.38,18.2-18.65c0.44-2.31,1.05-4.58,1.67-6.85c0.08-0.28,0.68-0.55,1.06-0.58c0.35-0.02,0.95,0.21,1.04,0.47
				c0.5,1.42,1.04,2.86,1.27,4.33c1.06,6.63,4,12.24,9.14,17.19c0.48,0.72,0.76,1.04,1.35,1.5c0.28,0.15,0.17,0.17,0.19,0.12
				c2.19,1.18,4.31,2.49,6.87,2.86c1.03,0.15,2.18,0.47,2.25,1.78c0.07,1.27-1.04,1.72-1.96,2.23c-2.58,1.46-5.41,2.47-8.17,4.59
				c-0.35,0.32-0.36,0.42-0.41,0.42c-0.77,0.53-1.5,1.04-2.29,2.14c-0.27,0.36-0.27,0.47-0.32,0.47
				C567.84,594.97,566.86,595.44,566.37,596.87z"/>
			<path class="st2" d="M553.21,596.07c3.53-0.22,4.17,2.72,4.92,5.37c0.4,1.41,0.18,2.99,0.35,4.48c0.11,0.88,0.67,1.54,1.66,1.78
				c1.27-2,1.91-4.21,2.2-6.58c0.17-1.37,1.09-2.29,2.87-2.82c-1.76,4.35-2.75,9.19-4.13,13.9c-0.14,0.48-0.8,0.98-1.32,1.13
				c-0.71,0.2-1.17-0.45-1.34-1.06c-0.41-1.43-0.9-2.88-1.05-4.35C556.96,603.76,555.34,600.08,553.21,596.07z"/>
			<path class="st2" d="M571.78,591.44c-0.36-1.27,0.41-2.14,1.67-2.76c2.45-1.21,4.85-2.52,8.42-4.4
				c-4.19-0.27-6.51-1.93-8.95-4.14c3.46,0.68,7.14,1.75,10.81,2.84c0.83,0.25,1.75,0.7,1.8,1.58c0.05,0.85-0.68,1.51-1.53,1.85
				c-3.56,1.42-7.12,2.83-10.67,4.26C572.95,590.83,572.6,591.08,571.78,591.44z"/>
			<path class="st2" d="M569.06,594.05c-0.25-1,0.1-1.96,1.77-2.31C570.62,592.43,570.01,593.17,569.06,594.05z"/>
			<path class="st2" d="M566.52,596.99c-0.33-0.99-0.22-2.14,1.66-2.62C568.02,595.12,567.42,595.94,566.52,596.99z"/>
			<path class="st2" d="M572.67,579.52c-0.25,0.1-0.63-0.13-1.15-0.65C571.77,578.79,572.16,579,572.67,579.52z"/>
			<path class="st3" d="M721.66,629.18c1.65,12.48,4.28,24.09,8.81,35.23c0.98,2.41,1.8,4.89,2.64,7.36c0.3,0.89-0.58,1.84-1.39,1.5
				c-2.21-0.9-4.44-1.78-6.58-2.84c-17.49-8.65-30.79-21.59-40.07-38.81c-7.1-13.19-11.19-27.19-13.35-41.96
				c-1.52-10.42-1.68-20.84-0.85-31.22c1.49-18.63,3.75-37.18,6.78-55.64c1.76-10.71,3.21-21.48,4.95-32.2
				c0.66-4.06,1.67-8.08,2.66-12.08c1.15-4.64,2.51-9.23,3.7-13.85c1.04-4.03,2.63-7.79,4.77-11.38
				c7.55-12.69,17.37-23.3,29.01-32.34c11.09-8.62,23.34-15.09,36.37-20.18c10.34-4.04,20.94-7.22,31.58-9.75
				c1.79,0.41,1.78,1.94,2.28,3.06c3.29,7.48,11.11,9.64,18.04,6.41c6.3-2.94,12.45-6.19,18.7-9.24c2.93-1.43,5.9-2.79,8.91-4.04
				c3.43-1.43,6.71-1.03,10.02,0.71c6.16,3.24,12.42,6.28,18.65,9.39c2.92,1.46,5.8,3,8.8,4.27c5.7,2.41,10.66,1.44,14.4-2.47
				c1.74-1.82,2.29-4.16,3.11-6.39c1-2.68,1.03-2.82,3.63-2.16c6.1,1.55,12.25,2.99,18.23,4.92c13.68,4.42,26.8,10.12,39.23,17.42
				c17.73,10.41,31.5,24.48,40.46,43.06c3.02,6.27,5.13,12.81,6.37,19.76c1.75,9.84,3.75,19.64,5.23,29.53
				c1.77,11.82,3.92,23.57,4.98,35.5c0.79,8.87,2.16,17.68,3.29,26.52c0.52,4.11,0.6,8.22,0.56,12.37
				c-0.07,6.52,0.27,13.03-0.15,19.56c-0.85,13.31-3.45,26.16-8.25,38.68c-4.27,11.14-10.22,21.12-18.06,29.97
				c-9.35,10.54-20.34,18.93-33.46,24.33c-0.35,0.14-0.8,0.02-1.2,0.02c-0.92-1.03-0.41-2.1-0.06-3.08
				c0.95-2.66,2.03-5.28,3.01-7.93c5.21-14.18,8.81-28.72,8.24-43.93c-0.9-24.4-12.55-42-34.45-52.7
				c-8.06-3.94-16.56-6.48-25.66-6.66c-2.38-0.05-3.01-0.6-3.61-2.95c-1.69-6.64-4.58-12.64-9.25-17.72c-1.94-2.11-4.2-3.78-6.9-4.8
				c-0.64-0.24-1.38-0.29-1.74,0.32c-0.29,0.49-0.33,1.19-0.3,1.79c0.02,0.4,0.33,0.79,0.53,1.17c2.23,4.36,3.52,8.83,2.31,13.82
				c-1.38,5.68-4.07,10.53-8.57,14.29c-5.11,4.28-11.07,6.94-17.56,8.17c-11.45,2.17-22.99,1.83-34.37-0.23
				c-9.45-1.71-17.58-6.01-22.94-14.62c-3.39-5.44-3.87-10.94-1.74-16.82c0.3-0.82,0.8-1.56,1.03-2.39
				c0.44-1.61,2.57-3.47,1.26-4.69c-2-1.86-3.99,0.37-5.62,1.56c-5.45,3.97-9.61,9.24-10.9,15.77c-1.14,5.78-3.95,7.69-9.47,8.32
				c-16.27,1.85-29.37,10.01-40.57,21.61c-11.59,11.99-15.93,26.59-15.77,42.87C721.36,625.1,721.52,626.84,721.66,629.18z"/>
			<path class="st4" d="M648.68,442.44c-5.94-7.92-9.42-16.65-13.58-25.01c-0.48-0.96-0.96-2.05-0.95-3.08
				c0.03-3.94-0.85-7.75-1.3-11.62c-0.38-3.22,0.05-6.52-1.16-9.66c-0.3-0.77-0.28-1.74-0.16-2.59c1.11-8.14,1.67-16.41,4.86-24.12
				c2.65-6.42,5.36-12.82,8.22-19.15c1.42-3.16,3.23-6.09,5.41-8.88c3.6-4.61,6.56-9.73,10.17-14.33
				c5.77-7.33,11.37-14.77,17.85-21.55c5.39-5.64,10.33-11.76,16.16-16.98c7.43-6.65,14.87-13.28,22.7-19.48
				c5.65-4.47,11.65-8.28,17.68-12.16c4.74-3.05,9.31-6.33,14.3-9.02c9.93-5.36,19.78-10.85,30.4-14.79
				c5.5-2.04,10.87-4.38,16.18-6.88c8.85-4.16,18.13-7.27,27.47-10.14c11.18-3.44,22.47-6.49,33.88-9.1
				c8.03-1.84,16.05-3.42,24.29-4.31c10.14-1.09,20.22-2.09,30.43-2.33c11.44-0.26,22.4,1.88,33.41,4.53
				c7.16,1.72,13.09,5.68,19.27,9.25c2.09,1.21,1.99,3.49-0.09,4.6c-1.91,1.01-3.9,1.91-5.93,2.68c-3.3,1.25-6.11,3.27-8.92,5.31
				c-0.52,0.38-0.93,0.96-0.63,1.67c0.3,0.7,1.01,0.7,1.63,0.66c9.08-0.51,17.5,2.41,26.14,4.6c10.26,2.61,19.45,7.33,28.43,12.56
				c4.47,2.6,8.38,6.16,12.66,9.11c5.42,3.74,9.8,8.45,13.98,13.51c4.47,5.41,8.13,11.26,11.17,17.52c4.68,9.64,7.43,19.9,9.3,30.4
				c0.87,4.9,1.34,9.86,2.15,14.77c0.45,2.74-0.89,5.06-1.41,7.56c-0.12,0.58-0.99,0.71-1.66,0.39c-1.07-0.5-1.6-1.45-2-2.46
				c-1.42-3.58-4.08-6.25-6.99-8.47c-8.62-6.56-16.7-13.84-25.93-19.57c-11.12-6.9-22.74-12.59-35.82-14.78
				c-2.98-0.5-5.91-1.34-8.87-1.98c-2.3-0.5-4.62-0.56-7.07-0.18c0.36,0.57,0.51,1.11,0.8,1.21c7.52,2.51,13.69,7.47,20.46,11.34
				c7.17,4.1,13.6,9.24,19.97,14.5c8.2,6.78,16.52,13.44,23.73,21.28c5.87,6.38,11.69,12.9,15.47,20.83
				c2.53,5.29,4.95,10.68,6.23,16.42c1.03,4.63,1.7,9.38,2.07,14.12c0.82,10.46-0.17,20.88-2.69,30.99
				c-1.55,6.24-3.58,12.5-6.91,18.18c-1.54,2.63-2.8,5.39-3.74,8.3c-0.89,2.77-2.64,4.98-5.07,6.61c-1.17,0.79-2.74,0.64-3.47-0.49
				c-1.06-1.63-2.1-3.3-2.86-5.08c-5.1-11.92-12.15-22.5-21.31-31.7c-5.21-5.23-9.47-11.34-14.98-16.31
				c-2.74-2.47-5.35-5.04-8.42-7.17c-3.91-2.72-7.34-6.08-10.96-9.2c-5.91-5.09-11.17-10.99-17.8-15.21
				c-4.93-3.13-10.11-5.86-15.08-8.92c-10.04-6.17-20.74-10.9-31.7-15.15c-3.92-1.52-8.07-1.48-12.08-2.36
				c-2.61-0.57-5-1.43-7.25-2.74c-3-1.75-3.55-4.11-1.59-7.11c3.11-4.78,7.1-8.82,11.57-12.3c5.18-4.03,9.65-8.77,14.16-13.47
				c2-2.08,3.25-4.52,3.28-7.58c0.05-6.25-3.53-9.95-9.84-10.51c-6.24-0.56-12.45-1.53-18.67-2.31c-4.3-0.54-8.59-1.31-12.9-1.52
				c-3.7-0.19-5.87-1.44-7.25-5.14c-3.26-8.74-7-17.3-10.58-25.92c-0.58-1.4-1.52-2.67-2-4.1c-1.17-3.51-4.04-4.98-7.1-6.23
				c-3.98-1.61-7.73,0.21-11.44,1.16c-2.61,0.67-4.28,2.9-5.41,5.35c-2.55,5.52-4.6,11.22-6.38,17.03
				c-0.89,2.91-1.65,5.86-2.68,8.71c-1.7,4.71-4.86,7.64-10.15,7.73c-5.9,0.1-11.54,1.91-17.27,2.98
				c-4.47,0.83-8.95,1.55-13.45,2.19c-5.96,0.85-9.35,5.79-7.9,11.7c0.85,3.45,2.33,6.44,4.95,8.99
				c6.85,6.68,13.56,13.52,20.3,20.31c1.22,1.23,2.49,2.46,3.51,3.85c1.53,2.1,0.45,4.76-2.02,4.78c-3.99,0.03-7.63,1.27-11.41,2.31
				c-6.95,1.91-13.53,4.69-20.04,7.64c-6.93,3.14-13.7,6.64-20.41,10.23c-3.62,1.94-7.05,4.27-10.44,6.62
				c-6.06,4.2-12.1,8.44-17.98,12.89c-2.92,2.21-5.62,4.71-8.2,7.38c-6.03,6.25-11.7,12.88-18.75,18.09
				c-1.56,1.15-2.96,2.59-4.21,4.09c-5.28,6.32-10.38,12.8-15.74,19.05c-4.63,5.4-6.98,11.96-9.93,18.22
				c-0.92,1.96-1.75,3.97-2.78,5.87c-0.64,1.18-2.37,1.48-3.41,0.55C653.96,447.65,651.49,445.2,648.68,442.44z"/>
			<path class="st5" d="M1089.52,904.57c-2.35,1.3-4.25,2.33-6.11,3.45c-1.53,0.92-3.12,1.46-4.91,1.23
				c-0.94-1.42-0.49-2.96-0.49-4.44c-0.02-11.31-0.07-22.63,0.03-33.94c0.08-9.37-1.5-18.55-3.1-27.72
				c-1.04-5.97-2.2-11.94-3.84-17.77c-1.53-5.42-3.75-10.64-5.7-15.93c-1.05-2.85-2.18-5.67-3.31-8.49
				c-0.24-0.6-0.69-1.16-1.46-0.73c-0.32,0.18-0.69,0.6-0.72,0.94c-0.12,1.51-0.17,3.04-0.17,4.56c0,14.79,0.01,29.59,0.05,44.38
				c0.01,2.16-0.23,4.35,0.47,6.48c0.2,0.6,0.36,1.3,0.27,1.91c-1.65,10.6-0.37,21.26-0.78,31.89c-0.22,5.59-0.37,11.17-1.15,16.72
				c-0.12,0.86-0.12,1.74-0.12,2.6c-0.06,11.15-3.48,21.29-9.27,30.7c-0.68,1.1-1.54,2.1-2.39,3.08c-1.23,1.4-2.55,1.89-4.6,1.35
				c-6.32-1.66-12.79-2.11-19.34-1.94c-3.96,0.11-7.77,0.58-11.48,1.98c-2.44,0.92-4.93,1.69-7.42,2.47c-2.15,0.67-2.95,0.17-3-1.83
				c-0.02-1.08-0.13-2.22,0.12-3.25c2.5-10.43,2.68-21.04,2.46-31.68c-0.03-1.3-0.03-2.61-0.01-3.92
				c0.15-8.94-1.45-17.68-3.27-26.37c-0.97-4.65-2.25-9.24-3.41-13.86c-0.16-0.63-0.35-1.26-0.6-1.85
				c-3.61-8.57-6.93-17.27-10.92-25.66c-4.48-9.43-10.51-17.93-17.14-26.03c-3.59-4.38-7.24-8.65-11.33-12.56
				c-1.52-1.46-1.31-2.89-0.53-4.7c3.62-8.36,7.42-16.66,10.56-25.2c4.16-11.36,8.59-22.65,10.7-34.68
				c0.71-4.04,2.5-7.68,5.49-10.87c4.59-4.89,8.91-10.09,12.78-15.56c3.63-5.12,6.53-10.75,9.73-16.17c0.66-1.12,1.23-2.3,1.87-3.44
				c0.61-1.09,1.61-1.51,2.75-1.13c2.26,0.77,4.52,1.55,6.69,2.54c11.09,5.05,21.73,10.99,31.33,18.45
				c6.78,5.27,13.63,10.66,18.81,17.76c1.65,2.26,3.87,4.11,5.86,6.12c5.98,6.03,11.29,12.57,15.56,19.96
				c1.17,2.04,3.1,3.63,4.45,5.58c2.84,4.09,5.67,8.21,8.27,12.45c9.99,16.3,18.3,33.5,26.62,50.68c2.36,4.87,4.14,10.02,6.23,15.02
				c2.25,5.38,4.41,10.81,6.88,16.1c4.06,8.66,7.33,17.62,10.73,26.54c2.94,7.7,5.36,15.58,8.68,23.15
				c1.99,4.53,3.18,9.41,4.85,14.11c2.53,7.13,4.27,14.55,6.62,21.75c2.76,8.46,5.13,17.02,7.17,25.68
				c2.27,9.69,5.15,19.26,6.89,29.03c1.63,9.14,3.42,18.27,4.64,27.51c1.05,7.92,1.1,16,3.37,23.76c0.36,1.22,0.24,2.59,0.29,3.89
				c0.14,4.1-0.15,8.22,0.85,12.07c-1.3,1.22-2.64,1.06-3.93,1.06c-27.19,0.02-54.39,0.02-81.58,0.03c-0.87,0-1.74,0.01-2.61-0.06
				c-1.91-0.18-2.48-0.81-2.8-2.9c-0.87-5.77-1.69-11.56-2.64-17.32c-1.23-7.46-2.17-15-3.94-22.33
				c-2.23-9.25-4.19-18.59-7.85-27.46c-5.12-12.43-11.92-23.66-22.21-32.51c-1.15-0.98-2.49-1.73-3.71-2.63
				c-1.01-0.75-1.98-1.55-3.27-2.57c7.51-2.46,14.79-2,22.04-1.87c1.07,0.02,2.14,0.29,3.19,0.56c12.95,3.32,25.04,8.45,35.46,17.03
				c1.31,1.07,2.48,2.38,4.8,2.27c-0.22-2.3-1.34-4.19-2.53-5.84c-8.23-11.37-17.7-21.4-30.83-27.26c-2.56-1.14-5.08-2.37-7.59-3.61
				c-1.69-0.84-2.16-2.2-1.29-3.73c3.15-5.52,7.64-9.33,13.92-10.89c2.94-0.73,5.84-1.64,8.79-2.32c4.23-0.97,8.46-1.8,12.87-1.63
				c5,0.2,10.01,0.22,15.01,0.05c3.1-0.11,6,0.78,9.01,1.14c0.56,0.07,1.39-0.21,1.73-0.63c0.64-0.78,0.17-1.6-0.41-2.31
				c-1.69-2.08-4.01-3.21-6.33-4.39c-3.63-1.85-7.08-4.15-10.85-5.64C1115.11,900.07,1102.56,899.9,1089.52,904.57z"/>
			<path class="st6" d="M563.47,971.2c3.06,0.17,5.11-1.96,7.31-3.62c7.38-5.58,15.74-9.19,24.34-12.19
				c4.46-1.56,9.24-2.26,13.92-3.14c2.75-0.52,5.5,1.35,8.31,0.27c3.29,1.38,6.86,0.55,10.18,1.09c0.38,1.24-0.28,1.81-1.06,2.21
				c-10.82,5.62-18.09,14.58-23.86,25.05c-6.57,11.92-10.44,24.74-13.07,37.99c-1.6,8.06-3.36,16.1-4.7,24.2
				c-0.92,5.54-1.24,11.18-1.81,16.77c-0.25,2.48-0.77,3.07-3.14,3.25c-0.87,0.07-1.74,0.06-2.61,0.06
				c-25.89,0.01-51.78,0.03-77.66,0.01c-6.62,0-6.17-0.02-5.71-6.88c0.37-5.42,1.7-10.69,1.76-16.15c0.04-3.44,0.68-6.89,1.28-10.3
				c1.7-9.57,2.74-19.23,4.83-28.78c2.35-10.77,4.65-21.56,6.99-32.34c1.24-5.71,3.04-11.29,4.55-16.94
				c4.41-16.56,9.92-32.78,15.48-48.98c3.66-10.66,8.06-21.06,11.83-31.68c5.01-14.11,11.28-27.7,17.05-41.48
				c6.03-14.42,13-28.43,20.52-42.18c3.22-5.89,6.52-11.76,9.95-17.51c5.31-8.89,11.21-17.41,17.68-25.57
				c4.21-5.31,9.1-9.85,13.56-14.85c6.51-7.31,13.96-13.55,21.37-19.87c2.66-2.27,5.8-3.8,8.68-5.72
				c8.31-5.54,17.39-9.74,26.75-13.23c3.15-1.17,2.99-0.86,4.9,2.17c4.02,6.41,7.73,13.04,12.44,18.99
				c3.5,4.41,6.99,8.83,10.57,13.18c1.55,1.89,2.51,3.95,3.09,6.35c1.73,7.15,3.25,14.4,5.66,21.33c2.41,6.94,4.99,13.84,7.74,20.68
				c2.67,6.63,5.55,13.13,8.64,19.56c0.47,0.97,0.71,2.05,1.08,3.07c0.49,1.36,0.23,2.57-0.72,3.62c-0.73,0.81-1.48,1.6-2.25,2.36
				c-5.73,5.66-10.38,12.18-15.3,18.53c-5.64,7.28-9.89,15.31-13.91,23.41c-4.43,8.93-7.67,18.41-10.51,28
				c-2.41,8.15-2.93,16.57-4.23,24.89c-1.5,9.56-0.88,19.08-0.87,28.61c0.01,4.93,1.13,9.86,1.78,14.79
				c0.11,0.85,0.44,1.68,0.55,2.54c0.61,4.71,0.02,5.24-4.66,4.11c-1.47-0.35-2.96-0.71-4.33-1.32c-1.82-0.82-3.65-1.26-5.65-1.33
				c-1.72-0.07-3.43-0.44-5.13-0.75c-3.45-0.64-6.86-0.69-10.31,0.17c-3.56,0.9-7.09,2.06-10.85,1.97
				c-1.36-0.03-2.49-0.32-3.41-1.49c-5.31-6.75-8.98-14.11-10.57-22.72c-2.67-14.41-2.44-28.91-2.57-43.44
				c-0.04-4.11,0.36-8.23-0.9-12.3c-0.5-1.6-0.2-3.45-0.2-5.19c-0.03-18.49-0.04-36.98-0.09-55.47c0-1.46,0.44-2.98-0.36-4.36
				c-0.87-0.15-1.22,0.48-1.44,1.05c-3.92,10.31-7.97,20.6-10.45,31.37c-1.54,6.73-2.85,13.5-3.65,20.42
				c-0.71,6.22-0.48,12.56-2.05,18.69c-0.11,0.42-0.18,0.86-0.18,1.29c0.13,11.07-0.85,22.15,0.61,33.19
				c0.25,1.87-0.97,2.68-2.91,1.93c-2.42-0.95-4.8-2-7.25-2.89c-6.59-2.4-13.38-3.64-20.41-3.2c-5.86,0.37-11.59,1.38-17.05,3.73
				c-4.58,1.97-9.27,3.7-13.32,6.73c-1.57,1.18-3.16,2.27-4.09,4.07c0.44,1.51,1.71,1.13,2.66,1.07c5.62-0.37,11.31,0.69,16.86-0.95
				c1.8-0.53,3.37,0.84,5.09,0.79c6.38-0.19,12.45,1.6,18.57,2.88c4.89,1.02,9.53,2.93,13.83,5.53c1.1,0.66,2.05,1.61,2.94,2.55
				c2.56,2.72,2.17,5.64-1.48,7.17c-2.78,1.16-5.52,2.45-8.23,3.82c-9.9,5-17.85,12.14-24.44,20.93c-1.69,2.25-3.42,4.48-4.98,6.82
				C563.91,968.52,563.75,969.66,563.47,971.2z"/>
			<path class="st7" d="M919.15,1030.95c-12.55,7.66-25.54,13.01-39.29,16.73c-13.54,3.67-27.3,5.19-41.24,4.85
				c-17.54-0.43-34.42-4.2-50.64-11.03c-11.9-5.01-22.86-11.56-33.16-19.27c-11.6-8.68-21.07-19.39-29.46-31.14
				c-5.96-8.35-11.01-17.23-14.95-26.68c-2.25-5.4-4.18-11-5.59-16.67c-3.68-14.85-5.26-29.97-3.97-45.25
				c0.93-11.04,3.04-21.9,6.37-32.52c5.53-17.64,14.15-33.62,25.79-47.91c11.66-14.32,25.67-25.88,42.04-34.55
				c11.19-5.93,22.92-10.33,35.23-13.32c3.4-0.83,6.84-1.29,10.25-1.81c10.99-1.66,22.1-2.33,33.17-1.43
				c20.37,1.65,39.63,7.31,57.71,16.92c15.35,8.16,28.45,19.03,39.92,32.09c7.84,8.93,13.92,18.86,19.25,29.36
				c6.75,13.3,10.84,27.42,13.35,42.09c1.74,10.17,1.93,20.4,1.14,30.58c-1.13,14.55-4.31,28.72-9.84,42.33
				c-8,19.68-19.85,36.64-35.56,50.85C933.4,1020.87,926.76,1026.17,919.15,1030.95z"/>
			<path class="st8" d="M1029.38,1035.29c-10.9,8.53-22.33,15.18-34.93,19.64c-6.14,2.17-12.49,3.59-19.01,4.36
				c-5.44,0.65-10.79,0.93-16.22,0.21c-2.85-0.38-5.49-1.31-8.05-2.51c-1.81-0.85-3.27-2.14-4.28-3.89
				c-2.04-3.58-1.29-6.75,2.13-9.01c2.22-1.47,4.75-2.2,7.27-2.82c4.01-0.98,8.05-1.97,12.13-2.51
				c17.89-2.36,33.03-10.33,46.31-22.23c4.55-4.08,8.58-8.57,11.46-14.05c1.2-2.28,1.35-4.55,0.97-6.94
				c-0.35-2.19-2.21-3.22-4.39-2.51c-2.1,0.68-3.9,1.89-5.58,3.3c-5.49,4.61-11.1,9.09-16.47,13.85c-2.78,2.47-5.8,4.58-8.78,6.75
				c-3.41,2.49-7.39,3.59-11.5,4.3c-3.17,0.55-6.06-0.33-8.79-1.77c-4.55-2.4-5.74-7.36-2.7-11.51
				c6.55-8.95,12.98-17.98,19.85-26.68c6.13-7.77,13.76-13.77,22.95-17.82c6.49-2.86,13.16-3.01,19.82-2
				c11.9,1.81,21.47,8.11,29.24,17.07c6.52,7.52,10.85,16.3,13.01,26c1.87,8.41,1.58,16.82-1.35,25.04
				c-3.74,10.52-10.29,19.02-18.56,26.37c-7.61,6.76-16.49,11.45-25.85,14.89c-9.56,3.51-19.51,5.64-29.99,4.85
				c-4.74-0.35-9.44-1.04-14.18-1.31c-0.52-0.03-0.81-0.42-0.67-0.93c0.1-0.35,0.37-0.83,0.67-0.92c3.33-0.98,6.68-1.9,10.03-2.84
				c9.07-2.54,17.39-6.78,25.56-11.34c7.29-4.07,13.47-9.55,19.22-15.52c1.34-1.39,2.46-3.06,3.42-4.74c1.18-2.06,0.71-4.25-1-5.95
				c-1.55-1.55-3.29-1.87-5.35-0.99C1033.53,1032.09,1031.63,1033.51,1029.38,1035.29z"/>
			<path class="st8" d="M669.84,1075.05c-5.33-2.2-10.41-3.28-15.27-5.17c-12.25-4.77-22.63-12.07-31.09-22.02
				c-6.45-7.59-10.41-16.33-11.86-26.35c-2.41-16.68,4.08-30.13,14.51-42.23c2.67-3.1,5.96-5.73,9.22-8.24
				c7.45-5.73,16.12-8.8,25.36-9.3c9.73-0.53,18.26,3.35,25.6,9.71c5.44,4.71,10.39,9.91,14.72,15.67
				c4.83,6.43,9.63,12.89,14.42,19.35c0.78,1.05,1.49,2.15,2.14,3.28c3.02,5.24,0.33,10.78-5.72,11.49
				c-6.01,0.71-11.66-0.47-16.82-3.81c-7.51-4.86-14.24-10.68-20.8-16.71c-2.08-1.91-4.32-3.64-6.48-5.45
				c-1.02-0.85-2.13-1.47-3.48-1.66c-2.22-0.32-3.8,0.76-4.26,2.97c-0.5,2.42-0.26,4.75,0.8,6.99c1.22,2.58,2.81,4.91,4.73,7
				c8.66,9.4,18.88,16.62,30.44,22.03c9.34,4.37,19.21,6.77,29.36,8.28c2.79,0.41,5.56,0.99,8.31,1.63c2.16,0.5,4.02,1.6,5.53,3.28
				c2.1,2.33,2.3,5.17,0.42,7.72c-1.3,1.77-2.83,3.43-4.9,4.19c-3.67,1.34-7.38,2.56-11.38,2.63c-19.27,0.34-36.92-4.96-53.06-15.36
				c-4.56-2.94-8.87-6.26-13.29-9.4c-1.59-1.13-3.13-2.36-4.81-3.36c-1.49-0.89-3.12-1.69-4.83-0.33c-2.2,1.74-3.13,4.03-2.22,6.28
				c0.65,1.59,1.59,3.09,2.59,4.5c4.1,5.79,9.61,10.11,15.53,13.78c11.13,6.91,23.01,12.26,35.7,15.65c1.7,0.45,3.34,0.92,5.15,2.18
				C693.11,1077.61,681.74,1077.23,669.84,1075.05z"/>
			<path class="st9" d="M796.93,649.18c0.21,0.75,0.39,1.04,0.97,1.33c9.18,5.53,18.43,10.04,28.89,11.93
				c14.9,2.7,29.6,2.56,44.11-2.1c2.5-0.8,5.05-1.19,8.07-1.76c0.43-0.3,0.53-0.27,0.55-0.31c0.55-0.57,1.12-1.03,2.2-1.35
				c10.57-5.07,18.62-12.51,24.9-21.9c4.1-6.14,8.06-12.38,12.07-18.59c1.61-2.5,3.02-2.64,4.96-0.28
				c2.93,3.57,5.08,7.64,6.45,12.01c3.8,12.15,3.61,24.42,0.37,36.64c-1.98,7.46-5.86,14.01-10.47,20.11
				c-5.93,7.86-12.93,14.66-20.85,20.51c-0.69,0.51-1.46,0.92-2.23,1.31c-1.11,0.56-2.24,0.33-2.89-0.64
				c-0.96-1.43-1.78-2.99-2.49-4.57c-2.66-5.95-5.26-11.92-7.88-17.89c-2.22-5.08-4.06-6.09-9.01-3.9
				c-5.81,2.57-11.81,4.45-18.03,5.39c-4.7,0.71-9.52,0.8-14.29,0.82c-11,0.05-21.65-2-31.59-6.74c-4.45-2.12-6.46-0.56-7.85,3.41
				c-2.66,7.58-5.43,15.13-8.22,22.67c-1.09,2.96-1.71,3.16-4.16,1.61c-1.65-1.04-3.28-2.14-4.82-3.34
				c-7.41-5.79-14-12.4-19.43-20.08c-8.34-11.78-11.62-25-11.15-39.36c0.33-10.06,2.89-19.29,8.64-27.58
				c0.37-0.54,0.69-1.11,1.1-1.62c1.13-1.41,2.79-1.26,3.68,0.35c1.37,2.47,2.61,5.01,4.1,7.41c1.14,1.84,2.56,3.5,4.21,5.48
				c2.92,1.88,4.22,4.46,5.81,7.37c0.32,0.3,0.27,0.47,0.36,0.48c0.7,0.66,1.41,1.2,2.21,2.27c0.27,0.35,0.27,0.42,0.3,0.42
				c0.57,0.62,1.41,0.65,2.13,1.4c0.07,0.38,0.28,0.27,0.16,0.28c0.42-0.05,0.85,0.15,1.22,0.94c0.03,0.38,0.32,0.05,0.16,0.2
				c0.37,0.12,0.79,0.32,1.17,1.1c0.05,0.37,0.17,0.18,0.08,0.24c0.42,0.07,0.85,0.29,1.23,1.06c0.06,0.37,0.16,0.16,0.07,0.23
				c0.43,0.09,0.85,0.3,1.24,1.07c0.06,0.37,0.16,0.15,0.07,0.23c0.43,0.09,0.85,0.31,1.24,1.07c0.06,0.37-0.04,0.36-0.04,0.41
				C795.39,647.15,796.01,648.08,796.93,649.18z"/>
			<path class="st10" d="M826.73,353.62c-4.12,1.53-7.79,2.86-11.49,4.09c-1.08,0.36-2.2-0.63-2.12-1.79
				c0.08-1.07,0.25-2.14,0.48-3.2c1.35-6.36,2.75-12.7,4.07-19.06c0.31-1.48,0.37-3.01,0.53-4.52c0.22-2.09-0.47-3.79-2.01-5.26
				c-2.83-2.71-5.46-5.62-8.39-8.22c-3.28-2.92-5.62-6.61-8.48-9.87c-1.02-1.17-0.58-2.54,1.11-2.93c3.99-0.92,8.02-2.01,12.08-2.25
				c4.35-0.26,8.47-1.84,12.88-1.7c2.55,0.08,4.35-1.7,5.4-4.09c2.26-5.17,4.57-10.32,6.83-15.49c0.7-1.59,1.23-3.25,2.01-4.8
				c0.85-1.7,1.27-4.57,3.03-4.64c2.62-0.11,2.41,3.04,3.26,4.89c2.9,6.3,5.91,12.55,8.64,18.93c1.26,2.95,3.21,4.34,6.31,4.73
				c3.86,0.49,7.68,1.78,11.53,1.83c5.26,0.07,10.26,1.85,15.51,1.7c0.62-0.02,1.38,0.33,1.39,1.08c0.01,0.58-0.21,1.33-0.6,1.72
				c-1.98,2.01-3.89,4.15-6.13,5.84c-4.37,3.3-7.92,7.43-11.79,11.23c-0.98,0.96-1.24,2.04-1.1,3.51
				c0.72,7.78,1.85,15.47,4.15,22.97c0.43,1.42,0.42,3.01,0.45,4.52c0.09,5.14-1.23,6.12-6.28,4.62c-4.6-1.36-8.94-3.3-12.98-5.9
				c-2.19-1.41-4.65-2.35-6.88-3.61c-3.23-1.82-6.16-1.6-9.28-0.23C834.89,349.46,830.77,350.89,826.73,353.62z"/>
			<path class="st11" d="M854.84,185.62c-6.25,1.36-11.94,2.67-17.64,4c-3.17,0.74-6.06,2.24-9.27,2.97
				c-13.12,3.02-25.73,7.62-38.07,12.98c-3.43,1.49-6.94,2.25-10.74,2.21c-12.4-0.12-24.81-0.06-37.21,0
				c-3.89,0.02-7.82-0.26-11.63,1.06c-1.16,0.4-2.56,0.48-4.05-0.31c0.54-2.3,2.49-3.35,4.19-4.58c8.45-6.09,17.25-11.55,26.8-15.81
				c11.3-5.03,22.86-9.21,34.79-12.5c8.79-2.42,17.73-3.94,26.66-5.54c12.04-2.15,24.27-2.06,36.39-1.29
				c7.93,0.5,15.92,1.37,23.78,3.13c4.64,1.04,9.33,1.83,13.98,2.88c3.24,0.73,5.94,2.41,9.03,3.99c-2.64,0.49-5.28,1.4-7.92,1.38
				c-9.84-0.06-19.35,2.02-28.92,3.83C861.82,184.64,858.6,185.07,854.84,185.62z"/>
			<path class="st12" d="M889.48,1063.96c5.62-1.8,10.78-3.2,15.65-5.62c3.06-1.52,6.38-2.54,9.52-4.02c2.77-1.3,5.47-2.5,7.78-4.55
				c1.22-1.09,2.55-0.51,2.65,1.22c0.29,5.25,2.73,9.49,6,13.37c1.39,1.65,3.47,3.5,2.51,5.58c-1.07,2.33-3.91,2.41-6.34,2.28
				c-2.88-0.16-5.61,0.42-8.27,1.44c-2.26,0.87-4.59,1.45-7,1.17c-3.13-0.37-5.93,1.11-8.96,1.4c-4.71,0.46-9.36,1.48-14.05,2.2
				c-1.49,0.23-3.02,0.27-4.54,0.32c-3.46,0.12-6.92-0.2-10.31,1.03c-1.36,0.5-3.01,0.26-4.53,0.27
				c-16.73,0.02-33.47,0.02-50.2,0.01c-2.38,0-4.74,0.03-7.08-0.77c-1.39-0.48-2.99-0.52-4.49-0.48
				c-7.62,0.23-15.03-1.32-22.52-2.31c-4.48-0.59-9-1.1-13.49-1.68c-6.21-0.8-12.45-1.5-18.32-3.92c-1.65-0.68-2-1.59-0.88-2.9
				c4.68-5.48,8.13-11.63,10.06-18.6c6.97,3.37,13.59,6.9,20.47,9.81c9.78,4.14,19.96,7.34,30.47,8.81
				c5.3,0.75,10.62,2.24,16.11,1.65c1.25-0.13,2.56,0.29,3.84,0.51c0.64,0.11,1.24,0.38,1.88,0.52c3.5,0.75,6.93-1.04,10.25-0.63
				c3.26,0.4,6.34,1.16,9.57,0.01c0.99-0.36,2.13-0.43,3.2-0.45C868.95,1069.53,879,1067,889.48,1063.96z"/>
			<path class="st13" d="M635.58,325.56c-0.36-1.81-0.3-3.34-0.37-4.86c-0.53-10.46,2.32-20.13,6.65-29.5
				c1.82-3.93,3.44-7.91,5.63-11.7c3.51-6.1,8.26-11.13,12.82-16.32c5.32-6.06,11.68-10.94,18.21-15.67
				c4.77-3.45,9.81-6.44,14.9-9.25c10.11-5.59,20.99-9.29,32.48-10.91c6.84-0.96,13.72-1.72,21.14-2.56
				c-0.52,3.84-4.41,4.42-7.05,6.28c-20.95,14.74-41.77,29.54-61.24,46.35c-8.83,7.62-15.39,17.47-25.25,23.83
				c-1.94,8.15-8.82,13.18-12.69,20.12C639.69,323.34,639.12,326.07,635.58,325.56z"/>
			<path class="st9" d="M850.52,638.74c-9.78,0.62-18.8-0.81-27.6-2.95c-9.76-2.37-18.68-6.9-26.26-13.7
				c-0.81-0.72-1.55-1.53-2.25-2.34c-0.41-0.48-0.79-1.11-0.3-1.72c0.22-0.27,0.72-0.45,1.1-0.45c2.82,0,5.64-0.04,8.45,0.11
				c11.14,0.6,21.39-2.82,31.49-6.9c0.6-0.24,1.24-0.45,1.77-0.81c4.65-3.13,9.02-2.62,13.94-0.04c12.4,6.5,25.76,8.72,39.69,7.47
				c0.43-0.04,0.85-0.16,1.28-0.23c0.68-0.1,1.42,0.01,1.57,0.71c0.11,0.53-0.13,1.24-0.43,1.73c-0.69,1.09-1.42,2.2-2.32,3.12
				c-5.56,5.71-12.26,9.69-19.8,12.03C864.44,636.77,857.84,638.13,850.52,638.74z"/>
			<path class="st14" d="M916.47,575.12c13.54,5.32,22.45,14.73,27.88,27.42c3.12,7.29,4.17,14.98,2.04,22.85
				c-0.17,0.62-0.37,1.26-0.72,1.78c-0.18,0.26-0.7,0.33-1.09,0.4c-0.14,0.03-0.42-0.16-0.49-0.32c-0.8-1.76-1.88-3.48-1.85-5.48
				c0.05-3.23-1.57-5.86-3.07-8.46c-1.29-2.24-3.03-4.21-4.52-6.33c-4-5.71-9.58-8.45-16.44-8.85c-1.28-0.08-2.54-0.51-3.83-0.66
				c-1.71-0.19-3.48-0.57-5.15-0.34c-5.57,0.75-11.14,1.55-16.64,2.66c-8.65,1.74-17.18,1.49-25.69-0.78
				c-4.32-1.15-8.08-3.01-10.46-7.59c2.05-1.54,4.42-2.35,6.98-2.27c2.58,0.08,4.62-0.95,6.56-2.42c3.1-2.35,6.29-4.6,9.27-7.1
				c4.67-3.91,9.99-6.08,16.03-6.27C902.23,573.14,909.17,573.15,916.47,575.12z"/>
			<path class="st15" d="M743.86,630.42c-0.59,0.53-1.13,0.85-1.3,0.71c-0.47-0.39-1.09-0.95-1.11-1.47
				c-0.3-6.69-1.23-13.38,0.69-20.03c0.67-2.31,1.39-4.53,2.48-6.67c4.3-8.4,9.44-16.07,17.59-21.33c1.65-1.07,3.26-2.12,5.1-2.82
				c8.42-3.19,17.12-4.96,26.1-4.03c5.82,0.6,11.51,2.13,16.04,6.32c0.95,0.88,1.96,1.72,3,2.5c5.29,3.97,10.98,6.91,17.82,6.89
				c0.21,0,0.47,0.01,0.63,0.12c0.32,0.23,0.74,0.5,0.83,0.83c0.09,0.34-0.02,0.97-0.27,1.13c-6.21,3.97-12.49,7.43-20.1,8.55
				c-5.3,0.78-10.39,0.34-15.39-0.51c-7.57-1.3-15.13-0.93-22.7-1.16c-4.69-0.14-9.03,0.85-13.18,2.95
				c-2.35,1.19-4.47,2.59-5.95,4.89c-0.93,1.45-2.24,2.64-3.31,4c-2.31,2.93-4,6.1-4.58,9.9
				C745.79,624.17,744.83,627.06,743.86,630.42z"/>
			<path class="st16" d="M1036.68,506.09c1.94-4.48,4.27-8.13,7.32-11.3c0.45-0.47,0.92-0.93,1.32-1.44
				c2.14-2.75,2.34-6.2,0.53-8.41c-1.85-2.26-6.2-2.86-9-1.14c-0.91,0.56-1.63,1.45-2.51,2.07c-1.41,0.99-2.11,2.79-4.18,3.46
				c-1.18-2.41-1.38-4.83-0.7-7.4c1.08-4.03,2.78-7.76,5.12-11.22c4.87-7.21,14.72-7.99,20.86-1.7c3.72,3.81,5.02,8.61,5.45,13.64
				c1.45,16.89-2.22,32.84-9.52,47.98c-2.82,5.85-6.28,11.41-9.6,17.01c-1.55,2.61-3.4,5.05-5.77,7.03c-0.62,0.52-1.92,0-1.99-0.82
				c-0.65-7.13-1.27-14.27-1.89-21.4c-0.06-0.65,0.09-1.33-0.04-1.95c-1.71-8.33,1-15.88,4.11-23.35
				C1036.29,506.93,1036.38,506.73,1036.68,506.09z"/>
			<path class="st16" d="M643,483.99c-1.03,0.91-1.68,1.49-2.28,2.12c-1.72,1.84-1.78,3.79-0.51,5.94c1.11,1.89,2.48,3.53,3.95,5.14
				c3.69,4.04,6.63,8.61,8.55,13.74c2.46,6.58,3.34,13.34,2.52,20.4c-0.85,7.32-1.94,14.63-1.92,22.03c0,0.43,0.01,0.89-0.14,1.28
				c-0.13,0.36-0.4,0.79-0.73,0.94c-0.32,0.15-0.95,0.15-1.16-0.07c-1.05-1.08-2.11-2.19-2.99-3.41
				c-7.16-9.92-13.04-20.54-16.6-32.26c-2.64-8.71-4.57-17.62-4.29-26.85c0.1-3.25,0.02-6.51-0.08-9.77
				c-0.12-4.05,1.21-7.67,3.08-11.16c3.59-6.68,10.56-8.8,17.74-4.28c5.64,3.55,8.71,8.99,9.47,15.59c0.24,2.07,0.59,4.26-0.42,6.82
				c-1.81-1.54-3.56-2.76-4.97-4.3C649.72,483.14,646.82,482.51,643,483.99z"/>
			<path class="st17" d="M742.38,753.6c8.73,5.61,17.04,11,25.74,16.65c-7.35,5.53-15.5,9.15-22.96,14.67
				c-2.46-3.11-4.49-6.1-5.64-9.92c-1.04-3.45-3.38-6.45-4.59-9.96c-1.26-3.65-3.36-7.03-4.55-10.7c-1.1-3.38-3.43-6.43-3.43-11.16
				C731.77,747.88,737.59,749.49,742.38,753.6z"/>
			<path class="st18" d="M635.21,325.75c0.88-0.58,1.8-0.64,2.34-1.43c0.61-0.89,1.07-1.89,1.65-2.8c2.17-3.41,3.75-7.18,6.87-9.99
				c3.34-3.01,5.44-6.73,5.06-11.5c-0.07-0.87,0.64-1.97,1.58-1.36c1.66,1.08,2.7,1.08,3.41-0.89c0.22-0.6,0.4-1.63,0.76-1.71
				c3.45-0.73,3.25-4.85,6.13-6.27c3.21-1.59,5.24-4.52,6.22-8.02c0.45-1.62,1.35-2.07,2.89-1.47c1.26,0.49,1.88-0.49,2.76-1.11
				c3.22-2.29,5.85-5.18,8.6-7.95c2.91-2.93,5.75-5.96,9.45-7.9c2.01-1.05,3.07-3.24,4.88-4.12c2.07-1.01,3.71-2.09,4.75-4.12
				c0.19-0.37,0.55-0.79,0.91-0.9c5.87-1.67,9.67-6.44,14.46-9.72c6.58-4.5,13.09-9.12,19.76-13.49c1.27-0.83,2.78-1.53,3.65-2.69
				c1.49-1.98,3.72-2,5.96-3.17c0.74-0.37,1.17-0.43,1.6-0.42c0.87,0,1.77,0.06,2.04,1.09c0.2,0.77-0.39,1.19-0.95,1.52
				c-2.62,1.54-5.19,3.17-7.88,4.57c-4.45,2.33-8.46,5.25-12.42,8.32c-6.51,5.05-12.99,10.15-19.78,14.81
				c-13.49,9.27-25.57,20.11-36.94,31.81c-4.39,4.53-8.98,8.87-13.28,13.48c-3.4,3.64-6.57,7.5-9.7,11.39
				c-3.94,4.9-7.8,9.87-10.99,15.31c-0.11,0.19-0.24,0.37-0.37,0.53c-0.7,0.85-1.49,1.74-2.68,1.04
				C635.11,328.12,635.26,327.08,635.21,325.75z"/>
			<path class="st17" d="M956.1,747.13c0.86,2.69,0.03,5.18-0.99,7.55c-3.77,8.72-7.66,17.39-11.52,26.08
				c-0.35,0.79-0.74,1.57-1.19,2.31c-1.16,1.91-3.38,2.71-4.91,1.26c-5.35-5.12-12.45-7.69-17.93-12.54c0.26-1.87,1.98-2.27,3.12-3
				c5.99-3.84,11.62-8.18,18.06-11.39c4.38-2.18,8.1-5.68,12.14-8.57C953.75,748.2,954.69,747.69,956.1,747.13z"/>
			<path class="st19" d="M878.84,658.29c-5.08,2.81-11,4.67-17.27,5.44c-1.71,0.21-3.38,0.64-5.09,0.88
				c-2.35,0.32-4.71,0.82-7.07,0.79c-10.38-0.12-20.74-0.52-30.78-3.62c-7.29-2.26-14.06-5.54-20.23-10.8
				c1.51-0.57,3.09-0.38,4.66,0.69c1.95,1.33,4.06,2.46,6.2,3.47c8.83,4.16,18.06,6.77,27.88,7.1c1.49,0.05,3.02,0.23,4.44,0.65
				c2.79,0.82,5.49,0.81,8.26-0.12c1.2-0.4,2.53-0.45,3.81-0.54c5.78-0.43,11.53-0.93,16.94-3.32
				C873.06,657.8,875.71,658.42,878.84,658.29z"/>
			<path class="st19" d="M669.64,1075.12c6.12-0.11,12.41,1.37,18.92,1.07c4.95-0.23,9.78-1.33,15.28-1.52
				c0.31,0.27,0.1,0.84-0.22,0.9c-3.97,0.83-7.85,2.14-12,1.92c-2.58-0.14-5.18-0.13-7.76-0.01
				C679.08,1077.7,674.42,1077.25,669.64,1075.12z"/>
			<path class="st19" d="M782.92,635.37c-2.38-1.23-3.75-3.8-5.57-6.55c0.64-0.23,1.78-0.32,2.18,0.18
				C780.93,630.77,782.91,632.29,782.92,635.37z"/>
			<path class="st19" d="M881.84,656.57c-0.37,0.72-0.96,1.16-1.94,1.63C879.72,657.04,879.68,655.6,881.84,656.57z"/>
			<path class="st19" d="M797.1,649.06c-0.88-0.11-1.76-0.71-2.76-1.68C795.69,646.59,796.78,646.87,797.1,649.06z"/>
			<path class="st19" d="M785.43,638.24c-0.69-0.23-1.43-0.86-2.26-1.85C784.18,636.2,785.13,636.58,785.43,638.24z"/>
			<path class="st19" d="M787.68,640.08c-0.88,0.55-1.38-0.03-2.01-1C786.36,638.77,787.16,638.89,787.68,640.08z"/>
			<path class="st13" d="M634.82,332.15c-0.59-0.17-0.67-0.58-0.27-0.8C634.91,331.15,635.13,331.49,634.82,332.15z"/>
			<path class="st17" d="M956.53,747.05c0.15,0.04,0.17-1.21,0.28-0.01C956.61,747.13,956.55,747.08,956.53,747.05z"/>
			<path class="st19" d="M794.28,646.53c-0.39,0.17-0.82-0.03-1.29-0.61C793.37,645.75,793.8,645.95,794.28,646.53z"/>
			<path class="st19" d="M792.97,645.22c-0.39,0.17-0.82-0.03-1.29-0.62C792.06,644.44,792.49,644.64,792.97,645.22z"/>
			<path class="st19" d="M791.67,643.92c-0.38,0.17-0.81-0.04-1.29-0.62C790.76,643.13,791.19,643.34,791.67,643.92z"/>
			<path class="st19" d="M789.02,641.33c-0.41,0.19-0.85,0.01-1.31-0.56C788.12,640.58,788.56,640.76,789.02,641.33z"/>
			<path class="st19" d="M790.36,642.62c-0.4,0.19-0.84,0-1.32-0.57C789.45,641.86,789.88,642.05,790.36,642.62z"/>
			<path class="st20" d="M769.12,415.01c8.85-0.68,16.51,1.24,23.23,6.19c4.21,3.1,6.88,7.19,6.37,12.75
				c-0.19,2.05-1.22,3.25-3.18,3.5c-1.28,0.16-2.6,0.17-3.9,0.12c-4.55-0.16-9.12-0.18-13.65-0.61c-7.22-0.69-14.26,0.26-21.27,1.78
				c-9.4,2.04-17.28,6.73-23.93,13.64c-1.34,1.39-2.82,2.71-4.41,3.8c-2.17,1.48-4.32,0.24-4.43-2.48
				c-0.19-4.68,1.17-9.07,3.28-13.11c5.45-10.45,13.98-17.6,24.93-21.73C757.41,416.87,762.84,415.21,769.12,415.01z"/>
			<path class="st20" d="M959.22,439.09c3.24,4.59,2.82,9.54,3.37,14.24c0.2,1.66-1.57,2.59-3.22,1.95
				c-1.87-0.72-3.39-1.89-4.75-3.35c-8.92-9.63-20.26-13.73-33.07-14.83c-6.52-0.56-12.97-0.72-19.48,0.11
				c-3,0.38-6.09,0.28-9.13,0.18c-2.83-0.1-4.26-1.72-4.39-4.63c-0.2-4.55,2.14-7.92,5.39-10.65c5.13-4.31,11.14-6.92,17.79-7.42
				c13.54-1.02,25.82,2.79,36.67,10.88C952.97,428.98,956.35,433.57,959.22,439.09z"/>
			<path class="st20" d="M922.93,476.53c18.66,2.33,27.62,14.28,32,26.62c0.42,1.19,0.55,2.56,0.52,3.84
				c-0.04,1.89-1.09,3.22-2.87,3.96c-1.76,0.72-3.38,0.72-4.79-0.72c-1.97-2.02-3.92-4.06-5.89-6.09
				c-4.64-4.78-10.08-8.05-16.67-9.52c-7.75-1.72-14.67-0.12-20.75,4.8c-2.51,2.04-4.61,4.59-6.85,6.94
				c-0.59,0.62-0.99,1.42-1.54,2.09c-1.4,1.71-3.07,3.57-5.38,3.04c-2.79-0.64-4.11-3.19-4.56-5.84c-0.6-3.47-0.2-6.93,1.27-10.19
				c4.83-10.73,12.99-17.08,24.68-18.86C915.53,476.08,918.94,475.3,922.93,476.53z"/>
			<path class="st20" d="M770.91,476.53c11.4,0.52,19.59,5.51,25.39,14.53c2.52,3.92,3.83,8.21,3.72,12.93
				c-0.04,1.56-0.29,2.99-1.05,4.37c-2.08,3.77-4.9,4.19-7.72,1.03c-1.15-1.29-2.12-2.75-3.17-4.13
				c-4.38-5.78-9.97-9.13-17.29-10.48c-9.96-1.84-17.85,1.61-25.01,7.84c-2.29,1.99-4.22,4.38-6.41,6.49
				c-1.42,1.36-3.01,2.65-5.2,1.67c-1.81-0.81-2.66-2.75-2.19-5.63c0.93-5.72,3.73-10.63,7.29-15.07
				c5.67-7.07,13.25-11.17,21.97-13.06C764.16,476.39,767.28,476.67,770.91,476.53z"/>
			<path class="st0" d="M563.51,971.71c-0.15-0.04-0.19,1.2-0.27,0C563.43,971.63,563.49,971.68,563.51,971.71z"/>
			<path class="st21" d="M887.36,794.03c11.76,4.25,22.51,9.35,32.08,16.73c0.17,0.13,0.41,0.17,0.57,0.32
				c6.76,6.38,14.55,11.6,20.32,19.13c3.15,4.12,6.45,8.13,9.54,12.32c8.65,11.72,14.49,24.82,17.89,38.78
				c2.45,10.04,3.9,20.47,3.03,30.95c-0.48,5.81-1.68,11.57-2.04,17.38c-0.42,6.81-2.42,13.18-4.34,19.61
				c-1.99,6.66-4.71,13.01-7.78,19.24c-3.08,6.25-6.95,11.96-10.98,17.61c-6.74,9.45-14.94,17.41-24,24.57
				c-9.44,7.46-20.06,12.91-31.12,17.34c-7.6,3.04-15.54,5.2-23.72,6.59c-5.36,0.91-10.77,0.97-16.13,1.84
				c-3.97,0.64-8.15,0.93-12.22-0.46c-1.58-0.54-3.46-0.31-5.19-0.24c-7.92,0.35-15.48-1.7-23.05-3.48
				c-11.26-2.65-21.8-7.27-31.67-13.22c-7.59-4.58-14.86-9.67-21.58-15.57c-4.78-4.2-8.45-9.29-12.7-13.91
				c-2.92-3.18-5.32-6.84-7.81-10.38c-5.65-8.03-10.19-16.66-13.72-25.82c-3.52-9.12-6.15-18.63-7.29-28.21
				c-1.14-9.6-1.21-19.44,0.43-29.22c1.08-6.44,2.48-12.75,4.23-19.01c2.95-10.51,7.37-20.42,13.03-29.71
				c3.37-5.55,6.83-11.18,11.14-15.98c5.04-5.61,9.82-11.44,15.58-16.5c14.22-12.5,30.79-20.24,48.66-25.36
				c5.94-1.7,12.08-3.27,18.49-3.4c3.83-0.08,7.66-1.04,11.6-1.05c11.79-0.02,23.31,1.74,34.68,4.65
				C877.89,790.76,882.66,791.43,887.36,794.03z"/>
			<path class="st22" d="M960.07,926.51c-1.73,8.2-3.3,15.85-6.04,23.18c-1.82,4.87-3.2,10.03-5.77,14.48
				c-5.28,9.14-10.57,18.33-18.34,25.8c-5.17,4.97-10.3,9.95-15.93,14.39c-0.68,0.53-1.42,1.02-2.19,1.4
				c-5.06,2.52-10.04,5.17-14.6,8.56c-0.86,0.64-1.9,1.1-2.92,1.43c-8.83,2.9-17.46,6.3-26.63,8.34
				c-11.61,2.59-23.3,3.19-34.93,2.14c-8.51-0.77-17.07-2.33-25.3-5.44c-5.05-1.9-10.28-3.34-15.16-5.75
				c-0.96-0.48-2.05-0.69-3.07-1.06c-0.41-0.15-0.8-0.34-1.17-0.57c-1.78-1.11-3.54-2.23-5.46-3.45c0.68-0.17,1.12-0.41,1.51-0.35
				c6.38,1.12,12.74,2.32,19.13,3.39c1.91,0.32,3.89,0.41,5.83,0.43c6.96,0.06,13.94-0.24,20.89,0.12
				c7.53,0.39,14.64-1.35,21.77-3.22c2.93-0.77,5.8-1.83,8.76-2.43c4.16-0.84,7.51-3.34,11.17-5.15
				c6.77-3.35,13.67-6.55,19.75-11.13c4.32-3.26,8.43-6.81,12.8-9.99c8.15-5.93,14.88-13.37,21.68-20.65
				c3.18-3.41,6.62-6.91,8.5-11.43c0.25-0.59,0.62-1.16,1.05-1.64c7.27-8.28,11.86-18.07,15.66-28.23
				c3.58-9.57,5.53-19.53,5.48-29.81c-0.01-1.86,0.13-3.71,0.22-6.06c1.61,1.76,2.22,3.48,2.25,5.1c0.09,6.73,2.07,13.27,1.58,20.07
				C960.18,914.62,960.34,920.29,960.07,926.51z"/>
			<path class="st23" d="M781.8,944.45c3.86-4.36,6.11-8.94,6.83-14.27c0.16-1.17,0.32-2.54,1.71-3.13
				c1.14,0.57,1.29,1.68,1.49,2.73c1.69,9,6.74,15.3,15.17,18.9c0.4,0.17,0.79,0.36,1.17,0.57c0.74,0.41,1.72,0.67,1.82,1.66
				c0.14,1.47-1.26,1.64-2.13,1.97c-7.72,2.84-12.52,8.27-14.64,16.16c-0.44,1.65-0.75,3.35-2.32,5.09
				c-2.29-4.79-3.55-9.84-6.62-13.99c-3.18-4.29-8.01-6.22-13.15-8.79C774.97,948.93,778.67,947.52,781.8,944.45z"/>
			<path class="st2" d="M926.05,861.69c0.42,1.91-0.16,3.33-1.79,3.87c-6.18,2.06-8.32,7.06-9.5,12.78
				c-0.48,2.32-0.95,4.64-1.33,6.98c-0.23,1.42-0.69,2.51-2.3,2.63c-2.01,0.15-3.57-0.84-3.96-2.59c-0.18-0.84-0.16-1.72-0.24-2.58
				c-0.63-6.9-3.55-12.38-9.73-15.91c-1.5-0.86-2.93-1.86-4.3-2.9c-2.08-1.58-2.03-3.77,0.16-5.37c1.57-1.15,3.24-2.16,4.88-3.2
				c4.46-2.84,7.14-6.79,7.68-12.12c0.11-1.07,0.26-2.15,0.58-3.17c0.61-1.93,1.85-2.9,3.18-2.65c1.44,0.27,2.22,1.23,2.59,2.58
				c0.39,1.46,0.76,2.92,1.12,4.38c0.58,2.33,1.42,4.54,2.97,6.43c2.33,2.85,4.5,5.85,8.58,6.41c0.79,0.11,1.58,0.72,2.24,1.26
				c0.99,0.82,0.9,1.86-0.08,3.16c-10.7-2.29-16.65-8.81-17.56-16.52c0.14,6.38-5.48,11.64-12.54,16.42
				c9.1,4.31,13.75,11.66,13.43,20.87c-0.68-4.07,0.72-8.81,3.67-12.98C916.69,865.37,919.89,861.43,926.05,861.69z"/>
			<path class="st24" d="M794.44,867.55c-2.46-2.08-4.61-3.81-6.8-5.56c7.15-5.42,7.71-6.16,10.3-13.45
				c0.38,0.11,1.01,0.13,1.09,0.36c2.14,5.55,5.17,10.39,11.03,13.38c-2.39,2.44-5.07,3.81-6.98,6.13
				c-2.02,2.45-2.05,5.57-3.62,8.98C797.59,873.86,797,870.42,794.44,867.55z"/>
			<path class="st24" d="M870.48,914.14c-5.87-2.59-6.98-4.3-6.52-9.29c0.27-2.94,1.47-4.54,3.96-5.27c2.72-0.8,5.3-0.07,6.95,2.12
				c1.77,2.34,2.71,4.94,1.79,7.89C875.79,912.34,873.87,913.86,870.48,914.14z"/>
			<path class="st24" d="M902.81,958.26c-0.81,0.17-1.03,0.31-1.21,0.78c-0.25,1.19-1.02,1.48-2.25,1.86
				c-0.37,0.21-0.25,0.3-0.3,0.23c-4.1,2.2-6.05-0.95-7.69-3.5c-2.01-3.12-0.56-6.39,1.52-8.87c2.05-2.45,4.89-3.47,8.3-0.78
				c0.36,0.4,0.52,0.32,0.43,0.34C904.71,951.12,906.91,954.09,902.81,958.26z"/>
			<path class="st24" d="M858.38,830.95c-2.61-3.44-2.65-4.51-0.66-6.96c1.84-2.27,4.55-3.17,6.85-2.18
				c1.79,0.77,2.38,2.41,2.59,4.16c0.23,1.9-0.95,3.94-2.74,4.71C862.63,831.46,860.76,831.99,858.38,830.95z"/>
			<path class="st24" d="M855.66,991.8c-0.46,1.01-0.72,1.63-1.13,2.11c-2.5,2.92-6.53,1.28-7.42-2.25
				c-0.33-1.32-0.23-2.57,0.21-3.81c0.51-1.46,1.16-2.84,2.84-3.27c1.63-0.41,3.92,0.7,4.93,2.39
				C855.88,988.32,856.11,989.8,855.66,991.8z"/>
			<path class="st24" d="M747.97,905.52c-0.33-2.46-0.24-4.34,1.42-5.81c2.18-1.94,5.23-1.43,6.52,1.14
				c1.36,2.72,0.41,6.27-2.2,8.01c-0.76,0.51-1.63,0.51-2.48,0.19C749.74,908.5,748.72,907.44,747.97,905.52z"/>
			<path class="st2" d="M901.52,947.87c-4.72-0.91-6.96-0.3-8.75,2.89c-2.72,4.86-0.8,8.57,5.77,10.27c-2.8,2.02-5.72,1.38-7.5-1.71
				c-1.75-3.03-1.3-8.94,0.88-11.69c1.84-2.32,6.16-2.73,9.32-0.86C901.39,946.86,901.41,947.16,901.52,947.87z"/>
			<path class="st2" d="M902.8,958.43c1.87-3.23,1.35-6.29-1.12-9.68c0.72-0.42,1.68-0.45,2.2,0.36c0.81,1.27,1.57,2.6,2.17,3.97
				C907.11,955.48,906.57,956.44,902.8,958.43z"/>
			<path class="st2" d="M899.44,961.1c0.15-0.51,0.76-1.03,1.75-1.7C901.41,960.22,900.91,960.89,899.44,961.1z"/>
			<path class="st23" d="M926.48,861.97c-9.56,2.8-13.74,9.87-15.15,19.1c-0.23,1.48,0.14,3.04-0.61,4.44
				c-0.1,0.18-0.27,0.33-0.41,0.49c-3.61-14.89-2.26-14.77-16.26-24.6c10.88-6.77,12.9-10.98,14.64-21.17
				c1.85,1.66,1.72,3.91,2.34,5.74c1.59,4.68,4.06,8.62,8.33,11.25c2.21,1.36,4.49,2.6,6.91,4.3
				C926.45,861.94,926.51,862,926.48,861.97z"/>
		</g>
	</g>
</g>
<g id="Layer_2">
</g>
<g id="Layer_3">
</g>
</svg>
