<?xml version="1.0" encoding="utf-8"?>
<!-- Generator: Adobe Adobe Illustrator 24.2.0, SVG Export Plug-In . SVG Version: 6.00 Build 0)  -->
<svg version="1.1" xmlns="http://www.w3.org/2000/svg" xmlns:xlink="http://www.w3.org/1999/xlink" x="0px" y="0px" width="1728px"
	 height="1296px" viewBox="0 0 1728 1296" style="enable-background:new 0 0 1728 1296;" xml:space="preserve">
<style type="text/css">
	.st0{fill:#422480;}
	.st1{fill:#7E4BAF;}
	.st2{fill:#EA94B6;}
	.st3{fill:#8240C5;}
	.st4{fill:#763CB1;}
	.st5{fill:#763CB2;}
	.st6{fill:#B173D2;}
	.st7{fill:#E893B6;}
	.st8{fill:#E993B6;}
	.st9{fill:#823FC5;}
	.st10{fill:#743CB0;}
	.st11{fill:#602DA0;}
	.st12{fill:#753BB1;}
	.st13{fill:#7F3FC2;}
	.st14{fill:#803FC4;}
	.st15{fill:#E591B5;}
	.st16{fill:#6535A5;}
	.st17{fill:#7D3DBD;}
	.st18{fill:#42256E;}
	.st19{fill:#45257D;}
	.st20{fill:#7B3EB5;}
	.st21{fill:#582599;}
	.st22{fill:#F0EBF4;}
	.st23{fill:#EEE6F2;}
</style>
<g id="Layer_1">
	<g>
		<g>
			<path class="st0" d="M683.35,58.37c13.63-8.83,27.11-16.56,41.48-22.74c7.87-3.39,15.93-6.06,24.31-7.65
				c13.86-2.63,27.54-5.99,41.04-10.04c3.74-1.12,7.43-1.64,11.26-1.65c18.82-0.02,37.65,0.02,56.47-0.06
				c15.29-0.07,30.58-0.24,45.86-0.47c2.39-0.04,4.67,0.07,6.95,0.8c13.7,4.38,27.46,8.58,41.1,13.12
				c18.77,6.24,36.27,15.13,52.95,25.75c5.21,3.32,10.28,6.81,15.14,10.6c9.16,7.13,17.24,15.19,21.05,26.55
				c1.03,3.08,3.06,4.73,5.99,5.87c21.89,8.5,41.32,21.15,58.94,36.45c12,10.43,22.09,22.57,30.1,36.54
				c7.52,13.12,13,27.04,17.14,41.38c3.08,10.66,4.46,21.85,4.1,33.11c-0.45,13.82-2.01,27.47-6.37,40.66
				c-1.92,5.8-1.3,11.17,0.33,17.01c3.71,13.27,6.38,26.86,5.71,40.73c-0.5,10.21-1.7,20.38-4.47,30.34
				c-2.69,9.65-5.76,19.1-10.47,27.98c-0.82,1.54-1.1,3.36-1.88,4.93c-0.86,1.72-0.16,2.82,1.17,3.65c0.98,0.62,2.12,0.99,3.21,1.45
				c8.97,3.77,14.51,10.89,18.11,19.49c3.17,7.59,4.87,15.52,5.29,23.91c1.01,20.23-2.58,39.67-8.13,58.94
				c-2.45,8.5-5.64,16.66-9.15,24.77c-4.02,9.28-9.9,17.3-15.77,25.39c-5.76,7.95-12.86,14.53-20.97,19.95
				c-3.38,2.26-4.64,4.95-4.32,8.85c0.83,9.98-0.28,19.95-0.23,29.92c0.03,5.95-1.04,11.75-2.17,17.36
				c-3.46,17.26-8.48,34.14-15.46,50.38c-2.43,5.66-4.62,11.43-6.84,17.18c-1.39,3.62-1.16,4.81,1.84,6.54
				c4.31,2.49,8.8,4.68,13.23,6.98c14.88,7.71,29.08,16.52,42.51,26.56c12.03,8.99,23.55,18.52,33.64,29.72
				c18.76,20.83,35,43.39,48.83,67.8c13.05,23.04,24.75,46.72,35.86,70.74c11.59,25.06,22.18,50.54,32.31,76.21
				c5.5,13.92,10.33,28.1,15.21,42.26c4.58,13.32,9.03,26.69,13.16,40.15c3.27,10.66,6.23,21.44,8.86,32.28
				c3.81,15.66,7.37,31.38,10.72,47.15c1.58,7.45,2.39,15.07,3.63,22.6c1.61,9.82,3.35,19.62,4.91,29.44
				c0.65,4.06,1.13,8.15,1.45,12.24c0.83,10.53,1.53,21.06,2.3,31.59c0.15,2.07,0.27,4.15-0.58,6.09
				c-2.14,4.94-5.57,8.25-11.26,8.53c-4.41,0.21-8.82,0.54-13.23,0.55c-26.75,0.07-53.51,0.05-80.26,0.09
				c-14.7,0.02-29.41,0.13-44.11,0.16c-22.93,0.05-45.87,0.11-68.8,0.1c-6.53,0-12.52,1.08-18.63,4.01
				c-17.68,8.49-36.53,12.55-56.2,12.81c-6.77,0.09-13.52,0.02-20.17-1.1c-9.03-1.52-17.91-3.83-25.41-9.37
				c-4.28-3.16-8.69-3.34-13.33-1.89c-12.6,3.94-25.43,7.06-38.36,9.58c-14.67,2.86-29.53,4.78-44.3,7.16
				c-11.07,1.78-22.23,2.11-33.4,2.07c-8.21-0.03-16.43-0.58-24.63-0.39c-14.99,0.34-29.99-0.05-44.96,1.28
				c-11.18,0.99-22.32-0.68-33.39-1.81c-14.87-1.52-29.69-3.74-44.41-6.31c-16.77-2.93-33.51-6.15-49.69-11.63
				c-3.65-1.23-6.56-0.95-9.91,1.2c-9.23,5.91-19.13,9.69-30.29,11.06c-12.41,1.53-24.65,1.31-36.91-0.17
				c-12.64-1.52-24.75-5.32-35.9-11.48c-4.31-2.38-8.49-3.69-13.31-3.65c-17.91,0.14-35.8-0.94-53.72-0.12
				c-11.73,0.54-23.51,0.21-35.26,0.22c-15.87,0.02-31.75-0.01-47.62,0.01c-14.7,0.02-29.4,0.06-44.11,0.12
				c-7.94,0.04-15.89-0.01-23.82,0.3c-3.65,0.14-7.04-0.53-10.29-1.93c-4.12-1.77-6.45-4.96-6.6-9.54
				c-0.3-9.1-0.63-18.16,1.09-27.24c1.2-6.29,1.2-12.8,1.93-19.19c0.6-5.22,1.39-10.43,2.28-15.62c2.57-15,5.15-30.01,7.89-44.98
				c2.64-14.4,5.93-28.67,9.83-42.78c4.77-17.21,9.63-34.4,14.85-51.48c3.09-10.09,7.22-19.86,10.42-29.93
				c4.9-15.41,11.01-30.35,16.96-45.35c6.39-16.11,13-32.13,19.85-48.05c9.87-22.94,20.89-45.35,32.32-67.55
				c8.34-16.2,17-32.25,27.53-47.11c14.82-20.91,31.52-40.12,51.23-56.81c19.9-16.86,41.84-30.24,64.97-41.93
				c1.05-0.53,2.12-1.03,3.14-1.62c4.42-2.55,4.8-3.28,2.83-8.46c-3.23-8.52-6.74-16.93-10.08-25.41
				c-8.01-20.35-12.71-41.49-14.5-63.24c-0.58-7.01-0.66-14.2,0.25-21.15c0.85-6.49-1.5-10.38-6.43-13.98
				c-4.25-3.1-8.07-6.84-11.81-10.57c-15.75-15.74-25.73-34.84-32.13-55.95c-5.05-16.65-7.97-33.71-9.02-51.05
				c-0.78-12.84,1.62-25.22,7.15-36.82c3.08-6.47,7.67-11.82,14.62-14.67c2.41-0.99,4.67-2.35,6.95-3.52c-0.19-3.33-1.68-5.9-3-8.45
				c-7.19-13.94-11.13-28.79-13.93-44.2c-3.62-19.95-0.2-39.12,4.56-58.23c1.26-5.05,1.19-9.45-0.32-14.43
				c-4.81-15.85-7.01-32.23-5.72-48.71c1.17-14.94,5.11-29.39,10.85-43.36c11.28-27.43,30.13-48.78,52.93-67.04
				c14.3-11.45,29.95-20.73,46.64-28.23c2.88-1.29,4.84-2.91,6.33-5.66c2.23-4.12,4.15-8.39,6.95-12.26
				C664.64,72.59,673.29,65.21,683.35,58.37z"/>
			<path class="st1" d="M451.39,574.51c2.04-5.05,2.56-9.73,3.44-14.34c0.13-0.71,0.99-1.65,1.66-1.8c1.27-0.27,2.14,0.66,2.45,1.9
				c0.64,2.57,1.15,5.17,1.84,7.72c3.75,13.88,11.62,23.52,26.59,25.95c1.41,0.23,2.74,1.02,4.05,1.65c1,0.48,0.99,2.25,0.15,2.99
				c-1.62,1.42-3.62,1.86-5.61,2.36c-13.99,3.51-22.03,12.6-25.25,26.47c-0.7,3.01-0.59,6.49-3.44,8.71
				c-4.17-1.7-3.32-5.94-3.76-8.93c-1.33-9.05-5.74-16-12.92-21.15c-3.03-2.17-6.86-3.24-10.36-4.74c-1.35-0.58-2.8-0.89-4.16-1.44
				c-1.77-0.72-4.93-0.36-4.56-3.06c0.26-1.9,3.17-2.48,5.06-2.68c4.23-0.46,7.84-2.26,11.5-4.16
				C444.36,586.69,448.82,581.88,451.39,574.51z"/>
			<path class="st2" d="M824.9,309.31c4.33-2.01,8.1-3.69,11.8-5.49c5.68-2.76,11.13-2.65,16.82,0.29
				c10.18,5.26,20.52,10.24,30.83,15.25c2.9,1.41,5.87,2.79,8.94,3.71c8.91,2.68,16.4-1.03,20.19-9.54c1.03-2.3,0.46-5.92,3.36-6.64
				c2.03-0.5,4.52,0.79,6.79,1.35c11.42,2.83,22.71,6.07,33.72,10.22c21.84,8.23,42.77,18.22,61.04,32.98
				c13.86,11.2,25.18,24.61,33.42,40.53c3.8,7.34,7.08,14.89,9.13,22.87c1.75,6.82,2.9,13.8,4.08,20.74
				c3.06,17.96,6.1,35.93,8.93,53.93c1,6.38,1.35,12.85,2.08,19.28c0.69,6.12,1.51,12.23,2.23,18.35c1.09,9.32,2.5,18.62,3.14,27.98
				c1.05,15.53,0.61,31.07-1.07,46.57c-2.12,19.57-8.26,37.96-17.26,55.27c-6.52,12.54-15.25,23.62-25.71,33.36
				c-10.24,9.54-21.68,17.09-34.22,23.11c-1.32,0.64-2.66,1.25-4.03,1.79c-1.23,0.49-2.58-0.51-2.25-1.68
				c0.64-2.25,1.21-4.56,2.17-6.69c6.56-14.57,10.51-29.92,12.82-45.62c1.8-12.2,1.93-24.45-0.72-36.73
				c-3.77-17.41-12.71-31.47-26.17-42.76c-15.11-12.68-32.74-19.35-52.3-21.16c-0.29-0.03-0.59-0.05-0.88-0.04
				c-3.43,0.18-5.45-1.17-6.18-4.77c-1.01-4.92-3.33-9.41-5.52-13.9c-2.63-5.42-6.75-9.61-11.58-13.09c-1.39-1-3.11-1.59-4.74-2.19
				c-1.36-0.5-3.09,1.2-2.62,2.52c0.98,2.76,2.12,5.47,3.07,8.25c2.47,7.19,0.94,14.08-2.5,20.4c-4.64,8.52-11.81,14.63-20.79,18.27
				c-7.66,3.11-15.72,4.69-24.02,5.15c-10.9,0.6-21.76,0.22-32.52-1.46c-12.84-2-24.32-6.73-32.38-17.69
				c-5.62-7.66-7.4-15.85-3.86-24.87c1.07-2.73,2.38-5.37,3.55-8.06c0.37-0.86,0.35-1.87-0.42-2.35c-0.64-0.4-1.64-0.51-2.41-0.36
				c-2.38,0.47-4.27,1.93-6.06,3.47c-7.07,6.06-12.65,13.11-14.81,22.42c-0.33,1.43-1,2.8-1.2,4.24c-0.46,3.26-2.56,4.47-5.49,4.62
				c-4.72,0.23-9.28,1.25-13.84,2.38c-25.16,6.21-44.72,20.22-58.55,42.14c-5.42,8.59-8.41,18.02-9.23,28.17
				c-0.42,5.25-1.66,10.38-1.34,15.76c0.82,13.57,3.24,26.82,7.23,39.76c2.25,7.29,5.04,14.41,7.59,21.6
				c0.39,1.11,0.96,2.19,1.11,3.34c0.1,0.75-0.27,1.66-0.7,2.33c-0.17,0.27-1.12,0.27-1.59,0.08c-2.98-1.25-5.96-2.52-8.87-3.91
				c-14.27-6.8-26.28-16.57-37.03-28.07c-10.79-11.53-18.72-24.76-24.66-39.34c-7.85-19.27-11.67-39.23-12.49-60.03
				c-0.71-18,1.32-35.73,3.21-53.51c2.87-26.89,7.92-53.47,11.77-80.22c1.88-13.1,5.04-25.88,8.93-38.51
				c0.6-1.96,0.9-4.01,1.46-5.98c1.45-5.1,3.28-10.05,6.12-14.58c16.14-25.77,37.75-45.5,64.62-59.8
				c10.18-5.41,20.76-9.74,31.4-13.93c7.9-3.11,16.24-5.14,24.41-7.56c4.45-1.32,8.96-2.46,13.53-3.7c1.17,2.35,2.08,4.48,3.24,6.45
				c0.74,1.25,1.76,2.37,2.79,3.4c5.24,5.25,11.24,7.22,18.46,4.34C807.63,318.3,815.97,313.96,824.9,309.31z"/>
			<path class="st3" d="M859.56,138.76c-5.55-5.13-11.23-7.33-18.12-4.6c-1.61,0.64-3.48,0.63-5.13,1.22
				c-3.73,1.34-6.35,3.63-7.97,7.58c-4.23,10.33-8.26,20.71-11.04,31.54c-1.05,4.1-3.04,7.56-6.28,10.37
				c-1.86,1.61-3.81,2.52-6.28,2.8c-11.06,1.25-22.08,2.81-32.74,6.15c-3.19,1-6.45,1.09-9.61,0.74c-8.36-0.9-15.42,7.6-12.82,16.6
				c0.89,3.07,1.71,6.13,4.12,8.63c7.75,8.03,15.31,16.25,22.97,24.36c3.03,3.21,6.32,6.11,9.89,8.74c2.16,1.59,3.87,3.8,2.83,6.83
				c-0.78,2.3-3.94,4.1-7.41,3.2c-3.21-0.83-5.86,0.1-8.53,1.06c-8.83,3.18-17.61,6.52-26.34,9.97
				c-13.12,5.19-25.49,11.87-37.66,18.99c-13.46,7.88-25.58,17.64-38.14,26.76c-5.42,3.93-9.67,9.43-14.59,14.08
				c-7.67,7.26-15.42,14.45-23.21,21.6c-5.66,5.19-9.9,11.59-14.93,17.32c-2.32,2.64-4.41,5.48-6.71,8.15
				c-6.02,7-8.9,15.72-13.05,23.74c-1.35,2.61-2.35,5.39-3.73,7.98c-1.47,2.76-2.99,2.93-5.74,1.42c-7.8-4.29-12.75-11.28-17-18.65
				c-4.84-8.39-9.27-17.05-12.5-26.24c-0.48-1.38-1.31-2.79-1.28-4.17c0.18-10.61-2.66-20.96-2.3-31.6
				c0.38-11.27,2.33-22.17,6.41-32.63c2.99-7.65,6.44-15.12,9.58-22.71c3.42-8.26,9.2-15.02,14.28-22.17
				c6.96-9.8,14.57-19.14,21.9-28.68c0.54-0.7,1.1-1.38,1.69-2.03c7.98-8.63,15.65-17.56,24.04-25.77
				c7.74-7.58,16.51-14.1,24.33-21.6c12.41-11.89,27.09-20.55,41.08-30.23c8.02-5.55,16.81-9.62,25.16-14.51
				c16.79-9.84,35.26-15.93,53.01-23.63c10.53-4.57,21.06-9.02,32.06-12.28c12.36-3.67,24.63-7.59,37.21-10.61
				c12.22-2.93,24.37-6.12,36.71-8.53c10.38-2.03,20.8-3.75,31.39-3.4c8.56,0.28,16.88-1.78,25.45-1.76
				c10.95,0.03,21.66,1.28,32.25,3.77c6.27,1.48,12.63,2.6,18.69,4.93c6.89,2.65,13.44,5.94,19.53,10.1
				c3.77,2.58,3.7,4.05-0.12,6.08c-5.95,3.16-11.91,6.28-17.86,9.43c-0.78,0.41-1.55,0.88-2.2,1.46c-0.38,0.34-0.7,0.98-0.69,1.46
				c0.04,1.06,0.97,1.33,1.82,1.51c0.57,0.12,1.17,0.17,1.76,0.14c8.63-0.43,16.94,1.62,25.13,3.81
				c16.19,4.33,31.99,9.81,46.47,18.49c2,1.2,3.89,2.6,5.79,3.96c4.76,3.42,9.35,7.11,14.29,10.25
				c8.11,5.14,14.02,12.45,19.99,19.67c13.46,16.27,20.03,35.71,24.77,55.84c2.21,9.39,3.87,18.95,3.81,28.68
				c-0.01,1.47,0.01,2.95-0.14,4.41c-0.28,2.76-1.69,4.59-3.38,4.44c-2.08-0.19-2.84-1.75-3.46-3.47
				c-2.12-5.84-6.93-9.56-11.47-13.09c-12.5-9.7-24.51-20.1-38.25-28.16c-7.36-4.32-15.19-7.71-23.06-10.83
				c-10.35-4.11-21.41-5.95-32.23-8.51c-3.2-0.75-6.4-0.62-9.65-0.55c-0.62,2.16,1.23,2.39,2.28,2.89
				c15.95,7.63,30.75,17.18,45.28,27.17c4.58,3.15,8.78,6.86,13.05,10.45c12.14,10.21,24.22,20.56,34.41,32.74
				c6.75,8.07,12.67,16.75,16.92,26.62c3.4,7.91,5.71,15.97,7.3,24.33c0.27,1.44,0.54,2.9,0.54,4.36
				c0.02,11.47,0.26,22.96-0.18,34.42c-0.19,4.9-1.61,9.82-2.91,14.6c-2.4,8.81-5.59,17.32-9.99,25.38
				c-2.24,4.11-3.83,8.57-5.73,12.86c-0.97,2.17-2.14,4.21-4.23,5.52c-2.67,1.68-5.99,1.44-7.46-1.68
				c-2.25-4.79-4.69-9.49-7.06-14.23c-5.83-11.63-13.09-22.36-22.34-31.46c-7.77-7.64-14.2-16.44-22.01-24.03
				c-4.66-4.53-9.81-8.39-14.99-12.24c-3.77-2.8-7.13-6.04-10.65-9.1c-11.47-9.98-22.28-20.77-36.19-27.77
				c-8.88-4.47-17.13-10.21-26.1-14.66c-10.28-5.11-20.88-9.4-31.75-12.94c-4.68-1.53-9.73-2.03-14.66-2.62
				c-3.04-0.37-5.7-1.36-8.11-3.11c-3.85-2.78-4.49-5.85-2.05-9.86c3.09-5.08,6.98-9.59,11.79-12.97
				c5.56-3.91,10.01-9.03,15.44-13.1c4.12-3.1,7.27-7.65,10.38-11.9c4.66-6.36,1.07-17.23-6.32-19.88c-1.65-0.59-3.37-1.32-5.08-1.4
				c-11.73-0.56-23.15-3.57-34.91-4.07c-5.19-0.22-10.31-1.75-15.47-2.69c-2.15-4.47-4.52-8.84-6.39-13.42
				c-3.12-7.6-6.08-15.28-8.81-23.02C864.81,147.29,862.43,143.29,859.56,138.76z"/>
			<path class="st4" d="M1214.03,875.78c5.6,10.72,11.12,20.74,16.13,31.01c4.37,8.96,8.19,18.2,12.19,27.34
				c6.57,15.01,13.46,29.9,19.45,45.14c2.13,5.42,4.35,10.85,6.35,16.35c3.72,10.2,7.68,20.31,11.3,30.55
				c2.43,6.89,4.4,13.94,6.67,20.89c1,3.06,2.35,6.01,3.36,9.07c4.79,14.47,9.18,29.04,12.69,43.9c1.4,5.93,3.31,11.84,5.19,17.66
				c2.81,8.7,4.41,17.68,5.98,26.54c2.04,11.52,5.38,22.76,6.4,34.53c0.83,9.58,3.28,19.01,3.41,28.74c0.04,3.18,1,6.34,1.6,9.5
				c1.21,6.35,1.73,12.75,2.02,19.21c0.26,5.61,0.55,5.69-5.13,5.69c-37.37,0.05-74.75,0.06-112.12,0.08
				c-1.17,0-2.35-0.03-3.52-0.15c-1.63-0.17-2.73-1.14-3.01-2.73c-1.26-7.21-2.67-14.4-3.6-21.65c-1.75-13.66-3.96-27.21-7.79-40.46
				c-0.41-1.4-0.82-2.81-1.11-4.25c-2.42-12.14-6.33-23.9-11.75-34.92c-7.42-15.1-16.62-29.11-31.42-38.34
				c-0.99-0.62-1.92-1.32-2.84-2.03c-0.19-0.15-0.23-0.5-0.37-0.85c0.8-2.16,2.94-1.08,4.39-1.65c1.36-0.53,2.8-1.12,4.22-1.16
				c11.14-0.3,22.24-0.98,33.16,2.64c10.96,3.64,21.32,8.35,30.96,14.66c1.96,1.29,3.85,2.72,5.91,3.82
				c2.25,1.19,4.27,3.12,7.14,2.71c1.68-3.46-1.1-5.41-2.74-7.58c-9.47-12.48-20.01-23.77-34.2-31.15
				c-5.98-3.11-11.63-6.85-18.26-8.6c-1.2-0.32-1.5-1.61-1-2.91c0.86-2.23,2.11-4.15,3.76-5.9c5.4-5.69,11.88-9.66,19.44-11.53
				c9.38-2.32,18.78-4.63,28.61-4.16c10.55,0.51,21.16-0.74,31.67,1.11c0.46,0.08,1.34-0.3,1.48-0.68c0.29-0.76,0.53-1.83,0.21-2.47
				c-0.5-0.99-1.36-1.95-2.3-2.56c-11.17-7.23-22.91-13.28-36.18-15.47c-9.88-1.64-19.83-1.97-29.66,0.93
				c-6.48,1.91-12.94,3.71-18.52,7.84c-2.31,1.71-4.67,0.24-4.72-2.76c-0.1-5.59,0-11.18,0.01-16.77
				c0.01-6.18-0.08-12.36,0.03-18.54c0.21-12.06-0.93-23.98-3.22-35.82c-0.83-4.29-0.7-8.69-1.45-13.07
				c-1.83-10.72-4.41-21.21-7.72-31.52c-2.86-8.92-6.35-17.64-9.61-26.43c-0.17-0.46-0.78-0.94-1.27-1.04
				c-1.18-0.25-1.46,0.76-1.49,1.58c-0.1,2.35-0.08,4.71-0.08,7.06c0.03,32.08,0.08,64.16,0.07,96.24c0,5.57-0.42,11.07-1.27,16.63
				c-0.97,6.34-0.29,12.92-0.47,19.39c-0.43,15.75-3.9,30.75-11.41,44.7c-0.56,1.04-0.98,2.18-1.69,3.09c-2,2.53-3.9,5.3-6.88,6.71
				c-2.62,1.24-5.15-0.68-7.65-1.19c-12.29-2.51-24.51-2.4-36.66,0.47c-3.97,0.94-7.7,2.83-11.58,4.15
				c-2.33,0.79-3.44-0.01-3.54-2.29c-0.05-1.17-0.3-2.46,0.07-3.51c2.32-6.46,0.86-13.46,2.99-19.96c0.62-1.89,0.34-4.08,0.35-6.14
				c0.05-7.95-0.04-15.89,0.08-23.84c0.17-11.52-1.8-22.81-4.14-33.98c-3.75-17.85-10.63-34.66-18.14-51.25
				c-5.12-11.31-11.53-21.87-18.91-31.64c-6.31-8.35-12.68-16.85-20.45-24.07c-4.52-4.2-4.49-4.74-2.01-10.7
				c4.4-10.57,9.06-21.04,13.09-31.74c6.5-17.25,12.87-34.57,16.82-52.63c0.61-2.78,1.83-4.87,3.75-6.77
				c2.3-2.28,4.04-5.08,6.2-7.41c11.47-12.4,19.83-26.87,28.29-41.29c0.3-0.51,0.6-1.01,0.91-1.51c0.9-1.47,2.26-1.82,3.79-1.38
				c1.97,0.57,3.99,1.1,5.83,2c13.18,6.44,26.24,12.97,38.49,21.28c16,10.84,29.55,24.2,42.44,38.25
				c7.48,8.15,14.67,16.67,20.83,26.08c7.21,11.01,14.87,21.71,21.75,32.97C1207.15,863.53,1210.39,869.38,1214.03,875.78z"/>
			<path class="st5" d="M461.25,1119.45c2.45,0.88,4.43-0.04,6.43-1.55c10.59-8.02,22.05-14.28,34.72-18.65
				c7.28-2.51,14.69-3.71,22.1-5.26c0.85-0.18,1.83-0.41,2.62-0.17c6.9,2.08,13.99,1.29,21.01,1.6c0.5,0.02,1.18,0.28,1.44,0.66
				c0.69,0.99-0.13,1.71-0.84,2.13c-8.15,4.85-14.99,11.19-21.33,18.19c-7.35,8.12-13,17.13-17.42,27.26
				c-5.2,11.92-9.03,24.18-11.97,36.75c-3.2,13.67-6.29,27.37-7.05,41.5c-0.28,5.22-1.69,10.38-2.67,15.55
				c-0.99,5.27,0.12,6.35-8.11,6.34c-35.01-0.04-70.03,0.01-105.04,0.01c-1.76,0-3.54,0.01-5.29-0.12c-2.82-0.2-3.74-1.09-3.93-3.68
				c-0.09-1.17-0.26-2.4-0.02-3.52c1.35-6.34,0.92-12.95,2.25-19.17c1.35-6.35,1.15-12.79,2.61-19.13
				c1.57-6.79,2.79-13.79,3.51-20.73c1.09-10.54,3.53-20.76,5.76-31.04c2.42-11.15,5.19-22.22,7.47-33.42
				c1.98-9.73,5.26-19.21,8.22-28.72c3.74-12.02,7.81-23.96,11.62-35.94c4.36-13.71,9.35-27.17,13.98-40.77
				c1.79-5.27,4.19-10.33,6.27-15.5c6-14.98,11.82-30.02,18-44.92c4.7-11.34,9.21-22.83,14.93-33.67
				c6.83-12.95,12.72-26.34,19.87-39.16c6.87-12.32,13.8-24.58,21.39-36.45c5.04-7.89,10.95-15.23,16.39-22.87
				c5.29-7.44,11.51-14.01,18.18-20.22c5.57-5.19,10.69-10.88,16.32-16.01c11.98-10.9,25.23-20.12,39.46-27.82
				c6.7-3.62,13.8-6.51,20.79-9.58c1.56-0.68,3.39-0.83,5.12-1.01c2.24-0.24,3.94,0.77,5.17,2.68c2.39,3.7,5.21,7.17,7.2,11.06
				c4.75,9.27,11.61,16.92,18.37,24.63c6.34,7.23,10.28,15.31,12.21,24.83c1.85,9.15,4.93,18.09,7.92,26.97
				c2.98,8.84,5.99,17.74,9.96,26.15c3.74,7.92,6.49,16.31,11.24,23.79c2.43,3.83,2.02,4.03-1.16,7.56
				c-8.25,9.14-16.05,18.65-23.75,28.28c-11.75,14.69-19.46,31.43-26.34,48.58c-5.22,13.03-9.18,26.62-11.16,40.56
				c-1.19,8.38-2.77,16.77-2.35,25.37c0.35,7.34,0.22,14.71,0.04,22.07c-0.26,10.61,1.08,21.04,3.14,31.41
				c0.6,3.04-0.86,4.39-4.05,3.32c-3.61-1.2-7.54-1.33-10.88-3.41c-1.8-1.12-3.93-1.12-5.99-1.21c-2.64-0.11-5.25-0.28-7.82-1.14
				c-2.54-0.86-5.26-0.73-7.87-0.24c-6.33,1.18-12.67,2.34-18.92,3.85c-2.35,0.57-3.77,0.2-5.35-1.6
				c-6.95-7.92-10.56-17.57-14.14-27.18c-1.31-3.51-1.17-7.49-1.79-11.24c-1.28-7.78-1.79-15.72-2.07-23.61
				c-0.37-10.58-0.2-21.18-0.28-31.78c-0.03-3.52-0.08-6.99-0.96-10.5c-0.7-2.79-0.54-5.83-0.55-8.76
				c-0.05-25.6-0.06-51.2-0.08-76.8c0-1.74,0-3.47,0-5.37c-0.92,0.35-1.76,0.42-1.88,0.75c-4.47,11.73-9.21,23.37-13.14,35.28
				c-2.18,6.62-3.24,13.67-4.33,20.59c-1.91,12.13-3.48,24.3-5.13,36.47c-0.24,1.74-0.19,3.52-0.19,5.29
				c-0.03,10.59-0.08,21.19-0.02,31.78c0.03,4.97-0.45,9.97,1.31,14.85c0.71,1.98-1.22,3.38-3.2,2.4
				c-7.4-3.66-15.08-6.42-23.14-8.29c-3.49-0.81-6.92-1.36-10.44-1.22c-16.68,0.64-32.55,3.99-46.25,14.31
				c-1.4,1.06-2.77,2.18-4.03,3.4c-0.58,0.56-0.89,1.41-1.31,2.09c0.86,2.01,2.55,1.32,3.84,1.33c10,0.03,20.01,0.08,30.01-0.11
				c5.35-0.1,10.56,0.68,15.67,1.95c7.1,1.78,14.13,3.86,21.13,5.99c4.37,1.33,7.21,4.98,10.61,7.72c1.02,0.82,1.38,2.54,1.85,3.92
				c0.42,1.22-0.13,2.31-1.05,3.14c-0.43,0.39-0.97,0.72-1.51,0.89c-11.42,3.59-20.85,10.57-30.34,17.52
				c-6.21,4.55-11.81,9.53-15.88,16.22C467.47,1109.61,463.01,1113.31,461.25,1119.45z"/>
			<path class="st6" d="M1038.47,1063.1c-3.37,22.13-9.29,42.65-19.3,61.88c-15.69,30.16-38.19,54.06-66.51,72.71
				c-13.85,9.12-28.7,15.91-44.38,21.22c-12.02,4.07-24.29,6.94-36.77,8.62c-14.55,1.96-29.24,2.73-43.94,1.25
				c-12.58-1.27-25.01-3.35-37.17-6.9c-19.03-5.55-36.79-13.87-53.55-24.43c-22.49-14.17-40.61-32.73-55.61-54.55
				c-9.05-13.16-16.57-27.12-21.72-42.21c-6.78-19.89-9.88-40.41-9.85-61.51c0.02-16.32,2.03-32.33,6.38-47.91
				c5.39-19.31,13.51-37.56,24.37-54.51c7.79-12.17,16.72-23.42,27.1-33.48c14.89-14.43,31.7-26.09,50.36-35.2
				c17.31-8.46,35.38-14.39,54.39-17.16c15.41-2.24,30.89-3.86,46.53-1.72c7.54,1.03,15.18,0.8,22.75,2.34
				c16.2,3.3,31.79,8.25,46.91,14.9c21.55,9.47,40.26,23.09,56.95,39.43c10.73,10.5,19.58,22.63,27.28,35.57
				c5.12,8.61,9.55,17.58,13.3,26.81c3.08,7.58,5.6,15.41,7.73,23.38c3.05,11.4,4.49,23.02,5.97,34.64
				c0.97,7.6,0.62,15.27,0.2,22.91C1039.68,1053.57,1039.02,1057.94,1038.47,1063.1z"/>
			<path class="st7" d="M594.1,1256.39c-6.68-3.19-12.95-5.73-18.93-8.84c-17.89-9.31-32.7-22.1-41.56-40.51
				c-5.51-11.46-8.18-23.63-5.81-36.7c4.96-27.33,20.54-46.55,45.07-58.18c19.65-9.31,38.75-7.17,56.11,6.8
				c10.89,8.75,19.42,19.58,27.89,30.49c3.78,4.87,7.51,9.79,11.19,14.74c1.75,2.36,3.52,4.74,4.94,7.29
				c4.04,7.25,0.57,14.34-7.76,15.54c-4.65,0.67-9.34,0.42-13.95-1.01c-6.86-2.14-12.76-5.98-18.32-10.3
				c-5.56-4.32-10.78-9.07-16.15-13.63c-3.58-3.04-7.17-6.08-10.77-9.1c-0.9-0.75-1.81-1.53-2.83-2.1c-2.13-1.19-4.47-1.8-6.72-0.52
				c-2.6,1.48-3.27,4.12-3.01,6.86c0.31,3.26,1.77,6.18,3.41,8.99c3.76,6.46,8.97,11.65,14.74,16.24
				c16.98,13.48,35.58,23.88,56.94,28.58c8.01,1.76,16.16,2.93,24.26,4.24c3.28,0.53,6.24,1.56,8.8,3.72
				c3.3,2.78,4.16,6.28,2.34,10.23c-1.4,3.04-3.52,5.49-6.67,6.74c-5.2,2.06-10.49,3.87-16.17,3.95
				c-17.83,0.23-35.15-2.54-51.63-9.47c-13.04-5.48-25.19-12.61-36.34-21.37c-2.31-1.81-4.64-3.6-7.01-5.32
				c-1.18-0.86-2.4-1.74-3.73-2.28c-4.52-1.83-8.27,0.62-8.68,5.51c-0.33,3.81,1.29,6.86,3.64,9.62c5.57,6.51,11.9,12.2,19.1,16.83
				c12.41,7.98,25.63,14.31,39.65,18.93c4.73,1.56,9.58,2.76,14.33,4.27c1.3,0.41,2.96,0.56,3.31,2.68
				c-15.56,4.25-30.97,2.95-47.07,0.56c-0.67-0.44-0.75-0.33-0.7-0.37C602.23,1258.74,598.64,1256.9,594.1,1256.39z"/>
			<path class="st7" d="M1046.69,1234.36c-11.17,3.31-22,4.64-32.82,5.02c-6.89,0.24-14.08-0.32-20.48-3.95
				c-1.82-1.03-3.51-2.1-4.89-3.67c-3.92-4.47-4.96-10.83,2.65-14.37c5.61-2.61,11.46-4.41,17.63-5.36
				c9.57-1.48,19.16-2.9,28.4-6.14c7.8-2.73,15.31-5.85,22.3-10.37c8.15-5.27,16.46-10.3,23.38-17.19
				c5.42-5.39,10.56-11.03,13.65-18.2c0.82-1.9,1.63-3.73,1.31-5.91c-0.74-5.18-4.3-7.25-8.76-4.6c-3.52,2.09-6.8,4.64-9.97,7.23
				c-6.59,5.4-12.99,11.04-19.58,16.43c-6.38,5.23-13.02,10.04-21.07,12.55c-3.44,1.07-6.87,1.59-10.43,1.17
				c-3.94-0.47-7.34-2.14-10.02-5.05c-3.38-3.67-3.69-8.84-0.72-12.85c4.03-5.42,8.18-10.74,12.29-16.1
				c3.93-5.13,8.06-10.13,11.78-15.41c7.94-11.28,18.09-20,30.07-26.68c11.43-6.37,23.76-7.11,35.97-3.98
				c18.35,4.71,32.74,15.25,42.87,31.63c4.87,7.87,8.6,16.15,10.63,25.02c2.93,12.84,2.32,25.6-3,37.96
				c-7.73,17.94-20.46,31.28-36.96,41.38c-9.33,5.71-18.98,10.8-29.63,13.31c-11.93,2.81-23.86,6.2-36.45,4.03
				c-4.9-0.84-9.95-0.81-14.92-1.2c-1.14-0.09-2.38,0.04-3.26-1.4c-0.35-1.55,1.28-1.24,2.15-1.64c0.79-0.37,1.65-0.67,2.51-0.82
				c12.29-2.19,23.67-7.03,34.76-12.46c13.25-6.49,25.65-14.36,35.8-25.3c1.99-2.14,3.84-4.47,5.38-6.95
				c1.86-2.99,1.45-5.82-0.65-8.11c-2.62-2.85-5.41-3.51-8.68-1.82c-1.82,0.94-3.63,2-5.2,3.31
				C1086.23,1217.55,1067.71,1227.49,1046.69,1234.36z"/>
			<path class="st8" d="M900.33,693.07c10.67-4.86,18.86-11.9,25.76-20.42c7.78-9.6,14.81-19.74,21.03-30.42
				c0.59-1.02,1.15-2.05,1.79-3.04c1.95-2.99,3.73-3.15,6.24-0.39c1.37,1.51,2.6,3.19,3.68,4.93c5.04,8.14,7.96,17.16,8.75,26.55
				c1.03,12.3,0.61,24.6-3.18,36.62c-2.7,8.55-7.14,16.17-12.28,23.27c-8.49,11.72-18.86,21.72-30.75,30.06
				c-0.72,0.51-1.45,1.01-2.2,1.47c-2.34,1.42-3.41,1.16-4.89-1.47c-1.29-2.3-2.49-4.67-3.56-7.08c-3.24-7.24-6.39-14.51-9.6-21.76
				c-0.71-1.6-1.34-3.28-2.31-4.72c-1.42-2.11-3.6-3.02-6.13-2.62c-1.44,0.23-2.96,0.53-4.2,1.22c-7.58,4.24-16.17,5.2-24.35,7.42
				c-3.6,0.97-7.58,0.57-11.39,0.79c-17.56,1.02-34.56-1.27-50.86-8.19c-7.55-3.2-9.35-2.32-12.3,5.62
				c-3.07,8.25-6.02,16.55-9.1,24.8c-1.01,2.7-1.78,5.6-4.35,7.6c-5.39-1.29-9.27-5.14-13.13-8.53
				c-6.39-5.61-12.36-11.76-18.01-18.11c-15.22-17.11-21.35-37.4-20.47-60.11c0.54-13.91,4.85-26.44,12.66-37.86
				c1.06-1.56,2.24-2.7,4.87-2.37c4.2,2.2,4.35,6.39,6.48,10.14c0.26,0.58,0.26,0.37,0.21,0.46c1.85,0.89,2.26,2.82,3.4,4.88
				c0.23,0.5,0.28,0.28,0.21,0.37c4.25,3.69,6.38,9,10.43,13.57c0.35,0.48,0.39,0.46,0.38,0.47c1.08,0.84,2.33,1.49,3.13,3.3
				c0.19,0.48,0.23,0.22,0.17,0.34c3.14,2.4,5.64,5.41,8.63,8.7c0.32,1.04,0.56,1.44,1.35,1.83c1.76,0.54,2.93,1.29,4.04,3
				c0.97,0.99,1.59,1.58,2.61,2.33c3.72,1.11,5.6,4.68,9.4,5.6c0.15,0.55,0.32,0.47,0.24,0.42c16.08,7.84,33.05,11.9,51.12,12.65
				C863.51,705.21,881.9,701.16,900.33,693.07z"/>
			<path class="st9" d="M803.53,239.23c-1.63-2.15-2.51-4.05-4.35-5.19c-5.84-3.62-9.88-9.17-14.66-13.92
				c-2.1-2.09-1.52-3.72,1.24-4.24c8.9-1.66,17.79-3.38,26.72-4.9c2.59-0.44,5.27-0.43,7.91-0.44c3.64-0.01,6.19-1.71,7.78-4.84
				c2.4-4.72,5.12-9.34,6.88-14.29c2.16-6.11,4.76-11.99,7.31-17.92c0.58-1.35,0.89-3.09,2.7-2.88c1.52,0.18,2.32,1.66,2.91,3.04
				c2.99,7.01,5.94,14.05,8.99,21.04c1.29,2.96,3.01,5.74,4.17,8.74c1.69,4.39,4.98,6.41,9.36,6.93c11.33,1.35,22.66,2.59,34,3.9
				c0.86,0.1,1.73,0.29,2.57,0.51c1.53,0.4,2.07,2.25,0.87,3.46c-2.69,2.7-5.28,5.56-8.29,7.87c-5.87,4.5-10.72,10.02-15.97,15.15
				c-1.86,1.82-2.59,4.07-1.77,6.44c1.37,4,1.31,8.11,1.34,12.2c0.03,3.34,1.36,6.3,2.14,9.41c1.42,5.68,3.14,11.3,3.04,17.25
				c-0.02,1.46,0.05,2.95-1.12,4.33c-8.92-0.47-16.82-4.2-24.5-8.56c-2.04-1.16-3.95-2.58-6.05-3.6
				c-6.99-3.42-14.05-6.24-21.19-0.28c-5.7,1.64-10.72,4.77-16.02,7.27c-4.75,2.23-9.63,4.06-14.65,4.96
				c-1.29-1.63-1.02-3.09-0.7-4.52c1.95-8.86,3.93-17.72,5.89-26.58c0.25-1.14,0.5-2.29,0.64-3.46
				C811.83,246.75,811.41,245.74,803.53,239.23z"/>
			<path class="st10" d="M727.84,86.95c-6.17,0.02-11.47,0.02-16.76,0.06c-4.39,0.03-8.72,0.12-13.11,1.14
				c-3.93,0.91-8.16,0.52-12.45,0.71c2.45-4.03,7.02-8.52,10.85-10.84c5.27-3.19,10.32-6.79,15.82-9.52
				c9.67-4.8,19.22-9.82,29.4-13.62c15.4-5.75,30.99-10.76,47.03-14.36c1.42-0.32,2.85-1.19,4.22-1.09
				c5.68,0.44,11.11-1.1,16.52-2.18c6.98-1.39,14.11-0.77,20.96-1.97c8.51-1.5,16.96-1.43,25.43-1.17c9.04,0.28,18.03,1.47,27,2.81
				c10.42,1.56,20.82,3.13,30.99,5.93c4.18,1.15,8.27,2.63,12.65,4.03c-1.67,1.97-3.36,2.47-5.1,2.75
				c-1.15,0.19-2.35,0.16-3.52,0.14c-10.6-0.23-20.96,1.38-31.39,3.2c-17.01,2.96-33.92,6.28-50.64,10.61
				c-22.15,5.74-43.85,12.82-65.02,21.46c-3.07,1.25-6.06,1.98-9.37,1.95C750.48,86.9,739.6,86.95,727.84,86.95z"/>
			<path class="st11" d="M780.32,1263.37c-10.42-0.66-19.94-2.01-29.48-3.33c-5.2-0.72-10.39-1.7-15.61-2.13
				c-5.11-0.42-9.6-2.56-14.35-3.96c-1.24-0.37-1.72-1.79-0.87-2.85c2.2-2.72,4.43-5.45,6.97-7.83c1.8-1.69,3.44-3.62,3.69-5.84
				c0.53-4.58,3.38-7.97,5.35-12.48c3.88,3.94,8.72,5.85,13.65,7.7c4.08,1.54,7.96,3.62,11.88,5.56c8.97,4.44,18.71,6.48,28.28,8.94
				c13.32,3.42,26.8,6.1,40.71,5.42c2.35-0.12,4.71-0.07,6.93,0.9c0.53,0.23,1.12,0.35,1.68,0.5c3.85,1.04,7.33-2.58,11.19-0.95
				c3.74,1.57,7.29,0.8,11.15,0.14c6.01-1.03,12.16-1.77,18.23-2.21c8.85-0.65,17.2-3.24,25.73-5.11
				c10.07-2.21,19.4-6.5,28.71-10.79c2.12-0.98,4.37-1.68,6.57-2.49c3.29-1.21,6.61-2.24,9.18-4.94c1.15-1.2,2.97-1.83,4.57-2.52
				c1.33-0.57,2.31,0.23,2.61,1.48c0.55,2.26,0.38,4.62,1.28,6.89c1.08,2.74,1.87,5.54,4.25,7.54c3.02,2.55,4.5,6.12,6.1,9.59
				c0.91,1.98,0.27,3.06-1.82,4.16c-1.89,1-3.87,1.45-5.94,1.28c-4.49-0.37-8.69,1.01-12.99,1.87c-8.3,1.67-16.57,3.68-25.11,3.44
				c-4.24-0.12-8.05,1.55-12.03,2.4c-2.89,0.61-5.71,1.1-8.66,1.16c-6.14,0.11-12.32-0.51-18.33,1.55c-1.59,0.54-3.5,0.19-5.26,0.2
				c-21.75,0.01-43.5,0.02-65.25,0c-3.51,0-6.95-0.12-10.46-1.02c-3.34-0.85-6.98-0.59-10.49-0.71
				C788.58,1264.78,784.72,1265.18,780.32,1263.37z"/>
			<path class="st12" d="M560.59,246.26c-1.47-13.46,1.02-26.22,5.56-38.18c4.44-11.69,10.18-22.97,17.88-33.15
				c6.42-8.48,13.86-15.93,21.62-23.01c8.2-7.48,17.7-13.39,27.21-19.15c14.85-9,30.9-15.22,47.89-18.47
				c7.95-1.52,16.09-2.97,25.11-2.67c5.24,3.72,1.21,5.53-1.1,7.23c-5.68,4.16-11.43,8.34-17.46,11.84
				c-18.36,10.61-34.39,24.43-51.06,37.22c-15.25,11.7-30.2,24.2-43.54,38.11c-6.31,6.58-9.47,16.05-15.72,23.16
				c-3.64,4.15-7.61,8.12-9.78,13.43C566.15,245.16,564.31,247.09,560.59,246.26z"/>
			<path class="st8" d="M865.84,668.34c-13.94,2.88-27,1.38-40.1-0.68c-14.83-2.32-28.02-8.33-40.24-16.82
				c-3.34-2.32-6.36-4.92-8.68-7.95c0.77-2.09,2.1-1.41,3.14-1.44c2.05-0.06,4.11-0.11,6.16,0.02c17.7,1.13,34.3-3.01,50.29-10.31
				c10.71-4.89,8.58-4.84,19.64,0.19c15.42,7.02,31.38,11.34,48.55,9.92c3.07-0.25,6.2,0.15,9.49,0.26
				C909.14,654.43,886.73,666.22,865.84,668.34z"/>
			<path class="st13" d="M916.49,616.46c-13.55,3.09-26.26,3.19-38.89-0.75c-4.22-1.32-8.44-2.46-11.02-6.6
				c-0.53-0.85-2.04-1.05-2.99-1.71c-0.37-0.26-0.64-1-0.56-1.46c0.08-0.46,0.59-1.11,1.02-1.21c3.41-0.77,6.84-1.51,10.29-2.08
				c4.18-0.69,7.77-2.69,11.09-5.09c3.79-2.74,7.29-5.87,10.97-8.75c5.2-4.06,11.13-6.89,17.67-7.19c8.74-0.4,17.45-0.62,26.25,1.15
				c8.32,1.68,15.66,4.87,21.98,10.13c10.03,8.34,18.28,18.22,22.95,30.65c1.45,3.85,2.47,7.8,2.27,12.02
				c-0.27,5.86-0.29,11.73-0.49,17.59c-0.02,0.45-0.54,1.05-0.98,1.26c-0.42,0.19-1.31,0.15-1.52-0.13
				c-1.55-2.09-3.75-3.89-3.93-6.7c-0.56-8.78-5.77-15.13-11.07-21.43c-5.96-7.08-13.76-9.88-22.79-11.57
				C936.54,612.69,927.03,615.15,916.49,616.46z"/>
			<path class="st14" d="M809.27,599.22c6,3.57,12.06,4.57,18.17,5.43c0.83,0.12,1.98,0.26,1.84,1.41
				c-0.09,0.73-0.66,1.58-1.27,2.03c-10.18,7.51-21.59,12.04-34.26,11.89c-8.14-0.1-16.27-1.56-24.38-2.65
				c-8.79-1.18-17.67-1.2-26.35-0.2c-8.25,0.95-15.64,4.89-21,11.75c-5.28,6.76-10.03,13.68-10.42,22.75
				c-0.11,2.55-1.38,5.05-2.14,7.56c-0.21,0.7-0.76,1-1.41,0.69c-0.47-0.22-1.09-0.61-1.19-1.03c-0.68-2.85-1.55-5.7-1.77-8.6
				c-0.76-10.1,0.53-19.86,5.36-28.97c6.13-11.56,13.74-21.79,24.94-29c2.49-1.6,5.06-2.88,7.81-3.95
				c10.84-4.2,22.02-5.87,33.6-5.15c6.93,0.43,13.08,3.08,18.81,6.77C800.06,592.82,804.32,595.94,809.27,599.22z"/>
			<path class="st15" d="M1105.45,503.94c2.14-6.25,3.98-11.82,6.91-16.98c2.18-3.85,4.27-7.68,7.5-10.8
				c1.26-1.21,2.29-2.69,3.26-4.15c2.86-4.31,2.74-7.24-0.31-10.29c-3.02-3.01-7.7-3.79-11.3-1.47c-2.19,1.42-3.99,3.44-5.97,5.19
				c-0.87,0.77-1.68,1.65-2.67,2.22c-0.77,0.45-1.87,0.25-2.03-0.77c-0.33-2.02-0.74-4.12-0.49-6.12
				c1.08-8.74,5.1-16.17,10.92-22.63c1.6-1.77,3.9-2.59,6.26-3.03c11.74-2.17,22.17,4.75,24.76,15.86
				c3.07,13.17,2.5,26.27-0.22,39.33c-4.82,23.11-15.08,43.74-29.17,62.56c-0.7,0.94-1.48,1.82-2.28,2.68
				c-0.78,0.84-1.7,1.86-2.91,1.24c-0.62-0.32-0.85-1.41-1.21-2.17c-0.12-0.25-0.09-0.58-0.11-0.87
				c-0.87-12.59-1.75-25.18-2.61-37.77C1103.52,512.09,1104.01,508.32,1105.45,503.94z"/>
			<path class="st15" d="M587.18,507.06c1.27,8.02,1.22,15.22,0.03,22.59c-1.4,8.65-1.67,17.48-2.46,26.23
				c-0.08,0.85-0.29,1.8-1.43,1.73c-0.52-0.03-1.17-0.32-1.49-0.71c-2.6-3.17-5.38-6.24-7.65-9.64
				c-10.49-15.76-18.26-32.78-22.26-51.33c-2.79-12.97-2.84-26.2-2.25-39.39c0.21-4.73,2.29-9.1,4.85-13.07
				c6.33-9.81,17.16-8.93,23.94-4.41c8.03,5.36,12.11,13.32,13.08,22.85c0.2,2.01-0.03,4.07-0.2,6.1c-0.02,0.26-1.09,0.76-1.35,0.6
				c-0.99-0.58-1.86-1.36-2.74-2.11c-2.22-1.91-4.24-4.11-6.67-5.7c-3.71-2.43-8.04-1.75-11.28,1.3c-3.25,3.06-3.8,7.11-1.27,11.15
				c1.08,1.72,2.47,3.28,3.89,4.75C579.67,486.03,584.91,495.33,587.18,507.06z"/>
			<path class="st16" d="M687.23,815.22c4.26-0.15,7.74,2.1,11.11,4.4c13.08,8.92,26.53,17.26,40.29,25.1
				c0.75,0.43,1.51,0.96,2.05,1.62c0.81,0.99,0.93,2.18-0.17,3.08c-1.36,1.11-2.7,2.67-4.27,3.03c-6.86,1.59-11.34,7.18-17.46,9.99
				c-2.07,0.95-3.68,2.88-5.59,4.23c-1.6,1.14-3.56,0.75-4.55-0.93c-1.34-2.28-2.63-4.6-3.73-6.99c-2.2-4.76-4.22-9.6-6.37-14.39
				c-3-6.69-6-13.37-9.1-20.02C688.2,821.67,686.95,819.03,687.23,815.22z"/>
			<path class="st17" d="M560.04,246.52c2.69-0.69,4.4-2.08,5.44-4.44c1.29-2.95,2.16-6.21,4.03-8.74c1.63-2.21,4.55-3.27,6.37-5.68
				c2.65-3.5,5.6-6.78,7.12-10.96c0.63-1.75,1.54-3.1,3.01-4.18c0.69-0.51,1.43-1.11,1.82-1.85c3.89-7.37,3.85-7.4,11.95-13.04
				c1.26-0.88,2.02-2.03,2.85-3.25c2.96-4.36,6.31-8.2,11.34-10.45c3.19-1.42,5.97-3.7,8.28-6.42c6.88-8.09,15.64-13.89,24.23-19.9
				c1.43-1,3.06-1.95,4.02-3.32c1.59-2.3,3.52-3.7,6.18-4.51c3.17-0.96,5.49-3.27,7.76-5.61c4.69-4.84,9.64-9.35,16.22-11.56
				c0.55-0.18,1.08-0.49,1.56-0.82c8.19-5.59,16.38-11.18,24.54-16.82c0.84-0.58,0.58-1.52,0.05-2.83
				c5.75-2.37,5.75-2.37,12.56-1.56c0.21,2.62-1.93,3.39-3.6,4.41c-5.74,3.5-11.46,7.05-17.33,10.34
				c-5.67,3.18-10.23,7.79-15.46,11.53c-12.85,9.18-25.55,18.56-38.31,27.87c-6.4,4.67-12.4,9.75-17.96,15.43
				c-9.64,9.85-19.36,19.63-29.35,29.13c-9.38,8.92-16.9,19.4-25.16,29.25c-3.36,4-5.85,8.73-8.75,13.11
				c-0.96,1.45-1.82,3.03-4.32,3.73C559.44,252.49,559.72,249.83,560.04,246.52z"/>
			<path class="st16" d="M1000.9,816.3c0.68,3.01,0.31,5.79-0.97,8.6c-4.02,8.77-7.64,17.73-11.63,26.51
				c-2.42,5.32-5.22,10.46-7.88,15.66c-0.8,1.57-2.36,2.09-3.59,1.01c-8.19-7.21-18.53-11.23-26.96-18.18
				c-0.33-2.39,1.98-2.72,3.2-3.52c8.79-5.84,17.26-12.19,26.9-16.7c5.06-2.37,9.62-5.62,13.54-9.69
				C995.35,818.07,997.21,816.12,1000.9,816.3z"/>
			<path class="st18" d="M900.69,692.51c-7.1,6.26-16.11,8.08-24.87,10.4c-4.52,1.2-9.23,1.9-13.9,2.26
				c-24.03,1.86-47.49,0.34-69.1-12.94c2.17-1.65,4.44-1.29,6.51,0.06c3.7,2.42,7.69,3.62,12.05,4.6
				c5.08,1.14,10.11,2.76,15.27,3.67c7.73,1.37,15.41,2.86,23.38,2.85c5.65-0.01,11.01-1.47,16.43-2.31
				c6.54-1.01,13.23-1.75,19.61-4.21c3.24-1.25,6.54-2.14,9.49-4.1C896.93,691.89,898.5,690.67,900.69,692.51z"/>
			<path class="st18" d="M606.48,1259.99c2.18-0.35,4.81-0.36,7.38,0.07c11.29,1.87,22.56,1.73,33.83-0.14
				c1.43-0.24,2.9-0.18,5.12-0.21c-3.63,2.32-8.28,3.49-13.25,3.43c-5.8-0.06-11.6-0.1-17.39,0.01
				C616.89,1263.25,611.99,1261.42,606.48,1259.99z"/>
			<path class="st18" d="M763.06,665.59c-4.9-2.45-7.36-7.6-10.67-12.73c3.58-0.66,5.17,2.24,6.84,4.7
				C760.78,659.82,761.77,662.47,763.06,665.59z"/>
			<path class="st18" d="M775.35,678.43c-3.69-1.15-6.17-4.23-8.8-7.9C771.5,670.13,773.81,673.52,775.35,678.43z"/>
			<path class="st18" d="M748.86,646.36c-3.2-1.72-4.57-5.22-6.07-9.35C747.68,637.48,748.48,641.46,748.86,646.36z"/>
			<path class="st18" d="M792.59,691.2c-3.72,0.52-5.98-2.18-8.83-4.84C787.58,685.33,789.92,688.21,792.59,691.2z"/>
			<path class="st18" d="M593.97,1256.5c3.7-0.79,7.24,1.57,11.65,2.52C601.87,1260.12,598.14,1258.55,593.97,1256.5z"/>
			<path class="st18" d="M752.41,651.64c-1.78-0.27-2.67-1.89-3.64-4.08C751.95,647.54,751.95,647.54,752.41,651.64z"/>
			<path class="st18" d="M766.47,669.4c-1.03-0.32-2.04-1.24-3.2-2.66C764.81,666.35,766.25,666.79,766.47,669.4z"/>
			<path class="st18" d="M780.71,683.2c-1.43,0.35-2.41-0.71-3.68-2.23C778.47,680.43,780.04,680.6,780.71,683.2z"/>
			<path class="st16" d="M687.2,814.56c-0.43-0.34-0.92-0.65-1.21-1.09c-0.39-0.6-0.12-1.22,0.56-1.2c0.24,0,0.46,0.89,0.71,1.8
				C687.28,814.48,687.23,814.53,687.2,814.56z"/>
			<path class="st16" d="M1001.52,816.27c0.2,0,0.15-1.45,0.35-0.03C1001.6,816.36,1001.54,816.3,1001.52,816.27z"/>
			<path class="st19" d="M1005.28,401.5c3.17,5.99,3.89,11.76,3.42,17.74c-0.19,2.36-2.13,3.38-4.47,2.6
				c-2.32-0.77-4.02-2.32-5.74-3.96c-3.19-3.03-6.27-6.29-9.86-8.78c-10.89-7.57-23.31-10.73-36.38-11.95
				c-10.01-0.93-19.96,0.07-29.94,0.4c-3.23,0.11-6.48,0.19-9.69-0.13c-3.52-0.36-5.01-2.4-5.03-6.03
				c-0.02-3.64,0.78-7.02,3.22-9.84c3.88-4.5,8.17-8.49,13.84-10.65c9.21-3.51,18.62-5.33,28.51-3.59
				c6.38,1.12,12.71,2.35,18.81,4.63C986.65,377.41,997.75,386.94,1005.28,401.5z"/>
			<path class="st19" d="M764.84,397.58c-9.37-0.37-17.86-0.64-26.37,0.05c-12.85,1.03-24.53,5.29-35.28,12.35
				c-3.47,2.28-6.32,5.22-9.31,8.03c-1.91,1.8-3.87,3.6-6.02,5.1c-2.82,1.97-6.16,0.22-6.05-3.27c0.2-6.23,1.97-12.11,4.65-17.74
				c4.97-10.45,12.96-18.12,22.79-23.79c13.22-7.63,27.49-11.71,42.9-10.7c11.58,0.76,21.65,4.79,29.09,14.2
				c2.49,3.16,3.66,6.63,3.33,10.63c-0.27,3.2-1.66,5.04-4.81,5.19C775.09,397.85,770.39,397.61,764.84,397.58z"/>
			<path class="st19" d="M969.29,454.39c14.59,6.48,23.73,17.09,28.87,31.32c0.5,1.38,1.03,2.78,1.27,4.21
				c0.48,2.85-0.45,5.25-2.87,6.9c-2.56,1.73-5.13,1.29-7.31-0.62c-3.74-3.3-7.45-6.66-10.93-10.23
				c-4.65-4.78-10.32-7.89-16.46-9.96c-13.55-4.58-25.5-1.25-35.78,8.38c-2.57,2.4-4.78,5.18-7.12,7.83
				c-0.97,1.1-1.72,2.41-2.78,3.41c-4.02,3.8-8.31,2.89-10.55-2.11c-2.03-4.52-2.01-9.13-0.64-13.79
				c3.43-11.7,10.76-20.13,21.78-25.16C940.61,448.24,954.64,448.44,969.29,454.39z"/>
			<path class="st19" d="M760.23,453.19c13.24,4.78,20.67,14.18,25.13,26.31c1.46,3.97,1.24,8.14,0.28,12.17
				c-0.69,2.91-2.13,5.69-5.53,6.16c-2.84,0.39-5.1-1.09-6.81-3.29c-0.9-1.16-1.65-2.43-2.46-3.65
				c-8.6-12.92-21.28-17.33-35.92-15.9c-10.2,0.99-18.94,6.16-25.94,13.73c-2.41,2.61-4.89,5.07-7.73,7.16
				c-1.77,1.29-3.82,1.61-5.83,0.62c-2.09-1.04-2.74-3.03-2.62-5.19c0.1-1.74,0.39-3.5,0.88-5.17
				c5.21-17.64,23.36-33.56,43.27-35.28C744.57,450.19,752.23,450.16,760.23,453.19z"/>
			<path class="st0" d="M1232.79,1121.56c-0.12-0.02-0.34-0.28-0.57-0.55C1232.37,1121.12,1232.53,1121.22,1232.79,1121.56z"/>
			<path class="st0" d="M1232.85,1121.85c0.2,0.23,0.41,0.45,0.62,0.67c-0.13-0.09-0.27-0.17-0.49-0.49
				C1232.9,1121.8,1232.87,1121.83,1232.85,1121.85z"/>
			<path class="st0" d="M461.21,1120.09c-0.23-0.12-0.01,1.44-0.3,0.06C461.16,1120.05,461.19,1120.07,461.21,1120.09z"/>
			<path class="st20" d="M737.07,1170.92c-5.08-4.03-10.07-7.27-14.2-11.36c-5.19-5.14-9.51-11.16-14.52-16.49
				c-6.7-7.12-11.32-15.69-16.68-23.71c-5.54-8.29-9.65-17.57-12.73-27.06c-3.33-10.26-6.27-20.68-8.22-31.35
				c-0.59-3.21-0.98-6.36-1.09-9.58c-0.09-2.35,0.03-4.71-0.09-7.06c-0.84-15.67,1.18-30.99,5.18-46.14
				c6.38-24.18,17.48-45.9,32.9-65.56c5.1-6.51,10.67-12.52,16.61-18.2c8.26-7.9,17.04-15,26.96-21.01
				c12.94-7.83,26.67-13.43,40.87-18.11c9.74-3.21,19.8-5.26,30.06-6.11c4.66-0.38,9.14-1.76,13.93-1.73
				c13.24,0.07,26.3,1.64,39.31,3.82c18.38,3.07,35.76,9.39,52.3,17.72c14.17,7.14,27.17,16.13,38.79,27.14
				c13.55,12.84,25.1,27.18,34.18,43.43c7.9,14.13,13.78,29.14,16.65,45.13c2.56,14.23,2.74,28.68,1.77,43.03
				c-0.81,11.94-2.37,23.96-5.65,35.49c-4.25,14.96-10.27,29.28-18.44,42.63c-7.86,12.84-17.22,24.45-28.03,34.87
				c-9.98,9.62-21.31,17.53-33.38,24.27c-12.85,7.17-26.29,13.15-40.61,16.8c-9.36,2.38-18.83,4.33-28.52,4.93
				c-3.49,0.22-6.96,0.72-10.44,0.92c-10.5,0.61-20.92-0.94-31.39-1.31c-7.22-0.26-14.49-2.07-21.52-3.97
				c-12.72-3.44-24.9-8.27-36.84-14.07C754.57,1183.58,746.37,1177.06,737.07,1170.92z"/>
			<path class="st21" d="M998.02,1033.3c1.47-4.37,1.86-8.12,1.8-11.99c-0.09-5.58,0-11.17,0.09-16.75
				c0.01-0.41,0.55-1.07,0.93-1.14c0.44-0.09,1.29,0.22,1.44,0.58c0.91,2.15,2.3,4.34,2.36,6.55c0.29,9.37,3.17,18.54,2.16,27.98
				c-1.88,17.42-3.23,34.92-9.62,51.54c-5.6,14.57-12.47,28.39-21.72,41.01c-6.28,8.57-13.59,16.26-21.55,23.15
				c-7.02,6.07-13.75,12.78-22.79,16.21c-2.69,1.02-5,3.03-7.55,4.46c-13.88,7.8-28.91,12.39-44.37,15.74
				c-5.7,1.24-11.45,2.28-17.2,3.26c-2.01,0.34-4.1,0.3-6.15,0.33c-4.41,0.05-8.82-0.12-13.23,0.05
				c-14.52,0.54-28.46-2.86-42.38-6.28c-7.1-1.74-13.75-5.07-21-6.41c-0.56-0.1-1.12-0.37-1.62-0.67c-4.9-2.94-9.79-5.9-14.41-9.69
				c4.54,0.84,9.06,1.81,13.62,2.49c8.08,1.21,16.08,3.02,24.34,2.88c8.23-0.15,16.46-0.12,24.69,0.03
				c11.55,0.21,22.66-2.14,33.65-5.37c3.09-0.91,6.2-1.73,9.32-2.51c6.9-1.73,12.61-6.07,19.09-8.77
				c5.36-2.24,10.33-5.31,15.16-8.77c5.18-3.7,11.16-6.35,16.25-10.37c13.58-10.74,27.11-21.59,38.51-34.68
				c4.37-5.02,9.24-9.86,12-16.16c0.35-0.79,0.86-1.55,1.45-2.19c13.58-14.57,20.79-32.36,25.98-51.19
				C997.52,1035.76,997.72,1034.91,998.02,1033.3z"/>
			<path class="st22" d="M931.67,985.64c-4.71-6.7-10.47-11.05-17.74-13.63c0.85-2.77,3.31-2.65,4.79-3.78
				c1.86-1.42,3.83-2.72,5.59-4.25c1.55-1.34,3.03-2.82,4.26-4.46c1.22-1.63,2.24-3.46,3.07-5.33c0.95-2.14,1.57-4.43,2.38-6.63
				c0.71-1.93-0.94-4.11,0.65-5.91c1.22-0.24,1.46,0.61,1.71,1.45c0.67,2.25,1.36,4.49,1.99,6.75c2.29,8.15,7.55,13.76,14.84,17.74
				c1.75,0.96,4.05,0.92,5.63,3.33c-3.73,2.58-8.21,4.09-11.42,7.5c-3.3,3.5-5.56,7.36-7.11,11.97c-1.5,4.44-0.88,9.21-2.73,14.97
				c-2.11-3.93-1.69-7.14-2.64-9.93C933.93,992.39,933,989.3,931.67,985.64z"/>
			<path class="st1" d="M761.41,1101.41c-4.34-0.2-8.72-1.06-12.37-3.65c-5.89-4.18-5.64-7.3,0.86-10.79
				c3.09-1.66,6.28-3.05,8.82-5.65c3.14-3.21,5.57-6.57,6.37-11.21c0.68-3.99,1.88-8,4.25-11.43c1.07-1.55,2.64-2.29,4.58-1.77
				c1.54,0.41,2.54,1.51,2.99,2.96c0.77,2.48,0.4,5.08,1.65,7.62c4.13,8.35,9.5,15.26,18.52,18.7c1.07,0.41,1.96,1.26,2.98,1.82
				c4.27,2.33,4.56,4.66,0.63,7.54c-2.34,1.72-5.01,3-7.57,4.41c-7.06,3.88-11.42,9.85-13.49,17.51c-0.52,1.95-0.5,4.05-0.67,6.08
				c-0.13,1.59-0.73,2.9-2.37,3.26c-1.81,0.4-3.52,0.18-4.41-3.08c3.59-14.13,9.25-25.49,24.13-31.04
				c-11.77-6.38-20.64-13.69-23.3-27.6c-3.5,12.81-9.32,22.62-21.83,27.48C755.58,1095.01,759.84,1096.01,761.41,1101.41z"/>
			<path class="st23" d="M791.47,979.18c-2.7,2.52-3.85,5.11-4.41,8.1c-0.3,1.57-0.37,3.48-2.29,4.28
				c-4.71-10.5-4.71-10.5-15.89-20.45c8.05-3.3,12.14-9.71,14.54-18.25c4.94,7.23,7.42,15.95,16.64,18.98
				C796.8,974.6,794.36,976.66,791.47,979.18z"/>
			<path class="st23" d="M887.46,1024.18c3.83,4.17,5.54,8.18,2.99,13.15c-2.52,4.91-7.92,6.4-12.49,3.28
				c-4.02-2.75-5.85-8.72-4.06-13.2c1.47-3.66,4.73-5.68,9.07-5.26C884.35,1022.28,885.65,1023.19,887.46,1024.18z"/>
			<path class="st23" d="M927.12,1101.93c-1.15,0.22-1.45,0.35-1.67,0.97c-0.27,1.67-1.32,2.08-3.08,2.53
				c-0.55,0.22-0.37,0.29-0.41,0.2c-8.19,1.47-10.64-0.45-10.96-9.64c0.58-1.23,0.74-1.8,0.79-2.8c2.27-6.97,6.37-9.48,13.34-5.37
				c0.34,0.63,0.47,0.46,0.39,0.53C930.6,1092.02,928.98,1096.87,927.12,1101.93z"/>
			<path class="st23" d="M872.45,916.84c3.24,0.51,4.57,2.29,5.17,4.69c0.42,1.7,0.43,3.45-0.39,5.08
				c-1.75,3.47-7.79,5.13-11.47,3.16c-2.51-1.34-3.47-3.99-2.38-6.62C864.95,919.37,867.61,917.02,872.45,916.84z"/>
			<path class="st23" d="M860.88,1140.26c2.08,4.23,2.74,7.78-1.19,10.64c-2.62,1.91-5.83,1.55-7.74-0.95
				c-2.48-3.24-2.45-6.98,0.07-10.51c0.93-1.3,2.28-1.85,3.78-1.75C857.58,1137.8,859.22,1138.4,860.88,1140.26z"/>
			<path class="st23" d="M724.03,1022.46c2.95,4.28,2.67,8.04,0.02,11.67c-1.35,1.85-3.43,2.23-5.34,1.11
				c-4.38-2.57-5.66-6.94-3.22-11.04C717.15,1021.39,719.01,1020.9,724.03,1022.46z"/>
			<path class="st10" d="M910.79,1095.45c2.01,8.1,2.68,8.84,10.49,10.02c-0.02,1.6-1.25,2.18-2.84,2.2
				c-4.76,0.05-9.31-3.29-10.3-7.8C907.75,1098.09,908.07,1096.32,910.79,1095.45z"/>
			<path class="st1" d="M771.99,1123.59c-1.21-0.22-2.69-0.33-2.95-1.59c-0.77-3.67-2.5-7.13-1.79-11.89
				c5.22,2.24,7.03,6.51,5.45,12.57C772.32,1123.24,772.1,1123.47,771.99,1123.59z"/>
			<path class="st10" d="M927.02,1102.05c1.32-4.05,1.45-8.23-1.35-12.96c4.05,1.1,5.77,3.74,5.02,7.68
				C930.3,1098.78,929.4,1100.59,927.02,1102.05z"/>
			<path class="st10" d="M925.4,1087.77c-5.29-2.21-9.43-0.61-13.21,4.58c-0.88-2.7-0.64-5.65,2.96-6.65
				C918.66,1084.71,922.45,1082.92,925.4,1087.77z"/>
			<path class="st1" d="M766.68,1109.5c-3.53-0.35-4.22-3.19-5.34-6.33c-0.12-0.59,0.06-0.76,0.15-0.85
				c4.08-0.27,5.72,2.01,5.84,6.24C767.05,1109.18,766.8,1109.39,766.68,1109.5z"/>
			<path class="st10" d="M922.45,1105.67c0.2-0.74,1.04-1.46,2.43-2.34C925.19,1104.51,924.53,1105.46,922.45,1105.67z"/>
			<path class="st22" d="M767.51,1109.6c-0.98-3.23-2.91-5.07-5.43-7.1c-3.38-5.69-9.6-6.21-14.01-9.08
				c-0.07-2.26,1.59-2.54,2.76-3.08c10.97-5.03,17.43-13.5,19.51-25.36c0.3-1.73,0.59-3.5,2.49-4.33
				c10.82,27.36,11.94,21.4,26.75,31.21c0.14,2.03-1.77,2.09-2.88,2.53c-11.25,4.42-18.2,12.44-20.87,24.24
				c-0.37,1.61-0.37,3.58-2.92,4.53C771.95,1118.48,770.21,1114.16,767.51,1109.6z"/>
		</g>
	</g>
</g>
<g id="Layer_2">
</g>
<g id="Layer_3">
</g>
</svg>
