<?xml version="1.0" encoding="utf-8"?>
<!-- Generator: Adobe Adobe Illustrator 24.2.0, SVG Export Plug-In . SVG Version: 6.00 Build 0)  -->
<svg version="1.1" xmlns="http://www.w3.org/2000/svg" xmlns:xlink="http://www.w3.org/1999/xlink" x="0px" y="0px"
	 width="1117.09px" height="1117.09px" viewBox="0 0 1117.09 1117.09" style="enable-background:new 0 0 1117.09 1117.09;"
	 xml:space="preserve">
<style type="text/css">
	.st0{fill:#362378;}
	.st1{fill:#61548E;}
	.st2{fill:#392F67;}
	.st3{fill:#463D6C;}
	.st4{fill:#4B4172;}
	.st5{fill:#42376D;}
	.st6{fill:#564D79;}
	.st7{fill:#4C3E77;}
	.st8{fill:#9763C2;}
	.st9{fill:#693BA7;}
	.st10{fill:#37217C;}
	.st11{fill:#37217F;}
	.st12{fill:#38237C;}
	.st13{fill:#3B2282;}
	.st14{fill:#38258A;}
	.st15{fill:#3F2D71;}
	.st16{fill:#7846B1;}
	.st17{fill:#7442AF;}
	.st18{fill:#AD79D9;}
	.st19{fill:#351C76;}
	.st20{fill:#5A31A1;}
	.st21{fill:#F8E3F2;}
	.st22{fill:#F8E2F2;}
	.st23{fill:#754C9C;}
	.st24{fill:#F6DFF5;}
	.st25{fill:#784E9F;}
	.st26{fill:#67408A;}
</style>
<g id="Layer_2">
</g>
<g id="Layer_3">
	<g>
		<g>
			<path class="st0" d="M516.89,180.27c0.83-0.31,1.34-0.38,2.23-0.36c6.63-0.99,12.99-1.06,19.27-1.06
				c16.93,0,33.88-0.97,50.78,0.52c9.55,0.84,19.4,1.66,28.38,4.47c11.67,3.65,23.97,4.15,35.37,8.54c2.77,1.07,4.9,3.46,8.48,3.72
				c7.91,1.28,14.54,4.53,21.23,7.89c3.7,1.86,7.65,3.71,11.56,4.94c10.24,3.22,19.57,8.05,28.44,13.9c3.34,2.2,6.31,5,10.78,5.96
				c0.31,0.31,0.4,0.26,0.42,0.31c1.4,2.38,3.91,2.9,6.39,4.17c0.26,0.27,0.33,0.23,0.34,0.27c5.16,3.8,10.42,7.45,14.72,12.21
				c2.28,2.53,4.93,4.21,8.47,5.33c0.51,0.26,0.73,0.26,1.18,0.48c2.01,3.91,5.11,5.91,8.33,8.4c6.07,4.72,11.88,10.12,16.2,17.02
				c2.12,3.39,4.53,7.93,9.51,8.96c1.58,0.33,3.03,1.28,2.99,2.87c-0.12,5.07,3.65,5.7,7.42,7.03c0.26,0.29,0.43,0.33,0.4,0.4
				c2.05,7.42,8.06,11.81,13.06,17.44c0.27,0.29,0.39,0.32,0.37,0.38c4.64,10.21,12.08,18.65,17.77,28.58
				c0.32,0.22,0.21,0.24,0.24,0.2c2.43,5.23,5.38,10.2,8.54,15.5c4.12,6.28,6.67,12.89,9.3,19.87c0.32,0.88,0.8,1.34,0.79,1.87
				c-0.11,6.19,1.64,11.85,4.77,17.61c0.11,1.07,0.22,1.67,0.41,2.73c0.13,1.06,0.15,1.68,0.14,2.74
				c4.48,6.03,4.57,12.63,4.49,19.28c-0.02,1.67-0.36,3.71,0.82,4.83c4.36,4.16,3.63,9.48,3.59,14.57
				c-0.02,3.18,0.57,5.85,3.33,8.32c1.46,11.46,1.19,22.56,1.34,33.64c0.04,3.05-0.61,6.4,2.65,9.11c1.09,8.23,1.5,16.08-0.2,24.32
				c-2.51,1.73-2.69,3.84-2.64,6.15c0.12,5.34-0.1,10.68-0.08,16.02c0.02,4.6-0.26,8.89-3.33,13c-2.57,3.45-0.65,8.23-1.12,12.88
				c0.02,1.12,0.04,1.76,0.08,2.89c-0.08,1.75-0.26,3.01-0.54,4.73c-3.43,6.5-2.57,13.95-5.2,19.66
				c-2.76,5.99-2.37,12.89-6.63,18.35c-2.17,2.79-0.99,7.17-2.36,11.08c-0.24,0.39-0.31,0.36-0.29,0.33
				c-6.64,5.55-10.05,12.97-12.41,21.15c-1.38,4.75-4.13,9.07-5.18,14.38c-0.21,0.33-0.27,0.23-0.22,0.25
				c-6.41,5.91-9.62,13.79-13.3,21.84c-0.28,0.29-0.22,0.33-0.26,0.35c-2.98,3.34-6.12,6.49-9.17,9.71
				c-0.38,0.4-1.02,0.67-1.19,1.15c-4.32,12.57-15.91,18.97-24.13,28.21c-2.57,2.89-4.23,5.91-5.45,9.8
				c-0.27,0.3-0.24,0.34-0.26,0.33c-4.15,2.84-7.83,6.21-11.06,10.03c-1.82,2.16-3.64,4.15-6.5,4.9c-1.09,0.29-2.25,0.89-2.52,2.01
				c-0.99,4.06-3.68,5.91-7.51,7.29c-3.67,1.32-3.94,7.55-0.69,10.1c7.08,5.55,9.21,13.65,11.54,22.11
				c0.36,5.62,0.16,10.82,0.14,16.46c-5.15,7.99-4.63,18.7-13.29,24.4c-1.38,0.91-2.47,2.2-4.63,2.47c-2.35,0.29-4.37-0.4-6.41,0.47
				c0.69,2.31,3.65,3.21,3.44,6.28c-3.87,1.83-6.01,6.25-11.01,5.98c-2.43-3.08-4.49-3.64-7.74-1.34
				c-4.28,3.04-8.84,2.57-10.41-0.32c-2.03-3.73,0.03-8.66,4.6-10.95c2.81-1.41,5.48-3.15,8.82-3.24c1.44-0.04,3.24-0.32,3.04-2.43
				c-0.18-1.86-1.79-1.49-3.06-1.48c-2.19,0.01-4.37-0.27-4.31-3.09c0.05-2.4,0.26-5.24,3.58-5.34c3.62-0.11,4.73-4.2,8.43-4.63
				c1.52,0.16,2.62,0.56,3.44,1.27c3.97,3.4,5.18,0.97,6.09-3.02c6.84-8.62,4.08-19.65-5.89-23.56c-0.74-0.59-1.01-1.04-1.15-1.97
				c2.48-4.4-2.14-4.83-3.54-7.3c-0.9-1.65-1.76-2.86-2.68-4.03c-1.83-2.33-3.56-2.76-5.99-0.45c-5.66,5.38-9.94,5.83-16.88,2.14
				c-2.27-1.2-4.39-1.03-6.22,0.59c-4.93,4.34-10.95,7-16.31,10.69c-2,1.37-3.01,2.15-1.99,4.71c1.33,3.34-0.62,4.83-3.78,5.15
				c-1.86,0.19-3.72,0.2-5.58,0.08c-5.16-0.34-5.92-1.4-3.93-6.2c1.52-3.67,1.16-5.38-3.34-4.52c-3.35,0.65-5.65-1.26-7.71-4.13
				c-0.32-1.94,0.53-2.87,1.87-3.33c5.77-2,11.4-4.36,17.52-6.44c3.48,3.03,3.96-0.56,5.65-2.16c7.35-5.52,15.88-8.26,22.87-13.6
				c11.19-8.56,23.2-15.95,33.87-25.3c7.83-6.86,16.08-13.18,23.02-21.04c18.71-21.2,36.89-42.61,49.16-68.59
				c8.44-17.87,16.82-35.68,22.49-54.61c3.72-12.43,6.32-25.09,8.29-37.99c1.42-9.33,1.9-18.77,3.3-28.11
				c1.71-11.44,1.99-23.36-0.67-34.95c-0.46-2.01-0.79-4.01-0.82-6.07c-0.39-26.55-7.59-51.68-16.58-76.31
				c-7.34-20.12-16.31-39.57-27.62-57.85c-4.5-7.28-9.64-14.09-14.85-20.87c-11.61-15.08-25.33-28.15-39.08-41.17
				c-8.91-8.43-18.71-15.78-29.29-22.1c-7.97-4.76-15.67-9.92-23.78-14.5c-19.06-10.76-38.89-19.56-59.94-25.41
				c-13.72-3.82-27.61-6.55-41.91-8.24c-14.07-1.66-28.19-2.41-42.14-2.46c-13.36-0.05-27.04-0.67-40.41,2.52
				c-6.43,1.53-13.2,0.83-19.86,2.21c-14.98,3.09-29.59,7.25-43.89,12.53c-18.57,6.85-35.96,16.16-52.82,26.44
				c-18.63,11.36-35.54,24.75-50.66,40.66c-13.73,14.44-27.83,28.49-38.49,45.43c-8.51,13.53-16.58,27.38-22.78,42.16
				c-3.96,9.43-8.53,18.66-11.4,28.48c-4.74,16.19-9.31,32.41-11.55,49.24c-2.22,16.75-4.71,33.46-4.03,50.4
				c0.5,12.4,2.38,24.66,3.99,36.97c1.89,14.43,5.11,28.48,9.37,42.31c6.1,19.78,13.92,38.87,24.83,56.57
				c5.27,8.55,8.98,17.95,15.09,26.06c8.39,11.15,17.96,21.26,26.87,31.94c13,15.57,28.91,27.72,44.64,40.76
				c1.18,1.02,1.99,1.91,3.62,2.11c1.09,0.21,1.71,0.56,2.27,1.52c0.21,0.53,0.3,0.74,0.7,1.08c2.94,1.24,4.94,3.1,6.81,5.62
				c0.55,0.47-0.27,1.45,1.03,1.06c0.71-0.24,1.14-0.25,1.89-0.09c1.11,0.55,1.76,1.2,2.9,1.75c0.93,0.52,1.48,0.95,2.22,1.72
				c0.93,1.51,1.83,2.47,3.75,2.47c0.81,0.12,1.27,0.23,2.04,0.51c1.15,0.55,1.79,1.26,3.01,1.66c0.78,0.25,1.22,0.42,1.97,0.77
				c1.14,0.67,1.9,1.31,3.33,1.38c2,0.45,3.7,0.74,3.81,3.28c-3.2,2.48-7.15,2.52-10.25,4.65c-0.58,0.4-1.58,0.51-2.17,0.15
				c-6.04-3.67-13.1-2.96-19.75-4.98c-0.29-1.49,0.4-2.68-0.48-4.12c-1-2.18-1.51-4.15-2.21-6.05c-0.71-1.89-1.95-3.29-4.03-3.21
				c-4.36,0.17-8.21-1.68-13.27-3.42c3.07,4.77,3.15,8.46-0.92,11.65c-1.75,1.38-1.6,3.58-0.99,5.65c0.52,1.75,1.26,3.54-0.43,5.43
				c-0.21,0.21-0.36,0.74-0.1,0.9c2.58,3.2,1.68,5.44-1.79,6.19c-3.04,0.65-4.2,2.55-5.18,5.42c-0.34,0.93-1.82,1.2-0.35,2.18
				c2.18,0.04,3.92,0.38,5.69,1.86c0.5,0.8,0.61,1.32,0.48,2.25c-1.08,1.72-2.76,1.99-4.29,3.16c-2.99,2.45-1.04,5.38-1.47,8.33
				c-0.75,5.25,1.02,7.97,6.21,8.54c2.71,0.3,5.27,1.59,7.36,3.55c0.67,0.63,1.42,1.47,2.3,1.42c8.67-0.45,9.77,6.85,12.67,12.67
				c-1.43,4.5-1.69,9.92-7.37,10.29c-5.86,0.39-6.32-5.26-8.25-9.06c-0.89-1.76-0.98-4.5-4.27-2.01c-1.5,1.14-3.69,0.25-4.09-2.19
				c-0.42-2.59-2.69-3.37-4.38-4.72c-2.59-2.07-4.37-1.2-5.82,1.94c-1.27,0.97-2.39,1.14-3.98,1.12c-1.02-0.16-1.56-0.4-2.34-1.08
				c-0.43-0.79-0.57-1.25-0.71-2.08c-0.41-0.82-0.64-1.35-0.64-2.39c1.21-3.48,1.5-6.12-1.39-8.75c-2.52-2.29-1.99-5.62-0.93-9.05
				c4.81-4.52,5.16-14.77,0.53-19.1c-1.22-2.74-0.04-4.03,2.52-4.89c3.34-0.57,1.88-2.16,1.1-3.91c-0.86-4-0.81-7.4,2.55-9.9
				c1.43-1.07,1.61-2.87,2.63-4.68c-2.51-5.52-7.33-8.88-11.47-12.61c-14.12-12.73-28.46-25.32-39.6-40.76
				c-9.97-13.81-20.93-26.99-29.06-42.5c-2.77-6.69-5.4-13.04-9.45-18.67c-0.45-0.62-0.52-1.38-0.72-2.09
				c-0.2-0.72-0.22-1.48-0.44-2.18c-2.92-9.12-9.33-16.7-11.86-26.4c-3.66-12.58-8.54-24.46-10.86-37.06
				c-0.21-1.15-0.88-2.01-1.99-3.12c-0.39-0.79-0.47-1.26-0.5-2.1c-1.91-4.73-0.78-9.5-1.76-14.01c-0.31-1.43,0.02-3.05-0.54-4.4
				c-4.69-11.31-3.67-23.28-3.86-35.03c-0.31-19.11-0.29-38.24,0.66-57.35c0.06-1.29-0.05-2.61,0.81-4.27
				c0.27-1.28,0.24-2.12,0.31-3.37c4.24-4.23,2.69-9.42,3.26-14.05c0.49-3.94-0.73-8.13,3.1-11.27c1.21-0.99,0.75-3.15,0.9-4.8
				c0.37-4.24,0.58-8.53,3.34-12.13c0.94-1.23,1.01-2.77,1.08-4.25c0.25-5.1,1.77-9.76,4.49-14.1c2.53-4.04,3.68-8.63,5.28-13.04
				c1.83-5.03,3.77-10.2,5.77-15.25c2.41-6.1,5.94-11.69,8.28-18.28c3.67-8.19,8.26-15.33,13.44-22.54
				c6.25-4.82,11.23-10.1,13.24-18.05c0.2-0.35,0.25-0.23,0.19-0.26c4.96-5.15,11.41-9.16,13.41-17.14c0.3-0.25,0.25-0.45,0.35-0.47
				c4.01-1.63,8.08-3.1,8.53-8.66c0.28-0.3,0.23-0.37,0.27-0.36c3.98-1.57,8.21-2.84,8.68-8.52c0.29-0.3,0.28-0.39,0.32-0.38
				c2.05-1.29,3.94-2.7,5.56-5.01c6.84-1.15,9.86-6.82,14.18-10.64c3.94-3.49,7.03-7.52,12.71-9.15c4.4-1.26,6.63-6.78,10.89-9.14
				c5.07-2.8,10.07-5.77,15.15-8.52c4.6-2.48,11.22-3.02,13.39-9.39c0.38-1.13,1.87-1.73,3.39-2.54c8.32,0.22,14.4-3.83,20.61-8.7
				c7.85-1.03,15.08-2.39,20.2-8.74c0.44-0.55-0.2-0.3,0.44-0.27c8.29,0.35,14.76-6.71,23.25-5.62c3.02,0.39,5.86-0.38,8.36-2.37
				c3.47-2.76,8.37-1.73,12.29-4.58c0.34-0.29,0.33-0.28,0.33-0.28c3.52-1.72,6.95-2.01,10.09,0.81c1.16,1.05,2.45,2.11,3.74,0.58
				C509.14,182.54,513.39,182.58,516.89,180.27z"/>
			<path class="st1" d="M669.94,878.82c-5.08,4.06-11.61,4.85-17.67,6.73c-14.12,4.38-28.63,7.03-43.22,9.58
				c-31.25,5.46-62.67,6.4-94.21,5.41c-24.59-0.77-48.27-6.73-71.63-14.02c-2.06-0.64-4.56-0.18-6.33-2.51
				c3.52-3.09,7.01-0.31,11.06,0.11c8.16-1.35,14.77,2.26,21.69,4.56c6.65,2.21,13.45,3.89,20.89,4.92
				c7.97,2.62,15.86,2.39,23.55,2.71c13.89,0.57,27.84,0.48,41.74,0.03c7.36-0.24,14.76-0.66,22.54-1.7
				c1.03-0.51,1.65-0.7,2.77-0.81c3.46,0.48,6.45,0.93,9.88-0.19c11.59-0.89,22.45-3.65,33.31-5.89c7.44-1.54,15.18-3.01,22.12-6.77
				c4.19-2.27,9.19-0.98,14.15-2.28C663.9,878.76,666.71,876.85,669.94,878.82z"/>
			<path class="st2" d="M662.72,197.36c-2.65,0.47-4.64-0.4-6.91-1.39c-7.75-3.39-15.63-6.77-24.3-7.15
				c-4.18-0.18-8.5,0.66-11.95-2.92c-0.91-0.95-2.67-1.23-4.1-1.5c-25.13-4.76-50.52-5.1-75.97-4.49
				c-6.43,0.15-12.8,1.97-19.64,0.39c3.51-1.77,7.53-2.41,11.65-2.4c17.48,0.02,35.02-0.85,52.42,0.33
				c15.92,1.08,31.76,3.6,47.38,7.71c9.34,2.46,18.67,5.11,28.46,7.6C661.39,194.58,663.22,194.92,662.72,197.36z"/>
			<path class="st3" d="M273.45,345.55c-0.23,3.27,1.96,7.72-3.52,9.42c-1.16,0.36-0.79,2.36-0.71,3.63
				c0.14,2.18-0.48,3.91-2.05,5.48c-1.92,1.92-2.67,4.31-2.48,7.1c0.16,2.33,0.59,4.98-2.94,5.55c-1.33,0.22-1.7,1.64-1.41,2.67
				c1.89,6.69-3.59,10.38-6.07,15.28c-0.58,1.15-1.94,2.27-1.87,3.34c0.63,9.44-6.26,17.26-5.58,26.69c0.17,2.3,0.63,4.84-2.86,5.65
				c-2.11,0.49-1.46,2.76-1.49,4.33c-0.11,4.64-0.14,9.29-0.05,13.93c0.05,2.48-0.68,3.98-3.89,3.79c-0.48-1.55-0.5-3.11-0.41-5.12
				c1.4-1.93,0.52-4.01,1.78-5.86c-0.67-9.59,3.55-17.93,5.38-26.68c2.85-13.63,9.16-26.24,13.23-39.58
				C261.66,364.8,266.59,354.73,273.45,345.55z"/>
			<path class="st4" d="M237.7,456.1c0.23,25.48,0.22,51.29,0.22,77.09c0,6.4,0.87,12.39,3.68,18.5c2.49,5.42,0.46,12.07,0.83,18.69
				c-4.12-3.98-3.15-10.03-3.98-15.19c-2.91-18.25-5.27-36.67-4.76-55.23c0.35-12.97,1.44-25.91,2.24-38.86
				C236.04,459.44,236.18,457.73,237.7,456.1z"/>
			<path class="st3" d="M408.06,215.32c-2.45,2.15-5.26,3.61-4.97,7.26c0.04,0.44-0.6,1.38-0.73,1.34
				c-5.67-1.57-8.06,5.33-13.2,5.09c-0.73-0.03-1.77-0.16-2.17,0.24c-6,6.1-15.44,7.98-19.77,16.13c-0.3,0.57-1.06,1.28-1.6,1.27
				c-8.6-0.12-10.94,8.02-16.35,12.1c-3.27,2.47-5.27,7.67-11.35,6.16c-0.67,0.15-0.86,0.25-1.28,0.11
				c7.6-8.68,16.85-15.48,25.85-22.58c13.91-10.98,29.26-19.71,44.88-28.65C408.13,214.13,408.29,214.54,408.06,215.32z"/>
			<path class="st4" d="M738.12,841.46c1.73-0.36,4.06,0.17,4.23-1.26c0.55-4.53,4.31-2.9,6.92-4.3c1.19-2.63,0.46-5.33,2.31-7.79
				c5.31-1.01,13.69-10.05,13.48-15.66c-0.17-4.49,1.24-7.07,5.46-8.87c0.36-0.49,0.53-0.62,0.96-0.58
				c-1.5,15.18-9.37,26.53-20.93,35.7c-9.19,7.3-18.95,13.71-29.68,19c-0.48-0.3-0.66-0.5-0.95-1.09c0.16-3.42,3.36-4.28,4.83-6.91
				C728.04,844.79,733.87,844.79,738.12,841.46z"/>
			<path class="st2" d="M492.15,184.24c0.4,2.03-1.35,3.8-2.41,3.82c-7.71,0.12-13.55,7.43-21.87,5.33
				c-2.54-0.64-6.17-1.25-6.99,3.22c-0.18,0.97-1.49,1.28-2.35,1.04c-6.15-1.73-10.94,1.6-14.64,5.29
				c-4.6,4.58-9.77,3.55-15.74,3.44c-0.74-0.57-0.75-0.82-0.52-1.38c10.91-5.46,22-9.71,33.29-13.11
				C471.01,188.85,481.11,185.46,492.15,184.24z"/>
			<path class="st4" d="M787.9,729.36c-1.64-6.34,2.24-9.86,6.66-13.43c3.85-3.1,7.44-6.65,10.6-10.44c2.21-2.64,4.56-5.13,7.19-7.2
				c1.37-1.08,1.83-1.99,2.04-3.51c1.04-7.46,7.33-10.48,12.86-14.51c-1.18,5.77-5.94,9.5-9.01,14.34
				C810,707.62,799.84,719.1,787.9,729.36z"/>
			<path class="st5" d="M358.19,758.58c0.28,2.78,1.27,5.72-3.05,7.36c-2.26,0.86-0.71,4.73-1.02,7.71c0.92,1.6,1.2,2.8,0.26,4.54
				c-2.15,0.56-4.57-0.25-4.71,3.35c3.01,6.36,2.25,12.43,0.32,18.96c-0.03,4.13-1.86,8.3,3.47,10.62c1.39,0.61,1.53,5.01-0.9,7.58
				c-0.78,0.54-1.24,0.7-2.05,0.27c-0.48-1.1-0.69-1.91-0.87-3.14c-0.83-1.1-1.06-2.14-1.62-3.42c-2.34-6.65-3.02-13.11-3.08-19.81
				C344.82,779.52,349.05,768.32,358.19,758.58z"/>
			<path class="st4" d="M769.92,785.56c-0.29-4.56-4.35-7.01-5.13-10.82c-1.02-4.93-3.75-8.1-8.04-10.51
				c-1.23-0.69-3.57-2.89-1.79-4.54c2.49-2.3-1.04-8.55,5.43-7.93c1.51,0.15,3.55-0.33,3.95-1.6c2.99-9.51,14.02-11.1,18.48-19.05
				c0.86-1.54,2.31-1.7,4.26-1.7c-3.17,6.06-9.02,9.94-13.96,14.65c-3.67,3.5-7.01,7.43-11.41,10.26c-3.96,2.55-2.47,5.75,0.29,8.59
				c6.39,6.58,8.83,14.86,9.9,24.14C770.24,788,770.39,786.74,769.92,785.56z"/>
			<path class="st5" d="M809.64,295.74c-1.65,0.35-3.33,0.22-4.99,0.29c-2.55,0.12-3.83-0.88-3.7-3.55
				c0.06-1.28,0.03-3.66-0.28-3.71c-4.93-0.87-7.75-4.44-10.83-7.79c-0.3-0.33-2.02,0.12-2.09-1.01
				c-0.62-9.64-11.09-11.77-14.61-19.18c-0.15-0.32-1.01-0.43-1.54-0.44c-5.15-0.08-6.68-3.14-6.4-8.14
				c15.17,10.63,27.73,24.42,40.31,38.18C806.94,291.97,808.25,293.7,809.64,295.74z"/>
			<path class="st4" d="M662.93,197.69c-0.35-1.66-2.13-2.05-2.71-3.62c16.68,4.59,32.28,12.36,48.08,19.51
				c8.8,3.98,16.75,9.87,25.26,15.21c-6.14,2.04-9.35-3.18-13.52-6.02c-4.73-3.21-10.73-4.82-14.77-7.82
				c-5.22-3.88-12.45-1.72-16.3-7.34c-0.93-1.36-2.71-0.88-4.16-0.98c-1.1-0.08-2.95,0.14-3.18-0.37
				c-2.92-6.28-10.73-3.24-14.58-7.77C666.4,197.73,664.62,197.94,662.93,197.69z"/>
			<path class="st6" d="M859.53,622.21c-0.39-2.81-0.4-5.76-0.41-8.71c0-2.02-0.32-4.15,2.33-4.98c0.44-0.14,1.03-0.79,1.03-1.21
				c0.02-6.57,4.25-11.9,5.37-18.01c0.98-5.34-0.96-11.35,4.57-15.75c0.97-1.69,0.55-3.1,0.29-4.79c-0.17-0.74-0.17-1.18-0.18-1.95
				c1.68-1.66,0.2-5.18,3.85-5.18c0.36,8.41-2.63,16.02-4.63,23.76c-3.06,11.77-7.04,23.3-10.68,34.91
				C860.87,620.96,860.31,621.49,859.53,622.21z"/>
			<path class="st5" d="M841.68,658.07c-0.73-4-0.93-7.93,2.21-11.32c1.65-1.79,1.89-4.33,1.79-6.82c-0.07-1.79-0.41-3.85,2.26-4.31
				c1.36-0.24,1.24-0.9,1.14-2.3c-0.31-4.17,4.59-9.75,9.58-11.06c-0.07,6.89-4.79,12.06-7.11,18.24
				C849.26,646.65,845.31,652.19,841.68,658.07z"/>
			<path class="st5" d="M255.7,613.49c2.51,0.16,4.67,1.62,4.33,3.64c-1.11,6.62,2.72,10.51,6.98,14.26
				c1.42,1.25,0.68,2.91,0.71,4.05c0.18,6.17,5.33,10.14,6.63,16.03c0.66,2.98,4.62,5.72,3.81,10.51
				c-5.91-6.53-9.26-15.04-13.22-23.11c-2.64-5.39-6.53-10.43-6.98-17.23c-0.86-1.23-0.97-2.42-1.69-3.67
				c-0.33-1.06-0.48-1.83-0.58-3C255.62,614.32,255.51,614.05,255.7,613.49z"/>
			<path class="st2" d="M877.33,449.65c-3.85,0-4.96-2.23-4.9-5.42c0.07-3.16,0.03-6.32-0.01-9.48c-0.01-1.11,0.19-2.96-0.31-3.21
				c-6.93-3.34-3.46-9.56-4.06-14.54c-0.46-3.88,1.02-8.3-4.12-10.34c-0.41-0.16-0.28-1.72-0.38-3.08c1.09-1.3,2.24-1.45,3.83-0.57
				c2.44,7.62,4.59,14.92,6.58,22.26c0.53,1.94,0.57,4,0.79,6.49c1.2,1.53,0.84,3.16,1.61,4.76c0.35,2.2,0.51,4.1,0.63,6.47
				C877.56,445.3,878.32,447.1,877.33,449.65z"/>
			<path class="st7" d="M448.28,885.37c-3.73-0.35-7.2-1.08-11.13-1.76c-0.94,0.04-1.42,0.02-2.24-0.14
				c-3.65-1.89-7.17-3.04-11.11-4.1c-0.49-0.29-0.7-0.29-1.21-0.42c-4.71-1.74-8.42-4.81-13.06-6.1c-1.93-0.54-3.96-1.98-3.87-4.95
				c0.72-0.72,1.24-0.99,2.26-1.27c7.6-1.3,12.24,4.42,18.23,6.45c1.15,0.39,2.05,1.97,3.36,1.79c6.44-0.84,10.81,4.43,16.64,5.42
				C448.57,880.71,449.38,882.59,448.28,885.37z"/>
			<path class="st4" d="M255.95,612.7c0.02,0.72-0.03,0.95-0.15,1.53c-3.6-3.18-3.93-8.11-5.5-12.46
				c-3.27-9.07-5.93-18.35-7.87-28.25c3.52-0.85,4.78,0.74,4.44,4.08c-0.41,4.01,0.17,7.77,3.36,10.72c1.03,0.95,1.11,2.3,1.08,3.63
				c-0.1,4.47-0.17,8.66,3.77,12.19C257.04,605.9,255.45,609.48,255.95,612.7z"/>
			<path class="st2" d="M881.61,493.39c-3.86-0.02-4.78-2.09-4.74-5.4c0.14-12.24,0.04-24.48,0.03-37.25c0-0.52,0.04-0.57,0.07-0.59
				c0.43-0.37,0.9-0.51,1.72-0.18c0.39,2.16,0.5,4.07,0.54,6.45c1.85,3.79,0.37,7.61,1.72,11.36c0.34,3.7,0.46,7.08,0.51,10.96
				C883.34,483.75,882.58,488.37,881.61,493.39z"/>
			<path class="st1" d="M352.28,823.57c0.45-0.41,0.86-0.42,1.59-0.37c2.17,1.83,4.18,3.46,5.73,6.04
				c5.2,6.49,10.3,12.56,16.81,17.81c2.6,2.18,4.58,4.49,7.41,6.41c0.76,0.48,1.15,0.81,1.75,1.48c0.62,1.01,0.76,1.76,0.35,3.23
				C371.72,849.85,359.98,838.82,352.28,823.57z"/>
			<path class="st2" d="M876.83,561.5c-2.94,0.51-1.34,4.15-3.94,4.89c0.05-6.29-2.49-13.21,3.48-18.63
				c0.99-0.89,0.49-3.53,0.51-5.36c0.05-6.84-0.01-13.68,0.06-20.51c0.02-1.88-0.75-4.34,2.89-4.65c3.17,3.13,0.88,6.79,1.46,10.62
				c0,0.98,0.03,1.48-0.02,2.36c-2.07,5.13-1.21,10.28-2.18,15.6c-0.01,1.61,0.02,2.8-0.05,4.43c-1.83,2.9-1.7,5.83-2.18,9
				C876.87,560.14,876.9,560.64,876.83,561.5z"/>
			<path class="st6" d="M881.41,527.95c-2.09-2.82-0.67-6.36-1.11-10.22c1.64-7.93-0.48-15.53,0.96-23.46
				c-0.03-5-0.03-9.5,0.05-14.52c1.97,1.84,1.78,4.71,1.92,7.43C883.91,500.68,883.76,514.16,881.41,527.95z"/>
			<path class="st1" d="M404.97,867.47c4.92,5.8,12.47,5.87,17.26,11c-6.17-1.12-11.77-4.13-17.24-7.31
				c-6.43-3.74-12.7-7.78-19.22-12c-0.19-0.31-0.01-0.49,0.08-0.58c0.97-0.69,1.99-0.76,3.39-0.87c0.9-0.03,1.41-0.02,2.31,0.03
				c0.91,0.1,1.41,0.21,2.27,0.53c0.56,0.33,0.76,0.49,1.19,0.96C397.42,863.1,401.26,864.61,404.97,867.47z"/>
			<path class="st3" d="M841.32,342.44c-4.03-3.11-8.86-5.91-9.51-12.16c-0.3-2.91-3.58-5.83-5.01-6.45
				c-4.79-2.05-3.06-5.64-3.59-9.23c6.88,6.33,10.65,15.23,15.88,23.15C839.98,339.1,841.37,340.18,841.32,342.44z"/>
			<path class="st2" d="M516.72,179.92c-0.4,2.5-1.92,4.23-4.62,4.35c-2,0.09-3.18,0.54-4.08,2.73c-1.21,2.95-5.14,2.53-5.74,0.74
				c-1.74-5.22-5.63-2.8-9.17-3.42c0.41-0.61,1.36-1.79,2.22-1.73C502.51,183.07,509.14,179.76,516.72,179.92z"/>
			<path class="st6" d="M670.71,879.19c-3.22-0.55-5.79,0.61-8.9,1.07c-2.09-2.42-0.95-4.07,1.4-4.44
				c7.23-1.15,13.13-5.29,19.56-8.23c1.54-0.7,3.12-1.07,5.23-1.17c1.62,0.02,2.79,0.05,4.34,0.45c0.64,0.27,0.88,0.41,1.38,0.86
				c-0.07,4.12-3.4,3.14-5.85,4.24c-0.71,1.21-1.66,1.52-2.81,2.14c-0.78,0.34-1.25,0.48-2.1,0.67c-0.79,0.35-1.23,0.6-2.08,0.87
				c-2.93-0.26-4.64,1.52-6.97,2.77C672.75,878.83,671.94,879.03,670.71,879.19z"/>
			<path class="st5" d="M828.02,680.02c-0.09-3.6-0.84-7.06,3.44-10.21c1.77-1.3,3.87-6.1,5.15-9.59c0.78-2.14,2.11-2.25,4.28-2.17
				C838.72,666.35,833.39,673.01,828.02,680.02z"/>
			<path class="st4" d="M763.84,251.04c-4.83,1.98-8.15-1.58-10.48-4.6c-3.66-4.76-9.2-7.3-12.71-12.48
				C749.1,238.17,756.76,243.91,763.84,251.04z"/>
			<path class="st5" d="M299.93,304.77c0.76,7.41-5.28,16.31-12.33,18.1C290.12,316.05,294.9,310.48,299.93,304.77z"/>
			<path class="st6" d="M720.02,856.37c0.46,0.44,0.5,0.67,0.54,1.06c-1.62,2.65-4.1,3.56-7.32,3.9c-2.72,1.47-5.44,2.07-8.05,3.71
				c-0.79,0.36-1.25,0.55-2.09,0.73c-1.41,1.29-3.17,0.83-4.66,1.92c-0.27,0.25-0.27,0.29-0.28,0.27c-1.09,0.94-2.29,1.19-4.03,0.33
				c-0.39-0.29-0.41-0.32-0.42-0.33c-1.99-3.05-0.44-4.43,2.26-5.98c5.71-3.26,11.63-5.34,18.71-5.11
				C716.61,856.48,718.06,855.89,720.02,856.37z"/>
			<path class="st5" d="M313.71,287.58c1.6,6.37-2.58,9.9-7.16,13c-1.93,1.31-1.51,5.53-5.84,4.25
				C303.71,298.39,308.24,292.83,313.71,287.58z"/>
			<path class="st6" d="M867.81,402.9c-1.17,0.38-2.28,0.34-3.81,0.27c-0.42-0.47-0.42-0.92-0.43-1.69c0.45-0.9,0.54-1.53,0.18-2.5
				c-0.27-1.19-0.04-2.65-0.5-2.91c-7.07-4.04-3.06-10.9-4.23-16.91c4.07,2.05,2.3,6.78,3.89,10.37
				C864.74,393.67,866.32,398.11,867.81,402.9z"/>
			<path class="st5" d="M823.15,313.57c-4.34,1.89-4.62-2.86-6.71-4.48c-3.53-2.74-8.19-5.82-6.65-12.3
				C814.94,301.38,818.77,307.49,823.15,313.57z"/>
			<path class="st2" d="M408.35,215.61c-0.51-0.4-0.53-0.81-0.57-1.52c0.45-0.47,0.93-0.63,1.79-0.77c4.46-2.36,9.04-3.7,13.49-6.21
				c0.75-0.36,1.17-0.5,1.93-0.61c0.87-0.33,1.45-0.46,2.47-0.1c0.39,0.25,0.39,0.26,0.4,0.27
				C423.05,212.9,417.09,216.7,408.35,215.61z"/>
			<path class="st3" d="M850.14,358.18c-2.37,0.44-4.66,0.54-4.51-2.89c0.11-2.53-0.64-4.59-3.18-5.96
				c-2.24-1.21-0.96-3.68-1.22-6.07C845.21,347.2,847.98,352.32,850.14,358.18z"/>
			<path class="st5" d="M322.52,278.34c0.37,0.28,0.37,0.64,0.36,1.01c-0.2,8.93,0.6,7.47-8.23,7.83
				C316.17,283.67,319.2,281.08,322.52,278.34z"/>
			<path class="st5" d="M331.46,269.4c0.38,0.34,0.38,0.71,0.36,1.08c-0.24,8.46,0.92,7.53-8.41,7.72
				C324.84,274.53,328.09,272.11,331.46,269.4z"/>
			<path class="st6" d="M879.24,545.86c-2.21-4.97-1.1-10.05,1.55-15.15C881.8,535.7,881.26,540.67,879.24,545.86z"/>
			<path class="st2" d="M769.69,785.79c0.55,0.11,1.09,0.74,1.88,1.57c1.13,5.08,0.62,9.98,0.27,15.35
				c-0.1,0.46-0.62,0.47-0.88,0.49C768.41,797.7,770.25,791.93,769.69,785.79z"/>
			<path class="st3" d="M422.97,206.87c-2.72,4.22-7.53,5.2-12.59,6.51C413.26,209.46,418.58,209.46,422.97,206.87z"/>
			<path class="st1" d="M423.73,879.39c3.89-0.57,7.71,0.01,10.78,3.56C430.63,883.31,427.35,881.31,423.73,879.39z"/>
			<path class="st6" d="M881.26,467.61c-3.97-2.34-1.41-6.71-2.38-10.44C881.98,459.85,881.19,463.59,881.26,467.61z"/>
			<path class="st1" d="M693.54,868.35c1.37-0.37,2.55-0.4,4.17-0.41c-2,2.75-5.48,3.36-9.14,4.53c-0.67,0.13-0.91,0.23-1.38,0.02
				C687.81,868.7,692.03,871.37,693.54,868.35z"/>
			<path class="st6" d="M877.02,559.28c-1.96-2.9-1.69-5.85,1.55-8.5C879.76,553.73,878,556.22,877.02,559.28z"/>
			<path class="st4" d="M740.36,233.2c-2.37-0.27-6.36,1.95-6.49-3.61C736.27,229.89,738.36,231.18,740.36,233.2z"/>
			<path class="st1" d="M673.96,878.69c0.43-3.12,2.61-4.13,5.96-4c0.79,0.34,0.91,0.76,0.54,1.47
				C678.24,877.18,676.29,877.97,673.96,878.69z"/>
			<path class="st5" d="M336.06,264.88c0.37-0.08,0.89-0.03,1.14,0.03c-0.33,2.57-1.32,4.65-4.87,4.37
				C332.26,267.04,334.26,266.25,336.06,264.88z"/>
			<path class="st1" d="M705.24,865.23c1.18-2.77,3.88-3.5,7.14-3.94C711.1,863.89,707.75,863.45,705.24,865.23z"/>
			<path class="st6" d="M879.07,449.8c-0.54,0.41-0.98,0.39-1.76,0.34c-0.52-2.07-0.71-4.12-0.62-6.42
				C879.29,444.84,879.08,447.16,879.07,449.8z"/>
			<path class="st4" d="M239.9,441.43c0.01,1.56,1.13,3.69-1.28,5.3C237.96,444.93,238.45,443.23,239.9,441.43z"/>
			<path class="st6" d="M876.62,436.46c-2.39-0.01-1.98-1.83-1.97-3.81C875.79,433.31,876.69,434.47,876.62,436.46z"/>
			<path class="st1" d="M698.56,867.97c-0.13-2.39,1.65-2.22,3.73-2.22C702.06,867.52,700.55,867.83,698.56,867.97z"/>
			<path class="st8" d="M686.63,872.3c0.52-0.07,0.72-0.03,1.21,0.12c-0.24,1.24-0.95,2.12-2.73,1.97
				C684.76,873.26,685.35,872.69,686.63,872.3z"/>
			<path class="st1" d="M256.04,618.05c1.74-0.19,2.06,0.98,2.03,2.76C257.09,620.43,255.86,619.91,256.04,618.05z"/>
			<path class="st6" d="M347.79,812.42c1.64-0.18,1.92,0.94,1.91,2.63C348.93,814.61,347.68,814.16,347.79,812.42z"/>
			<path class="st3" d="M427.85,206.33c-0.57,0.32-1.13,0.31-2.11,0.25c-0.1-0.97,0.15-1.94,1.76-1.94
				C427.87,205.13,427.86,205.57,427.85,206.33z"/>
			<path class="st8" d="M680.51,876.43c-0.31-0.41-0.3-0.79-0.23-1.44c0.56-0.28,1.06-0.28,1.94-0.21
				C682.34,875.75,681.84,876.39,680.51,876.43z"/>
			<path class="st1" d="M350.19,819.02c0.47-0.32,0.9-0.32,1.65-0.24c0.28,0.56,0.25,1.06,0.13,1.92
				C351.04,820.76,350.24,820.42,350.19,819.02z"/>
			<path class="st8" d="M387.87,744.34c-5.65-4.3-11.13-8.32-16.45-12.55c-17.08-13.57-31.07-30.11-45.55-46.29
				c-15.99-17.88-25.9-39.19-37.12-59.82c-6.77-12.44-10.76-26.05-15.32-39.44c-3.59-10.55-5.13-21.52-8.31-32.13
				c-1.45-4.84-1.61-10.18-2.12-15.14c-1.77-17.32-4.13-34.73-2.53-52.22c1.16-12.68,1.83-25.54,4.61-37.9
				c5.17-22.99,11.32-45.69,21.14-67.41c6.62-14.66,14.03-28.86,22.26-42.48c10.17-16.85,23.59-31.37,37.67-45.27
				c12.34-12.19,24.28-24.69,38.87-34.29c19.81-13.03,40.18-25.11,62.12-34.11c10-4.1,20.47-7.22,31.02-10.06
				c12.65-3.4,25.38-5.1,38.3-6.86c14.88-2.03,29.73-2.42,44.57-2.64c10.14-0.15,20.55-0.18,30.57,1.31
				c10.89,1.62,22.18,1.34,32.67,4.37c19.87,5.75,39.96,10.93,58.62,20.48c12.34,6.32,24.81,12.41,36.46,19.85
				c14.82,9.47,29.46,19.33,41.91,31.97c9.57,9.71,19.68,18.98,28.44,29.39c17.14,20.36,30.38,43.19,40.65,67.81
				c4.33,10.39,9.13,20.65,12.28,31.41c2.9,9.9,5.37,20,7.88,30.03c3.6,14.42,3.94,29.12,5.63,43.64
				c1.4,11.99,2.31,24.46-1.14,36.53c-0.2,0.7-0.25,1.47-0.26,2.21c-0.07,11.67-2.37,23.03-4.33,34.5
				c-4.05,23.68-12.1,45.99-22.58,67.38c-6.31,12.87-12.19,26.03-20.2,38.06c-4.8,7.21-10.43,13.74-15.81,20.47
				c-10.48,13.1-21.06,26.15-33.88,37.09c-12.69,10.84-26.06,20.86-39.74,30.38c-8.15,5.67-17.24,9.99-26.32,15.01
				c-1.58,0.9-2.76,1.71-4.52,2.1c-5.29,0.75-9.15,4.13-13.88,5.58c-2.04,0.63-4.94,0.15-6.55,2.91c-5.98,5.18-13.42,5.9-20.27,7.98
				c-15.98,4.85-32.12,9.08-48.94,9.9c-4.55,0.22-8.87,3.28-14.06,0.97c-0.92-0.45-1.42-0.86-1.95-0.87
				c-14.65-0.34-29.31-0.91-44.3,0.56c-2.01,1.34-3.92,1.59-5.73,1.23c-13.78-2.79-27.84-3.83-41.56-7.25
				c-20.44-5.1-40.14-12.15-59.58-20.12c-1.55-0.64-3.07-1.33-4.66-2.78c-0.64-2.52-2.33-2.46-4.33-2.59
				c-0.93-0.53-1.47-1.04-2.37-1.69c-0.77-0.32-1.23-0.44-2.05-0.58c-0.96-0.5-1.52-1.03-2.41-1.74c-0.75-0.33-1.2-0.42-1.99-0.54
				c-1.61-1.06-3.37-1.31-4.75-2.82c-0.81-0.6-1.34-0.99-2.18-1.49c-0.83-0.63-1.37-1.14-2.26-1.82c-0.79-0.36-1.29-0.5-2.17-0.7
				c-0.54,0.13-0.71,0.33-0.81,0.15c-2.55-2.4-5.15-4.41-8.08-6.57c-0.5-1.12-0.75-2.03-2.32-2.2
				C389.2,745.12,388.62,744.91,387.87,744.34z"/>
			<path class="st9" d="M369.46,792.35c0.26-0.84,0.27-1.33,0.26-2.2c-1.93-2.73-0.6-4.81,0.67-7.33c0.32-1.01,0.57-1.56,1.15-2.45
				c7.79-7.79,11.53-8.67,20.29-2.8c17.63,11.8,36.98,19.91,56.76,26.94c13.96,4.96,28.51,8.05,43.17,10.67
				c13.32,2.37,26.86,3.07,40.07,6.05c2.02,0.45,4.07,0.4,6.12,0.4c11.35,0.01,22.71-0.17,34.06,0.05
				c13.06,0.26,25.76-2.38,38.61-3.91c10.54-1.25,20.85-3.51,31.26-5.28c11.2-1.9,22.04-5.51,32.56-9.71
				c9.29-3.71,18.73-7.1,27.68-11.76c6.43-3.35,13.01-6.23,18.87-10.66c3.95-2.99,8.36-5.68,14.18-5.58
				c4.59-0.16,7.43,1.94,9.76,5.63c0.17,0.93,0.2,1.43,0.27,2.29c4.24,4.2,5.18,9.04,2.23,14.92c-4.32,8.61-11.65,14.09-19.96,18.59
				c-21.71,11.75-44.68,20.39-68.62,25.82c-14.34,3.26-28.87,6.1-43.59,8.01c-10.98,1.43-22.24,0.71-33.47,3.93
				c-16.62,0.34-32.93,1.64-48.84-0.3c-16.33-1.99-33,0.36-49.49-4.36c-2.2-0.42-3.41-1.97-5.63-2.15
				c-0.92-0.13-1.43-0.24-2.28-0.53c-1.58-0.81-2.63-1.83-4.41-2.22c-0.55-0.21-0.76-0.31-1.28-0.58c-1.46-1.18-2.86-1.25-4.67-1.18
				c-1.45,0.04-2.51,0-3.99-0.16c-18.69-5.46-36.88-11.1-55.04-18.18c-8.29-4.49-16.66-7.94-24.04-13.19
				c-4.84-3.44-9.25-7.3-12.02-12.69C369.18,796.64,368.11,794.82,369.46,792.35z"/>
			<path class="st10" d="M736.42,775.94c-5.84-0.36-10.47,2.55-14.33,5.58c-9.93,7.8-21.47,12.27-32.83,17.09
				c-13.15,5.58-26.42,10.79-40.54,13.77c-12.13,2.56-24.42,4.31-36.49,6.81c-25.29,5.24-50.71,4.31-76.1,3.75
				c-8.56-0.19-17.44-1.37-26.05-3.5c-5.8-1.43-11.91-1.6-17.89-2.64c-12.35-2.15-24.35-5.31-36.46-8.5
				c-18.49-4.87-35.08-13.96-52.51-21.15c-4.5-1.86-8.39-5.38-12.28-8.48c-6.85-5.46-12.61-3.34-18.47,2.15
				c-0.99,0.47-1.28,1.01-0.79,2c0.17,2.45-2.65,3.64-1.96,6.54c-1.95,0.04-3.88-0.33-6.24-0.7c-1.17-0.75-1.28-1.62-0.7-2.97
				c0.98-4.18,1.91-7.33,7.03-7.33c2.71,0,2.84-2.23,0.34-4.14c0.64-2.33,2-4.27,0.2-7.09c-1.69-2.66-0.55-5.52,2.05-7.28
				c3.44-2.34,3.85-4.66,0.7-7.55c-0.89-0.82-2.43-1.76-1.49-3.17c0.77-1.16,2.53-1.01,3.62-0.47c4.38,2.17,8.84,3.62,13.84,3.26
				c2.34-0.17,2.84,1.98,3.36,3.79c0.61,2.13,1.25,4.25,1.88,6.81c0.43,0.87,0.6,1.38,0.26,2.32c-0.06,1.24,0.2,2.62,1.27,2.09
				c2.49-1.22,4.51-0.37,7.01,0.09c3.52,0.66,7.18-0.29,9.88,3.25c0.79,1.04,3.1,0.86,3.98-0.46c2.08-3.11,5.11-2.28,8.43-2.4
				c9.87,1.69,18.07,6.62,26.91,9.8c8.67,3.12,17.31,6.24,26.35,8.23c7.07,1.56,14.03,3.66,20.94,5.84
				c4.58,1.45,9.5,1.61,14.03,2.22c7.6,1.02,15.22,2.77,23.46,2.84c2.49-1.45,4.78-0.96,6.96-0.99c13.31-0.2,26.63,0.34,40.18,0.15
				c8.81,0.22,17.31-0.9,25.67-2.69c5.34-1.14,10.78-1,16.15-2.73c7.17-2.32,14.68-3.71,21.89-6.1c6.02-2,12.16-3.64,18.69-5.43
				c3.55,1.26,6.09,5.33,10.21,1.66c0.89-0.8,2.67,0.32,3.19,1.5c0.84,1.89,1.01,3.95-0.56,5.71c-3.79,4.24-1.13,4.72,2.65,4.58
				c1.11-0.04,2.23,0.01,3.34-0.01c5.75-0.09,6.1-0.58,3.03-5.39c-1.18-1.85-1.56-2.64,0.9-3.54c6.77-2.47,12.71-6.47,18.22-10.99
				c3.81-3.12,7.09-3.73,10.51,0.23c1.69,1.96,2.9,3.03,3.13-0.87c0.13-2.17,1.49-0.97,2.06-0.19c2.82,3.83,5.08,1.34,7.08-0.73
				c5.51-5.71,6.14-5.72,10.49,0.88c0.4,0.61,0.67,1.3,1.05,2.35C740.58,776.35,738.17,774.56,736.42,775.94z"/>
			<path class="st11" d="M581.77,852.75c10.17-4.23,20.89-1.82,31.21-4.27c6.49-1.54,13.83-1.47,20.48-3.09
				c5.42-1.32,11.11-1.2,16.37-3.54c3.94-1.75,8.47-1.38,12.76-2.52c13.17-3.49,25.89-8.06,38.63-12.74
				c10.67-3.92,20.79-9.04,30.44-14.77c7.9-4.69,15.56-10.84,15.7-21.8c0.03-2.37-0.59-4.33-2.07-6.53
				c6.95-0.33,10.97,3.72,10.98,10.67c0,2.98,0.05,5.96-0.05,8.93c-0.08,2.3-1.43,3.74-4.28,4.37c-1.21-0.43-1.71-0.8-2.68-0.81
				c-2.53,0.34-3.75,2.34-6.04,3.18c-2.73,0.13-3.67,2.06-5.08,3.5c-1.09,1.11-1.68,3.06-4.4,2.18c-3.49-1.13-2.3,2.67-2.5,3.93
				c-0.35,2.21,2.34,2,3.19,1.38c4.75-3.49,5.16,2.05,5.38,3.35c0.52,3.05-2.44,3.89-4.93,3.5c-4.75-0.73-7.79,2.9-11.52,4.47
				c-2.65,1.11-2.71,5.6-1,7.97c1.55,2.14,4.76,1.46,7.13,0.2c1.27-0.68,2.1-2.21,3.39-2.82c2.88-1.37,5.56-1.7,5.56,3.31
				c-0.09,1.71,0.19,4-0.71,3.98c-4.89-0.12-8.04,3.19-12.22,5.35c-4.86,2.96-5.79-1.46-7.79-3.67c-0.51,3.76,0.72,7.5-1.39,11.21
				c-1.38,1.56-3.04,1.72-4.36,1.33c-6.9-2.05-11.16,4.57-17.27,5.12c-1.08,0.1-0.85,1.86-0.98,3.39c-1.21,0.46-2.4,0.48-4.04,0.49
				c-3.78-4.12-10.02-2.59-13.27-7.53c-0.9,2.45,1.89,3.38,0.63,5.06c-1.15,1.53-2.86,1.62-4.51,1.7
				c-8.75,0.44-17.19-2.38-25.9-2.52c-0.92-0.01-1.85-0.5-2.42-1.25c-2.53-3.29-4.66-1.92-6.74,0.5c-1.88,2.19-4.11,3.01-6.95,1.94
				c-3.18-1.2-6.14-0.64-9.02,1.16c-6.47,4.06-14.18,5.56-20.54,9.87c-0.61,0.41-1.39,0.78-2.1,0.63
				c-10.02-2.13-19.89,2.25-30.3,0.62c-1.99-0.44-3.56-1.06-5.61-0.21c-1.27,0.31-2.14,0.42-3.46,0.48
				c-5.08,0.04-9.72,0.52-14.2-1.3c-2.05-0.83-3.77-0.3-5.41,1.52c-3.07,3.38-15.73,4.59-19.27,2.13c-3.1-2.16-1.37-4.99-0.96-8.08
				c1.1-2.41,2.99-3.1,4.77-2.59c5.04,1.42,9.8-0.28,15.07-0.97c4.9,0.01,9.24-0.26,12.93-3.42c1.25-1.08,3.08-1.46,4.76-1.2
				c3.9,0.6,7.67,0.6,11.45-0.87c2-0.78,4,0.07,5.79,1.19c3.45,2.17,6.65,1.48,9.82-0.75c2.96-2.09,5.53-4.72,8.91-6.24
				c-2.79-0.6-5.4-1.59-8.17-1.94C583.33,855.71,581.56,855.35,581.77,852.75z"/>
			<path class="st12" d="M405.34,823.01c6.91-0.43,11.77,4.41,17.79,5.83c8.73,2.07,16.93,5.95,25.71,8.1
				c3.91,0.96,8.31,1.32,12.12,4.15c2.95,3.32,6.68,4.46,10.26,6.01c2.53,1.1,6.76,1.61,4.14,6.45c-0.9,1.66,0.99,1.67,1.88,1.59
				c5.17-0.44,9.38,1.37,12.97,5.02c1.05,1.06,2.58,1.36,4.06,1.63c8.42,1.53,8.52,1.65,9.36,10.46c-1.84,4.39-4.89,3.89-8.05,2.6
				c-3.5-1.43-7.03-2.41-11.27-1.46c-1.85,0.44-3.29,0.49-5.13,0.12c-1.99-0.81-3.42-2.18-5.77-1.15
				c-8.07-0.19-14.49-4.05-20.88-7.62c-3.54-1.98-6.41-3.05-10.31-1.05c-4.47,2.3-9.45,1.4-14.25,1.01
				c-1.11-0.09-2.23-0.54-2.63-1.76c-0.52-1.59,0.72-2.27,1.69-3.15c1.61-1.46,5.22-1.6,3.95-5.05c-1.22-3.29-3.75-4.29-7.36-5.38
				c-12.12-3.64-20.09,3.41-29.05,9.57c-0.84,0.21-1.33,0.22-2.18,0.2c-0.89-0.83-1.75-1.16-2.85-1.75
				c-1.37-1.07-2.71-1.52-4.1-2.57c-1.88-2.07-4.2-3.19-5.6-5.72c-0.68-1.91-2.18-2.05-3.76-2.71c-4-6.06-9.68-10.07-14.42-15.5
				c-1.61-2.4-5.42-3.24-3.33-7.28c0.4-2.11-0.31-4.38,1.84-5.25c1.81-0.73,4.11,0.06,4.91,1.58c1.42,2.66,7.38,1.62,5.45,6.87
				c-0.24,0.65,1,0.9,1.73,0.85c1.16-0.08,1.94-0.5,2.47-1.76c0.79-1.88,1.05-1.85,1.96-0.11c1.28,2.45,2.64,4.89,3.56,7.47
				c1,2.79,2.15,5.43,5.51,5.22c3.02-0.19,4.1-2.77,4.8-5.4c0.24-0.89,0.63-1.73,1.25-2.85c1.06-1,2.01-1.08,2.83-0.6
				c3.25,1.92,4.32,1.13,4.46-2.69C399.22,823.64,401.11,821.41,405.34,823.01z"/>
			<path class="st10" d="M405.53,822.85c-3.4,0.2-5.83,1.28-5.26,5.36c0.24,1.73,1.8,3.67-0.62,4.82c-2.04,0.97-3.41-0.69-4.82-1.9
				c-0.54-0.46-1.27-0.7-2.32-1.09c-0.12-5.76-7.13-7.27-7.64-12.54c-0.01-0.12-0.83-0.34-0.91-0.24c-4.17,5.26-5.32-0.94-7.81-2.02
				c-2.19-0.95-4.43-2.51-6.66-2.51c-6.32-0.01-7.2-3.51-6.43-9.04c3.37-2.72-0.25-6.36,1.97-9.15c0.46-2.63,2.2-2.51,4.27-2.52
				c1.51,8.39,7.45,13.21,13.62,17.81C389.86,815.01,398.17,817.81,405.53,822.85z"/>
			<path class="st11" d="M350.12,800.95c-0.47-5.98-0.48-11.95-0.47-18.45c3-1.55,4.87-1.39,4.53,2.68
				c-0.33,4.03-0.16,8.1-0.05,12.15C354.21,799.91,353.21,801.15,350.12,800.95z"/>
			<path class="st11" d="M349.89,739.88c1.36-1.13,2.91-1.58,3.76-2.6c0.95-1.14,0.58-3.67,3.03-3.12c3.21,0.71-0.77,2.64,0.53,3.96
				c1.38,1.41,2.37,3.8-0.2,4.34C354.69,742.95,350.98,744.88,349.89,739.88z"/>
			<path class="st12" d="M743.05,810.23c1.28-2.5,2.7-4.71,6.12-4.81c0.54,0.14,0.67,0.29,0.9,0.71c0.09,0.27,0.19,0.8,0.47,0.84
				c0.47,0.11,0.66,0.18,1.05,0.47c0.21,0.58,0.24,0.96,0.2,1.33c-0.21,2,0.95,4.67-0.71,5.85c-2.13,1.5-3.33-1.54-5.07-2.35
				C745.04,811.81,744.16,811.15,743.05,810.23z"/>
			<path class="st11" d="M753.95,770.88c0.72,0.89,1.21,1.45,1.66,2.04c1.07,1.4,3.73,2.69,2.36,4.45
				c-1.29,1.67-3.95,2.31-6.06,3.29c-0.34,0.16-0.98-0.32-1.48-0.51C753.22,777.53,749.64,772.74,753.95,770.88z"/>
			<path class="st11" d="M736.58,776.25c-1.39-7.13,3.31-0.24,4.82-2.08c1.19,0.59,2.01,1.73,2.86,1.75
				c5.14,0.14,3.38,2.41,1.22,4.85C741.84,780.31,740.91,775.65,736.58,776.25z"/>
			<path class="st12" d="M751.38,827.79c0.12,2.5,1.37,5.33-1.44,7.59c-0.79-0.39-1.15-1.04-1.64-1.57c-1.55-1.7-5.21-2.94-4.4-4.95
				C744.91,826.35,748.49,828.26,751.38,827.79z"/>
			<path class="st12" d="M364.88,794.26c0.53,2.11,0.23,4.18,1.5,6.23c2,3.2-0.95,2.42-2.91,2.7c-0.58-2.18-0.54-4.4-0.96-6.53
				C362.14,794.78,362.95,794.36,364.88,794.26z"/>
			<path class="st5" d="M358.15,823.29c-0.74,3.86,3.12,4.07,4.8,6.31c-1.02,1.32-2.22,1.61-3.96,0.68
				c-1.6-2.46-4.17-3.65-4.79-6.65C355.35,823.27,356.53,823.28,358.15,823.29z"/>
			<path class="st13" d="M687.02,770.11c0.81-1.85,1.99-2.64,4.09-2.47c-0.13,1.36-0.56,2.71-1.19,3.96
				c-0.43,0.85-0.77,2.35-2.13,1.78C686.69,772.92,687.1,771.53,687.02,770.11z"/>
			<path class="st13" d="M407.75,758.06c1.76-0.22,3.48,0.08,4.56,2.23C410.58,760.51,408.18,761.59,407.75,758.06z"/>
			<path class="st12" d="M362.68,785.38c0.37,0.77,0.37,1.61,0.37,2.87c-0.74,1.24-1.59,1.46-2,0.27
				C360.64,787.28,360.75,786,362.68,785.38z"/>
			<path class="st12" d="M400.29,762.8c-1.54-1.51-0.55-1.82,0.63-1.94c0.7-0.07,1.57,0.05,1.62,0.88
				C402.61,763.05,401.45,762.77,400.29,762.8z"/>
			<path class="st12" d="M354.47,778.53c-0.38-1.12-0.37-2.31-0.36-3.93C357.17,775.11,357.12,776.6,354.47,778.53z"/>
			<path class="st10" d="M413.7,767.26c-1.54-1.51-0.55-1.82,0.63-1.94c0.7-0.07,1.57,0.05,1.62,0.88
				C416.02,767.52,414.86,767.24,413.7,767.26z"/>
			<path class="st13" d="M387.67,744.46c0.56-0.13,1.17,0.04,1.97,0.48C388.87,746.27,388.18,746.03,387.67,744.46z"/>
			<path class="st13" d="M392.12,747.3c-0.11,0.67-0.11,1.49-1.02,1.68c-0.19,0.04-0.46-0.37-0.69-0.57
				c0.37-0.34,0.75-0.68,1.44-1.07C392.18,747.29,392.1,747.34,392.12,747.3z"/>
			<path class="st10" d="M369.44,774.18c0.21,0.66,0.2,1.45-0.7,1.61c-0.19,0.03-0.45-0.36-0.68-0.56
				C368.42,774.9,368.78,774.56,369.44,774.18z"/>
			<path class="st12" d="M358.13,770.84c-0.44,0.8-0.88,0.81-1.27,0.24c-0.08-0.12-0.08-0.4,0.01-0.51
				C357.27,770.01,357.71,770.03,358.13,770.84z"/>
			<path class="st13" d="M418.97,763.64c0.93-0.43,1.67-0.11,2.09,1.24C420.25,765.14,419.41,764.95,418.97,763.64z"/>
			<path class="st12" d="M394.66,765.16c-0.33-0.45-0.33-0.95-0.33-1.81c0.57-0.11,1.42,0.01,1.65,0.45
				C396.33,764.47,395.68,764.92,394.66,765.16z"/>
			<path class="st13" d="M414.51,761.31c0.96-0.44,1.78-0.19,2.19,1.27C415.82,762.9,414.95,762.71,414.51,761.31z"/>
			<path class="st2" d="M872.5,568.93c1.39,0.78,1.36,2.19,0.27,3.96C872.48,571.9,872.47,570.65,872.5,568.93z"/>
			<path class="st13" d="M403.33,754.66c0.93-0.4,1.69-0.09,2.09,1.28C404.58,756.21,403.75,755.99,403.33,754.66z"/>
			<path class="st13" d="M400.31,753.79c0.33-0.18,0.53-0.13,0.62-0.07c-0.07,0.89,0.06,2.23-1.2,1.88
				C398.87,755.37,399.41,754.47,400.31,753.79z"/>
			<path class="st2" d="M863.54,399.1c0.79,0.14,1.15,0.78,0.27,1.85C863.55,400.6,863.54,400.05,863.54,399.1z"/>
			<path class="st13" d="M477.82,872.19c1.85,0.26,3.4,0.26,5.42,0.26c4.97-0.37,7.34,3.08,10.13,5.6c3.06,2.77,5.66,4.89,8.72-0.09
				c1.79-2.91,5.12-2.8,8.02-2.3c3.23,0.55,5.34-0.37,7-3.54c1.16-0.57,1.98-0.56,3.13,0.06c0.56,0.78,1.11,1.44,0.95,1.78
				c-3.55,7.89,2.38,6.17,6.39,6.3c2.41,0.08,4.82,0.03,7.23,0c1.47-0.02,3.34,0.12,3.47-1.88c0.35-5.35,4.67-4.45,6.84-3.24
				c4.49,2.49,9.02,1.41,14.04,1.79c-3.87,5.39-1.31,12.92-5.64,18.71c-15.09,1.46-29.77,0.93-44.43,0.54
				c-5.92-0.16-11.9,0.12-18.28-1.11c-7.86-0.15-14.68-2.65-21.61-4.66c-6.63-1.92-12.77-5.99-20.66-4.61
				c-0.7-1.3-0.52-3.72-1.31-3.58c-6.34,1.13-9.58-6.4-15.85-5.36c-2.43,0.4-5.24,0.74-6.35-2.81c-0.51-1.62-2.35-1.59-3.86-1.56
				c-2.09,0.03-3.76-0.03-4.9-2.53c-1.49-3.27-4.94-1.54-8.02-1.98c-1.67-1.09-1.86-2.56-2.07-4.03c-0.26-1.74-0.76-3.29-3.41-3.23
				c-2.9,0.04-5.4,0.29-8.07-1.26c-0.39-0.27-0.42-0.29-0.44-0.3c0.16-1.28-0.15-3.17,1.1-3.56c7.44-2.3,12.66-9.56,21.49-9
				c3.62,0.23,6.75,2.85,11.12,1.13c1.74-0.69,3.79,5.48,6.1,8.3c1.33,1.63-2.11,2.32-3.46,3.36c-0.87,0.67-1.84,1.25-2.81,1.77
				c-0.62,0.34-1.54,0.44-1.46,1.33c0.09,0.93,1.01,1.05,1.72,0.99c5.22-0.46,10.71,1.5,15.6-2.16c3.09-2.32,5.85-0.57,8.56,1.4
				c6.15,4.47,13.31,6.63,20.98,8.63C474.96,871.4,476.31,871.17,477.82,872.19z"/>
			<path class="st14" d="M554.48,895.16c-0.43-4.17,1.1-7.8-0.25-11.78c-1.46-4.31,3.83-3.43,5.35-6.06c0.92-0.4,1.76-0.4,3.01-0.4
				c1.66,0.01,2.9,0.01,4.51,0c8.54,0.33,16.62-0.39,24.63-1.97c0.18-0.04,0.38-0.14,0.54-0.11c11.93,2.4,20.17-6.18,29.87-10.27
				c2.82-1.19,5.8-1.78,7.93-0.6c3.6,1.99,5.02,0.9,7.07-2.03c2.16-3.08,5.19-5.44,7.63,0.09c0.44,0.99,1.2,1.45,2.17,1.4
				c8.6-0.38,16.9,2.6,25.49,2.29c1.24-0.04,3.21,0.62,3.56-0.67c0.61-2.25-1.89-0.44-2.61-1.44c-0.85-1.19-1.31-2.55-0.38-3.56
				c1.6-1.74,4.75-1.67,5.49-0.39c2.15,3.71,5.16,4.04,8.79,4.03c2.06-0.01,1.87,1.91,1.95,3.85c-3.12,0.11-5.52,1.92-8.25,2.87
				c-5.64,1.95-9.95,7.28-16.6,6.58c-1.68-0.18-2.92,0.44-3.02,2.84c-3.82,1.1-7.6,2-11.53,1.67c-1.56-0.13-2.93,0.34-3.87,1.7
				c-1.29,1.87-3.41,2.37-5.34,2.54c-9.02,0.78-17.39,4.4-26.36,5.78c-7.38,1.14-14.82,2.26-22.73,3.31
				c-3.17,1.05-5.97,0.31-9.18,0.24c-0.91-0.21-1.35-0.2-2.12-0.2C571.6,896.47,563.26,896.53,554.48,895.16z"/>
			<path class="st15" d="M553.56,894.78c8.77,0,17.02,0.01,25.81,0.05c0.01,2.64-2.09,2.09-3.87,2.22
				c-20.14,1.45-40.31,1.51-60.46,0.98c-8.03-0.21-16.24-0.29-24.43-2.88C511.21,894.82,532.12,894.8,553.56,894.78z"/>
			<path class="st15" d="M582.2,895.16c2.4-0.33,5.11-0.35,8.34-0.35C588.35,896.82,585.43,896.06,582.2,895.16z"/>
			<path class="st0" d="M716.46,857.92c-0.39-3.99-0.48-8.02-0.35-12.05c0.04-1.31-0.88-3.42,1.01-3.77
				c1.62-0.3,0.79,2.16,1.77,2.87c2,1.48,1.14,5.89,5.73,5.15c1.12,3.57-2.84,3.57-4.07,6.1
				C719.23,857.01,718.03,857.45,716.46,857.92z"/>
			<path class="st0" d="M402.95,859.44c7.28-0.87,3.99,4.49,4.79,8.01c-0.5,0.5-1.01,0.52-1.9,0.56c-0.38,0.02-0.37,0-0.38,0
				C402.44,866,400.86,863.49,402.95,859.44z"/>
			<path class="st2" d="M358.67,830.37c1.11-0.37,2.29-0.37,3.91-0.37c4.29,3.74,7.84,7.9,12.13,11.05c2.1,1.54,0.22,3,1.48,4.37
				c0.64,0.56,0.84,0.97,0.5,2.03C368.56,844.18,364.38,836.72,358.67,830.37z"/>
			<path class="st2" d="M380.51,847.6c0.65,3.17,4.53,3.35,4.75,6.83c-0.07,0.62-0.58,0.53-0.83,0.43c-4-0.58-5.35-4.13-8.02-6.48
				c-0.09-0.37-0.01-0.44,0.03-0.47C377.57,846.96,378.77,846.68,380.51,847.6z"/>
			<path class="st15" d="M385.4,854.58c1.54,0.21,3.43-0.64,4.39,1.86c0.5,0.83,0.66,1.34,0.32,2.28c-1.31,0.23-2.37,0.12-3.81-0.11
				c-0.57-0.78-0.76-1.45-1-2.45c-0.15-0.56-0.25-0.77-0.14-1.27C385.38,854.6,385.39,854.58,385.4,854.58z"/>
			<path class="st7" d="M385.08,854.62c0.29,0.18,0.28,0.38,0.22,0.88c-0.36,0.15-0.62-0.06-0.98-0.53
				C384.37,854.72,384.57,854.69,385.08,854.62z"/>
			<path class="st7" d="M402.75,859.06c0.37,2.92,0.34,5.83,2.65,8.55c-4.62-0.94-8.82-2.96-11.13-8.01
				C396.94,859.13,399.6,859.1,402.75,859.06z"/>
			<path class="st7" d="M390.23,859.08c-0.36-0.52-0.36-1.01-0.36-1.88c1.02-0.29,1.89,0,2.13,1.54
				C391.55,859.1,391.07,859.11,390.23,859.08z"/>
			<path class="st16" d="M289.64,466.15c1.41-3.23,2.12-6.29,1.98-9.75c-0.28-6.82,3.15-13.03,4.04-19.52
				c1.32-9.65,5.54-18.31,7.73-27.65c2.67-11.37,8.2-22.11,13.7-32.59c6.74-12.86,15.81-24.11,24.2-35.89
				c9.71-13.64,20.66-26.02,33.17-36.88c11.69-10.15,23.51-20.24,36.77-28.54c10.37-6.49,20.84-12.98,31.99-17.69
				c9.38-3.97,19.05-7.65,28.84-10.75c9.42-2.99,18.89-5.85,28.39-8.55c3.99-1.13,8.45-1.8,12.24-2.04
				c7.54-0.48,14.85-2.33,22.24-3.23c11.42-1.39,22.85-2.67,34.15-1.53c9.33,0.94,18.86,1.03,28.06,3.82
				c5.16,1.56,10.81,1.14,16.27,2.1c8.16,1.43,15.52,5.21,23.37,6.5c8.63,1.42,16.34,4.99,24.21,7.94
				c10.48,3.93,20.99,8.26,30.64,14.14c12.13,7.39,24.66,14.07,35.35,23.77c8.39,7.61,18.21,13.64,26.7,21.16
				c5.85,5.18,10.93,11.39,15.61,17.7c5.79,7.79,11.33,15.75,17.23,23.47c6.65,8.7,11.41,18.67,16.54,28.34
				c3.68,6.93,7.31,13.9,10.47,21.06c1.59,3.61,2.04,7.71,3.07,11.57c2.46,9.25,4.31,18.75,7.72,27.64
				c1.74,4.54,1.97,9.39,2.72,13.72c1.16,6.7,3.52,13.46,3.04,20.54c-0.87,12.93,3.79,25.6,2.14,38.6
				c-0.24,1.91,0.89,4.16-1.72,5.76c-3.21,2.1-4.29-2.76-6.75-1.24c2.52,0.67,4.44,2.33,4.54,5.26c0.09,2.73-2.44,2.91-4.23,3.69
				c-1.71,0.74-3.51,1.34-4.51,3.08c-0.75,1.31-1.57,2.88-0.76,4.2c1.1,1.78,2.19-0.15,3.21-0.54c1.84-0.71,2.74,0.18,3.55,1.64
				c2.2,3.97,1.37,8.92-2.08,12.02c-3.71,3.34-4.14,6.05-1.33,10.14c1.27,1.85,2.96,3.45,1.46,6.28c-0.24,0.31-0.3,0.27-0.27,0.29
				c-5.7,4.11-4.07,9.59-2.59,15.3c0.21,1.3-0.01,2.18-1.51,2.51c-6.08-1.36-12.19-0.66-17.73-3.07c-0.5-0.22-0.93-0.69-1.48-0.34
				c-6.11,3.84-5.72-1.83-7.17-5.26c-0.07-1.47,0.05-2.52,0.51-3.92c0.42-1.68,3.32-1.11,2.16-3.72c-1.26-5.04,2.2-8.97,2.1-13.89
				c0.47-1.44,1.25-2.27,1.62-3.72c0.17-2.01,0.2-3.63,0.84-5.56c0.7-1.19,1.5-1.62,2.42-1.84c3.39-0.8,1.38-2.02,0.04-3.53
				c-1.17-10.51-2.16-20.67,0.67-30.72c0.41-1.46,0.73-3.01,0.13-4.39c-2.39-5.52-1.78-11.33-1.73-17.07
				c0.07-8.97-2.03-17.61-3.82-26.29c-0.82-3.97-0.12-8.28-2.95-12.25c-2.59,8.86-4.58,17.63-7.29,26.2
				c-4.29,13.51-10.88,26.05-15.57,39.36c-6.53,18.49-18.63,33.77-28.89,50.05c-3.75,5.96-8.99,11.29-13.56,16.87
				c-8.02,9.8-16.86,18.77-25.7,27.79c-17.22,17.56-37.62,30.66-58.7,42.93c-12.39,7.21-25.04,13.8-38.26,19.39
				c-16.51,6.98-33.68,11.46-51.09,15.46c-12.85,2.95-25.94,4.6-38.89,5.78c-14.83,1.35-30.03,2.56-44.9-1.18
				c-3.45-0.87-7.08,0.09-10.9-1.12c-2.86-5.74,2.03-3.56,3.81-4.38c-2.47,0.13-4.77-1.16-7.09-2.25c-2.36-1.11-3.64-3.11-1.69-5.34
				c2.4-2.75,1.91-4.87-0.37-7.22c-1.05-1.08-1.2-2.7-1.85-4.03c-0.71-1.45-2.38-3-3.42-1.97c-3.93,3.9-10.79,4.13-12.6,10.85
				c-0.93,3.46-0.59,4.72,2.92,5.32c2.19,0.38,6.1,0.21,2.62,4.61c-5.22,1.66-9.47-0.74-14.28-2.06c-1.2-0.6-1.68-1.22-1.83-2.2
				c-0.17-1.13,1.36-2.74-0.25-3.28c-1.53-0.51-2.15,1.52-3.54,2.58c-1.33,0.69-2.38,0.74-3.83,0.42c-3.24-1.68-4.33-4.89-6.99-7.17
				c-1.29-1.62-3.11-1.66-4.44-2.88c1.1,1.48,3.04,1.21,4.28,2.81c0.89,1.37,0.85,2.47,0.22,3.97c-5.3,3.34-9.49-0.47-13.98-1.56
				c-2.67-0.64-5.03-2.37-7.94-3.71c-1.37-0.66-2.17-1.46-3.63-1.87c-2.66-0.35-4.66-1.2-6.51-3.19c-1.3-2.51-3.38-3.24-5.4-4.26
				c-4.24-2.12-5.97-7.9-3.88-12.04c1.53-3.03,5.32-4.44,8.03-2.93c1.63,0.9,3.03,2.7,1.57,4.03c-3.94,3.59-0.25,3.59,1.78,4.46
				c4.29,1.84,8.5,3.64,11.06,8.02c1.98,3.38,5.29,3.18,8.4,1.79c5.26-2.36,10.68,0.46,15.95-0.72c0.33-0.07,0.82,0.06,1.05,0.31
				c2.32,2.61,4.17,5.7,8.66,3.12c2.87-1.65,6.13-2.57,8.22-5.4c0.42-0.56,1.29-0.69,1.75-1.54c-5.15,3.69-10.51-1.17-15.7,0.63
				l-10.71-14.21c-0.04-2.46,1.65-3.12,3.62-3.39c2.78-0.37,5.58-0.13,8.37-0.23c3.88-0.13,5.65-1.95,4.2-5.76
				c-1.07-2.81-0.9-5.43,0.1-8.14c0.25-0.68,0.3-1.58-0.52-1.94c-0.75-0.33-1.43,0.18-2,0.69c-1.78,1.59-1.66,3.59-1.18,5.67
				c0.63,2.7,0.58,5.39-2.04,6.97c-2.7,1.62-5.81,1.49-8.64,0.38c-2.86-1.11-2.89-4.23-0.27-6.8c1.1-1.08,3.51-1.42,2.57-3.66
				c-0.83-1.98-2.93-2.18-4.8-2.18c-3.34,0.01-6.08-1.28-8.71-3.23c-3.4-2.52-4.28-5.08-0.25-8.38c-2.9-0.84-6.53,1.36-7.95-1.62
				c-1.82-3.82-4.41-7.47-4.89-11.76c-0.37-3.3,1.98-4.7,5.03-4.37c2.9,0.31,5.27,1.67,5.76,3.34c-2.13-4.15-9.01-9.1-2.79-16.45
				c-0.75-0.37-2.15-0.06-3.48,0c-4.91,0.22-5.32,0.86-3.23,5.18c0.92,1.9,2.2,3.87-0.04,5.45c-2.58,1.83-4.11-0.32-5.42-2.14
				c-1.36-1.89-3.41-2.81-5.14-4.18c-4.02-3.19-9.39-4.56-12.23-9.4c-0.93-1.59-3.05-2-5.32-1.73c6.05,2.58,7.61,8.33,10.09,13.45
				c0.75,1.54,1,3.26,3.88,2.83c4.11-0.6,5.75,2.25,3.57,5.83c-3.76,6.16-9.66,10.14-15.7,13.63c-3.37,1.95-7.7-1.31-7.33-5.47
				c0.34-3.85-1.14-4.19-4.12-3.37c-1.26,0.35-2.53,0.67-3.85,0.51c-1.54-0.18-2.95-0.7-3.72-2.13c-0.92-1.72,0.22-2.91,1.47-3.74
				c3.18-2.13,2.23-3.95,0.03-6.22c-2.36-2.43-3.37-6.45-7.94-6c-0.72,0.07-1.31-0.64-1.61-1.37c-1.28-3.07-3.11-3.48-5.78-1.02
				c-1.3,1.2-3.26,2.6-2.51,4.57c0.61,1.61,2.67,0.57,4.07,0.7c1.51,0.13,2.96,0.42,4.25,1.21c1.53,0.94,2.6,2.23,2.1,4.14
				c-0.54,2.07-2.35,2.48-4.01,2.09c-4.48-1.05-9.11-1.57-13-4.61c-3.33-2.6-4.9-5.12-1.65-8.75c1.88-2.1,1.01-2.8-1.36-2.87
				c-0.74-0.02,0.18,0.05-0.56,0c-3.48-0.26-7.95,0.48-9.41-3.29c-1.62-4.19,2.4-7.05,4.88-9.89c1.29-1.47,2.34-1.97,1.05-4.36
				c-2.64-4.89,0.37-9.06,5.94-8.37c3.66,0.45,7.01,0.57,10.06-2.16c-5.43,5-9.71-1.35-14.7-1.28c-1.34,0.02-1.52-2.35-1.62-3.83
				c-0.2-2.79-0.08-5.58-0.02-8.37c0.03-1.28,0.19-2.83-1.58-3.07c-1.54-0.21-2.28,0.98-2.82,2.24c-0.14,0.34-0.24,0.7-0.33,1.06
				c-0.57,2.11-0.59,4.77-3.64,4.83c-3.06,0.06-5.22-1.77-6.86-4.16c-1.62-2.35-0.02-4.13,1.15-6.06c2.38-3.94,5.33-5.75,10.33-6.06
				c5.11-0.32,10.76-0.9,14.87-5.24c2.44-2.58,3.63-5.1,1.81-8.46c-4.14,7.32-10.99,10.99-18.57,13.25
				c-5.23,1.56-8.16-1.61-6.95-7.12c0.38-1.72-0.46-2.18-1.39-3.14c-3.27-3.34-2.85-5.49,1.42-7.53c2.17-1.04,4.39-2.04,6.85-2.31
				c1.29-0.14,2.82-0.14,3.57-1.28c1.4-2.12,3.84-4.47,2.84-6.87c-0.95-2.27-3.64-0.39-5.53-0.04c-2.07,0.39-3.44-0.29-3.37-2.46
				c0.1-3.16-1.72-4.17-4.37-4.71c-1.91-0.39-3.33-1.65-4.27-3.34c-0.97-1.74-1.21-3.64,0.09-5.25c1.49-1.86,3.41-1.28,4.99-0.13
				c2.41,1.77,5.27,2.78,7.54,4.76c0.82,0.72,1.84,1.69,2.86,0.52c0.69-0.78,0.08-1.81-0.53-2.5c-3.29-3.76-7.94-6.07-10.93-10.18
				c-0.51-0.7-1.71-0.59-2.65-0.61c-7.33-0.17-8.13-0.93-8.78-8.43C290.37,467.83,290.29,467.1,289.64,466.15z"/>
			<path class="st17" d="M289.37,466.36c4.2,0.71,0.97,5.25,3.64,7.49c1.44,1.21,1.25,3.22,4.34,1.81c2.63-1.2,6.19-1.15,7.88,3.23
				c1.57,4.08,6.93,4.62,9.4,8.27c2.23,3.29,1.72,5.31-1.85,6.05c-1.61,0.33-2.42-0.22-3.15-1.49c-1.91-3.32-6.09-3.57-8.58-6.31
				c-1.27-1.39-2.79,0.03-2.71,1.93c0.14,3.31,2.05,5.15,5.29,5.25c3.55,0.11,5.38,1.39,4.31,5.16c-0.68,2.38,0.07,2.98,2.03,1.57
				c1.87-1.34,3.88-1.07,5.9-1.03c1.21,0.02,2.12,0.46,2.38,1.84c0.36,1.94-4.86,10.42-6.71,10.27c-3.17-0.25-5.66,1.35-8.44,2.24
				c-1.67,0.54-3.47,0.74-3.5,2.86c-0.03,2.11,1.56,2.74,3.42,2.83c3.88,0.18,2.81,1.77,1.1,3.68c-1.03,1.15-3.18,2.21-1.65,4.09
				c1.44,1.77,3.64,2.73,6.01,2.04c2.84-0.83,5.27-2.63,8.24-3.33c3.02-0.72-2.13-3.59,0.9-4.79c2.19-0.86,3.48,2.72,5.58,1.14
				c1.78-1.34,1.89-3.49,1.9-5.6c0.01-1.49,0.08-3.28,2.07-3.32c1.59-0.03,1.79,1.67,2.19,2.85c1.81,5.27-1.39,12.9-6.88,13.69
				c-4.83,0.69-9.08,3.6-14.53,2.56c-4.88-0.93-5.54,5.16-7.9,8.05c-1.23,1.5,2.25,3.71,4.35,4.87c2.47,1.36,3.93,0.76,3.89-2.26
				c-0.02-1.51,0.13-2.98,1.01-4.27c1.28-1.88,2.79-2.58,5.22-1.89c2.72,0.77,2,2.22,1.79,4.19c-0.36,3.31-0.16,6.69-0.16,10.04
				c0,1.12,0.85,3.03,1.36,2.5c4.11-4.32,4.38,1.02,6.3,2.23c1.18,0.74,2.55,0.41,3.66-0.44c2.48-1.91,5.17-1.58,9.2-0.64
				c-5.62,2.35-9.39,6.56-15.28,4.18c-2.71-1.09-4.85-0.04-5.98,2.49c-1.11,2.48,0.26,4.26,2.33,5.58c0.74,0.47,2.1,0.92,2.11,1.4
				c0.03,1.63-1.58,1.12-2.53,1.37c-4.4,1.18-5.06,5.67-7.45,8.58c-1.29,1.56,0.96,2.22,2.34,2.8c3.25,1.36,6.63,0.52,9.94,0.79
				c0.92,0.08,1.93-0.01,2.42,0.98c0.66,1.35-0.44,1.89-1.22,2.69c-4.73,4.8-3.86,8.44,3.01,10.54c2.79,0.85,5.73,1.42,8.57,2.27
				c1.22,0.36,2.76,0.61,3.22-1.14c0.4-1.53-0.64-2.39-1.97-2.9c-1.93-0.75-3.81-1.04-5.93-0.35c-1.54,0.5-3.49,0.55-4.5-1.2
				c-1.03-1.78,1.03-2.48,1.56-3.72c2.27-5.3,7.24-5.44,11.79-6.43c0.89-0.19,1.86-0.73,2.35,0.48c0.44,1.1-0.28,1.72-1.24,2.07
				c-1.23,0.46-2.93,0.98-2.21,2.54c0.72,1.54,2.26,0.32,3.46,0.05c2.04-0.47,3.13,0.58,3.68,2.45c0.65,2.17,1.55,4.07,3.7,5.32
				c3.88,2.24,3.16,4.41-0.31,6.5c-1.07,0.64-3.56,0.72-2.47,2.79c0.77,1.46,2.65,1.9,4.47,1.19c1.21-0.47,2.44-0.95,3.7-1.24
				c3.97-0.91,5.39,0.62,4,4.52c-0.72,2.01-1.07,3.8,1.18,4.66c1.74,0.66,3.89,2.29,5.57-0.04c3.03-4.2,8.63-5.3,11.44-9.73
				c0.79-1.24,1.92-2.25,2.75-3.47c0.84-1.24,0.67-2.54-0.52-3.48c-1.12-0.88-2.09-0.3-2.86,0.65c-2.52,3.12-2.77,1.66-3.99-1.26
				c-2.52-6.03-4.01-13.1-11.3-15.8c-1.17-0.44-2.08-1.02-1.46-2.4c0.45-1,1.59-1.17,2.41-0.84c3.22,1.28,7.06,0.65,9.08,5.19
				c1.74,3.92,7.04,4.71,10.54,7.29c2.07,1.53,4.39,2.42,5.43,5.05c0.55,1.39,1.52,2.88,3.35,1.56c1.47-1.06,0.7-2.24-0.23-3.31
				c-1.59-1.82-3.75-3.78-2.59-6.3c1.38-3,4.6-1.54,7.06-1.8c1.29-0.14,2.61-0.1,3.9,0c1.38,0.11,3.45-0.59,3.73,1.4
				c0.33,2.3-1.83,1.76-3.18,1.92c-1.31,0.15-3.35,0.36-2.71,1.85c1.21,2.81-0.84,6.73,2.74,8.58c3.58,1.85,2.32,5.5,3.33,8.29
				c0.3,0.81-0.55,1.89-1.56,1.94c-1.58,0.09-1.07-1.08-0.85-1.92c1-3.82-1.95-4.78-4.41-5.99c-1.4-0.69-2.92-0.7-4.17,0.45
				c-1.37,1.26-0.79,2.62-0.23,4.08c1.19,3.07,3.54,5.51,4.02,9.07c0.36,2.6,2.88,1.25,4.62,0.85c2-0.46,4.52-1.17,5.43,1.17
				c0.87,2.23-1.79,2.26-3.15,2.93c-2.35,1.15-1.91,2.82-0.28,3.81c3.06,1.84,5.65,4.94,9.95,4.04c2.3-0.48,4.32,0.34,5.99,2.18
				c2.08,2.28,1.59,4.3-0.9,5.29c-2.2,0.87-5.04,1.47-3.8,4.17c1.57,3.44,5.35,1.79,7.99,1.4c2.55-0.37,3.24-2.87,2.23-5.3
				c-1.32-3.16-1.79-5.93,1.57-8.26c1.6-1.11,3.12-2.56,4.91-1.14c1.46,1.16,1.23,3.29,0.22,4.61c-2.06,2.69-1.39,4.81,0.04,7.6
				c2.02,3.98-0.38,7.14-4.98,7.25c-2.98,0.07-5.96-0.01-8.93,0.03c-1.25,0.02-2.78-0.22-3.1,1.57c-0.22,1.27,0.57,2.25,1.64,2.64
				c4.35,1.57,6.4,4.78,7.07,9.16c0.1,0.65,0.65,1.23,0.99,1.85c4.26-4.54,9.12,3.1,13.51-0.67c1.1-0.95,2.63-1.39,4.21-1.02
				c0.97,0.23,1.77,0.73,1.93,1.74c0.15,0.9-0.6,1.25-1.33,1.47c-4.87,1.51-7.38,6.68-12.65,7.84c-3.69,0.82-7.02,2.36-8.24-2.89
				c-0.27-1.18-1.12-1.88-1.84-1.47c-5.08,2.9-10.63-2.05-16.12,1.56c-2.95,1.94-7.89,1.61-9.86-3.94
				c-1.51-4.24-6.34-4.78-9.92-6.57c-1.48-0.74-3.19-1.01-4.73-1.63c-1.1-0.45-1.81-1.37-1.57-2.64c0.25-1.32,1.23-1.09,2.17-0.83
				c1.57,0.43,2.76-0.17,2.7-1.77c-0.08-1.93-1.77-2.14-3.31-2.16c-2.83-0.04-4.7,1.36-5.04,4.15c-0.46,3.85-0.15,7.76,4.32,9.05
				c2.29,0.66,4.45,0.72,4.5,4.19c-0.94,1.79-2.54,2.15-4.21,3.1c-1.78,0.45-2.87-0.15-3.89-1.24c0.3,1.82,2.34,2.64,2.32,4.4
				c-0.05,3.55,0.12,5.67,5.15,5.5c1.92-0.06,6.79,3.28,7.78,6.87c1.34,4.87,4.67,5.02,8.85,5.15c11.66,6.26,21.32,14.8,32.13,21.66
				c8.36,5.3,17.32,9.35,26.26,13.46c10.63,4.88,21.62,8.82,32.84,12.05c8.88,2.56,17.88,4.61,26.95,6.51
				c8.76,1.84,17.64,2.14,26.37,3.27c12.74,1.66,25.91,2.29,38.76-0.83c1.27-0.31,2.55-0.57,3.85-0.57
				c16.88-0.02,32.9-4.29,48.92-9.18c12.85-3.93,25.26-8.74,37.04-15.1c14.71-7.94,28.68-16.91,41.17-28.26
				c9.99-9.08,20.14-17.96,29.54-27.64c10.92-11.26,20.04-23.89,27.49-37.68c7.68-14.22,14.75-28.75,20.8-43.75
				c0.7-1.74,1.16-3.51,1.49-5.35c0.31-1.78,0.38-3.87,3.34-3.76c0.22,2,0.76,3.53,2,4.8c0.6,0.61,0.87,1.92,2.02,1.4
				c0.46-0.21,0.62-1.21,0.79-1.88c0.22-0.84-0.17-2.11,1.02-2.27c1.42-0.19,1.63,1.3,2.1,2.2c1.25,2.38,2.51,2.71,5.33,1.79
				c3.83-1.25,7.53,0.96,11.35,2.98c1.21,3.4-1.49,5.58-2.11,8.46c-2.1,9.71-5.52,18.88-9.9,27.99
				c-8.2,17.04-18.37,32.76-29.23,48.03c-7.36,10.34-15.12,20.81-24.49,29.22c-11.06,9.92-22,20.06-34.08,29
				c-13.79,10.2-28.78,18.18-43.63,26.22c-9.95,5.39-21.16,9.11-32.25,12.59c-7.41,2.32-14.98,4.44-22.43,5.74
				c-6.18,1.07-12.96,1.37-18.76,3.2c-11.15,3.51-22.64,0.14-33.79,3.59c-5.09,1.58-11.45,1.66-17.33-1.16
				c-3.21-1.54-7.67-0.56-11.57-0.54c-10.49,0.04-20.7-1.78-30.84-4.26c-1.59-0.39-3.33-0.25-5-0.23
				c-8.34,0.08-15.96-3.06-23.69-5.52c-9.78-3.11-19.46-6.58-29.04-10.27c-5.26-2.02-10.71-4.14-15.2-7.41
				c-7.27-5.3-15.77-8.34-22.96-13.67c-8.96-6.64-18.23-12.8-27-19.77c-10.67-8.48-19.66-18.48-29.65-28.07
				c-1.75-3.76,1.18-5.12,3.09-6.98c1.19-1.16,2.92-1.48,4.06-2.86c2.85-3.46,2.63-4.41-1.73-5.76c-4.35-1.35-5.4-3.07-3.34-6.83
				c1.75-3.19,1.75-5.92-0.2-8.86c-1.36-2.05-2.02-4.39-2.51-6.77c-0.41-2-1.63-2.99-3.6-2.46c-2.67,0.71-6.6-0.73-7.84,1.61
				c-1.32,2.5,2.51,4.01,4.02,5.99c1.54,2.01,2.27,4.2,2.72,6.62c0.7,3.77,0.91,7.54,4.01,10.69c2.39,2.43,0.55,5.23-4.31,6.77
				c-8.37-5.74-12.42-14.46-17.78-22.11c-0.92-1.32-1.65-2.77-2.53-4.55c-0.65-0.98-1.22-1.59-2.02-2.42
				c-0.12-1.95-2.04-2.5-2.44-4.34c-0.61-0.91-1.15-1.46-1.93-2.31c-0.29-0.77-0.32-1.26-0.36-2.12c-0.6-0.96-1.17-1.57-1.96-2.4
				c-1.69-2.94-3.16-5.65-4.7-8.75c-0.85-2.79,0.28-5,1.66-6.46c2.08-2.2,2.99-5.12,1.36-6.78c-1.98-2.02-4.76-0.05-7.23,1.65
				c-3.95-4.2-7.18-8.68-7.02-15.16c0.38-2.16-1.05-3.09-1.89-4.66c-1.26-3.87-1.79-7.7-3.46-10.95c-1.1-2.13-1.23-4.08-1.37-6.68
				c-0.52-1.05-1.06-1.62-1.85-2.48c-0.3-2.19-0.34-4.09-0.38-6.46c-0.52-1.05-1.06-1.61-1.85-2.47c-0.31-2.92-0.36-5.56-0.42-8.69
				c0.07-1.35,0.87-1.94,0.83-2.84c-0.82,0.06-1.49,0.8-2.66,0.31c-0.31-3.62-0.35-6.99-0.39-10.87c0.07-1.36,0.87-1.96,0.81-2.87
				c-0.82,0.11-1.49,0.82-2.67,0.34c-0.3-5.84-0.33-11.44-0.36-17.55c-1.3-2.26-1-3.61,1.02-4.46c1.35-0.57,3.84,0.24,3.36-2.54
				c-0.42-2.42-2.53-2.34-4.39-2.52c-0.56-0.05-1.08-0.27-1.85-0.82c-0.3-6.98-0.32-13.71-0.31-20.95c1.07-3.26,3.99-5.4,2.45-9.18
				C289.35,478.09,289.35,472.49,289.37,466.36z"/>
			<path class="st16" d="M349.67,676.26c3.09-2.46,8.19-4.22,0.84-7.73c-1.24-0.59-0.77-2.34-0.86-3.61
				c-0.44-6.19-1.7-11.96-7.2-15.92c-1.22-0.88-3.1-2.03-2.24-4.01c0.79-1.84,2.78-1.42,4.42-1.56c3.29-0.27,6.87-1.61,9.79-0.73
				c3.7,1.12,1.18,6.07,3.25,8.63c3.48,4.3,4.9,8.3,0.33,13.06c-1.52,1.58,0.57,3.24,2.7,3.6c2.36,0.4,6.23-1.11,6.38,2.47
				c0.14,3.18-2.53,6.01-5.57,7.51c-2.78,1.38-4.88,3.22-6.22,6.39C352.19,682.87,351.94,679.1,349.67,676.26z"/>
			<path class="st17" d="M823.78,564.08c-0.54-1.72-0.58-3.3-2.2-4.86c-4.48-4.32-3.85-9.42,1.2-13c2.93-2.09,3.75-8.14,1.38-10.9
				c-1.67-1.94-2,0.39-2.77,1.05c-0.97,0.82-1.75,2.2-3.26,1.48c-1.61-0.76-1.59-2.38-1.49-3.89c0.28-4.26,2.16-7.1,6.52-8.42
				c1.33-0.4,4.52,0.68,3.96-2.47c-0.46-2.54-2.22-4.28-5.18-3.99c-0.9,0.09-1.82,0.54-2.77-0.9c3.69-1.14,7.15-3.52,10.47,1.22
				c0.37,6.42,0.33,12.77,0.28,19.63c-0.55,1.09-1.08,1.67-1.88,2.52c-0.28,3.66-0.3,7.03-0.33,10.9c-0.55,1.08-1.09,1.64-1.91,2.49
				C824.93,558.11,826.88,561.4,823.78,564.08z"/>
			<path class="st16" d="M311.62,616.06c1.26-6.43,6.5-3.45,9.85-4.7c0.64-0.24,1.28,0.94,0.73,1.59c-1.94,2.25-1.64,4.3,0.12,6.45
				c0.13,0.15-0.5,1.24-0.59,1.21c-5.05-1.38-2.63,4.48-5.43,5.74C312.7,624.15,313.27,619.84,311.62,616.06z"/>
			<path class="st18" d="M584,795.58c-15.06,1.41-30.35,0.75-46.15,0.78c-2.51-1.89-1.54-2.15,0.5-2.14
				c10.4,0.04,20.8-0.11,31.19,0.07C574.28,794.38,579.13,793.27,584,795.58z"/>
			<path class="st16" d="M287.15,514.35c2.86,0.17,7.07-3.6,8.27,2.47c0.72,3.63,0.7,5.64-3.71,4.36c-1.89-0.55-2.28,0.44-2.38,2.35
				C284.95,521.78,287.99,517.84,287.15,514.35z"/>
			<path class="st17" d="M821.01,579.29c-5.09-4.52-4.31-12.66,1.91-15.12C824.52,569.37,821.34,573.87,821.01,579.29z"/>
			<path class="st16" d="M289.32,484.13c5.08,3.39,0.38,5.65-1.77,8.44C286.16,489.5,288.57,487.25,289.32,484.13z"/>
			<path class="st16" d="M289.42,542.13c0.32-0.45,0.67-0.57,1.02-0.64c1.83-0.37,0.58-4.27,2.54-3.12
				c1.51,0.88,1.63,3.86-1.05,5.59C290.51,543.94,289.65,543.65,289.42,542.13z"/>
			<path class="st16" d="M291.66,555.53c0.33-0.45,0.67-0.57,1.02-0.64c1.83-0.38,0.56-4.28,2.54-3.12c1.5,0.87,1.63,3.88-1.09,5.59
				C292.72,557.36,291.87,557.05,291.66,555.53z"/>
			<path class="st16" d="M302.79,595.82c1.43,0.39,3.09,0.94,4.21,2.05c1.9,1.88-0.12,1.78-1.66,2
				C302.6,599.64,302.76,597.89,302.79,595.82z"/>
			<path class="st16" d="M828.14,541.77c-0.29-0.93-0.06-1.81,1.42-2.16C829.9,540.58,829.64,541.43,828.14,541.77z"/>
			<path class="st16" d="M327.4,647.15c0.97-0.25,1.82,0.05,2.09,1.56C328.55,648.91,327.66,648.66,327.4,647.15z"/>
			<path class="st16" d="M825.89,555.15c-0.28-0.94-0.03-1.81,1.46-2.15C827.68,553.98,827.39,554.83,825.89,555.15z"/>
			<path class="st16" d="M320.7,635.97c0.96-0.25,1.82,0.05,2.09,1.55C321.84,637.75,320.96,637.49,320.7,635.97z"/>
			<path class="st16" d="M322.96,640.44c0.96-0.24,1.76,0.1,2.06,1.53C324.09,642.21,323.2,641.96,322.96,640.44z"/>
			<path class="st16" d="M296.15,575.65c0.98-0.24,1.82,0.08,2.06,1.58C297.26,577.44,296.36,577.18,296.15,575.65z"/>
			<path class="st16" d="M293.91,566.71c0.98-0.24,1.81,0.08,2.06,1.57C295.03,568.5,294.13,568.25,293.91,566.71z"/>
			<path class="st19" d="M503.04,872.79c-0.71-1.76-1.38-3.19-1.37-4.61c0.04-3.7-1.84-5.03-5.21-4.64
				c-3.79,0.44-6.94-0.57-9.2-3.74c-2.92-4.11-7.25-2.73-11.18-3c-1.55-0.11-3.66,0.74-4.32-1.39c-0.54-1.74,0.99-2.43,2.41-3.13
				c2.17-1.08,0.98-1.71-0.45-2.31c-3.32-1.39-6.54-3.09-9.95-4.2c-2.12-0.69-2.45-1.91-2.41-4.12c1.18-0.42,2.37-0.4,3.99-0.34
				c1.5,1.2,3.2,0.75,4.62,1.88c0.25,0.26,0.3,0.24,0.29,0.27c1.04,1.29,2.79,0.83,4.29,1.9c0.76,0.24,1.24,0.26,2.07,0.3
				c1.38,1.34,3.15,0.86,4.66,1.92c8.02-0.9,15.21,2.43,22.75,3.14c4.4,0.42,8.4-1.2,12.64-0.55c21.33,3.25,42.82,2.02,64.79,2.25
				c4.04,3.82,9.38,2.17,13.45,4.36c0.98,0.53,3.05-0.63,2.96,1.36c-0.06,1.21-1.8,0.89-2.84,0.9c-4.25,0.04-6.23,3.77-9.12,5.85
				c-4.41,3.17-8.36,4.7-12.98,0.81c-0.54-0.45-1.59-1.12-1.88-0.92c-6.57,4.5-15.6-2.24-21.64,4.83c-2.24,2.62-5.24,0.46-8.32,0.62
				c-8.24,0.28-16.05,0.24-23.86,0.05c-2.42-0.06-4.66,1.13-6.94,2.99C507.69,874.14,505.51,874.23,503.04,872.79z"/>
			<path class="st13" d="M470.15,843.04c-1.41,0.17-3.22,0.95-4.26-1.33C467.34,841.41,469.16,840.58,470.15,843.04z"/>
			<path class="st13" d="M474.74,845.2c-1.45,0.25-3.29,1.08-4.38-1.33C471.82,843.59,473.63,842.89,474.74,845.2z"/>
			<path class="st13" d="M481.47,847.41c-1.45,0.28-3.31,1.12-4.4-1.32C478.54,845.81,480.34,845.13,481.47,847.41z"/>
			<path class="st0" d="M371.95,782.71c-1.01,0.2-2.5,0.74-2.66-0.73c-0.13-1.24,1.2-0.97,2.42-1.1
				C372.07,781.38,372.03,781.86,371.95,782.71z"/>
			<path class="st12" d="M510.9,872.81c1.92-5.04,6.72-5.22,10.39-4.43c5.34,1.15,10.27,1.64,15.44-0.23
				c1.26-0.46,2.98-0.55,3.86,1.66c-6.23,3.14-12.88,2.02-19.72,2.34c-1.14,0.31-1.97,0.31-3.23,0.31
				C515.39,873.98,513.42,874.18,510.9,872.81z"/>
			<path class="st13" d="M567.24,876.63c-0.91,1.72-2.28,1.63-3.99,0.57C564.17,875.49,565.54,875.58,567.24,876.63z"/>
			<path class="st0" d="M749.94,807.66c-0.37-0.5-0.37-0.99-0.37-1.86c2.23-2.07,2.01-0.15,2.23,1.5
				C751.31,807.66,750.81,807.66,749.94,807.66z"/>
			<path class="st11" d="M510.02,872.45c2.4,0,4.32,0,6.71,0c0.39,4.08-0.76,6.11-5.62,4.73c-3.68-1.05-7.73-1.03-9.54,3.99
				c-1.15,3.19-3.29,2.51-5.73,0.87c-4.1-2.75-6.67-7.45-11.9-9.3c4.06-2.76,8.21-1.4,12.1,0.58c2.32,1.18,4.22,2.17,6.45-0.52
				C504.97,872.45,507.25,872.45,510.02,872.45z"/>
			<path class="st15" d="M380.84,847.48c-1.11,0.4-2.3,0.39-3.93,0.39c-0.44-0.5-0.45-0.99-0.45-1.86
				C377.98,845.86,379.86,845,380.84,847.48z"/>
			<path class="st11" d="M478.05,872.07c-1.25,0.21-2.56,0.03-4.14-0.44C475.22,869.88,476.71,869.53,478.05,872.07z"/>
			<path class="st12" d="M393.9,820.89c-1.64,1.54-2.57,0.37-3.45-0.76c-0.1-0.13,0.15-0.76,0.38-0.87
				C392.29,818.57,393.21,819.33,393.9,820.89z"/>
			<path class="st0" d="M749.57,807.66c-0.11,0.7-0.11,1.5-1.01,1.65c-0.19,0.03-0.45-0.36-0.68-0.56c0.36-0.34,0.71-0.67,1.38-1.05
				C749.57,807.65,749.57,807.66,749.57,807.66z"/>
			<path class="st20" d="M376.28,667.26c0.36-2.75,2.15-2.57,4.23-2.6c2.57,0.23,3.76,2.93,6.68,2.25c1.02,0.58,1.61,1.17,2.45,1.96
				c5.83,0.41,9.91,4.77,15.38,5.74c1.99,0.35,4.09,1.11,6.72,1.23c2.66-0.02,4.6,0.86,6.87,1.93c1.5,0.26,2.69,0.28,4.33,0.29
				c1.99,0.03,3.26,0.73,4.65,1.97c5.41-0.66,9.69,3.9,15.39,2.52c1.86,1.01,3.47,0.46,5.35,0.69c2.05,0.02,3.71-0.02,5.72,0.56
				c1.95,1.32,3.96,1.57,5.88,2.91c17.34,3.13,34.57,3.22,51.65,2.22c9.08-0.53,18.34-1.37,27.42-3.66
				c5.35-1.35,11.15-1.65,16.75-2.55c7.9-1.27,15.42-3.84,23.14-5.66c12.03-2.83,23.39-7.76,34.7-12.6
				c8.2-3.51,16.11-7.81,23.83-12.29c11.38-6.61,22.85-13.08,33.63-20.69c5.23-3.7,10.16-7.83,15.32-11.53
				c11.57-8.31,21.21-18.61,30.43-29.07c12.02-13.65,24.69-26.89,33.36-43.37c4.63-8.8,11.81-16.3,15.83-25.57
				c4.52-10.44,8.14-21.27,12.83-31.62c3.83-8.46,6.65-17.18,9.4-25.99c1.5-4.82,2.8-9.66,3.76-14.6c0.28-1.44-0.06-3.06,1.3-4.09
				c1.23-0.93,0.37-3.61,2.09-3.44c1.92,0.18,0.77,2.45,1.22,3.74c2.63,7.58,2.84,15.72,4.78,23.3c2.28,8.89,1.24,17.57,1.81,26.32
				c0.23,3.48,3.63,6.38,2.14,10.02c-4.1,10.04-1.23,20.5-2.15,31.24c-0.22,1.98-0.78,3.3-1.92,4.74c-0.26,2.18-0.27,4.09-0.29,6.49
				c-0.55,1.03-1.1,1.58-1.9,2.43c1.01,5.5-2.84,9.91-2.57,15.45c-0.26,1.38-1.12,1.7-1.96,2.49c-0.24,1.42-0.26,2.61-0.29,4.24
				c-0.94,0.64-1.95,0.96-2.03,2.03c-0.77,9.32-5.5,17.22-9.23,25.44c-7.25,15.98-14.86,31.97-25.39,45.97
				c-9.6,12.76-20.39,24.67-33.08,34.87c-4.16,3.34-8.24,7.39-12.3,11.18c-9.29,8.67-19.77,15.44-30.43,22.29
				c-12.11,7.78-25.24,13.09-38.2,18.73c-5.25,2.29-11.46,3.04-17.04,5.21c-9.33,3.63-19.55,3.45-28.97,6.7
				c-0.17,0.06-0.37,0.03-0.56,0.03c-18.09,0.56-36.25,4.71-54.15,1.77c-8.36-1.37-17.04-0.08-25.29-3.53
				c-4.45-1.86-9.93-0.85-15.01-2.41c-5.85-1.8-11.81-3.44-17.77-4.99c-10.52-2.74-20.54-6.92-30.4-11.24
				c-8.97-3.93-17.81-8.32-26.23-13.56c-8.99-5.59-16.65-13.05-26.15-17.87c-1.76-0.89-3.12-2.56-5.04-3.94
				c-1.41-1.13-3.02-1.59-3.74-3.47c-0.57-1.84-1.74-2.61-3.36-3.41c-1.84-0.98-3.04-2.2-4.59-3.54c-0.96-0.93-1.62-1.65-2.61-2.57
				C380.24,673.29,376.85,671.44,376.28,667.26z"/>
			<path class="st21" d="M709.04,385.43c1.52,4.27-2.16,4.22-4.11,6c-1.43,2.24-3.37,1.65-5.56,1.63
				c-14.39,3.32-26.25,9.47-31.16,24.21c-0.7,2.1-2.51,3.73-2.41,6.54c-0.14,2.2,0.31,4.04-1.13,5.92
				c-3.82,2.96-1.65,6.89-2.42,10.61c-1.44,2.78-0.69,5.44-1,7.94c-0.54,4.34-2.41,5.49-7.38,4.06c-0.19-0.85-0.16-1.25-0.26-1.92
				c-1.12-1.31-1.71-2.56-2.13-4.34c-1.33-10.08-2.55-20.02-6.24-28.86c-4.49-10.76-12.8-18.81-24.88-21.7
				c-0.72-0.17-1.44-0.31-2.35-1.03c-0.28-0.3-0.51-0.48-0.63-0.4c-3.69-1.48-7.89-0.11-11.34-2.45c-1.5-1.02-3.68-1.3-3.33-3.78
				c0.29-2.07,1.75-3.1,3.65-3.76c5.42-1.89,11.14-2.6,16.56-4.64c8.64-3.25,14.6-9.17,19.02-16.97c0.64-1.13,1.18-2.32,2.49-3.5
				c0.34-0.28,0.23-0.35,0.25-0.29c1.57-8.47,5.87-16.42,5.45-25.79c0.67-1.9,1.97-3.1,1.85-5.26c0.25-1.73,0.35-3.08,1.17-4.66
				c2.21-3.05,4.34-3.21,6.84-0.39c1.69,1.92,1.22,3.91,1.33,6.25c-1.14,5.87,3.56,10.2,2.77,15.97c-0.14,1.87,0.12,3.2,1.22,4.73
				c-0.02,4.94,2.91,8.44,5.04,11.83c4.03,6.42,8.34,12.59,15.66,16.44C693.33,381.68,701.42,382.18,709.04,385.43z"/>
			<path class="st22" d="M466.1,561.53c-0.38,0.72-0.48,1.09-0.51,1.75c-0.7,1.95-1.35,3.97-3.73,3.48
				c-1.93-0.39-3.26-1.89-3.71-3.75c-1.16-4.8-3.41-9.39-2.97-14.97c0.11-1.64-0.36-2.66-1.2-4c-1.79-10.41-7.26-18.52-14.81-24.5
				c-5.45-4.32-12.68-6.38-19.87-7.4c-2.31-0.32-5.2-0.13-5.71-3.32c-0.54-3.34,2.28-4.29,4.92-5.73c2.92-0.81,5.64,0.22,8.47-1.29
				c0.4-0.16,0.6,0.04,0.72-0.03c7.94-2.48,13.59-8.19,20.16-13.22c0.35-0.2,0.22-0.25,0.25-0.19c6.44-9.61,7.22-20.95,9.45-31.87
				c0.15-0.73-0.04,0.19,0.06-0.55c0.38-2.91,1.33-6.05,4.57-6.03c3.19,0.02,3.79,3.61,4.55,6.07c0.91,2.96-0.82,6.25,0.92,9.66
				c0.24,0.39,0.32,0.32,0.27,0.29c2.51,2.43,0.25,5.98,2.11,9.05c-0.65,4.76,1.43,8.26,3.9,11.35c7.48,9.35,16.55,16.3,28.95,17.67
				c0.37,0.04,0.8,0,1.09,0.18c1.77,1.16,5.19,1.35,5.19,3.25c0.01,2.69-2.95,3.14-5.46,3.22c-0.65,0.02-1.29,0.6-2.09,1.31
				c-2.05,3.23-5.45,0.91-8.12,2.74c-6.1,0.99-10.34,4.27-14.28,8.55c-2.5,5.35-5.74,9.9-7.78,15.06
				C468.54,545.67,467.91,553.53,466.1,561.53z"/>
			<path class="st23" d="M456.32,546.09c-0.24,5.78,2.52,10.7,3.05,16.06c0.38,3.84,2.57,4.82,5.92,1.54
				c0.46,2.24,1.17,4.98-2.75,4.89c-2.71-0.06-4.07-0.53-6.11-3.48c-4.6-6.65-3.59-13.54-4.1-20.53c-0.26-3.56-2.3-3.47-4.42-1.39
				c-3.13,3.07-3.28,1.72-4.69-1.74c-1.8-4.44-3.56-7.53-0.04-12.31c1.98-2.69-4.05-9.37-7.97-9.66c-2.38-0.18-4.11-0.13-5.69-3.01
				c-1.78-3.25-6.46-2.09-9.1-1.03c-3.06,1.23-4.32,0.33-5.9-1.62c-0.35-0.43-0.82-0.84-0.97-1.35c-0.87-2.78-7.35-1.33-5.17-4.69
				c1.77-2.72,5.27-5.96,10.06-6.23c0.87,0.43,1.05,0.95,0.73,1.94c-1.1,1.02-1.87,1.94-2.84,2.27c-1.54,0.52-2.02,1.35-1.74,2.88
				c0.26,1.44,1.3,1.63,2.44,1.73c7.74,0.68,15.1,3.17,21.5,7.18c5.95,3.73,10.87,9.23,13.65,15.93c1.21,2.92,3.56,5.69,2.7,9.72
				C455.15,544.5,455.77,545.09,456.32,546.09z"/>
			<path class="st24" d="M613.32,584.58c1.41-0.16,2.12-0.49,2.31-1.87c2.89-4.48,6.53-5.29,13.58-2.85
				c2.12,2.32,4.04,4.17,6.17,6.32c3.13,3.58,1.5,7.08,0.33,10.91c-0.39,0.38-0.26,0.3-0.31,0.25c-3.06,5.79-8.1,8.94-12.63,7.83
				c-6.5-1.6-11.01-7-11.1-13.43C611.64,589.38,611.32,586.91,613.32,584.58z"/>
			<path class="st17" d="M460.35,686.56c-1.95,0.12-4.19,1.38-5.63-1.35c-1.96-2.39-4.09-1.56-6.47-0.72
				c-1.82,0.08-3.68,0.92-4.69-1.53c1.24-3.52-1.39-2.49-2.57-2.6c-6.65-0.6-6.69-1.68-4.36-7.56c1.82-4.61,3.96-7.39,8.84-8.05
				c2.76-0.37,2.11-5.9,6.67-4.19c3.67,1.37,2.56,5.38,4.35,6.91c4.33,3.7,5.17,6.35,0.05,9.79c-1.02,0.69-0.11,2.51,0.98,2.55
				c3.23,0.13,5.63,3.99,9.34,1.9c0.86-0.49,2.49-0.58,2.78,0.78c0.36,1.71-1.21,1.94-2.5,2.25
				C464.91,685.27,462.23,683.6,460.35,686.56z"/>
			<path class="st25" d="M644.23,358.68c-2.24,11.42-10.52,17.83-20.45,22.18c-5.27,2.31-11.16,3.28-16.83,4.57
				c-1.63,0.37-2.89,0.72-3.25,2.39c-0.51,2.41,1.8,1.62,2.77,2.39c3.06,2.4,7.31,0.71,10.53,3.6c-3.73,1.39-7.66,1.15-11.74,0.69
				c-3.34-0.38-5.26-0.5-5.64-4.75c-0.46-5.12,1.39-8.41,6.75-8.78c2.59-0.18,5.22,0.04,7.79-0.24c1.39-0.15,3.24-0.66,3.23-2.48
				c-0.01-2.25-2.03-1.66-3.39-1.75c-2.05-0.14-4.02,0.13-6.03,0.77c-2.19,0.7-4.24,0.19-4.56-2.53c-0.33-2.84,1.87-2.72,3.75-2.7
				c5.31,0.06,10.73-0.93,15.16,3.61c1.82,1.86,4.44,0.92,6.61-0.68c1.93-1.43,2.82-2.76,1.3-5.07c-1.56-2.37,0.49-2.21,1.9-2.34
				c1.47-0.14,3.13,0.05,3.31-2.08c0.14-1.69-0.98-2.21-2.38-2.49c-1.29-0.26-1.87-1.14-1.72-2.43c0.2-1.73,1.51-1.91,2.87-1.92
				C637.38,358.6,640.54,358.63,644.23,358.68z"/>
			<path class="st25" d="M425.87,376.12c-4.99,1.59-6.21-3.43-8.36-5.39c-3.27-2.96-5.95-7.23-5.71-13.2
				c0.24-5.96,3.88-8.53,6.71-12.31c2.93-3.92,8.23-4.26,11.32-7.93c1.13-1.34,3.18-1.72,4.32,0.08c2.47,3.89,5.98,6.55,9.53,9.34
				c2.88,2.26,6.69,4.86,2.51,9.54c-1.46-0.14-2.24-0.83-3.34-1.74c-4.74-5.68-10.34-7.81-17.02-5.34
				c-8.43,3.12-10.33,12.81-3.98,19.3c0.77,0.79,1.75,1.36,2.8,2.45c0.76,0.96,1.14,1.68,1.56,2.84
				C426.37,374.73,426.31,375.27,425.87,376.12z"/>
			<path class="st23" d="M617.8,394.6c11.7,0.18,25.63,11.37,29.04,22.54c2.8,9.18,4.16,18.66,6.43,28.31
				c-1.02,0.46-1.46,1-1.79,2.2c-5.57,1.19-7.39-0.95-7.03-6.33c0.45-6.62,0.37-13.32-0.02-19.95c-0.24-4.22-0.52-9.05-6.72-9.27
				c-1.32-0.05-2.04-0.99-1.99-2.21c0.19-4.39-2.81-5.68-6.14-7.34C625.46,400.48,621.76,397.55,617.8,394.6z"/>
			<path class="st23" d="M662.92,346.45c0.14-5.7-2.57-10.62-2.61-16.43c0.81-0.87,1.27-0.48,1.89,0.33
				c0.34,1.53-0.03,3.31,0.68,4.01c4.64,4.57,3.12,10.55,4.38,15.91c1.11,4.73,2.45,10.3,7.64,13.28c1.86,1.07,3.85,2.75,4.66,4.64
				c2.26,5.29,7.6,6.05,11.15,8.9c5.21,4.19,10.3,2.77,15.27,4.26c1.46,0.44,2.77,1.81,3.21,4.01c-9.57-0.86-18.94-2.9-27.14-8.38
				c-9.47-6.33-14.6-15.63-17.54-26.8C663.75,348.88,663.59,347.73,662.92,346.45z"/>
			<path class="st23" d="M467.94,465.6c-1.94-0.04-1.91-1.62-2-3.09c-0.13-2.03-0.02-4.09-0.31-6.1c-0.33-2.34-1.39-5.53-3.46-5.42
				c-2.07,0.11-2.61,3.22-3.06,5.74c-1.94,10.96-2.71,22.38-10.57,31.64c-1.61-3.28,0.93-5.73,2.23-8.05
				c1.41-2.52,0.8-4.04-0.42-6.35c-0.85-2.05,0.74-2.37,1.81-3.42c0.28-5.28,0.01-10.32,0.38-15.31c0.38-5.06,5.04-8.96,10.18-8.08
				c4.29,0.73,4.52,5.28,5.2,8.62C468.53,458.8,468,462.03,467.94,465.6z"/>
			<path class="st23" d="M613.25,584.34c0.24,4.52-1.66,9.37,1.53,13.3c6.39,7.86,12.02,8.94,20.17-0.28
				c1.94,5.22-0.71,8.87-5.06,10.58c-3.98,1.57-8.83,2.61-11.92-2.11c-1.71-2.61-5.06-0.24-6.71-2.89
				c-3.26-5.22-2.53-10.91-2.31-16.54C609.04,584.05,611.08,584.3,613.25,584.34z"/>
			<path class="st25" d="M665.2,423.63c1.26-5.59,3.41-10.65,6.2-15.52c4.37-7.63,11.04-11.94,19.34-13.66c2.4-0.5,4-2.74,7.01-2.26
				c0.54,0.25,0.66,0.45,0.52,0.87c-2.66,4.1-8.28,4.67-9.81,9.52c-0.12,0.39-1.35,0.73-1.99,0.62c-5.77-0.99-7.21,4.52-10.71,6.94
				c-4.52,3.12-5.93,8.23-8.78,12.86C666.52,423.76,666.06,423.93,665.2,423.63z"/>
			<path class="st23" d="M651.66,331.74c0.34,9.79-2.58,18.39-6.55,26.94c-0.46-4.1-0.5-8.28-0.54-12.98
				c4.16-4.64,2.43-9,0.27-13.65c-0.25-2.28-0.3-4.28-0.25-6.28c0.07-2.86,1.55-3.42,4.25-1.98
				C650.14,326.48,652.3,328.41,651.66,331.74z"/>
			<path class="st23" d="M447.76,488.3c-4.5,6.75-9.97,12.67-19.47,13.41c1.78-2.96,1.99-6.37,1.83-9.9
				c-0.06-1.44-0.21-3.13,1.86-3.44c1.63-0.24,2.21,0.77,2.62,2.19c0.76,2.61,2.32,2.12,4.29,1.16
				C441.61,490.39,443.94,488.02,447.76,488.3z"/>
			<path class="st17" d="M331,548.46c-6.21-0.44-10.06-2.97-11.05-9.02c-0.23-1.41-0.45-2.52,0.97-3.32
				c0.99-0.56,2.17-1.25,3.03-0.25c2.07,2.39,6.92,2.93,5.19,7.93c-0.99,2.86,1.43,2.58,2.9,2.31c2.51-0.45,4.99-1.23,7.41-2.08
				c1.6-0.56,3.31-1.63,4.15,0.67c0.94,2.58-1.22,2.35-2.83,2.73C337.71,548.16,334.66,548.76,331,548.46z"/>
			<path class="st17" d="M814.17,558.74c1.94,1.49,4.07,2.86,2.77,5.09c-1.34,2.3-3.85,1.54-5.99,0.8
				c-5.24-1.82-8.39-7.97-6.28-13.46c1.17-3.02,3.6-0.96,4.73,0.34C811.19,553.57,812.42,556.11,814.17,558.74z"/>
			<path class="st23" d="M466.23,561.81c0.56-13.66,2.72-27,12.55-38.04c0.02,3.58,1.43,6.97-3.09,10.37
				c-3.26,2.46-6.13,8.16-5.39,13.8C470.97,553.01,467.93,557.15,466.23,561.81z"/>
			<path class="st25" d="M451.98,470.3c0.49,1.36-0.44,2.06-1.58,3.04c-2.14,3.7-6.07,5.72-6.93,9.88
				c-0.18,0.88-0.06,2.12-1.24,2.07c-0.76-0.03-1.79-0.68-2.19-1.36c-1.38-2.36-2.04-5.06,0.45-6.94c2.57-1.94,3.19-4.28,3.04-7.22
				c-0.07-1.39-0.41-3.17,1.55-3.68c1.87-0.49,2.63,0.62,2.96,2.33C448.42,470.39,450.06,470.24,451.98,470.3z"/>
			<path class="st23" d="M426.13,376.46c-0.52-0.48-0.52-0.95-0.51-1.77c0.31-0.84,0.73-1.2,1.64-1.57
				c6.79-0.07,11.15-3.75,15.48-8.29c0.66-0.07,0.93-0.03,1.53,0.24c0.23,0.79,0.17,1.34,0.01,1.87c-2.78,9.53-2.78,9.53-12.65,9.54
				C429.98,376.49,428.31,376.47,426.13,376.46z"/>
			<path class="st17" d="M449.26,638.31c-0.71,0.47-1.12,0.86-1.3,1.35c-0.55,1.48-1.41,3.01-3.1,2.34
				c-2.31-0.93-0.29-2.44,0.05-3.61c0.67-2.34,1.68-4.49,4.49-4.93c1.86-0.29,3.73-2.11,5.56,0.01c0.93,1.08,1.03,2.43,0.42,3.61
				C454.03,639.69,451.82,639.01,449.26,638.31z"/>
			<path class="st26" d="M653.61,452.37c4.71,1.15,6.5-0.86,6.56-5.45c0.03-1.93-0.43-4.11,1.79-5.89
				c0.26,4.92,2.02,10.46-3.55,14.3C654.78,457.84,653.49,456.98,653.61,452.37z"/>
			<path class="st25" d="M644.58,332.29c5.66,4.34,5.88,8.28,0.38,12.82C644.58,341.05,644.58,336.93,644.58,332.29z"/>
			<path class="st26" d="M629.74,580.08c-4.9-0.84-9.28-0.71-13.72,2.2c-0.97-3.34,0.19-5.12,3.98-4.79
				c3.04,0.27,6.1-1.22,9.19,0.05C630.47,578.06,631.15,578.53,629.74,580.08z"/>
			<path class="st26" d="M635.76,597.47c-0.36-3.31-0.28-6.64-0.18-10.48c2.47-3.02,4.19-0.63,3.88,0.94
				C638.83,591.17,639.37,595.03,635.76,597.47z"/>
			<path class="st17" d="M427.93,679.88c-1.67,0.48-3.19,0.39-4.37-1.48c-0.12-0.7-0.1-1.08-0.01-1.43
				c0.75-2.82,2.77-4.45,5.28-2.94C431.88,675.86,428.73,677.7,427.93,679.88z"/>
			<path class="st17" d="M418.84,677.64c-2.11,0.25-4.53,1.12-6.44-1.44c-0.2-1.55-0.2-2.74-0.2-4.38
				C416.72,670.75,416.58,675.3,418.84,677.64z"/>
			<path class="st17" d="M801.47,541.8c-0.3-1.53-1.15-3.39,1.3-4.4c2.28-0.03,4.75,0.01,4.51,2.42
				C806.95,543.27,803.77,541.18,801.47,541.8z"/>
			<path class="st26" d="M444.93,365c-0.52,0.3-0.71,0.29-1.2,0.28c-2.82-3.32-2.33-6.81-0.53-10.75c1.39-0.3,2.23-0.01,2.52,1.47
				C445.45,359.12,446.25,361.96,444.93,365z"/>
			<path class="st17" d="M412.21,671.37c-0.19,0-0.37,0-0.56,0c-2.69,0.02-5.23-0.34-6.73-2.95c-0.12-0.21,0.42-1.15,0.77-1.23
				c3.04-0.65,4.74,1.34,6.45,3.79C412.21,671.37,412.21,671.37,412.21,671.37z"/>
			<path class="st26" d="M470.23,474.87c-3.66-1.5-1.58-5.16-2.38-8.48C472.6,467.63,469.38,471.54,470.23,474.87z"/>
			<path class="st8" d="M651.86,331.96c-0.61-2.41-3.32-4.17-2.74-7.43c0.5-0.13,0.99,0.15,1.72,0.59c1.05,0.34,1.55,0.94,2.27,1.84
				C653.51,328.89,653.84,330.58,651.86,331.96z"/>
			<path class="st26" d="M493.61,514.9c1.03-3.53,4.44-1.64,7.38-2.54C500.39,517.11,496.64,514.21,493.61,514.9z"/>
			<path class="st26" d="M419.42,503.9c-0.49-0.54-0.51-1.06-0.54-1.95c2.47-0.36,4.94-0.33,7.96-0.3
				C425.67,504.97,422.44,503.35,419.42,503.9z"/>
			<path class="st6" d="M662.43,330.14c-0.52,0.2-1.02-0.06-1.79-0.46c-0.35-2.02-0.45-3.91-0.5-6.27
				C664.44,324.01,661.64,327.44,662.43,330.14z"/>
			<path class="st26" d="M664.79,423.85c0.55-0.47,1-0.47,1.79-0.47c-0.18,2.2,1.73,5.03-1.83,6.57
				C664.42,428.09,664.55,426.2,664.79,423.85z"/>
			<path class="st26" d="M698.34,393.58c-0.32-0.3-0.21-0.81-0.18-1.07c1.91-0.43,3.79-0.59,6.14-0.74
				C703.98,396.12,700.98,394,698.34,393.58z"/>
			<path class="st17" d="M794.7,568.65c-0.34-1.06-0.07-1.92,1.44-2.23c1.76,0.11,2.98,0.78,2.2,2.27
				C797.53,570.23,796.18,568.71,794.7,568.65z"/>
			<path class="st23" d="M653.44,326.86c-1.05,0.38-1.87,0.12-2.27-1.26c0.37-1.12,0.83-1.9,1.75-2.81
				C653.42,323.94,653.46,325.21,653.44,326.86z"/>
			<path class="st17" d="M813.87,569.52c0.35,1.26,0.84,2.39-0.57,2.87c-0.21,0.07-0.76-0.24-0.81-0.45
				C812.25,570.81,811.58,569.42,813.87,569.52z"/>
			<path class="st26" d="M651.27,448.31c0.34-1.01,0.73-1.66,1.52-2.39c0.52,1.12,0.65,2.32,0.72,3.88
				C652.44,450.12,651.56,449.85,651.27,448.31z"/>
			<path class="st17" d="M467.56,671.79c-0.25-0.88,0.06-1.2,0.74-1.06c0.14,0.03,0.33,0.23,0.36,0.37
				C468.76,671.79,468.42,672.08,467.56,671.79z"/>
			<path class="st17" d="M389.82,668.74c-0.96,0.3-1.83,0.03-2.15-1.47C388.61,666.99,389.49,667.24,389.82,668.74z"/>
			<path class="st17" d="M799.14,550.68c-0.32-0.97-0.04-1.82,1.46-2.13C800.87,549.48,800.61,550.35,799.14,550.68z"/>
			<path class="st16" d="M385.19,677.84c2.21,0.22,2.79,2.25,4.47,3.28c1.18,1.71,2.61,2.5,4.38,3.42c0.16,1.97,2.07,2.51,2.5,4.33
				c-4.21,0.34-8.42,1.48-9.79-5.25c-0.44-2.16-4.1-8.08-10.41-5.26c-3.09,1.37-2.99-2.91-2.56-4.41c0.83-2.89-0.24-4.58-2.09-6.29
				c-1.25-1.16-2.85-2.77-1.33-4.15c1.78-1.62,2.62,0.87,3.71,1.89c0.52,0.49,1.09,0.93,2.01,1.45c2.58,2.79,4.78,5.52,7.04,8.61
				C383.77,676.43,384.35,677.04,385.19,677.84z"/>
			<path class="st16" d="M393.05,644.53c1.26,3.61-0.9,4-2.72,2.49c-2.67-2.22-4.67-5.31-4.82-9.02c-0.13-3.4,4.39-6.1,7.3-4.41
				c2.29,1.33,0.5,2.6-0.52,3.33C388.37,639.71,389.72,642.02,393.05,644.53z"/>
			<path class="st16" d="M387.23,612.63c0.34,3.16-0.8,4.13-3.53,3.26c-1.78-0.57-3.61-0.5-5.45-0.01
				c-1.22,0.32-2.46,2.71-3.62,0.58c-0.7-1.28-0.54-3.3-0.17-4.84c0.58-2.39,2.59-1.04,3.61-0.57
				C381,612.4,384.61,608.17,387.23,612.63z"/>
			<path class="st16" d="M355.58,626.2c-3.67-2.22-4.95-5.32-4.65-9.07c0.06-0.76,0.78-1.77,1.47-2.12c1-0.51,1.55,0.49,2.07,1.28
				c1.21,1.84,2.78,3.52,3.66,5.5C359.02,623.77,358.9,625.88,355.58,626.2z"/>
			<path class="st16" d="M360.77,639.82c-4.31-1.93-3.75-5.25-2.57-8.39c0.58-1.55,2.78-1.91,3.65-0.52
				C363.66,633.82,364.18,637.01,360.77,639.82z"/>
			<path class="st16" d="M331.88,615c3.43-2.12,5.21,0.16,6.06,2.64c0.55,1.6-1.36,3.26-3,3.15
				C331.71,620.55,331.98,617.73,331.88,615z"/>
			<path class="st16" d="M393.65,623.06c-0.34,0.48-0.46,0.63-0.62,0.71c-2.59,1.28-4.98,0.86-6.99-1.11
				c-0.74-0.73-0.53-2.02,0.44-2.24C389.29,619.78,392.24,619.23,393.65,623.06z"/>
			<path class="st16" d="M368.12,622.03c-0.69,1.89-0.9,3.78-3.24,3.42c-1.74-0.27-2.47-1.63-2.53-3.12
				c-0.06-1.65,1.26-2.71,2.65-3.12C366.91,618.65,368.22,619.44,368.12,622.03z"/>
			<path class="st16" d="M338.68,601.2c4.14,1.08,3.41,3.52,2.16,6.05c-0.62,1.24-1.76,1.59-2.59,0.43
				C336.77,605.64,334.76,603.38,338.68,601.2z"/>
			<path class="st16" d="M406.58,630.29c-0.02,2.46,0.2,4.67-2.58,5.06c-1.08,0.15-1.67-0.67-1.74-1.67
				c-0.13-1.8-0.57-3.8,1.12-5.08C404.84,627.49,406.12,627.84,406.58,630.29z"/>
			<path class="st16" d="M384.11,649.08c0.96-0.04,1.52-0.08,2.07-0.04c1.79,0.12,4.14-0.34,4.27,2.29c0.09,1.88-1.8,2.41-3.25,2.02
				C385.22,652.82,382.19,652.71,384.11,649.08z"/>
			<path class="st16" d="M324.7,604.94c2.32-0.78,4.01-0.52,4.57,1.81c0.25,1.04-0.4,1.83-1.44,1.89
				C325.49,608.78,323.8,608.1,324.7,604.94z"/>
			<path class="st16" d="M296.05,543.31c1.06-3.54,1.86-2.08,2.1-0.2c0.19,1.51,0.76,4.25-0.71,4.39
				C295.03,547.73,296.49,545.07,296.05,543.31z"/>
			<path class="st16" d="M313.87,602.04c-0.27,1.73-0.65,3.09-2.36,2.84c-0.75-0.11-1.04-1.13-0.68-1.82
				c0.65-1.22,0.22-3.28,1.99-3.55C314.01,599.32,313.74,600.79,313.87,602.04z"/>
			<path class="st16" d="M306.76,592.59c-2.71-0.94-1.9-2.64-1.12-4.24c0.09-0.19,1.1-0.23,1.4,0.02
				C308.61,589.64,308.54,591.05,306.76,592.59z"/>
			<path class="st16" d="M336.28,628.7c0.08-1.86,0.4-4.15,1.95-3.55c2.38,0.93,0.32,3.24-0.13,4.55
				C337.48,631.54,336.65,630.24,336.28,628.7z"/>
			<path class="st16" d="M392.69,628.78c-1.41,0.01-2.78,0.52-3.21-0.86c-0.31-1,0.86-1.27,1.44-1.11
				C391.85,627.05,394.59,625.61,392.69,628.78z"/>
			<path class="st16" d="M300.35,560.19c0.01,1.41,0.52,2.78-0.86,3.21c-1,0.31-1.27-0.86-1.11-1.44
				C298.63,561.03,297.18,558.29,300.35,560.19z"/>
			<path class="st16" d="M299.33,527.73c1.64,1.58,0.94,2.67-0.52,3.44c-0.29,0.15-1.19-0.19-1.3-0.49
				C297,529.27,297.65,528.29,299.33,527.73z"/>
			<path class="st16" d="M320.43,607.33c-1.51,1.55-1.82,0.56-1.94-0.63c-0.07-0.7,0.05-1.57,0.88-1.62
				C320.68,605,320.4,606.16,320.43,607.33z"/>
			<path class="st16" d="M303.31,507.49c-1.51,0.44-2.29-0.1-2.29-1.38c0-0.32,0.62-0.89,0.99-0.91
				C303.44,505.1,303.76,505.99,303.31,507.49z"/>
			<path class="st16" d="M362.75,646.2c1.5-0.41,2.39-0.08,2.26,1.35c-0.03,0.36-0.62,0.97-0.93,0.96
				C362.81,648.47,362.27,647.69,362.75,646.2z"/>
			<path class="st16" d="M302.49,567.26c-0.7,1.05-1.35,0.97-1.67,0.13c-0.15-0.39,0.05-1.23,0.36-1.4
				C302.03,565.52,302.42,566.13,302.49,567.26z"/>
			<path class="st16" d="M301.63,552.38c0.97,0.55,1.08,1.23,0.63,1.9c-0.37,0.54-0.96,0.54-1.31-0.02
				C300.52,553.59,300.64,552.91,301.63,552.38z"/>
			<path class="st16" d="M415.1,661.37c-0.44,0.8-0.88,0.81-1.27,0.24c-0.08-0.12-0.08-0.4,0.01-0.51
				C414.24,660.53,414.68,660.55,415.1,661.37z"/>
			<path class="st16" d="M295.37,505.99c0.44-0.8,0.88-0.81,1.27-0.24c0.08,0.12,0.08,0.4-0.01,0.51
				C296.23,506.83,295.79,506.81,295.37,505.99z"/>
			<path class="st16" d="M315.53,591.63c0.25,0.88-0.06,1.2-0.74,1.06c-0.14-0.03-0.33-0.23-0.36-0.37
				C314.32,591.64,314.66,591.35,315.53,591.63z"/>
			<path class="st16" d="M302.04,574.69c-0.88,0.25-1.2-0.06-1.06-0.74c0.03-0.14,0.23-0.33,0.37-0.36
				C302.04,573.49,302.33,573.82,302.04,574.69z"/>
			<path class="st17" d="M360.26,675.08c-1.59,0.2-1.61-0.65-1.28-1.59c0.08-0.22,0.64-0.48,0.87-0.39
				C360.7,673.39,360.7,674.1,360.26,675.08z"/>
			<path class="st16" d="M448.44,684.75c1.76-3.97,4.85-2.18,7.81-1.25c-0.3,0.38-0.59,0.77-1.26,1.22
				C452.72,684.78,450.82,684.77,448.44,684.75z"/>
			<path class="st17" d="M394.24,684.41c-1.8,0.2-4.21,1.01-4.37-2.57C391.66,681.72,393.39,682.11,394.24,684.41z"/>
			<path class="st17" d="M385.37,677.7c-0.96,0.28-1.85,0.01-2.15-1.52C384.17,675.93,385.05,676.2,385.37,677.7z"/>
			<path class="st18" d="M662.66,346.53c1.67-0.05,2.05,1.06,1.89,2.85C663,349.38,662.5,348.33,662.66,346.53z"/>
			<path class="st8" d="M456.54,546.02c-1.16,0.15-1.8-0.45-1.71-1.98C455.78,544.06,456.62,544.5,456.54,546.02z"/>
			<path class="st24" d="M443.46,353.79c0.06,3.74-0.03,7.11-0.07,10.98c-3.39,5.75-7.56,9.8-14.93,9.32
				c-1.32-0.77-2.49-0.95-3.77-1.68c-10.51-7.4-11.23-17.9-1.88-23.63C430.12,344.31,437.24,345.92,443.46,353.79z"/>
			<path class="st8" d="M424.45,372.55c1.26-0.51,2.47-0.44,3.39,1.22c-0.36,0.4-0.89,0.46-1.82,0.54
				C425.25,373.84,424.87,373.35,424.45,372.55z"/>
		</g>
	</g>
	<path class="st16" d="M650.32,312.12c2.66,8.37,1.97,17.4,0.77,26.1c-1.48,10.8-4,22.09-11.43,30.06
		c-6.68,7.17-16.4,10.63-25.91,12.99c-6.24,1.55-12.7,2.74-19.08,1.94c-0.52,0.58-0.51,1.56,0.01,2.14"/>
	<path class="st16" d="M657.32,302.62c0.52,21.43,1.55,44.4,14.37,61.58c12.36,16.57,35.2,24.53,55.19,19.21"/>
	<path class="st16" d="M715.63,389.47c-8.11,0.42-16.3,0.84-24.12,3.05c-7.82,2.2-15.34,6.37-20.1,12.95
		c-2.94,4.07-4.7,8.87-6.15,13.68c-3.78,12.58-5.65,25.72-5.55,38.85c0.03,3.41,0.21,6.91,1.53,10.05c0.64,1.51,1.54,2.91,2.64,4.13
		"/>
	<path class="st16" d="M596.08,389.89c14.73,0.58,30.96,1.78,41.35,12.22c7.76,7.8,10.54,19.15,12.55,29.97
		c2.03,10.88,3.62,21.84,4.76,32.85"/>
	<path class="st16" d="M676.46,402.44c-7.7,8.72-12.6,19.62-15.69,30.83c-3.08,11.22-4.45,22.82-5.8,34.37"/>
	<path class="st16" d="M718.11,388.58c-8.38-0.33-16.92-0.26-24.93,2.21c-8.01,2.48-15.52,7.7-19.01,15.32
		c-1.98,4.32-2.57,9.12-3.14,13.83"/>
	<path class="st16" d="M661.12,312.63c-0.58,8.8-1.16,17.65-0.18,26.41c0.99,8.76,3.64,17.51,8.95,24.55
		c5.25,6.95,13.02,11.96,21.52,13.87"/>
	<path class="st16" d="M456.79,440.92c0.56,8.28-1,16.53-2.55,24.68c-2.06,10.83-4.66,22.61-13.26,29.52
		c-6.17,4.96-14.35,6.46-22.16,7.79c-4.62,0.79-9.24,1.58-13.87,2.37c-2.15,0.37-4.42,0.73-6.48,0c-2.06-0.73-3.77-2.94-3.14-5.03"
		/>
	<path class="st16" d="M466.94,432.71c-3.88,13.24-4.19,27.51-0.88,40.91c1.7,6.89,4.52,13.81,9.85,18.49
		c3.53,3.1,7.95,5.02,12.4,6.54c12.45,4.25,25.84,5.74,38.92,4.33"/>
	<path class="st16" d="M515.01,509.63c-12.95-3.12-27.31,1.69-36.3,11.52c-8.99,9.82-12.53,24.15-9.86,37.2
		c1.05,5.12,2.98,10.45,1.37,15.43"/>
	<path class="st16" d="M407.99,509c16.09-2.12,33.08,5.93,41.64,19.72c8.24,13.28,8.55,29.84,8.21,45.47"/>
	<path class="st16" d="M401.15,500.14c8.23,0.4,16.58,2.81,24.58,0.85c11.19-2.75,18.7-13.41,22.78-24.18
		c4.09-10.78,5.84-22.43,11-32.74"/>
	<path class="st22" d="M449.37,354.07c-3.48-7.51-10.79-13.29-19-14.26s-16.99,3.24-20.78,10.59c-3.79,7.35-1.87,17.38,4.77,22.32
		c2.38,1.77,5.2,2.87,8.06,3.65c2.84,0.77,5.78,1.25,8.72,1.07c5.95-0.36,11.67-3.57,15.08-8.46
		C449.62,364.08,450.95,357.49,449.37,354.07z"/>
	<path class="st22" d="M639.59,584.3c-4.7-3.28-8.19-8.42-13.57-10.42c-5.42-2.02-11.93-0.13-15.81,4.17s-5.15,10.63-3.74,16.24
		c1.62,6.41,7.05,12.01,13.62,12.69c5.66,0.58,11.35-2.58,14.49-7.32c3.14-4.75,3.88-10.83,2.72-16.4c-0.07-0.35-0.18-0.73-0.49-0.9
		S636.02,582.47,639.59,584.3z"/>
</g>
</svg>
