<?xml version="1.0" encoding="utf-8"?>
<!-- Generator: Adobe Adobe Illustrator 24.2.0, SVG Export Plug-In . SVG Version: 6.00 Build 0)  -->
<svg version="1.1" xmlns="http://www.w3.org/2000/svg" xmlns:xlink="http://www.w3.org/1999/xlink" x="0px" y="0px"
	 width="1117.09px" height="1117.09px" viewBox="0 0 1117.09 1117.09" style="enable-background:new 0 0 1117.09 1117.09;"
	 xml:space="preserve">
<style type="text/css">
	.st0{fill:#362378;}
	.st1{fill:#63558E;}
	.st2{fill:#42366D;}
	.st3{fill:#372872;}
	.st4{fill:#473E6D;}
	.st5{fill:#392E69;}
	.st6{fill:#4B4071;}
	.st7{fill:#564D79;}
	.st8{fill:#524787;}
	.st9{fill:#9763C2;}
	.st10{fill:#37217D;}
	.st11{fill:#683BA7;}
	.st12{fill:#38257D;}
	.st13{fill:#3B2283;}
	.st14{fill:#794FA0;}
	.st15{fill:#5A31A1;}
	.st16{fill:#38248A;}
	.st17{fill:#3F2D71;}
	.st18{fill:#7846B1;}
	.st19{fill:#7442AF;}
	.st20{fill:#AD79D9;}
	.st21{fill:#351C75;}
	.st22{fill:#F9E3F2;}
	.st23{fill:#F8E2F2;}
	.st24{fill:#F6DFF5;}
	.st25{fill:#754D9D;}
	.st26{fill:#775097;}
</style>
<g id="Layer_2">
</g>
<g id="Layer_3">
	<g>
		<g>
			<path class="st0" d="M108.03,265.44c0.35-1.17,0.4-1.85,0.72-2.97c5.17-6.75,13.24-10.78,14.68-20.31
				c0.42-0.43,0.34-0.54,0.41-0.52c9.11-6.94,16.7-14.96,19.75-27.05c0.3-0.53,0.37-0.36,0.29-0.39c4.48-4.41,9.69-8.05,14.55-12.94
				c3.68-2.54,5.99-5.24,5.94-10.03c0.33-1.36,0.67-2.08,1.59-3.14c0.46-0.4,0.39-0.65,0.52-0.67c0.65-0.64,1.27-1.16,2.55-1.72
				c5.36-0.46,9.27-1.72,8.96-8.31c0.32-1.35,0.64-2.08,1.48-3.2c0.41-0.45,0.35-0.52,0.4-0.51c0.64-0.55,1.29-1.06,2.56-1.7
				c4.35-1.36,10.38,1.21,10.46-6.76c0.24-1.86,0.66-3.03,1.87-4.52c0.44-0.47,0.4-0.6,0.46-0.58c0.47-0.52,0.95-0.97,1.99-1.52
				c1.42-0.47,2.26-0.91,2.9-2.32c0.38-1.09,0.71-1.66,1.52-2.48c0.4-0.3,0.4-0.44,0.47-0.42c11.74-4.11,20.98-11.73,28.55-21.17
				c6.26-7.81,16.76-8.5,23.55-15.22c1.38-1.37,2.94-2.57,4.59-4.59c8.1-2.7,14.93-6.27,19.97-12.7c1.7-2.17,4.21-2.49,6.7-3.1
				c8.08-1.97,14.72-6.96,22.36-11.22c8.03-10.31,21.05-9.5,30.57-15.72c2.74-1.79,5.99-3,9.17-5.5c12.4-1.59,24.23-2.85,32.46-13.1
				c0.28-0.35,0.62-0.46,0.7-0.46c12.09,0.78,21.67-9.16,33.51-8.34c13.16,0.91,23.57-6.39,34.94-10.52
				c6.81-2.47,12.73-3.76,19.09-0.04c1.44,0.84,2.86,2.5,4.42,0.92c4.67-4.76,11.63-4.06,17.4-7.75c1.84-0.49,3.14-0.6,5.08-0.57
				c8.13-1.68,15.89-1.45,23.41-1.5c29.4-0.17,58.85-1.52,88.21,0.67c15.11,1.12,30.57,2.54,44.88,6.76
				c18.9,5.58,38.68,6.6,57.26,13.07c4.27,1.49,8.01,4.14,13.04,5.54c12.62,1.25,22.55,7.94,33.49,11.61
				c8.17,2.74,15.41,7.26,23.75,9.7c16.05,4.69,31.63,11.44,44.62,22.23c4.41,3.66,9.44,3.22,14.17,6.24
				c0.48,0.47,0.63,0.4,0.65,0.47c2.13,3.61,5.95,4.41,9.72,6.33c0.39,0.42,0.51,0.35,0.51,0.42c9.28,7.68,20.32,13.1,28.12,22.55
				c2.16,2.62,5.87,1.82,8.83,4.1c0.78,0.39,1.11,0.39,1.8,0.71c3.1,6.39,7.2,9.82,13.93,12.42c6.94,2.68,11.43,10.38,17.12,15.75
				c6.43,6.07,10.22,14.41,17.88,19.58c5.46,3.68,12.29,6.46,12.88,15.18c0.22,3.27,6.05,1.86,9.16,4.4c0.43,0.45,0.66,0.5,0.62,0.6
				c3.46,11.68,14.42,17.16,21.57,26.53c0.41,0.44,0.59,0.5,0.55,0.58c2.28,11.74,13.18,18.21,17.41,29.07
				c1.88,4.82,8.31,8.37,11.3,14.37c0.48,0.34,0.31,0.37,0.37,0.31c3.69,7.95,8.17,15.51,12.99,23.56
				c5.11,10.41,12.73,18.83,15.82,30.27c2.88,5.15,1.32,10.43,2.48,15.26c0.71,2.97,0.61,6.15,3.83,8.73
				c0.51,0.45,0.42,0.45,0.45,0.42c2.32,3.25,1.74,7.18,2.5,11.47c-0.55,4.59,1.66,6.92,5.08,9.33c0.98,3.81,1.23,7.1,1.77,11.09
				c0.07,8.8-0.57,16.64,5.05,23.96c3.3,4.3,1.75,10.93,1.84,16.54c0.08,5.25,0.97,10.11,4.93,13.91c3.45,3.31,3.27,7.6,3.29,11.83
				c0.09,14.94,0.4,29.87,0.34,44.81c-0.02,4.5-0.15,9.15,4.65,12.82c1.76,8.97,0.94,17.35,0.74,26.46
				c-4.56,4.44-6.17,8.97-5.72,14.82c0.61,7.85-0.16,15.77,0.08,24.39c0.24,3.21-0.06,5.63-1.02,8.67
				c-10.28,8.42-6.98,19.53-7.56,30.35c0.03,1.62,0.07,2.55,0.11,4.19c-0.09,2.6-0.42,4.45-0.78,7.02
				c-4.94,9.74-4.12,20.64-7.78,29.36c-3.87,9.21-3.86,19.68-10.13,28.12c-3.29,4.43-1.52,11.02-3.66,16.99
				c-0.37,0.59-0.48,0.55-0.45,0.5c-11.86,6.42-16.13,18.1-19.97,29.85c-2.59,7.93-7.14,15.18-8.48,24.15
				c-0.33,0.5-0.42,0.35-0.33,0.38c-5.33,5.84-12.84,10.09-14.44,19.49c-2.05,2.75-6.08,3.25-5.5,7.9
				c-0.27,2.27-0.66,3.89-1.97,5.83c-0.43,0.48-0.34,0.56-0.4,0.55c-4.55,5.04-9.29,9.86-13.97,14.74
				c-0.97,1.02-2.39,1.79-2.84,3.09c-5.92,17.2-22.31,25.16-33.71,37.45c-5.38,5.79-11.58,10.31-13.61,18.98
				c-0.41,0.45-0.36,0.52-0.4,0.5c-3.37,2.58-6.75,5.11-11.01,7.3c-1.73,0.77-2.97,1.31-4.32,2.61c-0.55,0.59-0.77,0.83-1.31,1.45
				c-0.97,1.12-1.43,1.99-1.99,3.4c-0.67,1.48-1.34,2.3-2.83,2.99c-2.45,0.15-4.73-1.07-6.19,2.14c-0.59,0.74-0.86,1.01-1.64,1.57
				c-2.78,1.14-5.1,1.08-8.01,0.57c-1.58-0.46-2.56-0.96-4.11-0.65c-1.13,0.83-1.81,1.47-2.05,2.93c-0.35,2.66,0.71,4.42,1.9,6.74
				c0.19,1.36,0.03,2.12-0.7,3.33c-1.9,1.43-3.58,1.7-5.93,1.88c-2.33,0.03-4-0.08-6.22-0.68c-3.2-1.4-3.76-4.4-6.16-6.52
				c-0.68-0.6-0.95-0.84-1.64-1.42c-6.16-1.9-8.53,6.62-15.01,4.22c-1.31-0.08-1.8-2.04-2.68-0.05c0.86,5.56,4.83,6.45,8.9,7.83
				c4.96,1.69,10.11,2.5,15.53,4.44c2.54,4.9,1.84,9.8,2.64,15.08c-2.06,9.31-13.88,14.26-21.52,9.59
				c-1.91-1.17-3.86-2.45-5.14-4.27c-3.15-4.51-5.82-4.66-10-0.68c-3.6,3.42-8.05,7.88-14.2,2.24c-2.97-2.93-5.04-6.66-10.15-3.74
				c-11.62,1.14-17.99,9.81-25.7,16.03c-2.73,2.2-4.62,4.22-8.46,4.17c-4.5-0.05-8.01,1.33-4.93,7.18c2.42,4.59,0.05,6.93-4.52,7.47
				c-4.77,0.56-9.57,0.43-14.36,0.1c-2.89-0.2-5.7-0.88-6.98-3.9c-1.24-2.92,0.8-4.72,2.55-6.58c1.32-1.4,3.65-2.91,2.57-4.85
				c-1.61-2.87-3.88-0.03-5.9,0.15c-7.69,0.66-14.6,2.48-20.6,8.1c-3.6,3.37-9.1,2.34-13.86,1.38c-5.66-1.15-10.67-1.08-13.58,5.16
				c-1.42,3.03-4.24,3.75-7.19,2.62c-5.21-1.99-11.01-2.82-15.39-7.71c-0.42-3.99,1.98-4.91,4.58-5.32
				c14.54-2.27,28.19-7.58,42.02-12.29c2.43-0.83,4.85-1.47,8-1.21c1.33,0.01,2.23,1.22,3.06-0.62
				c9.88-5.17,19.39-10.33,30.59-12.79c3.67,0.83,6.34,0.16,8.97-2.61c11.06-6.64,22.02-12.24,33.72-17.67
				c2.02-0.65,3.44-1.17,4.97-2.7c10.84-9.42,22.25-17,34.76-23.96c2.55-1.33,5.51,0.18,7.04-3.04c1.34-5.53,6.21-6.98,9.96-10.33
				c2.19-1.12,4.1-1.61,5.51-3.9c8.77-8.86,17.9-16.45,26.39-24.78c26.89-26.42,51.64-54.73,71.64-86.59
				c11.67-18.59,20.72-38.92,29.99-58.97c7-15.13,13.84-30.26,18.32-46.34c5.29-19.01,10.61-37.94,12.31-57.81
				c0.81-9.45,3.1-18.87,4.05-29.03c2.67-3.68,4.53-6.98,3.98-11.8c-0.13-5.92-0.1-11.16-0.05-17.13c-0.3-5.14-0.21-9.55-0.06-14.67
				c-0.98-9.28,2.25-18.17-2.4-26.98c-2.08-2.64-2.39-5.17-2.46-7.73c-1.05-37.98-10.2-74.45-23.88-109.42
				c-10.48-26.77-21.35-53.83-37.08-78.05c-11.3-17.39-22.68-34.8-36.7-50.62c-19.57-22.08-40.52-42.69-62.72-61.77
				c-13.04-11.21-26.42-23.1-42.99-29.75c-4.26-1.71-7.44-5.14-11.32-7.44c-41.51-24.59-84.91-44.48-132.12-55.84
				c-19.53-4.7-39.14-7.35-58.95-10.17c-22.52-3.21-45.13-3.88-67.47-3.85c-20.6,0.03-41.67-1.05-62.28,3.83
				c-10.6,2.51-21.76,1.37-32.74,3.43c-20.34,3.81-40.1,9.33-59.77,15.44c-33.13,10.3-64.09,25.5-93.79,43.15
				c-17.16,10.2-34.5,20.25-50.52,32.28c-7.03,5.28-12.66,12.12-19.01,18.17c-20.25,19.3-41.8,37.43-58.98,59.63
				c-20.47,26.44-37.83,54.86-51.88,85.37c-7.33,15.93-15.12,31.63-20.36,48.38c-4.89,15.62-7.9,31.77-12.87,48.03
				c-1.72,2.82-4.77,4.19-4.13,8.23c-1.07,18.05-3.48,35.33-5.44,52.66c-2.13,18.88-2.3,37.8,0.06,56.63
				c0.84,6.72,1.46,13.44,2.21,20.16c1.32,11.9,2.76,23.75,6.68,35.35c3.76,11.14,5.2,23.05,8.33,34.47
				c5.02,18.29,10.25,36.83,18.95,53.44c14.78,28.22,29.2,56.81,48.03,82.75c19.17,26.4,41.91,49.74,65.58,71.82
				c17.6,16.41,37.88,30.02,58.22,43.32c17.32,11.33,34.47,22.8,53.72,30.44c28.29,11.23,56.35,23.07,86.29,29.82
				c15.1,3.41,30.05,7.45,45.96,10.29c2.6,0.94,4.17,2.71,7.17,2.5c6.06,0.22,11.65-0.81,17.13,2.72
				c-1.27,6.42-11.76,12.7-17.74,10.68c-3.92-1.32-7.34-2.8-11.05,0.13c-0.88,0.69-2.39,0.99-3.26,0.47
				c-9.44-5.61-19.5-2.21-29.31-2.11c-2.85,0.03-4.95-1.34-6.52-3.39c-3.79-4.95-9.04-6.75-14.88-6.87
				c-10.46-0.22-20.91-0.36-31.31-1.82c-2.9-0.41-6.56-1.21-6.58,3.91c-0.01,2.42-1.88,3.69-4,3.47
				c-6.04-0.65-11.81,0.66-17.64,1.75c-1.69,0.31-3.73,0.24-4.83-1.03c-6.07-7.02-15.44-7.9-22.78-12.52
				c-2.29-1.44-5.82-2.36-4.59-6.07c1.35-4.05,4.92-4.14,8.49-3.43c1.95,0.39,3.75,1.27,5.56,2.08c4.25,1.89,7.11,0.26,9.06-3.53
				c2.23-4.35-0.22-7.57-3.66-9.01c-5.38-2.24-10.59-5.55-16.89-4.89c-3.15,0.33-6.28,0.01-8.87-2.09
				c-8.4-6.84-16.96-7.59-26.09-1.26c-4.28,2.97-11.01,1-14.57,7.12c-2.99,1.64-5.58,1.71-8.82,0.88
				c-6.23-4.46,0.23-7.29,0.39-11.11c-3.08,5.26-12.35,5.01-11.5,13.85c0.14,1.5-2.31,2.11-3.9,2.71
				c-8.62,3.28-8.97,4.57-3.34,12.01c0.5,0.67,1.12,1.25,2.04,2.35c3.62,12.93,12.86,21.1,21.73,30.27
				c0.13,12.28,10.66,11.96,18.14,15.83c1.39,0.22,2.16,0.43,3.49,0.94c2.49,1.77,4.89,2.46,7.38,4.18
				c3.7,12.35,2.43,14.29-9.88,15.27c-3.57,0.28-5.32,2.56-7.44,4.84c-5.92,6.35-12.99,5.84-17.18-1.63
				c-2.83-5.04-6.21-8.49-12.14-9.15c-2.95-0.33-4.43-1.93-5.81-4.99c-2.74-6.06-9.94-7.73-15.09-3.95
				c-4.37,1.95-6.9-0.92-10.3-2.99c-0.47-0.45-0.52-0.34-0.58-0.36c-0.67-0.73-1.01-1.55-1.01-3.16c1.66-5.12,2.51-9.29-1.96-12.91
				c-2.87-2.32-2.86-6-2.9-9.41c-0.11-10.16-0.08-20.33-0.02-30.49c0.02-4.05,0.55-7.91,3.93-10.74c1.86-1.56,2.69-3.7,2.68-6
				c-0.02-5.35,2.36-9.62,5.1-14.04c5.16-8.31,4.14-11.4-3.03-18.57c-13.29-13.28-28.63-24.48-40-39.72
				c-3.23-4.33-9.09-5.46-12.73-9.67c-3.47-4.02-8.03-7.07-9.87-12.42c-1.17-3.42-4.9-3.49-7.93-5.57c-0.55-0.36-0.37-0.4-0.42-0.33
				c-9.74-9.9-16.31-21.97-22.96-34.02c-2.86-5.19-8.01-8.48-12.35-13.22c-0.52-0.33-0.34-0.38-0.38-0.3
				c-2.24-6.81-8.03-11.33-11.57-17.31c-4.76-8.06-9.68-15.98-13.65-24.61c-3.05-6.62-5.63-12.74-6.7-20.04
				c-0.75-5.15-7.76-6.86-10.91-12c-1.89-2.32-2.61-4.42-2.84-6.72c-1.23-11.94-6.47-22.41-12.02-32.77
				c-0.4-0.75-1.08-1.48-1.04-2.29c0.49-11.33-6.99-20.62-8.04-31.5c-0.37-3.76-2.03-6.31-5.4-8.82c-0.62-1.18-0.74-1.9-0.78-3.17
				c-2.94-4.89-0.82-9.97-1.95-14.59c-10.41-42.53-7.8-85.83-7.01-128.94c0.21-11.44-1.17-23.2,2.61-35.2
				c5.59-8.78,4.39-17.99,4.7-26.9c0.16-4.58-0.26-9.13,4.68-11.75c1.27-0.67,2.42-1.9,2.36-3.32c-0.43-11.26,5.7-20.98,7.34-31.67
				c1.45-9.47,4.81-17.8,10.59-25.28c0.86-1.11,2.27-2.05,2.3-3.46c0.3-17.55,13.42-30.33,17.37-46.62
				c1.23-5.06,6.53-8.94,7.71-15.28c0.46-0.52,0.37-0.61,0.43-0.62C105.04,273.15,106.45,269.58,108.03,265.44z"/>
			<path class="st1" d="M723.11,1090.39c-6.56,6.11-15.46,7.45-23.58,9.33c-19.92,4.6-40.01,8.57-60.26,11.91
				c-50.33,8.3-100.92,9.89-151.68,8.24c-30.42-0.99-60.16-6.75-89.67-14.51c-23.06-6.07-45.96-12.27-67.9-21.66
				c-1.22-0.52-2.24-1.52-3.71-2.73c3.31-3.64,6.63-1.29,10.57,0.38c2.82,0.72,5.03,1.49,7.99,1.27c1.41,0.03,2.2,0.19,3.53,0.71
				c10.21,6.51,21.62,7.89,32.82,11.67c13.08-2.37,23.75,3.72,34.97,7.1c10.32,3.11,20.79,5.47,32.17,7.23
				c13.55,4.29,26.97,3.5,40.08,4.1c21.7,0.98,43.5,0.75,65.22,0.07c11.48-0.36,23.03-0.89,35.13-2.7c2.03-1.04,3.49-1.32,5.71-1.36
				c5.22,1.03,9.72,1.66,14.92,0c9.36-2.03,18.26-2.27,27.72-3.59c6.25-0.34,11.62-1.72,17.69-3.09c4.69-1.04,8.79-0.8,13.51-0.96
				c7.16-1.18,13.51-3,20.49-4.83c0.95-0.4,1.34-0.55,2.32-0.88c8.38-0.53,15.63-3.05,23.42-5.99c0.97-0.4,1.37-0.55,2.4-0.84
				C719.38,1088.84,721.09,1088.99,723.11,1090.39z"/>
			<path class="st2" d="M159.18,826.62c6.35-1.85,10.98-0.32,11.85,7.02c0.71,5.98,7.49,9.55,10.08,10.67
				c11.42,4.97,17.13,15.52,25.41,23.18c9.82,9.08,19.69,18.12,29.66,27.06c2.9,2.6,2.01,16.93-1.6,20.6
				c-3.06,3.11-4.09,6.44-3.89,10.65c0.18,3.77,1.16,8.03-4.63,9.27c-2.81,0.6-2.05,3.7-2.06,5.84c-0.07,11.6-0.06,23.2,0,34.81
				c0.01,2.15-0.65,4.79,2.11,5.9c7.81,3.14,5.05,8.44,2.29,13.85c-1.19,0.84-1.9,1.04-3.14,0.41c-0.64-1.25-0.87-2.05-1.1-3.5
				c-2.13-1.87-2.55-4.35-4.32-6.55c-3.49-9.84-4.25-19.46-4.85-29.34c-1.15-18.86,6.9-33.82,17.77-47.79
				c3.99-5.12,4.11-7.42-1.33-12c-13.57-11.4-26.89-23.14-39.69-35.49C180.43,850.28,168.13,840.42,159.18,826.62z"/>
			<path class="st3" d="M895.33,979.71c-0.49,1.42-0.46,2.17-0.61,3.48c-2.71,14.54-15.12,21.5-22.58,31.99
				c-0.49,0.68-1.19,1.15-2.55,1.64c-1.02,0.01-1.43-0.08-2.33-0.52c-2.2-3.26-5-4.19-8.05-5.2c-5.68-1.88-6.59-5.43-1.95-9.08
				c3.58-2.82,4.71-4.37,0.41-7.2c-2.19-1.44-3.94-3.65-2.66-6.46c1.52-3.34,4.24-1.92,6.55-0.97c3.86,1.6,6.13,0.05,6.89-3.63
				c0.96-4.59,3.51-6.8,8.16-6.91c1.69-0.04,3.31-0.72,4.78-1.61c2.02-1.23,3.69-2.75,3.3-5.39c-0.37-2.49-2.39-2.97-4.43-3.09
				c-6.27-0.38-7.92-4.47-8.07-9.83c-0.11-4.23-0.3-8.48,0.07-12.7c0.7-8.13,3.57-9.41,10.98-5.06c0.53-6.09-4.85-11.17-2.56-17.98
				c3.86-2.61,7.03-2.45,8.71,1.59c1.1,2.66,3.6,4.39,4.61,7.8c0.53,1.36,0.71,2.15,0.82,3.55c1.39,2.03,2.34,3.76,2.36,5.8
				C897.29,952.98,899.24,966.1,895.33,979.71z"/>
			<path class="st4" d="M101.36,276.08c-0.38,4.94,3.07,11.85-5.32,14.28c-0.69,0.2-1.25,2.57-1.06,3.8
				c0.79,4.97-1.61,8.65-4.49,12.15c-2.75,3.34-4.79,6.81-4.19,11.41c0.17,1.29-0.19,3.69-0.83,3.89c-8.7,2.66-5.95,9.86-5.69,15.38
				c0.35,7.2-8.47,7.34-9.12,13.52c-0.18,1.75-2.91,3.38-2.85,5c0.55,14.25-9.36,26.22-8.64,40.47c0.21,4.12,1.07,8.61-5.64,8.95
				c-3.35,0.17-2.65,3.83-2.69,6.22c-0.13,7.05-0.07,14.1-0.13,21.15c-0.02,2.78,0.47,5.95-4.47,6.25c-0.95,0.25-1.19,0.46-1.8,0.37
				c-0.38-2.68-0.39-5.05-0.22-8.12c2.13-2.94,0.8-6.1,2.71-8.92c-0.22-11.91,3.21-22.28,7.72-32.71c3.27-7.56,4.87-15.9,7.32-23.86
				c3.81-12.37,9.81-23.95,12.99-36.42c2.42-9.47,5.65-18.45,10.53-26.84C90.51,293.44,95.76,284.96,101.36,276.08z"/>
			<path class="st5" d="M723.71,50.84c-4.05,1.34-6.55-1.58-9.64-2.45c-15.35-4.31-29.96-12.04-46.62-10.59
				c-4.06,0.35-7.68-0.29-10.85-3.35c-1.54-1.49-3.92-2.73-6.03-2.92c-18.91-1.72-37.42-6.86-56.44-7.19
				c-23.18-0.41-46.38-0.2-69.56-0.05c-9.24,0.06-18.38,3.14-28.24,0.6c5.08-2.53,10.87-3.5,16.86-3.63
				c29.12-0.61,58.33-1.85,87.32,0.53c25.02,2.05,49.99,5.52,74.56,11.92c14.46,3.77,29.07,7.28,44.17,11.31
				C721.69,46.61,724.48,47.13,723.71,50.84z"/>
			<path class="st5" d="M489.87,24.33c-0.92,4.56-3.89,7.05-8.81,6.69c-3.17-0.23-4.78,0.91-6.17,4.19c-1.7,3.99-5.08,3.7-7.76,0.22
				c-4.02-5.23-11.18-6.41-16.07-1.92c-3.36,3.09-6.7,4.85-11.28,4.39c-1.32-0.13-3.38,0-3.98,0.83c-5.73,7.82-14.01,5.56-21.69,5.9
				c-4.94,0.22-11.07-2.11-12.95,5.58c-0.14,0.58-2.03,1.2-2.98,1.04c-9.08-1.51-17.04,0.98-23.35,7.42
				c-7.3,7.45-16.36,6.34-26.08,6.35c-1.3-0.62-1.55-1.33-1.12-2.6c1.08-0.63,1.8-0.81,3.06-0.93c1.39-0.69,2.22-1.42,3.64-2.3
				c11.64-4.35,22.69-8.73,33.98-12.38c15.04-4.86,30.39-8.67,45.64-12.82c14.91-4.06,30.23-5.06,45.1-8.77
				C482.29,24.4,485.76,24.49,489.87,24.33z"/>
			<path class="st6" d="M43.87,439.23c0.2-0.61,0.93-0.62,1.3-0.62c-3.07,42.74-0.56,85.56-1.11,128.34
				c-0.1,7.54,2.49,14.65,5.25,21.79c3.49,9.04,0.68,18.92,1.48,29.19c-6.24-6.04-4.8-15.22-6.04-23.05
				c-4.42-27.98-8.38-56.23-7.15-84.66C38.62,486.71,38.91,463.06,43.87,439.23z"/>
			<path class="st5" d="M1075.15,505.97c-5.89-0.04-7.26-3.22-7.19-8.26c0.23-16.95,0-33.91,0.12-50.86
				c0.03-4.14-0.29-7.68-4.32-10.15c-4.14-2.53-3.77-6.93-4.4-11.2c-1.15-7.77,4.38-16.7-5.72-23.45
				c-2.97-1.99-0.73-11.76-0.87-18.75c3.69-1.76,4.39,1.29,6.07,3.92c0.38,6.99,5.36,12.49,4.23,19.97c2.64,3.28,2.3,7.17,4.4,10.61
				c0.5,2.22,0.63,3.99,0.7,6.42c2.61,3.3,0.73,7.1,2.64,10.53c0.44,1.26,0.53,2.01,0.54,3.32c0.44,8.17,2.04,15.65,2.79,23.81
				c0.52,5.68,0.71,10.81,0.79,16.71C1078.01,487.93,1076.54,496.67,1075.15,505.97z"/>
			<path class="st7" d="M1059.94,615.49c-0.27-1.13-0.27-1.79-0.28-2.96c3.79-8.74,1.31-18.38,5.82-26.49
				c0.67-1.2,0.88-2.65,2.18-4.31c0.45-2.82,0.47-5.12,0.46-8.12c1.09-4.11,1.54-7.62,1.65-11.2c0.08-2.51,0.07-5.14,4.12-5.28
				c1.81,14.29-2.92,27.49-4.6,41.09c-2.22,17.95-9.72,34.44-13.44,52c-2.57,12.13-7.2,23.89-11.79,35.47
				c-1.42,3.59,0.22,8.15-4.17,11.04c-0.6-4.27-0.61-8.75-0.63-13.24c-0.01-3.07-0.49-6.31,3.54-7.57c0.67-0.21,1.56-1.2,1.57-1.84
				c0.04-9.99,6.46-18.08,8.17-27.39c1.49-8.11-1.45-17.25,6.95-23.94C1060.98,620.19,1060.34,618.04,1059.94,615.49z"/>
			<path class="st6" d="M924.22,859.63c-1.84-10.46,3.82-15.66,12.38-21.09c5.89-3.73,10.47-10.71,16.06-15.72
				c3.98-3.56,5.92-9.52,11.94-10.68c3.03-0.58,2.96-2.8,3.28-5.08c1.59-11.35,11.15-15.94,19.55-22.07
				c-6.01,12.53-14.63,23.68-23.86,34.41c-8.46,9.83-15.68,20.74-25.69,29.21C933.55,852.28,929.17,855.9,924.22,859.63z"/>
			<path class="st4" d="M958.99,200.39c-2.22,0.53-4.48,0.29-6.71,0.46c-4.54,0.34-6.98-1.23-6.51-6.17
				c0.42-4.36-1.84-5.57-5.65-8.07c-6.05-3.97-14.42-7.38-16.26-15.66c-1.11-5.01-5.99-5.54-8.41-9.23c-3.3-5.02-9.61-8.38-13.18-14
				c-0.55-0.87-2.52-1.2-3.81-1.17c-8.19,0.23-10.87-4.33-10.49-12.36C914.96,152.08,937.73,175.12,958.99,200.39z"/>
			<path class="st8" d="M870.92,1019.04c-6.65,9.34-16.58,14.38-25.56,20.45c-17.04,11.52-35.41,20.62-55.56,27.41
				c-2.7,1.85-5.09,2.67-8.36,2.41c-2.07-2.69-0.85-4.39,1.42-6.32c1.59-1.04,2.74-1.56,4.46-2.28c4.27-1.34,8.26-1.74,11.88-4.67
				c4.53-2.2,9.83-0.8,13.22-5.58c-0.01-4.84-0.38-9.15,5.88-9.47c10.61-0.54,18.83-6.66,27.38-11.96c1.22-0.75,2.49-1.25,4.46-1.7
				c7.38-0.81,8.78-6.84,12.21-11.73c1.73-0.9,2.97-0.89,4.7,0.07c0.5,0.41,0.53,0.46,0.53,0.48
				C868.53,1017.1,869.8,1017.61,870.92,1019.04z"/>
			<path class="st6" d="M724.05,51.34c-0.55-2.52-3.24-3.12-4.14-5.51c21.33,4.94,41.27,14.41,61.57,22.81
				c14.54,6.01,29.17,12.27,42.12,21.43c4.57,3.23,10.65,3.47,14.6,8.55c-10.01,2.94-16.09-4.42-23.03-9.63
				c-7.01-5.26-13.84-10.78-23.33-10.51c-1.44,0.04-2.93-0.24-3.58-1.72c-2.31-5.26-6.98-4.9-11.52-5.04
				c-3.98-0.13-8.91,1.48-9.83-4.91c-0.07-0.45-0.82-1.23-1.06-1.17c-9.24,2.55-14.09-8.14-22.65-7.49
				c-2.55,0.19-4.01-1.48-5.84-2.84C733.68,52.58,729.51,50.87,724.05,51.34z"/>
			<path class="st2" d="M80.65,703.48c9.27,3.11,14.16,9.62,14.26,18.09c0.05,4.04-1.25,8.81,5,9.79c0.57,0.09,1.4,1.22,1.4,1.86
				c-0.03,5.64,5.11,10.01,5.82,13.5c1.52,7.49,6.71,11.79,9.92,17.48c2.39,4.24,8.59,6.34,6.58,13.65
				c-4.3,1.32-6.13-2.11-7.59-4.73c-7.34-13.17-14.81-26.27-21.89-39.6c-4.57-8.6-10.62-16.48-14.34-26.33
				C78.66,705.4,78.93,704.37,80.65,703.48z"/>
			<path class="st6" d="M81.19,702.85c-0.4,1.4-0.88,2.1-1.4,3.25c-5.41-3.49-4.35-10.21-6.34-15.47
				c-6.83-18.06-13.62-36.19-18.21-55.05c-0.99-4.07-5.34-7.22-4.44-12.89c6.95-1.7,9.24,1.39,8.47,7.95
				c-0.61,5.21,0.23,10.16,4.88,13.68c0.8,0.61,1.53,1.81,1.62,2.79c0.65,7.82,2.46,14.74,5.72,22.36
				c3.76,8.81,11.43,18.14,8.63,29.49C79.89,699.88,80.76,701.08,81.19,702.85z"/>
			<path class="st7" d="M338.37,1083.19c-4.39,0.79-6.91-3.67-11.76-2.69c-3.22,0.39-5.57-0.11-7.86-1.44
				c-12.61-7.31-25.27-14.54-38.25-22.26c-0.97-1.08-1.18-1.83-0.64-3.21c2.4-1.81,4.42-1,7.03-0.29c2.96,0.93,5.39,1.18,8.48,1.14
				c3.19-0.06,5.74-0.05,8.83,0.85c5.4,3.32,5.68,10.55,12.4,12.51c9.01-1.19,14.52,4.6,21.38,8.82
				C339.51,1078.89,339.58,1080.72,338.37,1083.19z"/>
			<path class="st2" d="M1011.07,751.24c-1.18-6.38-1.2-12.75,3.33-18.13c2.32-2.75,2.88-5.93,2.75-9.44
				c-0.1-2.71-0.64-5.85,3.42-6.56c2.03-0.36,1.9-1.34,1.77-3.48c-0.42-7.23,8.16-16.1,16.22-16.84c1.21,3.58-0.31,6.45-2.29,9.26
				C1026.36,720.14,1021.71,737.11,1011.07,751.24z"/>
			<path class="st6" d="M260.02,112.07c-0.3,4.03-1.55,5.47-5.14,7.66c-11.3,6.89-23.01,13.18-31.83,24.14
				c-3.87,4.8-10.12,12.3-20.15,9.56c1.92-5.98,7.6-9.02,12.47-12.44c14.59-10.23,27.2-23.15,43.7-31.6
				C260.2,110.03,260.45,110.76,260.02,112.07z"/>
			<path class="st8" d="M724.26,1090.94c-2.61-0.11-4.5-0.17-7.1-0.23c-4.21-6.12-0.59-8.77,4.62-8.92
				c11.77-0.32,21.06-6.27,30.52-12.06c3.87-2.37,8.14-1.84,13.04-1.91c2.56,0.15,4.42,0.07,6.94,0.42
				c1.11,0.25,1.55,0.39,2.57,0.87c1.8,1.51,1.63,2.66,0,4.17c-0.55,0.37-0.64,0.51-0.72,0.49c-1.5,2.04-4.1,1.31-6.36,2.75
				C753.42,1082.19,740.12,1089.35,724.26,1090.94z"/>
			<path class="st2" d="M260.36,112.54c-0.7-0.69-0.69-1.4-0.68-2.63c0-0.53,0.08-0.72,0.17-0.68c0.63-0.85,1.37-1.51,2.77-2.14
				c1.07-0.6,1.68-1.03,2.87-1.47c1.73-0.68,2.65-1.62,4.02-2.78c10.62-9.29,23.43-13.94,35.53-20.83c2.97-1.43,4.11-0.43,4.22,2.59
				c-0.61,2.77,0.27,6.5-1.93,6.6c-6.51,0.3-11.65,6.73-15.58,6.77c-9.85,0.11-13.98,6.91-19.78,11.69
				C268.43,112.58,264.91,112.41,260.36,112.54z"/>
			<path class="st1" d="M277.1,1052.48c-21.17-12.15-39.42-27.53-49.57-51.18c4.85-2.63,5.25,2.31,7.41,4.21
				c2.48,2.17,3.85,5.38,5.96,8.64c1.28,1.55,2.12,2.74,3.5,4.17c1.33,1.4,2.25,2.45,3.68,3.77c1.42,1.37,2.41,2.42,3.84,3.82
				c6.53,6.7,13.44,12.09,20.94,17.65c1.78,1.68,2.55,3.41,3.96,5.37C277.44,1050.06,277.6,1050.78,277.1,1052.48z"/>
			<path class="st2" d="M123.52,779.09c8.1-1.59,9.81,6.01,13.91,10.2c4.98,5.08,4.11,14.5,12.47,17.35c0.5,0.17,0.91,1.45,0.89,2.2
				c-0.16,5.56,1.35,9.73,7.5,11.29c1.58,0.4,1.04,2.95,1.01,5.3c-11.9-6.43-16.13-19.83-24.89-29.54
				C130.11,791.12,127.14,785.14,123.52,779.09z"/>
			<path class="st6" d="M309.61,85.26c-0.82-1.48-1.31-2.68-3.42-3.15c9.65-9.16,23.22-11.2,34.85-17.23
				c1.91-0.99,3.81-2.01,6.35-2.97c0.63,0.73,0.62,1.41,0.61,2.61c-1.27,4.2-3.58,7.07-7.63,7.06c-3.83-0.01-6.3,1.88-8.57,4.37
				c-1.63,1.78-3.46,2.72-5.86,2.57c-5.07-0.32-10.08-0.64-11.75,5.99C314.03,85.06,311.63,85.04,309.61,85.26z"/>
			<path class="st4" d="M895.27,979.93c-0.5-14.26-0.55-28.95-0.57-44.42c9.06,6.51,6.27,17.13,6.06,26.1
				C900.62,967.2,903.68,975.46,895.27,979.93z"/>
			<path class="st4" d="M1010.53,271.39c-5.56-5.91-15.4-8.67-16.52-19.27c-0.41-3.88-5.27-8.27-7.24-9.05
				c-7.39-2.97-4.67-8.56-5.49-14.01c4.12,1.5,5.98,5.69,8.02,9.42C995.53,249.81,1005.71,258.53,1010.53,271.39z"/>
			<path class="st4" d="M871.7,1019.39c-2.05-0.13-3.5-0.39-4.04-2.69c3.89-0.82,3.02-4.66,4.45-6.79
				c2.49-3.71,3.59-8.13,10.03-7.93c5.01,0.15,6-4.9,5.93-9.46c-0.05-3.89-0.67-8.25,5.81-8.77
				C892.29,998.81,883.56,1009.85,871.7,1019.39z"/>
			<path class="st7" d="M1074.63,507.36c-0.04-9.33-0.03-17.88,0.09-27.21c2.99,2.78,2.7,7.15,2.91,11.29
				c1.04,20.52,0.8,41.01-2.76,61.97c-5.4-4.21-5.76-9.87-1-19.06C1074.44,525.19,1074.56,516.67,1074.63,507.36z"/>
			<path class="st6" d="M909.77,866.9c5-1.58,7.01-7.53,13.2-7.18c-9.49,13.28-22.2,23.67-36.55,32.75
				c-0.59-5.94,3.85-8.41,7.98-11.85c0.43-0.41,0.41-0.45,0.43-0.44c1.5-1.86,3.53-2.62,6.3-3.15c1.04-1.02,1.59-1.79,2.19-3.06
				c0.87-1.49,1.79-2.39,3.05-3.63c0.35-0.33,0.32-0.37,0.34-0.35C907.61,869.06,908.53,868.16,909.77,866.9z"/>
			<path class="st6" d="M885.93,132.44c-6.19,1.64-10.61-0.86-14.76-6.18c-6.03-7.73-16.08-11.2-22.19-19.79
				C861.94,113.44,875.26,120.6,885.93,132.44z"/>
			<path class="st2" d="M143.3,214.13c1.15,11.27-8.02,24.78-18.75,27.52C128.37,231.27,135.68,222.83,143.3,214.13z"/>
			<path class="st4" d="M981.22,227.5c-6.61,2.87-7.49-4.24-10.13-6.83c-4.97-4.87-15.07-7.46-11.91-18.7
				C968.06,208.47,974.69,217.65,981.22,227.5z"/>
			<path class="st5" d="M1073.7,533.82c-0.37,6.29-1.29,12.7,0.5,19.68c0.49,1.28,0.54,2.05,0.46,3.38
				c-5.89,3.95-1.99,10.97-6.09,15.6c-0.48-9.82-0.38-20.09-0.6-30.35C1067.89,538.05,1068.75,535.02,1073.7,533.82z"/>
			<path class="st6" d="M874.08,894.38c2.25-0.56,4.03-0.57,6.46-0.61c1.68-0.96,2.87-1.33,4.82-0.83c0.58,0.29,0.63,0.36,0.66,0.4
				c-3,5.13-11.01,8.93-3.95,17.09c0.54,2.06,0.14,3.34-1.86,4.4C872.27,910.01,870.7,904.7,874.08,894.38z"/>
			<path class="st4" d="M123.33,241.98c0.39,10.15-3.71,16.31-13.65,20.06C112.95,254.97,115.59,247.02,123.33,241.98z"/>
			<path class="st2" d="M996.04,771.47c-0.92-9.23,5.55-18.48,13.82-20.27c0.42,5.72-3.64,9.53-6.51,14.61
				C1001.32,768.35,999.28,770,996.04,771.47z"/>
			<path class="st4" d="M1023.93,295.33c-3.6,0.66-7.08,0.83-6.85-4.39c0.17-3.85-0.98-6.98-4.84-9.06c-3.4-1.83-1.46-5.6-1.85-9.23
				C1016.45,278.63,1020.65,286.41,1023.93,295.33z"/>
			<path class="st6" d="M1046.1,349.55c-4.87,1.26-7.31-0.37-6.98-5.71c0.33-5.24-0.02-10.52-0.01-16.57
				C1044.28,333.06,1043.87,341.37,1046.1,349.55z"/>
			<path class="st4" d="M880.8,914.52c0.59-1.33,0.78-2.15,1.28-3.26c7.59,3.94,9.39,11.68,12.32,19.26
				c-3.4-0.51-5.58-2.89-6.31-6.2c-0.73-3.31-2.98-3.43-6.64-3.88C879.5,918.32,879.48,916.67,880.8,914.52z"/>
			<path class="st2" d="M158.46,200.36c0.99,3.85,1.35,7.52-3.72,7.29c-4.94-0.23-3.17,9.02-10.24,6.6
				c0.6-4.27,3.94-7.13,6.54-11.18C153.11,201.06,155.29,200.46,158.46,200.36z"/>
			<path class="st2" d="M241.36,1016.09c-5.96-3.85-7.83-10.64-13.16-15.29c-0.65-0.41-0.73-0.69-0.73-1.4
				c3.7-1.16,6.25,0.98,9.52,2.93c2.89,3.2,6.7,4.94,8.24,9.29C244.61,1013.9,243.34,1014.95,241.36,1016.09z"/>
			<path class="st7" d="M1074.64,461.67c-5.32-6.16-4.31-14.17-3.78-22.53C1072.14,446.12,1075.86,453.14,1074.64,461.67z"/>
			<path class="st6" d="M1059.27,387.02c-3.19,0.6-3.37-2.85-6.01-4.26c-0.57-3.7-0.67-7.14-0.88-11.32
				c-0.19-1.07-0.27-1.4,0.02-2.11C1058.26,373.5,1055.6,381.15,1059.27,387.02z"/>
			<path class="st6" d="M1046.55,364.24c-0.6-4.47-0.63-8.5-0.61-13.29c4.97,1.98,3.04,8.26,6.48,12.34
				C1050.79,365.44,1049.02,365.53,1046.55,364.24z"/>
			<path class="st2" d="M165.79,190.44c-0.47,4.13,3.29,10.49-5.65,10.39c-0.69,0.01-0.72-0.02-0.74-0.04
				c-0.95-1.18-1.22-2.46-0.36-4.46c0.42-0.9,0.43-1.24,0.82-1.91C161.54,192.26,163.12,190.8,165.79,190.44z"/>
			<path class="st4" d="M107.74,265.1c-0.26,3.81,3.89,10.17-5.21,10.52C102.51,271.61,104.82,268.43,107.74,265.1z"/>
			<path class="st6" d="M848.53,105.33c-3.59-0.41-9.68,2.97-9.86-5.48C842.32,100.29,845.5,102.25,848.53,105.33z"/>
			<path class="st9" d="M774.95,1073.74c-0.19-0.88,0.26-1.67,0.93-2.87c1.11-1.86,2.52-2.21,4.64-2.13
				c2.85-0.58,5.15-1.25,8.03-1.85C785.83,1071.65,780.55,1072.4,774.95,1073.74z"/>
			<path class="st5" d="M1045.98,364.47c1.71-0.63,3.4-0.59,5.73-0.55c0.83,1.25,1.03,2.51,1.13,4.4c-0.17,0.93-0.25,1.22-0.46,1.95
				C1048.25,371.02,1045.35,370.06,1045.98,364.47z"/>
			<path class="st7" d="M1067.96,417.6c-4.9-0.63-5.05-4.49-5.06-9.03C1066.76,409.77,1068.4,412.81,1067.96,417.6z"/>
			<path class="st2" d="M988.83,778.69c-0.9-4.31-0.6-7.74,5.47-7.23c0.67-0.02,0.7,0.01,0.7,0.01c0.67,0.69,0.93,1.51,0.43,3.03
				c-0.35,0.57-0.41,1.37-0.62,1.71C993.24,778.18,991.77,779.63,988.83,778.69z"/>
			<path class="st6" d="M194.6,160.3c0.57,1.17,0.53,2.39,0.47,4.22c-1.73,2.58-3.65,4.08-7.51,2.94
				C187.16,162.49,192.38,163.5,194.6,160.3z"/>
			<path class="st6" d="M988.28,778.99c1.77-1.21,3.5-1.76,5.78-2.37c-1.29,2.57-3.12,5.21-5.45,8.08
				C988.17,783.17,988.2,781.4,988.28,778.99z"/>
			<path class="st6" d="M995.65,774.91c-0.59-0.64-0.62-1.44-0.64-2.84c2.97-1.41,3.14-5.99,7.48-5.72
				C1000.77,769.15,998.49,771.95,995.65,774.91z"/>
			<path class="st7" d="M1071.31,434.61c-5.11-0.94-2.76-5.19-3.31-9.03C1071.55,427.05,1071.36,430.55,1071.31,434.61z"/>
			<path class="st6" d="M159.04,196.16c0.4,0.87,0.4,2.12,0.37,4c-2.31,1.21-4.6,1.79-7.49,2.39
				C153.76,200.55,156.19,198.55,159.04,196.16z"/>
			<path class="st7" d="M219.46,985.91c3.93-0.92,4.84,1.4,4.73,5.23C222.24,990.29,219.56,989.51,219.46,985.91z"/>
			<path class="st6" d="M46.94,421.89c0,2.36,1.72,5.61-1.94,8.05C44,427.21,44.75,424.63,46.94,421.89z"/>
			<path class="st6" d="M183.72,173.29c-1.22,0.4-1.96,0.42-3.25,0.43c-0.56-3.76,3.01-4.52,5.52-6.79
				c0.55-0.15,0.75,0.05,0.84,0.15C188.51,170.28,186.46,171.65,183.72,173.29z"/>
			<path class="st6" d="M166.31,190.24c-1.73,1.58-3.41,2.65-5.58,3.79c1.26-1.93,3-3.92,5.22-6.13
				C166.4,188.37,166.38,189.05,166.31,190.24z"/>
			<path class="st6" d="M198.91,159.78c-1.09,0.36-1.81,0.39-3.08,0.41c-0.14-3.45,2.96-4.58,5.63-6.61
				c0.56,0.66,0.55,1.36,0.51,2.6C201.06,157.64,200.51,158.88,198.91,159.78z"/>
			<path class="st6" d="M179.32,173.88c0.57,0.61,0.58,1.35,0.56,2.65c-1.45,2.17-2.03,4.71-5.79,4.41
				C173.37,176.94,176.81,176.12,179.32,173.88z"/>
			<path class="st9" d="M767.93,1076.92c-0.06-3.41,2.6-3.08,5.53-3.24C773.29,1076.66,770.92,1076.87,767.93,1076.92z"/>
			<path class="st1" d="M279.06,1052.93c1.06,1.07,1.08,1.74,1.11,2.91c-1.44,0.47-2.65,0.04-3.39-1.93c-0.19-0.47,0-0.68,0.1-0.78
				C277.33,1052.86,277.67,1052.7,279.06,1052.93z"/>
			<path class="st6" d="M262.7,106.99c0.14,1.17-0.6,1.94-2.31,2.23C260.74,108.53,261.53,107.8,262.7,106.99z"/>
			<path class="st6" d="M269.33,102.51c0.34,1.63-0.3,2.88-2.7,3.07C266.46,104.11,266.83,102.62,269.33,102.51z"/>
			<path class="st6" d="M354.34,58.94c0.31,1.5-0.46,2.46-2.58,2.62C352.13,60.68,353,59.83,354.34,58.94z"/>
			<path class="st6" d="M170.83,184.25c-0.73-1.67-0.28-2.96,1.77-3.57c0.49-0.17,0.63-0.02,0.7,0.05
				C174.28,182.59,173.64,183.78,170.83,184.25z"/>
			<path class="st1" d="M224.78,995.94c0.72-0.49,1.38-0.49,2.52-0.38c0.43,0.86,0.38,1.62,0.2,2.93
				C226.07,998.6,224.86,998.07,224.78,995.94z"/>
			<path class="st6" d="M170.03,186.84c-1.04,0.49-1.72,0.53-2.91,0.57c-0.47-1.5-0.03-2.73,2.11-3.32
				c0.51-0.14,0.65-0.01,0.72,0.05C170.44,184.88,170.57,185.61,170.03,186.84z"/>
			<path class="st9" d="M862.78,859.27c-3.84,3.3-7.26,6.3-10.83,9.88c-1.21,3.01-4.06,2.04-6.04,3.83
				c-11.99,8.05-23.97,15.2-35.36,24.21c-1.5,0.92-2.4,1.69-3.77,2.8c-11.87,6.11-23.27,11.87-35.3,17.78
				c-2.42,1.35-4.5,1.95-6.88,3.11c-5.81-1.58-10.02,2.09-13.88,4.08c-6.1,3.15-12.79,4.83-18.83,8.9
				c-6.39-0.93-11.46,2.93-16.95,4.49c-12.89,3.66-25.22,9.36-38.85,10.26c-0.65,0.04-1.23,0.99-2.08,2.15
				c-5.95,4.57-12.94,4.71-19.3,5.97c-6.75,1.35-13.7,2.37-21.27,3.17c-5.72-2.64-10.8-4.44-16.61-0.25
				c-5.91,4.29-11.7,5.4-18.67,2.73c-2.14-1.2-3.76-1.61-5.5-1.62c-22.06-0.11-44.13-0.11-66.19,0c-0.86,0-1.63,0.39-2.93,1.22
				c-7.49,3.4-13.85,2.08-20.4-2.49c-6.25-0.69-11.93-1.04-18.34-1.4c-2.05-1.2-3.82-1.46-5.74-2.57
				c-16.23-1.53-31.22-6.59-46.57-9.77c-14.41-2.98-27.89-8.63-42.21-11.66c-7.94-1.68-15.03-6.99-22.86-9.59
				c-20.48-6.79-40.25-15.15-58.17-27.15c-15.44-10.35-31.32-20.01-46.15-31.37c-14.15-10.84-28.76-21.03-41.31-33.75
				c-9.07-9.19-17.64-18.87-26.58-28.19c-14.98-15.61-28.34-32.3-39.87-50.79c-11.37-18.23-20.6-37.6-31.86-55.77
				c-9.67-15.61-14.46-32.94-20.6-49.72c-3.63-9.92-6-20.7-8.74-31.07c-2.02-7.64,0.37-17.13-7.03-23.24
				c-0.51-0.42-0.47-1.58-0.56-2.42c-3.74-33.2-9.14-66.34-6.59-99.9c1.47-19.28,4.34-38.45,6.63-58.44
				c1.95-2.47,2.49-5.06,4.41-7.39c2.29-13.54,6.47-26.12,9.48-38.96c3.12-13.33,7.65-26.1,13.25-38.34
				c10.63-23.26,21.22-46.65,35.04-68.26c8.58-13.42,17.55-26.69,27.48-39.12c22.73-28.42,50.03-52.55,77.08-76.54
				c11.15-9.89,23.15-20.86,38.88-25.1c6.11-1.64,10.15-7.46,15.68-10.84c22.72-13.84,46.81-24.95,71.3-34.77
				c16.2-6.5,33.34-11.18,50.5-15.55c20.43-5.21,40.94-7.49,61.67-10.26c24.02-3.21,48.02-3.8,72-4.02
				c15.43-0.14,31.2-0.11,46.49,1.93c17.98,2.4,36.45,2.49,53.86,6.94c14.03,3.58,28.12,7.92,42.13,11.83
				c22.05,6.15,42.83,15.14,63.18,25c18.04,8.74,35.46,18.89,52.82,29.07c15.43,9.04,29.34,20.05,44.19,29.68
				c10.26,6.66,19.21,16.12,27.76,25.46c8.82,9.64,19.1,17.94,27.98,27.54c14.44,15.62,27.2,32.47,39.08,50.29
				c15.79,23.69,26.02,49.75,38.49,74.91c10.08,20.33,15.61,41.53,21.48,62.97c6.14,22.4,10.24,45.04,10.12,69.11
				c3.26,5.19,1.88,10.32,2.28,15.19c0.34,4.04-1.14,8.29,1.83,12.64c0.47,5.07,0.51,9.58,0.49,14.83
				c-4.45,6.3-1.48,12.82-2.43,19.52c0.23,3.62-0.21,6.42-1.81,9.71c-0.03,20.94-4.12,40.89-8.13,60.49
				c-4.38,21.44-10.9,42.76-19.91,62.85c-8.95,19.95-19.61,39.14-29.53,58.65c-12.51,24.6-30.02,45.5-47.84,66.33
				c-17.65,20.63-36.3,40.09-57.82,57.56C866.5,857.87,864.61,858,862.78,859.27z"/>
			<path class="st10" d="M502.25,959.74c6.73-0.85,12.58,3.38,19.91,1.77c4.07-2.31,7.83-1.44,11.42-1.5
				c21.65-0.32,43.32,0.52,65.33,0.22c6.03,2.31,11.3,1.32,16.85-1.94c5.02-2.66,9.68-1.72,15-0.79c9.98-2.16,19.79-1.66,29.02-4.93
				c3.83-1.36,8.32-0.86,13.25-1.2c4.19,1.17,7.69,2.22,11.09,3.53c4.98,1.93,9.33,5.22,12.09-3.62c1.62-5.18,8.24-3.45,12.92-2.51
				c7.15,1.44,14.1,2.77,18.09-5.76c0.37-0.8,1.73-1.25,2.72-1.61c5.71-2.1,12.52,0.63,17.81-4.32c0.9-0.84,6.41,0.99,6.56,2.04
				c0.46,3.24-1.68,6.33-4.1,8.53c-1.54,1.39-4.82,1.42-4.02,4.43c0.83,3.11,3.87,2.74,6.39,2.78c2.83,0.04,5.65,0.02,8.48,0.01
				c9.81-0.02,10.06-0.16,5.09-8.63c-2.38-4.06-1.1-4.56,2.7-5.05c10.82-1.39,18.61-7.87,25.64-15.69c3.65-4.06,8.82-4.63,14.7-4.6
				c2.06,0.36,3.05,1.32,4.57,2.41c1.36,0.86,2.33,1.16,3.9,0.52c0.87-0.21,1.24-0.23,2.01,0.1c6.65,3.97,11.52,1.18,14.94-3.73
				c4.09-5.87,5.91-4.16,9.74,0.52c2.99,3.65,6.24,12.34,13.77,4.38c1.01-1.07,2.68-0.73,3.85,0.33c6.07,5.5,4.91-1.45,6.91-4.14
				c3.76-3.12,7.31-3.34,11.7-0.92c0.65,0.49,0.64,0.51,0.65,0.51c0.44,6.41,3.55,12.04,5.35,18.06c0.58,1.93,2.11,3.87-0.23,5.1
				c-2.28,1.21-4.48,0.47-5.08-2.5c-0.44-2.21-1.43-3.74-3.94-3.36c-3.16,0.47-2.86,3.02-2.89,5.23c-0.06,4.52-0.02,9.03-0.02,13.55
				c0,5.07,0.48,9.58,7.58,6.96c2.83-1.05,4.25,0.75,5.12,3.01c1.03,2.68,1.72,5.48-0.61,7.89c-0.97,1-2.12,2.16-3.38,2.49
				c-6.62,1.71-12.86,3-14.48,11.7c-0.73,3.9-4.96,3.76-8.02,0.56c-1.06-1.11-2.57-2.97-4.13-1.01c-1.37,1.72,0.14,3.04,1.65,4.01
				c1.42,0.91,2.73,2.03,4.24,2.75c1.53,0.73,3.4,1.02,3.19,3.25c-0.22,2.31-1.83,3.4-3.96,3.72c-2.59,0.39-5.54,0.78-5.39,4.1
				c0.18,3.91,3.68,2.78,5.92,2.74c3.98-0.07,5.82,1.5,5.42,6.21c-1.24,0.72-2.47,0.73-4.3,0.73c-4.35,3.82-7.4,8.15-10.57,13.1
				c-2.7,0.88-6.01-0.39-6.73,3c-0.88,4.14-3.66,4.41-6.89,4.28c-3.52-0.14-6.28,0.08-7.59,4.51c-1.13,3.81-5.36,2.51-8.09,2.17
				c-6.48-0.8-9.89,0.58-7.92,8.25c-2.48,0.26-4.06-0.85-6.01-2.46c-3-4.31-5-3.04-7.15,0.8c-4.88,4.15-9.77,6.58-16.41,5.25
				c-7.82-5.37-7.2,2.07-9.69,5.64c-3.01,1.94-5.99,2.53-9.2,4.29c-6.96,1.72-12.15,0.66-18.02-3.22
				c-7.58-5.01-16.98-2.75-25.55-1.19c-10.82,1.97-21.5,5.32-32.29-0.09c-1.79-0.9-4.19-0.96-5.67,0.47
				c-7.54,7.29-16.92,4.85-26.46,5.17c-6.21,0.35-9.69-5.44-14.26-5.54c-5.89-0.13-1.84,8.05-6.57,10.76
				c-6.55,3.76-12.48,8.55-21.23,8.21c-1.93,0.09-3.22,0.11-5.17,0.06c-5.9-0.12-11.13-0.18-16.6,2.55c-4.84,2-8.89,4.58-14.43,2.86
				c-4.4-4.55-9.15-5.28-14.5-4.31c-11.17,2.02-22.34,3.19-33.53-0.1c-4.4-1.3-8.24,0.47-11.96,2.81c-5.98,3.76-12.24,4.18-18.4,0.5
				c-3.12-1.86-6.24-2.51-9.7-1.52c-6.24,1.78-12.45,3.69-19.07,3.51c-1.74-0.05-3.15,1.04-4.55,2.03
				c-8.55,5.97-9.45,6.15-17.14-1.04c-5.77-5.4-12.23-7.31-19.99-7.37c-7.96-0.06-16.45,0.83-23.17-6.15
				c5.19-6,12.65-6.92,19.16-9.73c3.74-1.61,6.98-3.28,9.61-7.19c12.59,0.42,25.56-1.04,32.99,12.01c1.91,3.35,4.91,3.42,8.12,2.49
				c10.16-2.97,20.6-2.69,31.04-3.15c10.03-0.45,19.86-3.36,30.1-2.32c3.59,0.36,6.95-1.98,10.13-3.89
				c10.39-6.24,20.92-7.75,32-1.38c5.19,2.98,14.91,0.28,18.17-4.47c1.76-2.58-0.65-2.57-2.04-3.06c-3.15-1.12-7.94,0.12-7.47-6.14
				c9.59-3.09,18.7-5.74,28.46-5.95c22.3-0.46,44.13-4.53,66-8.76c17.99-3.48,36.06-6.45,53.75-11.33
				c32.56-8.99,63.67-21.71,93.85-36.74c8.8-4.38,15.3-11.58,20.55-19.77c3.54-5.52,4.29-11.54,1.81-17.86
				c-4.47-11.41-11.25-14.58-22.77-10.42c-3.73,1.35-7.77,2.4-10.75,4.96c-9.64,8.29-21.47,12.24-32.62,17.69
				c-22.43,10.97-45.88,18.98-69.68,26.15c-23.86,7.18-48.64,9.61-73,14.22c-39.79,7.53-79.8,6.46-119.84,6.19
				c-15.74-0.11-31.28-3.41-46.89-5.51c-10.34-1.39-20.67-2.72-30.97-4.35c-5.07-0.8-10.02-1.56-15.32-3.92
				c-3.68-2.26-6.76-4.3-11.04-1.3c-26.72-5.51-51.92-14.06-76.87-23.43c-2.63-0.99-5.15-2.26-7.75-4.46
				c-1.19-1.38-1.65-2.77-3.78-2.61c-2.81,0.06-4.34-1.48-6.41-3.11c-1.78-1.66-3.36-2.45-5.9-2.4c-7.83-2.17-15.11-4.22-20.1-11.11
				c5.18-2.77-1.5-9.94,5.57-11.43c-5.33-1.83-7.84,1.4-11.21,4.07c-2.43,1.21-4.43,1.32-7.08,0.85c-2.11-0.67-3.23-1.78-4.9-3.09
				c-1.37-0.97-2.24-1.67-3.33-2.92c-0.69-5.52,1.68-7.94,6.7-7.46c4,0.38,6.83-1.39,9.83-3.84c5.46-4.46,18.95-2.71,23.76,2.67
				c1.36,1.52,3.07,3.24,5,2.67c7.05-2.08,12.82,2.66,19.11,3.14c6.27,0.48,7.66,5.69,10.26,8.63c2.24,2.54-3.97,6.36-5.58,10.21
				c-1.24,2.95-4.24,2.03-6.68,1c-3.11-1.31-6.12-2.92-9.32-3.92c-1.91-0.59-4.26,0-4.86,2.29c-0.64,2.46,1.81,2.15,3.23,2.81
				c5.48,2.54,10.25,6.8,16.77,6.78c0.52,0,1.36,0.22,1.52,0.58c6.5,14.4,18.72,0.61,27.46,5.41c2.43,1.33,1.78-2.15,0.77-3.92
				c-2.46-4.32-1.47-4.99,3.5-4.45c14.77,1.62,29.62,2.45,44.44,3.68c1.64,0.14,3.96,0.33,4.72,1.39c8.8,12.21,20.44,6.66,31.41,5.3
				c0.54-0.07,1.05-0.39,1.58-0.6c4.15,11.74,15.18-4.61,20.24,4.96c1.11,2.1,3.96,0.29,6-0.91
				C494.02,964.28,498.03,962.38,502.25,959.74z"/>
			<path class="st11" d="M337.23,958.01c4.84,7.13,12.8,7.41,19.14,9.82c17.19,6.53,34.89,11.72,52.5,17.08
				c4.16,1.27,9,0.2,13.22,3.66c2.89-1.5,5.29-1.62,8.43-0.23c18.3,5.72,37.02,5.26,54.74,10.29c0.54,0.15,1.11,0.22,1.67,0.28
				c39.25,4.6,78.78,5.49,117.99,2.7c20.16-1.44,40.75-4.04,60.9-8.54c9.24-2.06,18.88-4.28,28.81-4.72
				c9.37-0.42,18.65-4.5,27.83-7.39c12.76-4.01,25.49-8.16,38.04-12.77c6.7-2.46,13.38-5.21,19.78-8.21
				c4.41-2.07,8.56-5.33,13.35-6.61c11.39-3.04,19.6-11.41,29.58-16.76c4.3-2.3,8.93-4.3,13.66-5.41c7.22-1.7,13.53,0.73,17.46,7.15
				c4.31,7.05,7.56,14.88,3.22,22.89c-7.06,13.03-16.83,22.87-31.52,28.14c-10.8,3.87-20.53,10.61-31.4,14.78
				c-14.63,5.6-29.46,10.53-44.29,15.56c-10.69,3.63-21.79,5.46-32.44,9.2c-6.1,2.14-13.17,2.94-19.41,3.49
				c-17.69,1.56-34.61,7.05-52.46,8.34c-11.55,0.83-23.3,1.59-34.94,2.66c-6.3,0.58-12.12,4.47-19.55,3.32
				c-4.06,2.9-8.11,2.61-12.04,2.63c-19.78,0.06-39.56-0.05-59.33,0.06c-9.66,0.05-18.68-4.66-28.47-3.42
				c-17.03,2.15-33.77,0.2-51.04-4.02c-3.67-1.09-6.07-3.62-10.13-3.19c-2.3-0.02-3.95-0.18-6.15-0.7
				c-2.67-0.97-4.25-2.79-7.07-3.42c-0.86-0.34-1.19-0.49-2.01-0.92c-2.27-1.85-4.44-1.96-7.26-1.85c-2.67,0.06-4.73-0.04-7.41-0.57
				c-22.44-6.39-44.4-12.16-65.75-19.87c-9.18-3.32-18.76-5.51-28.08-10.22c-2-1.06-3.13-2.29-5.11-3.28
				c-2.81-1.04-4.55-2.69-7.05-4.25c-6.32-3.35-14.21-3.04-17.64-11.05c-10.29-8.29-20.59-15.83-22.5-30.43
				c-1.21-2.1-1.77-3.68-1.33-6.11c1.52-3,4.25-4.39,5.25-7.77c3.39-3.55,5.68-7.58,10.92-8.63c3.48,0.05,6.36,0,9.97-0.04
				c1.64,0.26,2.55,0.52,3.8,1.12c1.12,1.16,1.93,1.96,3.23,3.07c2.76,0.52,5.09,0.69,8.11,0.9c3.68,0.92,5.46,3.22,7.34,6.1
				c5.38,6.01,12.11,8.69,19.84,10.73c1.88,1.33,3.73,1.55,5.53,2.87c2.29,1.45,4.18,2.55,6.64,3.7
				C335.07,957.59,335.86,957.39,337.23,958.01z"/>
			<path class="st12" d="M305.19,999.41c18.78,4.5,36.46,11.77,54.76,17.26c13.19,3.95,26.93,6.51,40.14,12.52
				c3.36,3.21,6.78,5.21,10.38,6.86c4.8,2.2,9.17,4.46,8.85,10.92c-0.17,3.43,2.79,3.8,5.35,4.17c4.54,0.65,8.82,1.94,12.94,5.16
				c0.63,4.28-0.85,8.06-4.4,8.34c-8.31,0.66-14.46,7.29-23.45,7.42c-8.36,1.38-15.31-1.14-21.69-4.83
				c-5.72-3.31-10.91-4.66-17.58-2.33c-6.67,2.33-14,1.08-21.06,0.76c-6.76-0.31-5.45-5.69-6.45-9.92
				c-0.84-3.53,3.24-8.29-2.17-10.57c-6.41-2.71-12.85-6.81-20.13-2.64c-8.07,4.63-16.1,9.31-24.91,13.83
				c-3,0.19-5.56-0.05-8.57-0.74c-1.91-2.67-4.01-3.95-6.97-4.94c-2.1-2.58-3.49-5.09-6.68-6.62c-5.78-3.49-9.38-8.4-13.69-13.41
				c-2.27-2.72-3.3-5.97-7.57-6.41c-0.87-0.46-1.19-0.69-1.87-1.4c-1.05-1.87-1.27-3.37-1.21-5.37c0.1-1.49-0.13-2.02-1.6-0.86
				c-1.2,0.42-1.94,0.37-3.18-0.16c-0.87-1.12-0.97-1.93-0.49-3.3c0.25-5.11-8.38-3.22-6.39-10.07c-0.51-5.57,1.2-8.95,6.54-7.05
				c4.82,1.72,7.8,7.4,13.86,6.95c0.19-0.01,0.42,0.32,0.62,0.51c2.63,2.52-7.37,2.59-1.15,5.45c2.4,1.11,5.92-0.07,8.2,1.15
				c3.38,1.81,6.77,4.45,7.46,8.69c0.71,4.33,3.66,5.25,7.21,5.67c3.66,0.43,5.81-1.46,7.16-4.65c1.4-3.32,3.59-6.68,7.48-5.29
				c11.59,4.15,11.06-3.06,10.55-11.33C304.85,1001.73,304.62,1000.9,305.19,999.41z"/>
			<path class="st10" d="M868.17,903.34c-8.93,3.67-15.52-3.03-23.32-3.72c-3.55-0.31-2.5-4.92-2.69-8.57
				c0.67-1.3,1.46-1.55,2.87-1.08c5.82,1.42,8.6-2.71,12.1-5.31c2.3-1.72,4.69-4.67,5.4,1.7c-0.31,0.9-0.63,1.22-0.87,1.5
				c0.07-0.05,0.45-0.5,0.67-0.71c3.7,0.01,5.29,1.96,5.3,5.97C869.97,896.51,870.27,899.52,868.17,903.34z"/>
			<path class="st10" d="M269.93,929.11c-2.99,3.34-5.99,6.01-9.55,8.76c-2.67,1.63-4.95,3.05-5.39,6.56
				c-0.37,2.23-0.4,3.98-0.46,6.4c-5.91-0.38-7.32-5.87-8.35-9.94c-1.05-4.16,3.98-5.67,7.51-6.25c5.3-0.88,9.21-1.49,3.05-7.19
				c-2.74-2.54-0.1-3.21,1.87-3.04c5.25,0.46,8.82-1.08,9.79-6.76c0.23-1.38,1.19-2.82,2.81-2.69c2.67,0.22,3.17,2.95,4.49,4.64
				c1.12,1.43,1.11,3.51-0.9,4.23C272.38,924.71,269.62,924.83,269.93,929.11z"/>
			<path class="st3" d="M867.63,904.67c0-3.65,0-6.56,0.01-10.2c1.84-0.72,3.69-0.71,6.22-0.68c0.76,7.18-0.75,14.76,6.74,20.13
				c0.62,1.92,0.63,3.75,0.64,6.27c-3.48,0.7-6.95,0.71-11.16,0.72C867.61,915.88,867.39,910.67,867.63,904.67z"/>
			<path class="st13" d="M276.51,982.73c5.47,3.74,11.8,6.11,18.48,8.95c1.7,2.24,2.17,4.07,0.75,6.74
				c-7.68,0.27-12.86-4.71-18.87-7.76C273.09,988.75,274.28,985.87,276.51,982.73z"/>
			<path class="st5" d="M1067.49,581.3c-1.57,10.12-1.78,20.78-7.22,30.54c-0.65-5.9-0.45-11.99-0.79-18.05
				C1059.15,587.82,1061.2,583.62,1067.49,581.3z"/>
			<path class="st3" d="M886.28,892.76c-1.51,0.63-2.69,0.79-4.47,0.97c-0.6-0.74-0.59-1.49-0.59-2.81
				c-2.04-2.05-1.27-4.76-2.99-6.95c-0.26-1.94,0.17-3.27,2.46-3.73c1.2-0.72,1.97-0.97,3.4-0.45c3.44,0.38,6.36,0.38,10.01,0.41
				C894.64,885.97,887.27,886.85,886.28,892.76z"/>
			<path class="st14" d="M1035.6,505.87c-4.24,0.78-5-1.73-4.92-5.26c0.15-6.64,0.05-13.28,0.16-20.74
				c4.22-0.74,4.96,1.83,4.89,5.31C1035.62,491.81,1035.71,498.44,1035.6,505.87z"/>
			<path class="st14" d="M1031.47,541.01c-0.61-4.77-0.68-9.19-0.72-13.6c-0.03-2.55-0.06-5.13,4.08-5.63
				c0.73,5.64,0.8,11.37,0.83,17.87C1034.6,541.46,1033.39,541.71,1031.47,541.01z"/>
			<path class="st2" d="M183.97,173.67c0.39-1.82,1.52-3.64,2.79-5.97c2.46-1.14,4.77-1.78,7.67-2.49
				C196.91,174.4,190.82,174.04,183.97,173.67z"/>
			<path class="st2" d="M170.4,187.28c-0.69-0.68-0.64-1.37-0.49-2.56c1.12-1.32,2.13-2.13,3.3-3.43c2-1.57,3.83-2.66,6.16-3.97
				C180.32,183.38,180,189,170.4,187.28z"/>
			<path class="st12" d="M819.98,923.73c0.1,0.58-0.75,0.58-1.17,0.58c-1.59,0.98-2.9,1.26-4.94,0.4c-2.11-0.54-3.44-0.96-3.9-3.26
				C815.13,913.11,816.93,920.7,819.98,923.73z"/>
			<path class="st15" d="M1030.86,541.37c1.23-0.77,2.41-0.82,4.17-0.9c0.85,3.82,0.87,7.59-3.54,10.15
				C1030.87,547.89,1030.84,544.99,1030.86,541.37z"/>
			<path class="st10" d="M885.62,872.56c-1.19-1.99-4.17-2.55-3.17-4.88c0.57-1.33,2.52-1.27,3.72-0.57
				c1.85,1.06,4.27,2.32,3.98,4.69C889.88,873.95,887.64,873.15,885.62,872.56z"/>
			<path class="st3" d="M901.15,876.44c-0.6,2.8-2.53,3.82-5.71,3.75c-0.28-2.25-1.69-5.15,1.39-6.37
				C898.73,873.06,899.61,874.93,901.15,876.44z"/>
			<path class="st13" d="M305.48,998.32c0.07,1.32,0.05,2.12,0.02,3.51c-2.32,0.27-5.18,1.57-6.68-2.19c0.3-1.98,1.6-2.46,2.92-3.61
				C303.58,995.79,304.94,996.09,305.48,998.32z"/>
			<path class="st10" d="M301.55,995.57c0.41,1.65-0.03,2.96-2.3,3.39c-1.29,0.07-2.05,0.07-3.37,0.07
				c-0.57-1.81-0.57-3.63-0.56-6.13C298,991.9,298.82,994.88,301.55,995.57z"/>
			<path class="st11" d="M90.68,424.98c0.66,2.78,1.86,6.24-3.42,6.88C86.54,429.04,85.54,425.68,90.68,424.98z"/>
			<path class="st13" d="M846.2,873.35c-0.27-3.05,2.07-3.34,5.01-3.61c1.54,0.46,3.16,0.78,3.34,1.46
				c0.49,1.97-1.28,2.01-2.62,2.09C850.25,873.4,848.57,873.35,846.2,873.35z"/>
			<path class="st13" d="M764.39,921.36c0.9-2.59,2.7-3.79,5.87-3.52C769.94,921.01,768.03,922.51,764.39,921.36z"/>
			<path class="st12" d="M845.45,889.78c-0.65,0.57-1.41,0.57-2.73,0.57c-1.89-0.3-4.04-0.88-2.73-2.34
				C841.65,886.19,844.07,886.5,845.45,889.78z"/>
			<path class="st12" d="M877.83,884.2c3.61-0.32,3.35,2.36,3.38,5.51C877.62,890.03,877.85,887.35,877.83,884.2z"/>
			<path class="st12" d="M846.86,882.75c-0.04-3.47,2.05-2.44,3.77-2.03c0.31,0.07,0.75,0.94,0.64,1.25
				C850.47,884.06,848.77,883.35,846.86,882.75z"/>
			<path class="st12" d="M830.81,911.58c0.31,2.42-0.99,2.44-2.41,1.94c-0.33-0.12-0.72-0.98-0.6-1.32
				C828.24,910.92,829.32,910.91,830.81,911.58z"/>
			<path class="st12" d="M866.47,877.62c0.31,2.42-0.99,2.44-2.41,1.94c-0.33-0.12-0.72-0.98-0.6-1.32
				C863.91,876.96,864.99,876.94,866.47,877.62z"/>
			<path class="st8" d="M478.78,955.8c1.81-0.84,3.78-1.09,5.07,1.73C482.08,958.28,480.07,958.63,478.78,955.8z"/>
			<path class="st12" d="M794.27,911.1c1.6,1.06,1.48,2.05,0.2,2.53c-0.59,0.22-1.87-0.08-2.13-0.54
				C791.63,911.8,792.56,911.2,794.27,911.1z"/>
			<path class="st15" d="M862.96,859.62c-0.24-2.42,1.31-3.22,4.09-3.18C867.43,858.95,865.91,859.83,862.96,859.62z"/>
			<path class="st8" d="M806.84,900.33c-0.19-1.44,0.26-2.78,2.59-2.97C809.7,898.87,809.14,900.12,806.84,900.33z"/>
			<path class="st3" d="M909.58,866.65c0.43,1.48,0.01,2.81-2.3,3.29C906.82,868.44,907.25,867.11,909.58,866.65z"/>
			<path class="st12" d="M884.55,879.66c-0.68,0.5-1.44,0.5-2.75,0.5c-0.17-0.87,0.01-2.16,0.68-2.5
				C883.5,877.12,884.18,878.12,884.55,879.66z"/>
			<path class="st3" d="M906.18,870.07c0.42,1.47-0.02,2.78-2.27,3.3C903.42,871.89,903.81,870.54,906.18,870.07z"/>
			<path class="st10" d="M731.73,934.49c1.03,0.16,2.27,0.16,2.54,1.53c0.06,0.28-0.55,0.7-0.85,1.05
				c-0.51-0.56-1.03-1.11-1.61-2.15C731.73,934.44,731.77,934.51,731.73,934.49z"/>
			<path class="st5" d="M1059.63,615.73c2.11,1.18,2.07,3.34,0.41,6.02C1059.59,620.24,1059.58,618.34,1059.63,615.73z"/>
			<path class="st2" d="M199.08,160.02c0.29-0.92,1.12-1.92,2.4-3.11C201.77,158.22,201.35,159.55,199.08,160.02z"/>
			<path class="st13" d="M296.05,1056.81c-0.68-2.89,0.95-5.66,3.28-5.9c7.27-0.77,12.31-5.6,17.57-9.44
				c10.91-7.95,19.75,1.24,29.5,2.41c1.44,0.17,1.88,2.72,0.81,3.5c-5.66,4.11,0.58,9.13-1.26,13.68c-1.22,3.01,2.23,2.57,3.86,2.43
				c8.51-0.72,17.34,2.22,25.51-2.87c2.67-1.66,6.28-0.39,8.75,1.59c7.11,5.68,15.64,7.23,24.6,9.39c5.9,6.24,13.47,5.51,20,5.26
				c11.21-0.43,20.38,2.01,27.69,10.89c3.27,3.97,6.99,4.61,9.97-0.88c1.95-3.59,4.86-4.92,9.19-3.81
				c5.43,1.4,10.39-1.46,15.44-2.89c4.74-1.35,8.62-2.25,13.07,1.95c3.79,3.58,10.21,3.45,14.09,0.11
				c5.95-5.13,11.85-5.78,18.72-3.4c10.38,3.6,20.56,0.61,30.74-1.09c5.43-0.91,10.12-0.66,12.97,5.58
				c-4.46,5.76-10.8,4.3-16.49,5.09c-10.03,1.39-10.44,1.87-9.29,11.9c0.5,4.33-0.05,8.43-3.94,12.12
				c-3.93,1.65-7.36,1.21-10.73,1.21c-30.21,0.01-60.43,0.5-91.35-2.12c-11.35-0.22-21.21-3.83-31.31-6.22
				c-11.83-2.79-22.64-10.23-36.39-7.96c-7.53-5.26-15.19-8.61-23.31-10.78c-2.88-0.77-6.1-0.28-9.43-2.15
				c-1.22-0.36-1.92-0.33-3.14-0.31c-2.76-1.86-4.18-4.55-7.09-6.51c-2.86-0.48-6.08,0.42-7.34-2c-3.12-6.01-8.37-5.27-14.3-5.2
				c-3.92-4.21-2.63-11.71-10.58-13.15C302.49,1056.87,299.63,1056.85,296.05,1056.81z"/>
			<path class="st16" d="M552.37,1111.69c-0.79-5.89,1.79-11.01-1.82-16.61c-2.24-3.48,0.15-7.29,5.56-7.82
				c7.73-0.76,15.4-2.14,23.8-3.28c5.32,0.78,9-1.9,13.67-3.34c6.08-0.43,11.64-0.18,17.18-3.06c1.7-0.41,2.98-0.41,4.89-0.41
				c3.49,3.37,6.67,2.03,9.77,0.55c10.09-4.84,20.25-9.49,31.2-13.72c6.06-0.41,11.7-0.46,17.33-0.39c3.19,0.04,6.08-0.02,7.84-3.5
				c2.55-5.06,8.15-4.65,10.93-2.47c8.84,6.92,17.92,2.85,26.29,0.96c9.6-2.16,19.01-1.31,28.5-1.73c1.06-0.05,2.93,0.24,3.09,0.78
				c2.62,8.58,9.67,5.38,16.07,5.93c2.43,1.65,2.5,3.54,1.17,6.2c-6.37,1.63-14.15-2.67-17.32,6.62c-0.25,0.72-3.08,0.62-4.71,0.8
				c-1.66,0.18-4.43-0.34-4.84,0.44c-4.82,9.06-13.29,5.87-20.59,6.4c-3.55,0.26-3.82,2.6-3.89,5.97c-0.03,0.71,0,0.74-0.01,0.72
				c-4.91,2.24-10.27,1.88-15.43,2.58c-3.29,0.45-6.71,0.35-9.56,3.75c-0.46,0.5-0.47,0.49-0.47,0.49
				c-6.17,3.08-14.17-0.17-20.12,5.97c-5.01,0.52-9.47,0.7-14.67,0.87c-5.96,1.56-11.55,0.58-17.27,2.83
				c-9.39,3.45-18.78,2.37-28.54,3.97c-4.83,1.58-9.08,0.47-13.98,0.35c-1.89-0.31-3.06-0.3-4.82-0.3
				C578.41,1113.67,565.72,1113.78,552.37,1111.69z"/>
			<path class="st17" d="M550.96,1111.12c13.34,0.01,25.89,0.02,39.25,0.08c0,4.01-3.18,3.19-5.9,3.38
				c-31.75,2.29-63.57,2.34-95.33,1.45c-13.33-0.38-26.96-0.12-40.54-4.34C482.04,1111.18,516.1,1111.15,550.96,1111.12z"/>
			<path class="st17" d="M347.9,1084.63c7.39,0.45,16.41-4.41,21.85,5.24c0.58,1.02,3.68,0.88,5.6,0.84
				c3.74-0.09,5.07,1.77,4.88,5.88C369.65,1092.88,357.4,1092.92,347.9,1084.63z"/>
			<path class="st8" d="M691.76,1097.55c-1.26-4.82,0.47-7.14,5.74-6.83c5.78,0.34,11.59,0.03,18.18,0
				C709.12,1095.26,701.19,1097.77,691.76,1097.55z"/>
			<path class="st8" d="M670.99,1103.92c3.48-8.99,11.63-5.73,19.26-6.37C685.59,1102.79,677.57,1100.22,670.99,1103.92z"/>
			<path class="st17" d="M337.66,1077.91c4.06-1.07,7.45-0.61,6.95,5.51c-1.91,3.27-3.74,0.77-6.14,0.46
				C337.85,1082.03,337.76,1080.3,337.66,1077.91z"/>
			<path class="st12" d="M639.11,1107.67c3.32-6.56,9.71-1.88,15.59-3.3C650.57,1106.94,645.19,1107.33,639.11,1107.67z"/>
			<path class="st17" d="M596.2,1111.7c3.65-0.51,7.79-0.54,12.7-0.54C605.56,1114.23,601.11,1113.07,596.2,1111.7z"/>
			<path class="st12" d="M809.26,1047.83c2.62,0.49,4.21,1.25,5.53,3.47c-3.1,5.67-8.35,5.59-14.29,5.53
				c-3.84,2.9-8.78,1.07-12.25,4.65c-1.2,0.98-1.98,1.52-3.25,2.09c-1.68,1.08-3.15,0.82-5.21,0.67c-3.36-5.23-1.38-8.47,3.91-10.81
				c6.76,1.08,11.81-1.66,17.3-4.67C803.61,1046.45,806,1046.01,809.26,1047.83z"/>
			<path class="st3" d="M852.9,1029.54c-0.8-6.62,3.21-10.45,9.15-13.41C862.78,1022.72,858.8,1026.55,852.9,1029.54z"/>
			<path class="st3" d="M778.72,1063.17c1.9,0.41,3.19,0.41,5.14,0.43c-0.47,1.39-1.6,2.76-2.75,4.69
				c-1.33,1.06-2.63,1.57-4.47,2.14c-0.85-0.01-1.15-0.09-1.93-0.21c-2.27-2.22-2.36-4.43-0.06-7.1
				C776.21,1062.44,777.16,1062.45,778.72,1063.17z"/>
			<path class="st3" d="M788.5,1061.92c-0.44-8.4,6.06-3.98,10.57-5.12C797.92,1061.98,793.21,1061.25,788.5,1061.92z"/>
			<path class="st17" d="M305.44,1057.48c10.22-0.71,10.22-0.71,10.25,12.15C309.73,1068.42,307.57,1063.3,305.44,1057.48z"/>
			<path class="st17" d="M279.58,1050.82c3.29-0.57,7.01-1.84,7.2,3.67c-1.84,0.11-3.68-0.44-6.1-1.08c-0.57-0.09-0.6-0.07-0.6-0.09
				C279.51,1052.91,279.2,1052.36,279.58,1050.82z"/>
			<path class="st12" d="M776.29,1063.04c-2.35,1.88-2.01,3.96-2.07,6.51c-1.82,0.68-3.64,0.77-6.14,0.85
				c-0.67-1.83-0.66-3.65-0.65-6.15c0.71-5.33,4.4-3.71,7.81-4.07C776.51,1060.85,776.76,1061.63,776.29,1063.04z"/>
			<path class="st5" d="M259.22,1029.18c3.2,0.86,7.08-1.14,6.4,5.04c-0.42,3.81,6,4.07,7.53,8.39c0.28,0.95,0.47,1.32,0.27,2.19
				c-9.01-3.74-15.91-10.13-22.15-18.09C254.82,1024.65,256.71,1026.93,259.22,1029.18z"/>
			<path class="st17" d="M273.08,1045.85c0-0.9,0.05-1.25,0.13-2.13c3.94-0.76,7.38-0.43,6.83,5.58c0.01,0.67-0.06,0.74-0.09,0.78
				c-0.71,0.58-1.48,0.79-2.87,0.38C274.36,1049.84,273.22,1048.61,273.08,1045.85z"/>
			<path class="st5" d="M243.76,1012.72c0.57,0.66,0.59,1.42,0.61,2.73c0.52,0.95,0.85,1.47,0.99,2.56
				c-0.18,0.75-0.32,1.04-0.89,1.52c-1.92-0.01-3.09-0.63-3.6-2.72C241.06,1014.77,241.37,1013.26,243.76,1012.72z"/>
			<path class="st5" d="M247.89,1022.73c-1.94,0.17-3.12-0.44-3.72-2.51c-0.13-0.5,0.04-0.66,0.12-0.74
				c1.66-1.46,2.92-0.9,4.18,1.12C248.51,1021.58,248.43,1021.96,247.89,1022.73z"/>
			<path class="st5" d="M250.89,1026.51c-1.51-0.23-2.75-0.81-3.33-2.88c-0.13-0.51,0.04-0.66,0.12-0.74
				c0.74-0.71,1.52-0.96,2.94-0.45c0.53,0.37,0.52,0.38,0.53,0.38c0.64,0.65,0.89,1.43,0.38,2.86
				C251.17,1026.2,250.98,1026.4,250.89,1026.51z"/>
			<path class="st7" d="M276.58,1050.61c0.71-0.5,1.46-0.52,2.77-0.52c0.59,0.73,0.62,1.44,0.7,2.69c-0.66,0.51-1.35,0.48-2.56,0.35
				C276.86,1052.39,276.74,1051.75,276.58,1050.61z"/>
			<path class="st18" d="M127.66,459.47c2.14-4.92,3.27-9.56,3-14.82c-0.51-9.81,4.54-18.72,5.72-28.03
				c1.86-14.72,9.14-27.59,11.76-42.06c1.88-10.35,8.35-19.86,12.68-29.78c6.68-15.28,14.07-30.31,23.43-44.02
				c6.36-9.31,14.47-17.48,21.13-26.77c12.5-17.43,27.15-33.07,42.46-48.06c8.36-8.18,17.02-16.04,27.03-22.24
				c0.94-0.58,1.72-1.44,2.58-2.16c22.97-19.22,47.08-36.63,74.81-48.59c6.07-2.62,11.45-6.81,17.42-9.68
				c9.65-4.64,20.54-5.66,30.34-10.18c7.92-3.65,16.22-7.04,24.72-8.69c11.09-2.16,21.48-6.53,32.5-8.96
				c8.19-1.81,17.17-1.05,24.73-5.68c0.46-0.28,1.11-0.52,1.61-0.44c11.37,1.94,22.07-2.62,33.02-4.01
				c19.87-2.51,39.91-4.91,59.49-2.32c14.16,1.87,28.98,0.02,42.67,5.73c1.96,0.82,4.47,0.32,6.73,0.42
				c19.45,0.87,37.79,6.36,56.23,12.24c11.73,3.74,23.67,6.54,35.22,11.19c12.45,5.02,25.17,9.41,37.59,14.61
				c17.67,7.39,33.31,18.41,50.09,27.36c5.8,3.09,11.3,8.14,16.91,12.03c15.55,10.8,28.39,25.2,45.24,34.11
				c6.92,3.66,9.78,10.45,14.64,15.68c12.47,13.45,23.28,28.16,34.76,42.38c16.76,20.74,28.93,43.82,41.1,67.26
				c8.03,15.47,13.14,31.49,17.83,48.07c2.8,9.92,4.2,20.33,9.01,29.87c2.58,5.11,2.82,12.11,3.18,17.67
				c0.69,10.64,5.13,20.57,4.4,31.34c-1.33,19.66,5.76,38.91,3.25,58.68c-0.37,2.91,1.36,6.33-2.61,8.75
				c-1.13,0.64-1.67,0.98-2.74,0.99c-1.05-0.98,0.31-0.62-0.79-0.57c-0.75,0.03-0.68,0.5,0.43,1.04c0.87,2.65,0.67,4.91,0.63,7.15
				c-0.14,7.64-0.21,7.61-7.81,5.03c-4.9-1.67-8.22,0.66-10.22,4.91c-2.75,5.85-4.21,12.21-6.89,18.12
				c-1.94,4.29,1.77,5.63,4.47,7.71c7.42,5.74,12.41,13.02,12.44,23.27c-0.37,0.49-0.45,0.43-0.41,0.46
				c-8.32,6.31-6.85,14.46-3.93,23.26c0.32,1.97-0.01,3.31-2.3,3.82c-8.2-1.8-15.86-4.44-23.45,0.38c-0.7,0.44-1.6,0.39-2.43,0.47
				c-3.57,0.34-2.92-7.16-9.16-4.05c-2.98,1.48-3.2-6.06-5.51-9.71c-0.32-1.35-0.33-2.13,0.01-3.45c1.76-2.47,5.89-3.18,3.1-7.6
				c-0.88-2.46-0.93-4.41-0.21-6.94c0.29-2.7,3.98-0.97,3.32-4.18c-1.08-3.77-1.01-7.04-0.18-10.92c0.72-2.17,1.91-3.4,2.43-5.61
				c0.25-3.06,0.29-5.53,1.27-8.43c0.71-3.31,8.77-2.14,3.65-8.2c-1.6-15.99-3.25-31.47,1.13-46.75c0.8-2.79,1.26-5.72,0.14-8.35
				c-3.25-7.59-2.76-15.53-2.62-23.43c0.26-13.94-3.07-27.36-5.81-40.85c-0.79-3.91-0.56-7.93-1.65-11.74
				c-0.65-2.25-0.55-5.9-3.35-5.92c-2.15-0.02-2.36,3.43-2.89,5.59c-2.99,12.07-6.1,24.09-10.23,35.84
				c-7.41,21.06-17.27,41.08-25.86,61.6c-10.89,26.01-27.72,47.89-43.36,70.61c-7.07,10.27-14.21,21.15-24.84,28.65
				c-4.31,3.05-5.94,8.24-9.34,11.98c-14.67,16.15-30.74,31.05-47.4,44.9c-17.04,14.17-35.78,26.49-55.31,37.45
				c-26.88,15.09-53.77,30.18-82.38,41.67c-20.18,8.11-41.25,13.9-62.47,18.8c-22.78,5.26-46.06,7.49-69.1,11.11
				c-24.09,3.78-47.93,1.92-71.86,2.3c-9.39,0.15-18.75-3.57-28.94-4.12c-3.72-3.5-1.81-5.28,1.39-6.3c2.1-0.67,4.49,0.19,6.41-0.68
				c-5.83,1.01-11-1.8-16.08-4.21c-3.03-1.44-3.06-4.43-1.05-7.23c1.41-1.97,4.53-3.61,3.09-6.41c-2.18-4.21-3.66-8.91-7.15-12.35
				c-1.03-1.02-2.78-1.85-3.87-1.05c-7.41,5.41-18.04,7.01-20.58,18.22c-1.2,5.32,1.91,5.44,5.36,6.29
				c3.38,0.83,9.29,0.54,3.69,7.07c-8.44,2.66-15.25-1.99-23.19-3.22c-1.59-0.76-2.38-1.46-2.76-2.64
				c-0.61-1.88,1.78-4.54-0.16-5.41c-2.46-1.1-3.27,2.45-5.65,3.81c-2.07,0.94-3.67,0.98-5.88,0.48
				c-4.96-2.99-7.65-7.63-12.35-10.95c-2.02-2.43-4.77-2.54-6.77-4.3c1.67,2.18,4.65,1.79,6.59,4.27c1.33,2.1,1.28,3.76,0.31,6.03
				c-8.34,5.08-14.85-0.91-21.88-2.68c-4.27-1.07-8.03-3.93-12.95-5.48c-2.18-0.85-3.45-2.05-5.67-2.7
				c-4.07-0.54-7.11-1.83-9.95-4.87c-1.84-3.01-3.93-4.57-6.64-5.84c-6.38-2.99-9.7-10-8.47-16.77c1.07-5.89,7.77-9.4,13-6.71
				c2.85,1.47,4.95,4.22,2.33,6.75c-4.98,4.8-0.26,4.82,2.41,6.03c7.44,3.36,15.18,6.03,20.02,13.53c2.47,3.83,6.94,3.48,10.84,1.99
				c3.77-1.45,7.48-2.55,11.55-1.76c3.04,0.59,5.28,1.54,6.06-3.63c0.71-4.67,5.44-3.61,8.95-1.63c0.73,0.41,1.11,1.27,1.69,1.88
				c3.38,3.57,2,13.1,10.79,9.72c5.08-1.95,10.96-3.26,14.38-8.41c0.45-0.68,1.34-1.02,2.16-1.71c-2.2,1.2-4.41,2.91-6.6,1.81
				c-4.87-2.44-9.49-3.77-15.11-2.15c-2.85,0.82-4.19-2.55-4.41-5.15c-0.5-5.85-3.81-9.08-9.02-11.11
				c-2.91-1.14-6.02-2.85-5.16-6.74c0.88-3.94,4.53-3.71,7.59-3.92c4.52-0.3,9.07,0.19,13.57-0.25c6.49-0.65,8.36-3.34,5.48-8.82
				c-2.23-4.24-2.14-8.01-0.44-12.14c0.42-1.02,0.73-2.4-0.6-2.94c-1.13-0.46-2.18,0.36-2.97,1.2c-2.45,2.6-1.84,5.74-1.5,8.84
				c0.49,4.49-0.01,8.95-4.76,10.71c-4.83,1.79-10.17,2.14-14.81-0.58c-4.02-2.36-3.01-7.65,1.75-10.91
				c1.51-1.04,4.57-1.25,3.53-3.82c-1.22-3.01-4.68-2.7-7.39-3.13c-2.33-0.37-3.73,0.7-3.94,3.23c-0.42,5.04-1.66,11.13-7.79,9.61
				c-6.56-1.63-4.46-8.02-2.89-12.81c0.9-2.75,1.14-4.97-1.42-6.73c-5.29-3.64-4.31-7.32,1.78-12.2
				c-8.76,1.84-13.37-0.54-14.85-7.71c-0.34-1.63-1.67-2.93-2.56-4.37c-2.2-3.54-5.73-7.04-2.85-11.52
				c3.01-4.68,7.8-3.58,13.15-2.43c-3.11-3.29-3.12-7.06-3.74-10.66c-0.67-3.88-0.75-7.51,4.06-8.94c-0.79-1.42-2.03-0.84-2.96-0.81
				c-3.36,0.11-7.4-1.25-9.88,1.09c-3.44,3.25,1.39,5.83,2.05,8.85c0.57,2.57,1.45,5.26-1.28,6.86c-3.36,1.96-5.91-0.12-8.09-2.55
				c-8.72-9.77-21.86-13.72-30.73-23.3c-0.47-0.51-1.47-0.7-2.93-0.13c7.31,4.93,9.69,13.03,14.08,19.77
				c1.6,2.46,2.26,4.34,6.24,3.71c5.53-0.87,7.9,3.32,5.52,8.73c-2.22,5.05-6.33,9.08-10.56,11.93c-4.78,3.21-10.15,5.68-15.14,8.84
				c-5,3.17-12.03-1.52-11.55-7.71c0.5-6.36-1.81-6.83-6.72-5.08c-2.43,0.87-4.98,1.11-7.52,0.49c-2.25-0.55-4.41-1.42-5.36-3.72
				c-1.11-2.71,0.78-4.37,2.7-5.54c4.59-2.8,5.11-4.97,0.39-8.64c-4.66-3.62-6.91-10.55-14.63-9.7c-0.93,0.1,0.17,0.38-0.75-0.29
				c-7.9-5.79-7.9-5.79-13.96,3.71c3.44,2.01,7.24-0.41,10.71,0.91c3.59,1.37,7.36,3.07,6.66,7.53c-0.8,5.11-5.34,4.75-8.78,3.6
				c-6.12-2.06-12.83-2.14-18.43-6.03c-6.8-4.73-7.7-6.83-3.03-13.69c2.63-3.86,1.83-4.77-2.31-4.77c-3.97,0-7.9-0.33-11.74-1.51
				c-4.94-1.52-6.51-4.25-3.36-8.79c1.61-2.32,2.75-5.19,4.81-6.95c4.17-3.55,4.67-6.82,2.94-12.2
				c-2.24-6.96,2.96-11.59,11.06-10.25c5.48,0.91,10.4,0.84,15.12-2.52c-8.56,6.59-16.19,0.47-22.76-2.98
				c-4.6-2.41-3.91-10.04-3.78-15.76c0.05-2.3,1.8-5.86-1.77-6.29c-3.04-0.37-3.23,3.29-3.9,5.67c-2.61,9.23-3.27,9.68-12.06,5.09
				c-3.45-1.8-5.04-1.68-5.88,2.27c-0.36,1.68-1.32,3.29-3.39,3.18c-2.51-0.13-3.03-2.2-3.48-4.16c-0.44-1.95-0.46-3.94-0.1-5.91
				c1.21-6.61,16.38-19.06,23.28-19.24c10.13-0.27,19.21-2.78,27.2-9.78c4.71-4.12,5.02-7.5,2.2-12.29
				c-3.11,0.37-2.4,2.87-2.76,4.51c-0.63,2.84-1.45,5.67-3.7,7.47c-8.69,6.97-18.99,9.84-29.82,9.45c-4.63-0.17-8.77-3.6-5.87-9.53
				c1.46-2.97,0.52-4.2-1.7-6.26c-4.59-4.26-4.2-7.87,1.19-10.57c4.2-2.1,8.05-5.63,13.24-5.15c7.29,0.68,8.1-5.31,9.47-9.84
				c1.09-3.6-2.19-2.91-4.36-2.33c-9.38,2.53-9.39,2.55-9.04-7.15c0.07-1.99-0.27-3.97-0.11-5.93c0.34-4.06,2.02-5.89,6.06-3.33
				c1.37,0.87,2.97,2.67,4.4,1.12c1.8-1.96-0.35-3.62-1.55-5.04c-2.23-2.63-5.02-4.54-8.28-5.74c-2.39-0.88-5.21-1.54-6.28-4.01
				c-2.25-5.2-5.85-5.97-11.01-4.94c-6.28,1.25-7.08-4.36-8.74-8.34C128.19,465.64,129.5,462.55,127.66,459.47z"/>
			<path class="st19" d="M934.91,621.85c1.62,1.13,2.81,1.95,3.53,3.08c1.2,1.86-0.45,5.7,1.77,6.01c3.43,0.48,1.35-3.45,2.49-5.07
				c0.39-0.55,1.26-0.77,1.91-1.15c0.5,0.98,1.3,1.91,1.47,2.94c1.19,7.27,4.02,9.26,9.62,3.21c3.73-4.02,6.58,3.53,9.71,1
				c5.01-4.05,6.48-0.29,8.83,3.44c0.51,6.34-3.71,11.11-4.37,16.93c-0.08,0.72-1.43,1.38-1.4,2.02
				c1.02,16.91-11.43,28.71-17.19,42.93c-5.44,13.41-13.41,26.52-23.43,37.77c-6.3,7.06-10.66,15.56-16.01,23.31
				c-11.62,16.82-25.3,32.25-39.49,46.28c-16.48,16.29-34.38,31.91-54.13,44.82c-17.43,11.4-34.88,22.62-53.49,32.14
				c-21.8,11.15-44.01,21.48-67.37,28.36c-10.85,3.2-22.04,6.43-33.52,8.49c-16.69,2.99-34.02,3.16-50.19,9.07
				c-0.52,0.19-1.13,0.26-1.67,0.2c-18.92-2.11-37.59,5.34-56.09,2.9c-15.65-2.06-31.36-1.03-46.72-3.29
				c-16.48-2.43-32.96-4.58-49.44-6.84c-9.73-1.33-19.52-4.97-29.16-8.13c-11.96-3.91-24.04-7.55-35.93-11.73
				c-22.54-7.93-42.64-20.66-63.73-31.47c-13.21-6.77-23.83-17.01-37.1-23.36c-8.11-3.89-14.21-10.82-21.15-16.36
				c-15.8-12.62-30.31-26.83-44.19-41.62c-0.69-0.73-0.73-2.06-1.08-3.74c6.03-1.48,12.28-1.86,16.63-7.04
				c2.11-2.51,4.14-4.36-1.12-6.48c-9.02-3.64-9.44-5.63-5.56-14.65c1.34-3.12,1.31-6.01-0.19-8.96c-1.02-2.01-2-4.08-3.12-6.01
				c-1.96-3.4,0.88-9.48-3.32-10.46c-5.29-1.23-11.11,1.02-16.77,1.16c-2.11,0.05-2.86,1.58-1.73,3.58c0.85,1.49,1.9,2.98,3.35,3.78
				c8.38,4.6,9.64,12.63,10.36,20.96c0.17,1.94-0.66,4.68,1.12,5.59c9.12,4.66,3.32,10.21,0.78,15.95
				c-12.89-6-20.29-16.73-25.97-29.6c-6.63-2.14-6.25-9.24-10.04-13.67c-1.15-2.1-3.05-2.24-4.74-3.67
				c-0.22-2.99-3.13-3.83-3.74-6.61c-0.92-1.38-1.74-2.22-2.93-3.52c-0.44-1.18-0.49-1.92-0.55-3.22c-0.91-1.46-1.77-2.39-2.98-3.65
				c-2.56-4.47-4.8-8.59-7.14-13.3c-1.29-4.22,0.28-7.93,2.5-9.71c4.17-3.32,4.36-9.63,2.84-10.8c-3.23-2.49-7.77-0.01-11.72,2.88
				c-5.1-7-12.48-12.69-12.39-23.04c1.79-3.81-2.13-4.5-2.89-7.1c-1.91-5.87-2.71-11.69-5.25-16.63c-1.67-3.24-1.87-6.2-2.08-10.16
				c-0.78-1.6-1.61-2.46-2.81-3.77c-0.46-3.32-0.52-6.21-0.58-9.82c-0.79-1.6-1.62-2.45-2.81-3.76c-0.47-4.45-0.55-8.46-0.64-13.22
				c0.2-2.04,2.19-3.11,1.3-4.18c-0.59-0.72-2.2,1.13-4.05,0.34c-0.5-5.5-0.56-10.64-0.62-16.54c0.11-2.08,2.06-3.14,1.2-4.19
				c-0.5-0.62-2.18,1.13-4.01,0.35c-0.48-8.88-0.52-17.39-0.56-26.69c-2.25-4.02-1.24-6,2.38-6.98c2.12-0.58,5.84,0.86,4.88-3.68
				c-0.72-3.41-3.11-4.44-6.37-4.05c-1.13,0.14-2.25-0.11-3.71-1.04c-0.45-10.61-0.47-20.82-0.47-31.84
				c1.6-4.97,6.49-8.08,3.73-13.95c-0.39-8.96-0.39-17.48-0.35-26.79c6.39,1.08,1.48,7.98,5.54,11.39c2.19,1.83,1.9,4.98,6.6,2.76
				c3.3-1.56,10.02-2.95,10.42,5.06c0.15,2.95,2.38,3.48,4.75,3.78c5.87,0.73,9.25,5.13,12.94,8.99c2.11,2.2,3.54,5.17,0.55,7.27
				c-2.19,1.54-5.58,3.74-7.72-0.85c-0.53-1.14-1.09-3.19-2.82-2.49c-2.18,0.88-0.96,2.79-0.5,4.33c0.08,0.27,0.24,0.53,0.28,0.8
				c0.83,6.27,2.63,7.75,8.49,7.46c2.17-0.11,4.85-0.87,6.37,1.21c1.74,2.38-0.76,4.05-1.73,5.99c-1.13,2.26-1.92,4.69-2.94,7
				c-0.92,2.06-2.24,5.25-4.53,4.1c-6.51-3.26-10.32,2.42-15.41,3.67c-2.74,0.67-5.05,1.52-4.7,4.8c0.29,2.74,2.43,3.63,4.9,3.7
				c5.11,0.14,5.29,2,2.12,5.46c-1.57,1.71-4.8,3.16-2.83,6.2c1.59,2.46,4.59,4.01,7.34,3.49c8.2-1.55,16.28-3.92,23.73-7.66
				c4.32-2.17,5.72-6.67,5.21-11.66c-0.28-2.71,0.6-5.33,3.84-5.57c2.9-0.22,3.95,2.51,4.14,4.55c0.33,3.59,4.16,8.6,1.27,10.31
				c-6,3.54-9.6,10.88-17.01,11.65c-6.55,0.68-12.45,4.4-19.75,2.41c-5.25-1.43-19.13,16.38-18.38,22.19
				c0.17,1.28-0.3,3.25,1.64,3.28c1.97,0.03,1.73-1.97,1.65-3.21c-0.57-9.03,2.52-7,7.6-3.03c7.45,5.84,7.64,5.47,9.73-3.84
				c0.65-2.89,0.97-6.2,4.29-7.86c2.11-1.05,3.78-0.5,5.51,0.69c2,1.38,2.1,3.41,1.37,5.3c-1.73,4.47-1.46,8.77,0.09,13.23
				c1.11,3.17-0.55,9.7,6.35,4.46c0.19-0.14,0.73-0.18,0.76-0.11c5.1,11.13,12.72,2.38,19.22,2.49c1.3,0.02,3.18-0.38,3.44,1.5
				c0.26,1.96-1.8,1.72-2.95,2.26c-6.13,2.89-12.05,5.9-19.34,3.24c-2.91-1.06-7.32-1.14-8.39,3.34c-0.82,3.44-1.71,7.64,2.79,9.6
				c4.65,2.02,3.2,3.15-0.38,4.13c-6.93,1.91-7.12,9.69-11.88,13.61c-1.68,1.38,0.65,2.5,2.39,3.09c5.48,1.86,11.12,1.68,16.77,1.66
				c1.63-0.01,3.57-0.33,4.47,1.58c0.97,2.06-0.81,2.86-1.99,4.05c-7.83,7.9-6.72,12.85,4.42,15.88c4.55,1.24,9.29,1.81,13.79,3.56
				c1.91,0.74,4.9,1.28,5.92-1.45c1.2-3.22-1.71-4.25-3.91-5.52c-3.07-1.77-5.94-0.72-8.97,0.18c-2.94,0.88-6.16,0.12-7.48-2.5
				c-1.38-2.74,2.76-3.09,3.54-4.8c3.29-7.27,9.9-8.04,16.43-9.09c1.01-0.16,2.72,0.06,3.09,0.69c1.08,1.85-0.73,2.16-1.98,2.68
				c-1.63,0.68-3.39,1.68-2.42,3.66c0.85,1.72,3.16,1.62,4.58,1.06c4.57-1.83,6.93-0.21,7.92,4.28c0.83,3.76,3.71,5.57,6.89,6.93
				c5.5,2.37,5.35,4.64,0.57,8c-2.23,1.56-7.7,1.94-5.94,5.47c1.84,3.7,6.74,3.28,10.72,1.6c1.81-0.76,3.73-2.14,5.49-1.98
				c3.53,0.31,7.09,1.36,4.41,6.38c-1.74,3.24-2.84,6.4,1.8,8.33c3.67,1.52,7.18,2.25,9.41-2.12c1.58-3.11,4.21-3.66,7.33-4.69
				c6.95-2.29,11.3-8.09,14.83-14.3c0.91-1.6,0.35-3.39-1.13-4.56c-1.7-1.35-3.19-0.57-4.35,0.9c-3.69,4.64-4.11,2.74-6.13-1.78
				c-4.03-9-7.34-18.95-17.06-24.09c-0.93-0.49-2.54-0.66-1.83-2.12c0.35-0.72,1.77-1.18,2.75-1.28c4.08-0.42,9.89,0.22,10.9,2.98
				c2.9,7.87,10.8,8.44,15.9,12.86c4.18,3.62,10.51,4.6,12.54,10.98c0.47,1.47,2.75,2.37,4.41,1.37c2.31-1.39,0.81-3.33,0.36-5.23
				c-0.92-3.9-8-5.9-4.37-10.71c3.31-4.39,9.03-1.44,13.64-2.11c1.11-0.16,2.3-0.21,3.38,0.02c2.21,0.45,5.93-1.52,6.17,2.24
				c0.17,2.69-3.09,2.69-5.35,2.86c-1.83,0.14-4.16,1.09-3.3,2.77c2.27,4.42-1.26,10.71,4.46,13.79c1.78,0.96,4.26,1.58,2.77,4.05
				c-1.35,2.25-3.51,1.01-5.11-0.27c-1.92-1.54-4.1-1.82-6.4-1.69c-5.76,0.32-7.93,2.36-4.44,8.08c2.57,4.21,6.62,7.42,7.05,13.18
				c0.28,3.76,4.37,2.49,7.03,1.93c2.41-0.5,5.35-2.47,6.88,0.33c1.86,3.41-1.99,4.02-3.96,5.15c-4.11,2.37-3.94,4.29,0.18,6.37
				c4.39,2.21,8.45,4.54,2.32,9.52c-0.86,0.7-1.11,2.64-0.98,3.95c0.25,2.52-1.6,6.69,2.49,6.93c4.15,0.24,5.42-3.67,5.16-7.23
				c-0.21-2.95-2.58-7.12,2.36-7.11c5.03,0.01,11.33-0.61,14.61,4.3c2.18,3.27,0.26,6.74-4.23,7.11c-3.32,0.27-5.48,1.13-5.08,4.99
				c0.44,4.28,3.7,3.47,6.4,3.6c11.34,0.54,12.36-0.54,10.62-12.38c-0.68-4.61,1.44-7.54,4.74-10.11c2.54-1.97,4.9-0.94,6.97,0.66
				c2.44,1.88,0.21,3.39-0.7,5c-2.1,3.73-4.75,7.63-0.06,11.25c2.86,2.21,2.73,4.59,1.53,7.47c-1.33,3.17-3.37,5.03-7.06,4.95
				c-5.66-0.13-11.32-0.06-16.98,0.01c-1.9,0.02-4.36-0.5-5.01,2.01c-0.66,2.54,1.63,3.55,3.44,4.04
				c7.23,1.97,12.2,5.19,11.54,14.04c-0.34,4.52,3.21,4.2,5.66,1.78c3.63-3.58,5.75-3.06,8.49,1.15c2.67,4.1,6.22,2.31,9.58,0.09
				c2.19-1.44,6.08-2.15,6.85,0.05c1.19,3.37-3.65,1.3-4.61,2.95c-3.48,6.03-9.93,7.49-15.34,10.64c-6.93,4.04-10.83,2.5-13.33-5.37
				c-0.75-2.36-2.12-4.64-3.68-6.57c-1.38-1.7-3.82-1.48-5.52-0.57c-2.29,1.23-0.87,2.79,0.41,3.97c4.13,3.79,0.66,4.43-2,3.88
				c-6.98-1.44-13.33-1.26-20.25,1.49c-4.87,1.94-9.89,0.35-12.87-6.22c-2.92-6.44-10.97-7.23-16.9-10.24
				c-2.24-1.14-4.84-1.54-7.17-2.53c-1.67-0.71-2.71-2.21-2.18-4.11c0.53-1.88,2.02-1.37,3.44-1.04c2.39,0.55,4.09-0.41,3.9-2.93
				c-0.17-2.43-2.32-3.07-4.39-3.05c-3.78,0.03-7.81,0.32-8.31,5.19c-0.62,6.08-0.01,12.33,6.61,14.8c3.31,1.23,6.74,1.13,6.82,6.41
				c-1.41,2.84-4.11,2.97-6.57,4.6c-3.55,1-5.1-1.39-7.15-2.83c-0.06,1.72,2.02,2.11,2.19,3.29c1.52,10.95,11.51,13.43,18.6,18.8
				c1.58,1.2,3.52,2.42,3.87,4.3c1.62,8.66,8.3,8.47,15.37,8.8c14.69,7.27,27.28,16.88,40.48,25.52
				c18.02,11.8,36.92,21.69,57.44,28.47c8.56,2.83,16.08,8.26,24.97,10.49c18.83,4.73,37.12,12,56.27,14.84
				c13.82,2.05,28.11,2.99,41.8,5.12c17.85,2.77,35.52,3,53.11,2.09c17.28-0.89,34.61-3.59,51.87-5.27
				c22.24-2.17,42.98-9.35,63.97-15.46c21.38-6.22,41.56-15.86,61.15-26.87c15.57-8.75,30.64-18.04,44.39-29.29
				c27.02-22.12,54.23-44.17,75.85-71.9c13.19-16.92,24.55-35.17,34.24-54.38c8.91-17.66,17.65-35.4,23.89-54.24
				C929.83,624.17,931.5,622.29,934.91,621.85z"/>
			<path class="st18" d="M227.34,782.16c0.06-3.21-0.01-5.93,1.87-8.46c2.09-2.81,2.67-5.37-2.52-4.61
				c-3.02,0.44-4.11-1.22-3.68-4.05c1.53-10.27,0.34-19.33-9.94-25.05c-2.06-1.15-3.44-3.71-4.82-5.83
				c-1.91-2.94-0.96-5.15,2.58-5.04c7.1,0.22,14.02-0.95,21.01-1.72c2.44-0.27,5.86-1.15,3.53,4.19c-1.94,4.44,0.17,9.2,3.37,13.1
				c3.23,3.93,3.29,8.47,0.8,12.52c-1.41,2.28-5.12,3.93-2.66,6.89c2.16,2.6,4.88,5.7,9.16,4.75c1.68-0.37,3.46-1.17,4.51,0.71
				c0.96,1.7-0.36,3.09-1.22,4.58c-3.27,5.67-8.96,8.13-14.19,11.3c-3.24,1.96-4.44-1.31-7.2-2.01
				C227.37,783.36,227.35,782.56,227.34,782.16z"/>
			<path class="st19" d="M988.21,541.25c0.77-0.75,1.54-0.75,2.9-0.74c0.53,9.66,0.48,19.31,0.39,29.75
				c-0.84,1.66-1.64,2.54-2.86,3.83c-0.43,5.56-0.45,10.68-0.5,16.57c-0.88,1.71-1.78,2.6-2.98,3.87
				c-1.26,4.74,1.71,9.74-3.02,13.81c-3.81-8.95-6.32-18.74-16.39-22.81c-5.05-2.05-6.3-5.34-3.6-9c3.7-5.01,5.17-10.93,6.36-16.4
				c1.6-7.33,6.48-8.32,11.85-9.86c0.54-0.16,1.09-0.53,1.61-0.5C988.21,550.13,988.21,550.14,988.21,541.25z"/>
			<path class="st18" d="M162.77,687.39c1.6-10.08,11.2-4.05,15.36-8.57c0.06-0.06,0.62,0.13,0.68,0.31
				c0.28,0.75,0.46,1.53,0.67,2.3l-3.78,12.61c-4.57,1.04-1.96,6.78-5.82,9C164.41,699.68,165.28,693.12,162.77,687.39z"/>
			<path class="st20" d="M598.94,960.3c-24.59,2.13-49.53,1.14-75.26,1.19c-3.82-2.88-2.34-3.26,0.76-3.25
				c15.53,0.07,31.06-0.23,46.58,0.13C580.21,958.59,589.54,956.63,598.94,960.3z"/>
			<path class="st18" d="M123.87,532.74c4.54-0.24,10.08-6.13,12.96,3.56c2.17,7.29,0.69,8.16-5.3,6.99
				c-2.9-0.56-4.28-0.32-4.35,3.42C120.52,544.05,125.15,538.06,123.87,532.74z"/>
			<path class="st19" d="M977.94,631.48c-8.24-6.56-7.03-19.16,2.9-22.98C983.29,616.4,978.45,623.24,977.94,631.48z"/>
			<path class="st18" d="M127.16,486.8c7.43,5.11,1.46,8.72-2.68,12.84C122.37,494.97,126.03,491.54,127.16,486.8z"/>
			<path class="st20" d="M631.28,957.25c-4.37,0.73-8.89,0.85-14.17,0.9C620.76,952.25,625.96,954.64,631.28,957.25z"/>
			<path class="st18" d="M130.72,595.36c0.91-1.06,2.08-1.37,2.73-2.14c0.99-1.17,0.01-3.77,2.13-4.02c1.97-0.24,1.62,1.86,1.84,3.1
				c0.42,2.4,2.97,5.73-2.94,5.95C132.33,598.13,131.05,597.67,130.72,595.36z"/>
			<path class="st18" d="M127.32,574.98c0.73-0.84,1.54-1.06,2.27-1.44c1.9-0.98,0.18-5.99,3.16-4.28c1.66,0.95,4.69,6.33-1.67,8.56
				C128.98,577.74,127.67,577.3,127.32,574.98z"/>
			<path class="st18" d="M147.65,656.61c2.13,0.48,4.2,1.68,6.35,2.68c1.14,0.53,3.2,0.43,2.51,2.24c-0.66,1.74-2.79,1.1-4.96,1.25
				C147.36,662.42,147.61,659.76,147.65,656.61z"/>
			<path class="st18" d="M186.78,734.67c1.84-0.46,3.98-0.84,4.83,2.29C189.83,737.3,187.62,737.8,186.78,734.67z"/>
			<path class="st18" d="M988.78,574.44c-0.45-1.42-0.09-2.76,2.16-3.29C991.47,572.62,991.06,573.92,988.78,574.44z"/>
			<path class="st18" d="M180.02,724.44c1.45-0.37,2.68,0.15,3.14,2.32C181.72,727.14,180.38,726.76,180.02,724.44z"/>
			<path class="st18" d="M176.57,717.65c1.46-0.38,2.76,0.08,3.17,2.36C178.31,720.35,176.96,719.96,176.57,717.65z"/>
			<path class="st18" d="M137.55,625.94c1.49-0.37,2.76,0.13,3.13,2.41C139.23,628.67,137.88,628.27,137.55,625.94z"/>
			<path class="st18" d="M134.15,612.36c1.49-0.37,2.76,0.13,3.13,2.39C135.84,615.08,134.48,614.69,134.15,612.36z"/>
			<path class="st18" d="M985.37,594.79c-0.43-1.42-0.05-2.76,2.21-3.26C988.08,593,987.65,594.29,985.37,594.79z"/>
			<path class="st21" d="M438.65,1056.8c-6.82-0.25-12.04-4.62-18.54-3.71c-2.39,0.33-4.77-2.06-3.78-4.37
				c3.14-7.29-2.19-7.92-6.63-10.36c-3.28-1.8-8.66-1.92-9.03-8.16c2.28-0.58,4.63-0.52,7.68-0.4c2.31,1.83,4.9,1.13,7.05,2.86
				c0.37,0.4,0.45,0.37,0.45,0.42c1.58,1.96,4.24,1.26,6.53,2.89c2.21,0.4,3.98,0.45,6.41,0.57c2.78,2.31,6.02,0.91,8.81,2.83
				c11.48-0.71,21.68,4.24,32.66,4.74c6.54,0.3,12.71-1.74,19.11-0.82c33.16,4.77,66.54,3.04,100.65,3.43
				c2.1,5.09,6.24,2.87,9.25,3.22c2.9,0.33,6.05,0.24,6.46,3.96c0.36,3.22-2.05,4.37-4.87,4.59c-2.13,0.17-3.8,1.2-5.09,2.75
				c-4.59,5.49-9.79,5.05-15.02,1.35c-10.02-7.1-19.99-5.12-29.25,0.82c-6.59,4.23-13.01,6.38-20.59,4.24
				c-2.83-0.8-5.68-1.12-8.23,0.4c-4.42,2.63-9.2,2.47-14,2.32c-10.77-0.33-21.48-0.03-31.73,3.68c-4.83,1.75-7.76,0.35-8.84-4.51
				c-1.21-5.45-4.21-7.62-9.93-8.19C451.81,1060.7,445.6,1058.39,438.65,1056.8z"/>
			<path class="st13" d="M656.41,1063.57c0.54,2.76-1.53,3.7-3.62,4.58c-10.01,4.19-20.06,8.26-30,12.61
				c-3.23,1.41-5.33,1.28-6.42-3c8.89,0.81,15.03-5.01,21.81-9.17c2.15-1.32,1.68-3.17,1.03-5.15c-0.78-2.38-1.83-5.23,1.6-6.24
				c2.59-0.77,5.59-1.22,7.67,1.49C650.36,1061.15,652.17,1063.66,656.41,1063.57z"/>
			<path class="st0" d="M413.29,968.49c2.78,0.2,5.58,0.89,5.13,2.96c-1.21,5.63,0.49,7.9,6.2,7.39c0.63-0.06,1.78,0.65,1.91,1.19
				c0.37,1.51-0.98,1.9-2.06,1.89c-2.74-0.02-6.06,1.24-8.02-1.3c-3.54-4.61-8.18-5.59-13.5-5.44c-2.23,0.06-3.88-0.85-3.79-3.44
				c0.09-2.62,1.91-3.19,4.07-3.21C406.35,968.49,409.46,968.49,413.29,968.49z"/>
			<path class="st0" d="M302.68,941.33c-3.96-0.54-5.56-3.09-7.41-6.01c1.18-4.63,3.64-7.47,8.2-7.54c2.49-0.04,6.43-0.43,7.19,0.84
				c1.84,3.09-2.5,3.42-3.96,5.14c-1.24,1.46-3.76,2.4-0.23,3.99c1.57,0.71,4.99-0.84,4.49,2.05c-0.47,2.68-3.83,1.07-5.88,1.48
				C304.53,941.39,303.95,941.31,302.68,941.33z"/>
			<path class="st16" d="M776.49,1063.57c-0.57-0.76-0.57-1.51-0.57-2.83c0.24-10.95,1.29-11.96,8.38-7.96
				c-2.4,3.12-5.1,5.54-4.97,10.18C778.57,1063.57,777.81,1063.57,776.49,1063.57z"/>
			<path class="st13" d="M610.46,1077.17c-2.89,7.84-9.47,4.74-15.78,3.87C598.8,1076.76,604.3,1077.11,610.46,1077.17z"/>
			<path class="st16" d="M809.87,1047.65c-2.34,0.64-4.7,0.64-7.76,0.65c-0.5-2.74,0.72-4.62,3.64-4.94
				C808.41,1043.06,809.81,1044.3,809.87,1047.65z"/>
			<path class="st21" d="M431.03,988.15c-2.22,0.6-4.56,0.6-7.6,0.53C424.91,983.99,427.72,984.24,431.03,988.15z"/>
			<path class="st21" d="M439.45,979.38c2.37-0.66,4.39-1.27,5.89,0.54c0.15,0.18-0.67,1.72-1.11,1.75
				C442.26,981.82,439.65,983.27,439.45,979.38z"/>
			<path class="st21" d="M446.16,969.21c1.91-0.53,3.63-1.28,4.35,0.87c0.11,0.32-0.36,1.16-0.68,1.23
				C448.12,971.68,446.01,972.69,446.16,969.21z"/>
			<path class="st0" d="M327.46,954.2c-1.83,0.53-3.99,1.06-5.03-2.05C324.24,951.61,326.42,951.08,327.46,954.2z"/>
			<path class="st0" d="M813.38,924.88c1.18-0.56,2.46-0.56,4.37-0.56C817.51,928.01,815.95,928.75,813.38,924.88z"/>
			<path class="st0" d="M337.67,957.92c-0.7,0.47-1.44,0.43-2.74,0.32c-0.13-0.91,0.11-2.22,0.78-2.5
				C336.78,955.29,337.38,956.37,337.67,957.92z"/>
			<path class="st0" d="M286.7,933.7c-1.45,0.57-2.64,0.1-3.15-2.07C284.89,931.25,286.15,931.63,286.7,933.7z"/>
			<path class="st0" d="M316.39,925.94c0.67-1.22,1.34-1.23,1.93-0.37c0.12,0.18,0.12,0.6-0.01,0.78
				C317.7,927.2,317.03,927.17,316.39,925.94z"/>
			<path class="st0" d="M255.28,944.84c-3.16-4.36-4.58-8.17,3.87-6.89C259.32,940.69,260.68,944.49,255.28,944.84z"/>
			<path class="st13" d="M437.86,1039.15c-2.64,0.17-5.99,2.03-8.27-1.94C432.28,1036.9,435.57,1035.24,437.86,1039.15z"/>
			<path class="st13" d="M415.67,1032.46c-2.15,0.25-4.89,1.44-6.47-2.02C411.4,1029.98,414.16,1028.71,415.67,1032.46z"/>
			<path class="st13" d="M422.65,1035.73c-2.2,0.39-5.01,1.64-6.66-2.01C418.21,1033.29,420.95,1032.23,422.65,1035.73z"/>
			<path class="st17" d="M251.75,1026.3c-0.58-0.85-0.59-1.61-0.59-2.92c3.77-0.24,8.95-2.12,8.48,5.53
				C256.4,1030.38,254.73,1027.57,251.75,1026.3z"/>
			<path class="st17" d="M251.16,1022.13c-0.75,0.68-1.5,0.68-2.82,0.68c-0.71-1.53-1.14-2.86-3.42-3.32
				c-0.54-0.83-0.54-1.59-0.54-2.91c0.75-0.56,1.5-0.56,2.81-0.56c1.22-0.64,2-0.89,3.43-0.36
				C251.15,1017.84,251.15,1019.65,251.16,1022.13z"/>
			<path class="st0" d="M251.15,1015.42c-0.76,0.62-1.51,0.61-2.83,0.6c-0.16-1.94-1.64-5.12,0.96-5.52
				C251.94,1010.1,250.76,1013.19,251.15,1015.42z"/>
			<path class="st0" d="M858.67,890.41c0.32,1,0.31,2.21-1.06,2.45c-0.29,0.05-0.69-0.55-1.04-0.86
				C857.11,891.5,857.65,890.98,858.67,890.41z"/>
			<path class="st0" d="M862,887.03c0.4,1.46-0.02,2.79-2.31,3.25c-0.54,0.08-0.54,0.07-0.55,0.07
				C859.28,888.81,859.71,887.48,862,887.03z"/>
			<path class="st10" d="M737.49,1062.89c-0.59,6.95-5.41,3.62-8.61,3.61c-1.6,0-1.67-2.04,0.17-2.71
				C731.6,1062.86,734.1,1061.19,737.49,1062.89z"/>
			<path class="st15" d="M266.76,765.71c-0.04-4.67,2.67-4.4,5.84-4.44c3.91,0.34,5.72,4.46,10.16,3.43
				c1.55,0.89,2.45,1.78,3.73,2.98c9.69-0.34,16.24,7.28,25.08,8.72c3.01,0.49,6.21,1.69,10.21,1.87c5.1-2.44,7.92,1.84,12.09,2.92
				c2.33,0.41,4.14,0.44,6.63,0.45c3,0.12,4.96,1.07,7.07,2.99c8.8-1.32,15.92,5.78,25.1,3.84c2.84,1.54,5.3,0.7,8.19,1.05
				c3.15,0.03,5.7-0.03,8.79,0.87c3.31,2.53,7.09,2.16,10.48,4.4c28.36,4.79,56.52,4.99,84.45,3.3c13.47-0.81,27.32-1.9,40.84-5.45
				c8.62-2.27,18.06-2.4,27.14-3.87c13.1-2.12,25.5-6.61,38.35-9.23c13.28-2.7,25.64-8.03,38.56-11.72
				c8.42-2.4,16.25-6.88,24.33-10.45c22.29-9.83,43.36-22.07,64.31-34.31c14.45-8.43,28.19-18.36,41.92-28.13
				c18.95-13.49,35.24-29.62,50.98-46c17.91-18.64,35.75-37.59,49.76-59.96c9.39-15,21.29-28.7,28.47-44.95
				c10.99-24.89,24.08-48.88,31.57-75.36c3.42-12.11,7.95-23.91,9.64-36.45c0.54-3.99,5.66-4.35,5.82-8.74
				c0.05-1.54,2.2-0.6,2.5,1.08c2.22,12.43,5.31,24.68,7.51,37.14c2.22,12.54,0.62,25.35,3.35,37.29
				c4.74,20.73-3.59,40.8-0.52,61.16c0.29,1.93,0.03,3.95,0.01,6.73c-0.33,3.02-1.19,5.01-2.92,7.2c-0.39,3.32-0.42,6.23-0.44,9.86
				c-0.84,1.56-1.67,2.4-2.89,3.7c-0.45,4.45-0.49,8.47-0.55,13.24c-0.59,1.74-1.68,1.53-2.92,2.16c-0.38,2.68-0.41,5.03-0.43,8.09
				c-0.35,2.93-1.22,4.93-2.99,7.1c-0.39,1.16-0.41,1.91-0.42,3.23c-2.32,1.81-4.24,3.44-4.89,6.11
				c-4.48,18.44-14.19,34.66-21.73,51.81c-8.39,19.06-19.91,36.56-32.23,52.76c-15.13,19.89-31.7,39.51-53.69,52.87
				c-3.41,2.07-2.79,5.81-5.67,7.95c-9.81,7.29-18.82,15.78-29.12,22.24c-5.92,3.71-10.75,8.61-16.71,12.33
				c-25.12,15.69-51.5,29.01-79.42,38.04c-13.84,4.47-28.11,8.98-42.8,11.66c-18.05,3.3-36.39,4.09-54.19,7.16
				c-19.25,3.33-38.26,3.13-57.05,1.92c-14.9-0.97-30.27-1.04-45.07-5.59c-7.75-2.39-16.34-0.43-24.6-3.58
				c-8.07-3.08-17.27-3.2-25.37-6.88c-10.8-4.89-22.92-5-33.81-10.23c-18.34-8.81-37.59-15.77-55.87-24.68
				c-7.3-3.56-14.25-8.69-20.65-13.78c-10.48-8.32-22.85-13.76-33.35-22.85c-3.17-0.94-4.57-3.12-6.51-5.47
				c-1.52-2.3-3.59-2.78-5.91-3.85c-2.6-2.15-4.49-4.31-7.07-6.53c-1.44-1.41-2.43-2.49-3.92-3.88c-2.53-3.07-5.38-5.11-7.36-8.63
				C267.85,768.83,267.53,767.77,266.76,765.71z"/>
			<path class="st22" d="M726.74,404.03c-5.92,4.49-2.54,10.52-3.78,16.19c-2.14,4.29-1.04,8.35-1.47,12.2
				c-0.86,7.68-3.58,9.33-11.22,6.08c-0.25-1.27-0.24-1.88-0.44-2.9c-1.69-2.04-2.59-3.99-3.35-6.69
				c-2.24-12.49-3.87-24.46-7.68-36.58c-2.02-3.68-0.78-7.77-3.9-11c-0.42-0.41-0.38-0.45-0.37-0.48
				c-10.14-15.22-23.04-26.57-42.1-30.27c-0.39-0.44-0.43-0.3-0.37-0.34c-6.33-3.18-14.44-0.14-20.68-6.14
				c-1.24-1.72-1.5-3.07-1.25-5.18c5-6.45,12.39-5.1,18.56-7.1c2.57-0.84,5.54-0.53,8.58-2.39c5.32-2.05,10.06-3.78,15.36-5.84
				c0.59-0.21,1.07-0.15,1.22-0.33c6.9-8.79,15.25-16.21,20.38-26.74c0.48-0.34,0.32-0.4,0.35-0.32c4.8-8.41,6.45-17.99,9.37-27.69
				c0.81-4.39,0.08-8.41,1.98-12.6c3.44-3.43,3.72-7.17,3.99-11.11c0.5-7.25,2.41-8,9.62-3.55c2.58,2.93,1.86,5.94,2.03,9.48
				c-1.51,8.38,5.5,14.38,4.16,22.66c-0.02,3.02-0.43,5.47,1.52,8.05c1.89,3,1.05,6.79,4.89,8.75c0.68,0.75,0.92,1.08,1.45,1.96
				c6.63,21.33,22.53,32.42,41.65,38.84c7.45,2.5,15.83,3.2,23.94,5.78c2.63,8.19-5.31,5.65-7.91,9.18
				c-2.23,3.33-5.15,2.49-8.48,2.44c-22.12,5.47-41.9,13.34-49.16,37.22c-1.02,3.35-3.88,5.6-4.4,9.72
				C729.1,398.65,729.05,401.35,726.74,404.03z"/>
			<path class="st23" d="M409.51,604.46c-0.58,1.1-0.74,1.67-0.8,2.69c-1.06,3.01-2.09,6.26-5.7,5.26
				c-3.93-1.08-5.82-4.22-5.81-9.03c-0.38-3.21-0.94-5.69-2.75-8.42c-1.24-3.03-1.28-5.62-1.34-8.83c0.23-4.47-0.42-8.02-3.63-11.41
				c-4.71-12.23-10.31-23.05-20.03-31.43c-6.69-5.77-14.64-8.98-22.82-11.01c-5.12-1.27-10.22-3.1-15.59-3.54
				c-2.34-0.19-4.27-1.5-4.77-4.11c-0.55-2.85,0.83-4.71,2.94-6.5c5.31-4.49,12.03-2.04,18.37-4.31c0.53-0.39,0.42-0.47,0.43-0.4
				c12.7-2.98,21.82-11.76,32.07-19.87c0.53-0.31,0.34-0.4,0.38-0.3c9.05-15.07,13.78-31.64,16.14-48.99
				c0.23-1.68,0.4-3.39,1.18-4.92c1.19-2.34,2.8-4.39,5.55-4.76c3.58-0.49,3.69,2.75,5.19,5.43c0.38,0.55,0.45,0.42,0.38,0.42
				c2.79,3.14,1.91,6.77,0.92,11.05c-0.39,1.49-0.4,2.28-0.18,3.64c0.78,1.5,1.37,2.41,2.34,3.73c0.28,0.47,0.32,0.3,0.24,0.34
				c0.26,0.3,0.6,0.57,1.26,1.39c1.36,4.23-0.26,8.26,2.06,12.38c-0.38,9.62,3.48,16.45,10.66,21.58c5.61,4.01,9.89,9.46,15.82,13.3
				c8.17,5.29,16.93,7.74,26.25,9.21c1.62,0.26,3.62,0.46,4.65,1.48c1.75,1.74,6.11,0.85,5.62,3.94c-0.49,3.05-3.34,5.04-7.63,4.52
				c-2.44,1.72-5.29,1.66-7.29,4.19c-3.67,1.46-7.24,0.01-10.83,2.14c-9.14,1.59-15.65,6.49-21.62,13.01
				c-4.81,8.04-10.62,14.81-13.72,23.31C413.38,580.74,412.33,592.48,409.51,604.46z"/>
			<path class="st24" d="M670.89,632.32c3.27,3.57,6.21,6.44,9.55,9.73c4.77,5.4,2.3,10.71,0.54,16.53
				c-0.58,0.58-0.4,0.42-0.49,0.35c-5.56,10.57-14.34,14.79-23.21,11.05c-13.44-5.67-17.74-15.89-12.05-30.45
				c2.14-0.24,3.22-0.76,3.55-2.83C654.28,626.38,662.87,631.14,670.89,632.32z"/>
			<path class="st19" d="M400.77,794.55c-3.48,0.02-7.43,2.39-10.25-2.04c-2.95-3.96-6.21-2.27-9.84-1.1
				c-2.78,0.13-5.61,1.41-7.15-2.32c1.88-5.38-2.14-3.79-3.93-3.95c-10.08-0.92-8.52-2.48-6.87-11.53
				c2.29-12.5,15.07-9.79,20.12-17.88c2.18-3.49,8.07,1.14,10.46,5.21c1.09,1.85,0.3,4.65,2.25,6.21c5.76,4.61,5.58,8.36-1.13,11.92
				c-2.6,1.38-2.36,4.96,0.2,5.05c5.54,0.19,9.82,5.96,15.95,3.08c1.78-0.84,5.35-1.51,5.85,1.12c0.66,3.47-2.84,3.17-5.31,3.57
				C407.71,792.44,403.7,790.11,400.77,794.55z"/>
			<path class="st25" d="M395.16,594.47c3.49,1.12,3.36,3.62,3.48,6.55c-0.65,1.2-1.37,1.47-2.71,1.01
				c-7.13,0.61-9.74-2.1-8.99-8.86c0.5-4.46,0.19-9.03,0.02-13.54c-0.2-5.25-2.52-7.11-6.72-3.08c-4.7,4.51-7.6,3.41-6.52-2.64
				c1.15-6.47-6.11-5.13-6.78-9.15c-0.84-5.06,7.45-3.09,6.75-9.15c-0.66-5.8-6.9-14.68-12.75-15.07
				c-4.32-0.28-8.17,0.65-10.81-5.27c-1.66-3.71-8.93-2.62-12.56-1.08c-5.04,2.14-7.66,0.92-10.52-2.69
				c-0.48-0.61-1.68-0.67-2.11-1.29c-2.29-3.35-10.92-3.29-8.41-6.95c2.95-4.31,6.35-11.52,14.76-10.1
				c4.94,0.84,10.13,0.17,16.02,0.22c-0.49,4.19-4.17,3.4-7.01,3.31c-3.96-0.12-6.96,1.96-10.34,3.23
				c-1.99,0.75-2.41,2.07-2.17,3.95c0.28,2.16,1.77,2.59,3.57,2.84c11.07,1.55,21.57,4.76,31.6,9.82
				c11.21,5.65,18.59,14.8,23.69,25.7c1.54,3.3,5.03,6.35,3.88,11.43c1.65,2.9,2.15,5.49,2.28,8.82
				C393.38,586.83,391,591.01,395.16,594.47z"/>
			<path class="st14" d="M344.97,322.59c-7.03,2.99-7.09-4.56-10.96-6.64c-8.42-4.52-13.4-19.88-11.49-29.14
				c1.18-5.72,7.14-5.76,10.22-9.74c4.65-6.01,13.62-8.6,19.7-14.33c1.68-1.58,5.17-1.66,6.79,0.94c3.71,5.95,9.08,9.98,14.48,14.22
				c4.39,3.45,10.18,7.4,3.82,14.54c-2.23-0.22-3.43-1.29-5.12-2.69c-6.84-8.81-15.67-10.79-25.3-8.72
				c-6.16,1.33-11.63,4.75-13.28,11.62c-1.71,7.12,0.08,13.37,5.6,18.4c2.46,2.24,5.71,3.77,6.65,8.04
				C346.04,320.56,345.78,321.35,344.97,322.59z"/>
			<path class="st25" d="M408.97,439.85c-3.35,1.04-2.57-5.35-5.94-3.48c-3.18,1.76-3.63,5.55-4.15,9.36
				c-2.28,16.99-6.54,33.4-17.76,47.52c-0.66-1.32-1.29-3.08-0.68-4.08c7.6-12.47,6.47-26.32,6.57-39.98
				c0.05-6.22,6.66-15.47,12.47-17.43C406.61,429.37,408.49,430.83,408.97,439.85z"/>
			<path class="st25" d="M645.11,639.15c0.36,6.87-2.47,14.21,2.34,20.23c9.43,11.81,19.68,14.15,32.35-0.44
				c2.96,7.94-1.03,13.69-7.7,16.04c-6.51,2.3-14.09,4.14-19.99-3.03c-3.19-3.87-10.25-1.79-12.29-9.04
				c-2.06-7.33-1.27-14.33-0.97-21.45C638.97,638.56,642.17,639.18,645.11,639.15z"/>
			<path class="st14" d="M727.57,394.89c4.59-8.98,7.84-18.46,13.26-27.02c6.77-10.69,17.22-14.34,28.07-17.25
				c3.76-1.01,6.71-4.14,11.5-3.59c0.82,0.39,0.98,0.69,0.75,1.32c-4.02,6.24-12.6,7.1-14.92,14.48c-0.19,0.59-2.06,1.1-3.03,0.93
				c-9.56-1.66-12.59,6.6-18.46,11.07c-6.68,5.08-8.31,12.51-12.87,19.06C730.68,395.42,729.46,395.67,727.57,394.89z"/>
			<path class="st26" d="M799.44,336.67c-14.99,0.3-28.99-4.74-42.15-10.87c-13.12-6.12-20.09-18.86-25.59-32.6
				c3.28-2.87,4.48-0.14,6.42,2.28c0.45,1.31,0.16,2.7,0.54,2.92c11.35,6.49,13.08,24.8,29.64,24.59c6.44-0.08,7.09,9.7,15.12,7.19
				C789.23,328.37,795.63,329.84,799.44,336.67z"/>
			<path class="st25" d="M699.05,390.59c6.45,5.3,4.73,12.92,6.77,19.14c1.8,5.5,1.26,11.97,3.51,18.23
				c-1.56,0.75-2.21,1.61-2.7,3.43c-12.21,0.34-12.21,0.34-12.22-11.15c-0.01-9.19-0.01-18.39-0.01-28.37
				C695.59,390.03,696.93,389.75,699.05,390.59z"/>
			<path class="st25" d="M379.93,493.15c-7.12,10.8-16,19.87-31.17,20.36c1.73-4.45,3.33-9.02,2.69-14.28
				c-0.28-2.33-0.76-5.41,2.85-6.06c2.75-0.5,4.83,0.04,5.65,3.39c0.98,4.02,3.49,3.25,6.48,1.78
				C370.58,496.33,374.11,492.72,379.93,493.15z"/>
			<path class="st25" d="M631.27,343.1c7.04,2.2,13.68,4.06,20.59,6.5c-6.64,0.78-13.54,2-20.44,0.69c-2.96-0.57-7.48,1.74-8.1-3.4
				c-0.6-4.89-1.28-9.93,4.37-13.28c7.2-4.27,14.92-3.71,23.44-3.74c2.53-1.4,4.45-1.78,7.15-0.41c-7.49,5.72-16.88,6.25-26.51,8.26
				C630.21,339.61,629.05,341.06,631.27,343.1z"/>
			<path class="st14" d="M693.91,296.09c-0.99,12.44-10.16,19.43-19.32,26.92c-0.59-1.92-0.19-4.01-0.7-5.85
				c-1.09-3.98-3.84-7.99,3.78-8.49c1.83-0.12,4.85-4.02-0.01-5.83c-2.09-0.78-3.71-1.44-3.35-3.96c0.46-3.17,3.01-2.88,5.22-2.9
				C684.06,295.94,688.58,296,693.91,296.09z"/>
			<path class="st26" d="M652.12,350.74c20.1,0.51,33.8,10.99,42.42,29.44c-3.52-0.02-5.92-3.58-10.05-2.91
				c-2.34,0.38-3.6-1.4-3.56-3.72c0.1-5.73-3.33-8-8.17-10.24C665.6,359.98,659.03,355.4,652.12,350.74z"/>
			<path class="st19" d="M964.47,598.28c1.94,4.3,11.29,3.66,6.73,10.66c-4.16,6.38-8.9,0.85-13.2-0.71
				c-3.71-1.35-6.47-3.75-4.57-8.28c1.45-3.43-0.46-5.9-1.97-8.55c-0.76-1.34-2.7-2.6-0.91-4.26c1.35-1.25,3.14-0.71,4.76-0.15
				C960.45,588.77,960.88,594.43,964.47,598.28z"/>
			<path class="st26" d="M409.7,604.88c0-17.47,3.83-34.11,12.41-49.69c2.01-3.65,5.66-4.87,8.35-8.13
				c0.57,6.14,2.31,11.72-6.51,15.93c-4.4,2.1-9.03,11.74-8.01,19.95C416.94,590.98,412.47,597.57,409.7,604.88z"/>
			<path class="st14" d="M659.54,330.02c-2.53-0.08-4.39-0.1-6.94-0.14c0.4-7.02-4.19-6.54-8.99-6.94
				c-3.95-0.33-11.22,3.01-11.21-2.97c0.01-6.68,7.47-2.75,11.59-3.53c3.95-0.75,7.62,0.13,10.76,3.31
				c4.71,4.77,11.06,3.05,17.66,3.55C669.85,327.47,665.91,330.47,659.54,330.02z"/>
			<path class="st19" d="M382.41,722.49c-2.85,1.48-4.05,6.14-7.04,4.14c-3.12-2.08,0.02-5.47,0.89-8.1
				c1.9-5.75,7.72-6.06,12.25-7.4c2.83-0.83,4.86,2.42,5.14,5.42c0.32,3.47-1.47,6.08-4.93,6.68
				C386.92,723.55,384.92,722.68,382.41,722.49z"/>
			<path class="st26" d="M705.04,268.29c-0.76,9.58-3.78,18.41-6.74,27.25c-0.15,0.44-1.53,0.46-3.01,0.7
				c-0.74-1.37-0.71-2.78-0.91-4.16c-1.31-8.97,0.32-16.82,8.49-22.86C703.44,268.4,703.9,268.19,705.04,268.29z"/>
			<path class="st26" d="M345.36,323.11c-0.74-0.93-0.69-1.84-0.54-3.42c1.99-2.15,4.26-2.22,6.49-2.26
				c8.98-0.16,14.7-5.86,20.92-11.97c1.04-0.13,1.47-0.08,2.42,0.33c0.25,1.45,0.01,2.55-0.3,3.62
				c-4.02,13.71-4.02,13.71-18.07,13.75C352.9,323.16,349.53,323.13,345.36,323.11z"/>
			<path class="st25" d="M723.98,275.94c0.46-8.21-4.02-15.11-3.94-23.42c1.23-1.32,1.94-0.72,2.88,0.52
				c0.17,3.29,0.82,6.02,3.42,7.54c5.44,3.17,5.71,8.22,5.4,14.29c-1.37,1.98-2.96,2.6-5.48,2.31
				C725.24,276.81,724.86,276.6,723.98,275.94z"/>
			<path class="st1" d="M709.93,438.54c7.31,1.86,9.84-1.37,9.87-8.31c0.01-2.94-0.69-6.27,2.69-8.97
				c0.51,7.52,3.11,15.91-5.33,21.76C711.66,446.83,709.67,445.59,709.93,438.54z"/>
			<path class="st26" d="M395.45,602.42c0.69-0.77,1.39-0.78,2.61-0.8c1.12,3.4,0.88,7.19,4.61,9.17c3.08,1.64,2.97-2.57,5.6-3.01
				c1.37,4.71,0.44,7.64-5.67,7.6c-5.42-0.04-7.74-1.78-7.14-7.21C395.64,606.53,395.47,604.85,395.45,602.42z"/>
			<path class="st1" d="M671.77,632.63c-7.92-0.87-15.18-1.41-22.38,3.42c-1.61-5.27,0.39-7.73,6.14-7.31
				c4.77,0.35,9.59-0.01,14.38,0.13C671.86,628.93,674.35,629.09,671.77,632.63z"/>
			<path class="st8" d="M681.05,659.11c-0.53-5.01-0.4-10.07-0.25-15.88c3.75-4.59,6.3-0.96,5.81,1.42
				C685.61,649.55,686.47,655.39,681.05,659.11z"/>
			<path class="st26" d="M724.77,276.17c1.98-0.6,3.8-0.6,6.3-0.6c0.7,3.46,0.72,6.92,0.75,11.11c0.64,1.61,0.85,2.57,0.12,4.22
				c-4.53-0.39-5.62-3.32-5.5-7.7C725.03,280.86,724.98,278.76,724.77,276.17z"/>
			<path class="st19" d="M348.08,784.41c-2.53,0.73-4.86,0.59-6.64-2.25c-0.04-1.02,0.27-1.51,0.41-2.04
				c1.11-4.02,3.59-7.13,7.66-4.6C354.02,778.32,349.32,781.1,348.08,784.41z"/>
			<path class="st19" d="M334.28,781.02c-3.91,1.12-7.54,0.32-11.19-2.64c-0.61-1.93-0.61-3.74-0.61-6.23
				C329.09,770.94,330.85,776.72,334.28,781.02z"/>
			<path class="st15" d="M375.66,305.67c-0.78,0.46-1.08,0.45-1.82,0.43c-4.34-5.04-3.58-10.36-0.82-16.35
				c2.12-0.43,3.41,0.02,3.81,2.29C376.67,296.79,376.41,300.99,375.66,305.67z"/>
			<path class="st19" d="M946.53,574.48c-0.45-2.33-1.74-5.15,1.99-6.69c3.24-0.07,6.06,0.1,5.46,3.78
				C953.3,575.69,949.72,574.05,946.53,574.48z"/>
			<path class="st19" d="M322.48,771.47c-0.28,0-0.57,0-0.85,0c-4.09,0.03-7.96-0.52-10.22-4.49c-0.18-0.32,0.65-1.76,1.17-1.87
				c4.62-0.98,7.21,2.04,9.8,5.77C322.48,771.47,322.48,771.47,322.48,771.47z"/>
			<path class="st7" d="M726.89,395.2c1.33-0.71,2.51-0.71,4.28-0.71c-0.59,3.42,3.69,9.11-4.27,9.97
				C726.37,401.58,726.55,398.74,726.89,395.2z"/>
			<path class="st7" d="M699.7,390.28c-1.35,0.72-2.66,0.76-4.64,0.8c-0.61-2.91-0.57-5.82-0.56-9.46
				C700.12,381.45,699.45,385.81,699.7,390.28z"/>
			<path class="st1" d="M453,533.53c1.07-4.9,5.48-2.66,9.49-3.53c1.51-0.5,2.37-0.62,3.83-0.01
				C463.83,536.8,458.16,532.46,453,533.53z"/>
			<path class="st19" d="M936.25,618.62c-0.37-2.32-1.62-5.16,2.11-6.67c2.98,0.14,4.15,1.44,3.77,3.84
				C941.65,618.96,939.08,618.46,936.25,618.62z"/>
			<path class="st7" d="M415.75,472.72c-5.08-1.76-2.59-6.66-3.4-11.24c0.39-1.17,0.78-1.57,1.55-2.2
				C417.5,463,415.28,467.61,415.75,472.72z"/>
			<path class="st7" d="M705.9,267.99c-0.63,0.63-1.09,0.63-2.22,0.63c0.11-4.34-3.02-9.3,2.04-13.14
				C706.27,259.39,706.17,263.37,705.9,267.99z"/>
			<path class="st25" d="M410.06,451.99c-0.84-3.25-1.08-6.68-1.27-10.83C415.07,443.32,413.04,447.55,410.06,451.99z"/>
			<path class="st19" d="M965.55,622.75c-4.26-1.3-2.97-3.96-1.83-6.36c0.51-1.09,2.07-1.1,2.81-0.33
				C968.6,618.24,967.95,620.46,965.55,622.75z"/>
			<path class="st25" d="M731.44,291.79c0.11-1.19,0.21-2.1,0.34-3.68c4.2-0.03,6.52,2.32,6.77,7.22c-2.63,0.83-3.47-2.1-6.25-2.69
				C731.74,292.55,731.43,292.07,731.44,291.79z"/>
			<path class="st7" d="M723.27,252.7c-0.79,0.31-1.56-0.1-2.72-0.7c-0.54-3.07-0.68-5.95-0.75-9.53
				C726.33,243.39,722.08,248.6,723.27,252.7z"/>
			<path class="st8" d="M781.25,349.14c-0.49-0.45-0.29-1.22-0.25-1.61c2.9-0.63,5.75-0.87,9.31-1.08
				C789.67,352.72,785.31,349.99,781.25,349.14z"/>
			<path class="st19" d="M939.58,603.44c0.22-0.64,0.98-1.19,2.23-1.78c2.62,0.35,5.02,1.31,3.08,3.63
				C942.98,607.58,942.06,603.36,939.58,603.44z"/>
			<path class="st19" d="M988.2,539.9c-1.98,0.46-3.85-0.07-4.35-2.25c-0.27-1.16,0.67-2.02,1.94-1.9
				C987.93,535.95,988.07,537.65,988.2,539.9z"/>
			<path class="st20" d="M467.37,530.25c-1.33,0.08-2.15,0.02-3.58-0.17c0.23-3.31,2.84-3.07,5.88-3.1
				C469.99,528.48,469.42,529.69,467.37,530.25z"/>
			<path class="st15" d="M706.31,432.39c0.51-1.54,1.09-2.55,2.28-3.71c0.79,1.7,0.98,3.54,1.1,5.95
				C708.08,435.09,706.74,434.71,706.31,432.39z"/>
			<path class="st19" d="M978.51,539.68c-1.49,0.63-2.57,0.6-2.98-0.69c-0.11-0.35,0.3-1.2,0.64-1.3
				C977.6,537.22,978.9,537.27,978.51,539.68z"/>
			<path class="st19" d="M943,587.98c-0.48-1.47-0.07-2.77,2.22-3.24C945.63,586.16,945.24,587.48,943,587.98z"/>
			<path class="st25" d="M412.28,458.8c-1.42,0.15-2.53-0.49-2.5-2.64C411.33,455.95,412.22,456.75,412.28,458.8z"/>
			<path class="st19" d="M286.75,767.47c-1.46,0.46-2.78,0.04-3.27-2.24C284.92,764.8,286.25,765.19,286.75,767.47z"/>
			<path class="st19" d="M413.14,772.24c-1.34,0.38-1.82-0.09-1.62-1.13c0.04-0.22,0.35-0.51,0.57-0.54
				C413.13,770.41,413.57,770.92,413.14,772.24z"/>
			<path class="st25" d="M413.71,459.04c0.17,0.43-0.18,0.88-0.92,1.53c-0.39,0.2-0.73-0.54-0.69-0.95
				C412.49,459.16,412.84,459.11,413.71,459.04z"/>
			<path class="st18" d="M279.72,781.3c3.65,0.92,5.29,3.47,7.03,6.54c1.52,2.7,4.26,1.92,6.48,3.61c2.05,2.27,3.7,4.17,5.42,6.6
				c-3.94,3.49-14.18,0.17-15.22-4.42c-1.55-6.87-9.22-12.49-16.38-12.23c-4.11,0.15-5.94-2.75-4.79-6.04
				c1.69-4.85-0.47-7.75-3.88-9.96c-2.61-1.69-5.51-3.39-2.8-6.24c2.82-2.98,4.79,0.63,6.71,2.49c0.98,0.95,1.98,1.89,3.55,2.93
				c0.58,0.1,0.61,0.1,0.6,0.11c0.9,0.9,1.8,1.8,3.02,3.04c0.95,4.54,5.61,5.75,7.09,9.94C277.55,779.15,278.44,780.08,279.72,781.3
				z"/>
			<path class="st18" d="M288.94,721.04c-3.87,4.93-0.86,7.01,2.77,8.69c3.68,1.7,3.8,3.83,0.85,6.22
				c-4.04,3.27-5.51,11.79-13.69,6.89c-1.43-0.86-3.35-1.54-3.02-3.51c0.38-2.23,2.56-1.82,4.12-1.78c8.28,0.22,7.59-2.49,3.4-8.1
				c-5.46-7.31-3.92-14.23,2.71-15.49c2.62-0.49,6.56-1.54,7.86,0.91C295.87,718.48,290.79,718.49,288.94,721.04z"/>
			<path class="st18" d="M269.22,687.12c-2.65,1.32-3.34,5.66-6.4,3.71c-3.04-1.94-0.71-5.02-0.08-7.61
				c0.57-2.32,0.21-5.43,4.37-4.07c3.27,1.07,6.61,0.91,9.86-0.36c2.38-0.93,4.45-0.53,5.73,1.85c0.99,1.86,0.91,3.85-0.29,5.57
				c-1.27,1.83-3.17,2.25-5.2,1.4C274.81,686.6,272.37,686.35,269.22,687.12z"/>
			<path class="st18" d="M233.8,691.94c3.26,3.51,6.14,7.42,1.67,10.28c-3.93,2.52-6.19-1.77-7.88-5.03
				c-0.39-0.74-0.7-1.52-1.12-2.24c-1.96-3.34-3.56-7.44,0.73-9.35C231.86,683.52,231.9,688.79,233.8,691.94z"/>
			<path class="st18" d="M236.75,709.9c3.55-1.76,6.39-1.15,7.15,2.17c0.79,3.43,1.82,7.64-1.22,10.34
				c-3.23,2.86-5.94,0.98-6.54-2.81C235.67,716.63,236.22,713.5,236.75,709.9z"/>
			<path class="st18" d="M210.55,675.75c0.21,2.05,2.16,4.62-0.19,4.71c-4.39,0.16-4.96-4.73-7.2-7.4
				c-1.78-2.13-1.77-4.72,0.09-6.97c1.2-1.45,2.85-1.81,4.55-0.98c1.81,0.89,3.55,2.19,3.64,4.29
				C211.53,671.31,210.83,673.24,210.55,675.75z"/>
			<path class="st18" d="M288.35,693.38c2.97,0.74,6.92,1.11,5.91,4.05c-1.52,4.43-6.27,2.64-9.7,2.49c-2.99-0.13-6.2-2.21-5.4-5.2
				C280.59,689.37,284.84,694.13,288.35,693.38z"/>
			<path class="st18" d="M146.33,489.18c2.79,2.85,5.99,5.2,3.9,9.02c-1.29,2.36-3.93,1.7-5.97,0.43c-3.69-2.3-4.19-6.04-3.22-9.68
				C142.06,485.08,144.17,487.35,146.33,489.18z"/>
			<path class="st18" d="M252.24,697.8c-1.32,2.6-1.02,6.35-4.77,5.23c-2.73-0.82-4.97-2.93-4.41-6.26
				c0.36-2.18,1.28-4.55,3.92-4.85C250.71,691.5,252.91,693.08,252.24,697.8z"/>
			<path class="st18" d="M203.03,686.87c3.51,4.27,0.54,6.08-2.21,7.56c-2.24,1.21-3.65-0.4-4.57-2.37
				c-1.24-2.65-2.27-5.81,0.02-7.87C198.82,681.91,200.75,684.82,203.03,686.87z"/>
			<path class="st18" d="M181.84,674.25c-0.1-5.07,1.56-7.13,6.14-4.8c2.47,1.26,4.73,3.17,3.01,5.92
				C188.07,680.04,184.88,677.55,181.84,674.25z"/>
			<path class="st18" d="M150.05,647.08c2.19-4.69,4.78-3.11,6.86-0.54c1.44,1.78,0.68,4-1.26,5.05
				C151.38,653.92,151.24,650.08,150.05,647.08z"/>
			<path class="st18" d="M141.27,607.45c-0.15-2.65-1.65-5.9,1.25-6.19c2.54-0.26,1.13,3.15,1.8,4.81c0.1,0.26,0.12,0.55,0.17,0.83
				c0.5,2.49,5.17,5.23,1.67,7.01C143.51,615.27,143.07,610.16,141.27,607.45z"/>
			<path class="st18" d="M164.06,670.28c-4.77-1.75-2.4-4.49-1.26-7.03c0.5-1.11,1.86-1.84,2.52-0.79
				C166.94,664.99,166.6,667.65,164.06,670.28z"/>
			<path class="st18" d="M201.96,706.59c0.12-2.83,0.61-6.31,2.96-5.4c3.62,1.41,0.48,4.93-0.19,6.92
				C203.79,710.91,202.51,708.93,201.96,706.59z"/>
			<path class="st18" d="M290.22,703.56c1.89,0.21,3.91-0.25,3.87,1.55c-0.06,2.39-2.38,1.74-3.83,1.74c-1.46,0-3.77,0.67-3.87-1.7
				C286.31,703.31,288.34,703.79,290.22,703.56z"/>
			<path class="st18" d="M244.47,731.42c2.53,0.88,3.54,2.36,2.71,4.5c-0.18,0.45-1.54,0.95-1.98,0.72
				C242.98,735.45,241.93,733.79,244.47,731.42z"/>
			<path class="st18" d="M143.33,553.58c0.9,2.6,0.12,4.19-2.01,4.84c-0.46,0.14-1.69-0.64-1.77-1.12
				C139.12,554.75,140.01,553.06,143.33,553.58z"/>
			<path class="st18" d="M173.84,670.87c3.47-0.04,2.44,2.05,2.03,3.77c-0.07,0.31-0.94,0.75-1.25,0.64
				C172.53,674.48,173.24,672.78,173.84,670.87z"/>
			<path class="st18" d="M147.41,518.85c1.71,1.28,2.09,2.67,0.69,3.7c-1.01,0.75-2.25,0.02-2.82-1
				C144.34,519.9,145.12,518.96,147.41,518.85z"/>
			<path class="st18" d="M146.74,590.96c0.63,1.49,0.6,2.57-0.69,2.98c-0.35,0.11-1.2-0.3-1.3-0.64
				C144.27,591.87,144.33,590.58,146.74,590.96z"/>
			<path class="st18" d="M138.01,520.89c-1.34,0.38-1.82-0.09-1.62-1.13c0.04-0.22,0.35-0.51,0.57-0.54
				C138.01,519.06,138.45,519.57,138.01,520.89z"/>
			<path class="st18" d="M189.09,721.57c0.38,1.34-0.09,1.82-1.13,1.62c-0.22-0.04-0.51-0.35-0.54-0.57
				C187.26,721.58,187.77,721.14,189.09,721.57z"/>
			<path class="st18" d="M201.87,751.12c0.18-1.03,0.18-2.27,1.55-2.53c0.29-0.05,0.7,0.55,1.05,0.86
				c-0.56,0.52-1.11,1.03-2.15,1.63C201.84,751.16,201.9,751.09,201.87,751.12z"/>
			<path class="st18" d="M168.94,650.97c-0.67,1.22-1.34,1.23-1.94,0.37c-0.12-0.18-0.12-0.61,0.01-0.78
				C167.63,649.7,168.3,649.73,168.94,650.97z"/>
			<path class="st18" d="M146.86,623.79c-0.67,1.22-1.34,1.24-1.93,0.37c-0.12-0.18-0.12-0.6,0.01-0.78
				C145.55,622.52,146.22,622.55,146.86,623.79z"/>
			<path class="st19" d="M237.93,775.2c1.07-1.6,2.05-1.48,2.54-0.2c0.22,0.59-0.08,1.88-0.54,2.13
				C238.64,777.85,238.04,776.92,237.93,775.2z"/>
			<path class="st18" d="M380.97,791.8c2.8-6.49,8.52-3.34,12.99-2.29c1.81,0.42-0.94,1.96-2.97,2.34
				C387.48,791.86,384.58,791.84,380.97,791.8z"/>
			<path class="st19" d="M293.51,791.23c-2.21,0.29-5.09,1.61-6.57-2.22C289.16,788.76,292.02,787.51,293.51,791.23z"/>
			<path class="st19" d="M279.98,781.1c-1.47,0.43-2.81,0.01-3.27-2.31C278.16,778.39,279.51,778.8,279.98,781.1z"/>
			<path class="st19" d="M269.72,767.54c-1.45,0.39-2.76-0.04-3.22-2.3C267.95,764.84,269.29,765.23,269.72,767.54z"/>
			<path class="st20" d="M631.6,342.79c-1.7,0.56-3.97,1.34-4.72-1.02c-0.79-2.51,1.12-3.18,3.73-3.57
				C631.33,339.47,631.42,340.8,631.6,342.79z"/>
			<path class="st20" d="M724.57,275.57c0.92,1.93,1.47,3.85,1.93,6.38c-3.16-0.27-3.17-2.75-3.1-5.84
				C723.49,275.49,724.21,275.56,724.57,275.57z"/>
			<path class="st15" d="M395.7,594.05c-2.31,2.45-5.1,6.23-5.28-0.55c-0.07-2.5,0.01-5,0.04-8.24c1.14-1.6,2.38-1.82,4.23-0.92
				C395.37,587.63,395.56,590.48,395.7,594.05z"/>
			<path class="st9" d="M395.32,584.14c-1.32,0.57-2.5,0.49-4.27,0.4c-0.62-2.92-0.66-5.83-0.61-9.45
				C394.46,576.17,395.6,579.49,395.32,584.14z"/>
			<path class="st24" d="M373.4,288.64c0.1,5.68-0.02,10.81-0.08,16.7c-6.12,10.95-14.77,16.02-27.68,13.71
				c-1.68-3.53-5.41-3.66-7.64-5.66c-5.87-5.28-9.14-17.52-5.91-24.36c3.37-7.14,14.62-12.57,22.44-11.45
				C362.23,278.68,369.19,280.61,373.4,288.64z"/>
		</g>
	</g>
	<path class="st18" d="M705.6,224.07c4.26,12.73,3.15,26.48,1.24,39.72c-2.38,16.43-6.41,33.61-18.31,45.75
		c-10.7,10.92-26.27,16.18-41.51,19.77c-10,2.36-20.35,4.17-30.58,2.95c-0.83,0.89-0.82,2.37,0.01,3.25"/>
	<path class="st18" d="M716.82,209.63c0.83,32.62,2.48,67.57,23.02,93.72c19.81,25.22,56.41,37.32,88.43,29.24"/>
	<path class="st18" d="M810.25,341.79c-13,0.63-26.12,1.28-38.65,4.64c-12.53,3.35-24.58,9.69-32.21,19.71
		c-4.71,6.2-7.53,13.5-9.85,20.82c-6.05,19.14-9.06,39.14-8.89,59.13c0.04,5.19,0.33,10.51,2.46,15.29c1.02,2.3,2.46,4.43,4.24,6.28
		"/>
	<path class="st18" d="M618.7,342.42c23.6,0.88,49.6,2.71,66.27,18.6c12.44,11.87,16.89,29.15,20.11,45.61
		c3.25,16.56,5.79,33.24,7.63,49.99"/>
	<path class="st18" d="M747.49,361.52c-12.34,13.27-20.19,29.85-25.13,46.92c-4.94,17.07-7.13,34.73-9.3,52.31"/>
	<path class="st18" d="M814.23,340.43c-13.42-0.5-27.11-0.4-39.95,3.37c-12.83,3.77-24.87,11.71-30.46,23.31
		c-3.17,6.57-4.12,13.88-5.03,21.05"/>
	<path class="st18" d="M722.9,224.85c-0.93,13.39-1.86,26.86-0.28,40.19c1.58,13.33,5.83,26.65,14.33,37.36
		c8.41,10.58,20.86,18.2,34.48,21.1"/>
	<path class="st18" d="M395.5,420.09c0.89,12.59-1.6,25.16-4.08,37.56c-3.3,16.49-7.47,34.41-21.24,44.92
		c-9.89,7.55-23,9.83-35.5,11.86c-7.41,1.2-14.81,2.41-22.22,3.61c-3.45,0.56-7.08,1.11-10.38,0s-6.04-4.47-5.03-7.66"/>
	<path class="st18" d="M411.76,407.6c-6.22,20.15-6.71,41.87-1.41,62.25c2.73,10.48,7.25,21.02,15.79,28.14
		c5.66,4.72,12.74,7.64,19.87,9.96c19.95,6.47,41.4,8.74,62.36,6.59"/>
	<path class="st18" d="M488.78,524.65c-20.74-4.74-43.76,2.57-58.17,17.53c-14.4,14.95-20.08,36.76-15.79,56.61
		c1.68,7.8,4.78,15.9,2.19,23.48"/>
	<path class="st18" d="M317.3,523.69c25.79-3.22,53.01,9.02,66.72,30.01c13.2,20.21,13.69,45.42,13.15,69.2"/>
	<path class="st18" d="M306.33,510.21c13.19,0.6,26.56,4.28,39.38,1.29c17.94-4.19,29.96-20.4,36.51-36.8
		c6.55-16.4,9.36-34.14,17.63-49.83"/>
	<path class="st23" d="M383.6,287.92c-5.58-11.42-17.29-20.22-30.45-21.71c-13.16-1.49-27.22,4.93-33.3,16.12s-3,26.45,7.64,33.97
		c3.81,2.7,8.33,4.37,12.92,5.55c4.55,1.17,9.27,1.9,13.97,1.62c9.54-0.56,18.69-5.44,24.16-12.88
		C384,303.16,386.14,293.12,383.6,287.92z"/>
	<path class="st23" d="M688.41,638.29c-7.53-5-13.13-12.81-21.74-15.85c-8.69-3.07-19.11-0.19-25.33,6.34
		c-6.22,6.53-8.26,16.18-5.99,24.72c2.6,9.75,11.29,18.28,21.83,19.31c9.07,0.88,18.19-3.92,23.22-11.15
		c5.03-7.22,6.21-16.49,4.36-24.96c-0.11-0.53-0.29-1.11-0.78-1.37C683.49,635.06,682.68,635.51,688.41,638.29z"/>
</g>
</svg>
